%FSLAX44Y44*%
%MOMM*%
G71*
G01*
G75*
G04 Layer_Color=8421504*
%ADD10R,0.7000X1.0000*%
%ADD11R,0.6000X1.8000*%
%ADD12R,1.5000X2.8000*%
%ADD13R,1.0000X0.7000*%
%ADD14R,0.5700X0.5700*%
%ADD15R,0.4700X0.6700*%
%ADD16R,0.6700X0.5500*%
%ADD17O,0.3000X0.9000*%
%ADD18O,0.9000X0.3000*%
%ADD19R,2.3000X2.3000*%
%ADD20R,0.2000X0.6000*%
%ADD21R,1.0000X0.3000*%
%ADD22R,0.9000X0.3200*%
%ADD23R,0.3000X0.9000*%
%ADD24C,0.2000*%
%ADD25R,1.5000X1.5000*%
%ADD26C,1.5000*%
%ADD27C,5.0000*%
%ADD28C,1.0000*%
%ADD29C,0.2500*%
%ADD30C,0.1000*%
%ADD31C,0.2540*%
%ADD32C,0.0010*%
%ADD33C,0.2032*%
D10*
X1883460Y311170D02*
D03*
X1902460D02*
D03*
X1844700Y371090D02*
D03*
X1863700D02*
D03*
X1883460Y331370D02*
D03*
X1902460D02*
D03*
Y350800D02*
D03*
X1883460D02*
D03*
D11*
X1946300Y259240D02*
D03*
X1965300D02*
D03*
X1955800Y279240D02*
D03*
D12*
X1950460Y401320D02*
D03*
X1981460D02*
D03*
D13*
X1984780Y361340D02*
D03*
Y380340D02*
D03*
X1900170Y410820D02*
D03*
Y391820D02*
D03*
X1795610Y444900D02*
D03*
Y425900D02*
D03*
X1795708Y396900D02*
D03*
Y415900D02*
D03*
X1840656Y308516D02*
D03*
Y327516D02*
D03*
X1795610Y365260D02*
D03*
Y346260D02*
D03*
X1917860Y440480D02*
D03*
Y459480D02*
D03*
X1898380Y440480D02*
D03*
Y459480D02*
D03*
D14*
X1941570Y315342D02*
D03*
X1957570D02*
D03*
X1941570Y366638D02*
D03*
X1957570D02*
D03*
D15*
X1949570Y314552D02*
D03*
Y367428D02*
D03*
D16*
X1970280Y362320D02*
D03*
Y354423D02*
D03*
Y346526D02*
D03*
Y338629D02*
D03*
Y330732D02*
D03*
Y322835D02*
D03*
X1928870D02*
D03*
Y330732D02*
D03*
Y338629D02*
D03*
Y346526D02*
D03*
Y354423D02*
D03*
Y362320D02*
D03*
D17*
X1865740Y437500D02*
D03*
X1860740D02*
D03*
X1855740D02*
D03*
X1850740D02*
D03*
X1845740D02*
D03*
X1840740D02*
D03*
Y396500D02*
D03*
X1845740D02*
D03*
X1850740D02*
D03*
X1855740D02*
D03*
X1860740D02*
D03*
X1865740D02*
D03*
D18*
X1832740Y429500D02*
D03*
Y424500D02*
D03*
Y419500D02*
D03*
Y414500D02*
D03*
Y409500D02*
D03*
Y404500D02*
D03*
X1873740D02*
D03*
Y409500D02*
D03*
Y414500D02*
D03*
Y419500D02*
D03*
Y424500D02*
D03*
Y429500D02*
D03*
D19*
X1853240Y417000D02*
D03*
D20*
X1843710Y347020D02*
D03*
X1835710D02*
D03*
X1839710Y345020D02*
D03*
D21*
Y340520D02*
D03*
Y351520D02*
D03*
D22*
X1824180Y317000D02*
D03*
X1797180D02*
D03*
D23*
X1800680Y330500D02*
D03*
X1805680D02*
D03*
X1815680D02*
D03*
X1820680D02*
D03*
Y303500D02*
D03*
X1815680D02*
D03*
X1810680D02*
D03*
X1805680D02*
D03*
X1800680D02*
D03*
X1810680Y330500D02*
D03*
M02*
