%FSLAX44Y44*%
%MOMM*%
G71*
G01*
G75*
G04 Layer_Physical_Order=1*
G04 Layer_Color=255*
%ADD10R,0.7000X1.0000*%
%ADD11R,0.6000X1.8000*%
%ADD12R,1.5000X2.8000*%
%ADD13R,1.0000X0.7000*%
%ADD14R,0.5700X0.5700*%
%ADD15R,0.4700X0.6700*%
%ADD16R,0.6700X0.5500*%
%ADD17O,0.3000X0.9000*%
%ADD18O,0.9000X0.3000*%
%ADD19R,2.3000X2.3000*%
%ADD20R,0.2000X0.6000*%
%ADD21R,1.0000X0.3000*%
%ADD22R,0.9000X0.3200*%
%ADD23R,0.3000X0.9000*%
%ADD24C,0.2000*%
%ADD25R,1.5000X1.5000*%
%ADD26C,1.5000*%
%ADD27C,5.0000*%
%ADD28C,1.0000*%
G36*
X1866099Y464015D02*
X1864977Y462553D01*
X1864272Y460850D01*
X1864198Y460292D01*
X1871094D01*
Y459025D01*
X1872361D01*
Y452129D01*
X1872919Y452203D01*
X1874621Y452908D01*
X1876084Y454030D01*
X1877206Y455492D01*
X1877206D01*
X1877206D01*
X1878258Y455258D01*
X1878743Y454885D01*
Y453615D01*
X1878258Y453242D01*
X1877135Y451780D01*
X1876430Y450077D01*
X1876190Y448250D01*
X1876430Y446423D01*
X1877135Y444720D01*
X1878258Y443258D01*
X1879720Y442136D01*
X1880312Y441890D01*
X1880560Y440645D01*
X1872983Y433068D01*
X1870740D01*
X1870074Y432936D01*
X1869176Y433834D01*
X1869309Y434500D01*
Y436230D01*
X1865738D01*
Y437497D01*
X1864470D01*
Y443816D01*
X1864375Y443797D01*
X1863240Y443039D01*
X1862106Y443797D01*
X1860740Y444068D01*
X1859374Y443797D01*
X1858240Y443039D01*
X1857106Y443797D01*
X1855740Y444068D01*
X1854375Y443797D01*
X1853240Y443039D01*
X1852106Y443797D01*
X1850740Y444068D01*
X1849374Y443797D01*
X1848240Y443039D01*
X1847106Y443797D01*
X1845740Y444068D01*
X1844375Y443797D01*
X1843240Y443039D01*
X1842106Y443797D01*
X1840740Y444068D01*
X1839374Y443797D01*
X1838217Y443023D01*
X1837443Y441865D01*
X1837171Y440500D01*
Y434500D01*
X1837304Y433834D01*
X1836406Y432936D01*
X1835740Y433068D01*
X1829740D01*
X1828374Y432797D01*
X1827217Y432023D01*
X1826443Y430865D01*
X1826172Y429500D01*
X1826362Y428540D01*
X1825557Y427559D01*
X1819331D01*
X1817977Y428913D01*
X1816984Y429576D01*
X1815814Y429809D01*
X1815814Y429809D01*
X1812017D01*
X1802556Y439270D01*
X1802610Y439400D01*
X1802610D01*
X1802610Y439400D01*
Y447574D01*
X1820227Y465191D01*
X1865196D01*
X1866099Y464015D01*
D02*
G37*
G36*
X1788610Y367934D02*
Y359760D01*
X1802610D01*
Y362201D01*
X1804973D01*
X1812621Y354553D01*
Y351500D01*
X1812621Y351500D01*
X1812621Y351500D01*
Y337000D01*
X1811950D01*
Y330498D01*
X1809410D01*
Y337000D01*
X1808088D01*
X1808006Y337413D01*
X1807740Y337811D01*
X1807343Y338406D01*
X1807343Y338406D01*
X1803826Y341923D01*
X1802834Y342586D01*
X1802610Y342630D01*
Y344990D01*
X1788610D01*
Y341339D01*
X1787655Y340502D01*
X1787087Y340577D01*
X1785260Y340336D01*
X1783557Y339631D01*
X1783229Y339379D01*
X1782090Y339941D01*
Y372795D01*
X1783264Y373281D01*
X1788610Y367934D01*
D02*
G37*
G36*
Y440375D02*
Y439400D01*
X1793774D01*
X1800601Y432573D01*
X1800115Y431400D01*
X1796880D01*
Y425897D01*
X1795612D01*
Y424630D01*
X1788610D01*
Y420400D01*
X1788708D01*
Y417170D01*
X1795711D01*
Y415903D01*
X1796978D01*
Y410400D01*
X1801415D01*
X1801901Y409227D01*
X1795074Y402400D01*
X1788708D01*
Y391400D01*
X1802708D01*
Y401383D01*
X1809017Y407691D01*
X1815814D01*
X1815814Y407691D01*
X1816984Y407924D01*
X1817977Y408587D01*
X1820831Y411441D01*
X1825557D01*
X1826362Y410460D01*
X1826424Y410770D01*
X1832743D01*
Y408230D01*
X1826424D01*
X1826443Y408134D01*
X1827201Y407000D01*
X1826443Y405866D01*
X1826172Y404500D01*
X1826443Y403134D01*
X1827217Y401977D01*
X1828374Y401203D01*
X1829681Y400943D01*
Y396507D01*
X1819834Y386660D01*
X1818779Y387366D01*
X1819320Y388673D01*
X1819393Y389230D01*
X1805607D01*
X1805680Y388673D01*
X1806385Y386970D01*
X1807508Y385508D01*
X1808970Y384385D01*
X1809657Y384101D01*
X1810104Y383519D01*
X1810313Y382739D01*
X1809386Y381530D01*
X1808680Y379827D01*
X1808440Y378000D01*
X1808680Y376173D01*
X1809386Y374470D01*
X1810508Y373008D01*
X1811970Y371885D01*
X1813673Y371180D01*
X1815500Y370940D01*
X1817327Y371180D01*
X1819030Y371885D01*
X1820492Y373008D01*
X1821615Y374470D01*
X1822320Y376173D01*
X1822560Y378000D01*
X1822320Y379827D01*
X1822124Y380299D01*
X1834903Y393077D01*
X1835566Y394070D01*
X1835799Y395240D01*
X1835799Y395240D01*
X1835799Y395240D01*
Y395240D01*
Y400012D01*
X1836972Y400498D01*
X1837304Y400166D01*
X1837171Y399500D01*
Y393500D01*
X1837443Y392135D01*
X1837681Y391778D01*
Y375841D01*
X1836542Y375280D01*
X1835780Y375864D01*
X1834077Y376570D01*
X1832250Y376810D01*
X1830423Y376570D01*
X1828720Y375864D01*
X1827258Y374743D01*
X1826136Y373280D01*
X1825430Y371577D01*
X1825190Y369750D01*
X1825430Y367923D01*
X1826136Y366220D01*
X1827258Y364758D01*
X1828720Y363635D01*
X1830423Y362930D01*
X1832250Y362690D01*
X1834077Y362930D01*
X1835780Y363635D01*
X1837242Y364758D01*
X1837997Y365741D01*
X1839200Y365333D01*
Y364090D01*
X1841641D01*
Y357777D01*
X1838884Y355020D01*
X1832710D01*
Y354579D01*
X1818739D01*
Y355820D01*
X1818506Y356991D01*
X1817843Y357983D01*
X1808403Y367423D01*
X1807410Y368086D01*
X1806240Y368319D01*
X1806240Y368319D01*
X1802610D01*
Y370760D01*
X1794436D01*
X1786109Y379087D01*
Y439533D01*
X1787437Y440861D01*
X1788610Y440375D01*
D02*
G37*
G36*
X2067910Y242090D02*
X1782090D01*
Y294090D01*
X1783229Y294652D01*
X1783557Y294400D01*
X1785260Y293695D01*
X1787087Y293454D01*
X1788915Y293695D01*
X1790617Y294400D01*
X1792080Y295522D01*
X1793202Y296985D01*
X1793907Y298687D01*
X1794148Y300515D01*
X1793907Y302342D01*
X1793202Y304045D01*
X1792080Y305507D01*
X1790617Y306629D01*
X1788915Y307334D01*
X1787087Y307575D01*
X1786309Y308258D01*
Y318483D01*
X1790283Y322458D01*
X1790401D01*
X1790401Y322458D01*
X1791571Y322690D01*
X1792564Y323353D01*
X1796007Y326796D01*
X1797180Y326310D01*
Y324000D01*
X1804653D01*
X1805215Y322861D01*
X1804386Y321780D01*
X1803897Y320600D01*
X1803680D01*
X1803680Y320600D01*
X1803680Y320600D01*
X1790680D01*
Y313400D01*
X1803680D01*
Y313664D01*
X1804883Y314072D01*
X1805508Y313258D01*
X1806970Y312136D01*
X1808673Y311430D01*
X1809230Y311357D01*
Y318253D01*
X1811770D01*
Y311357D01*
X1812327Y311430D01*
X1814030Y312136D01*
X1815493Y313258D01*
X1816478Y314541D01*
X1817680Y314133D01*
Y313400D01*
X1830680D01*
Y320600D01*
X1818214D01*
X1818214Y320600D01*
X1818214Y320600D01*
X1817680Y320600D01*
X1817680D01*
X1817103D01*
X1816615Y321780D01*
X1815493Y323242D01*
X1815750Y324000D01*
X1824180D01*
Y333433D01*
X1825134Y334270D01*
X1824480Y334356D01*
Y341253D01*
X1827020D01*
Y334357D01*
X1827577Y334430D01*
X1829280Y335135D01*
X1830742Y336258D01*
X1831328Y337020D01*
X1832710Y337020D01*
Y337020D01*
X1839569D01*
X1842400Y334190D01*
X1841914Y333017D01*
X1841926D01*
Y327514D01*
Y322016D01*
X1845598D01*
Y317783D01*
X1841830Y314016D01*
X1833656D01*
Y305842D01*
X1828279Y300465D01*
X1824829D01*
X1824829Y300465D01*
X1824180Y300998D01*
Y310000D01*
X1811173D01*
X1811090Y311267D01*
X1810500Y311189D01*
X1809910Y311267D01*
X1809827Y310000D01*
X1797180D01*
Y297000D01*
X1797621D01*
Y286006D01*
X1797621Y286006D01*
X1797854Y284836D01*
X1798517Y283843D01*
X1815759Y266602D01*
X1815759Y266602D01*
X1816354Y266204D01*
X1816751Y265939D01*
X1817922Y265706D01*
X1832210D01*
X1832606Y264749D01*
X1833728Y263287D01*
X1835190Y262165D01*
X1836893Y261460D01*
X1838721Y261219D01*
X1840548Y261460D01*
X1842251Y262165D01*
X1843713Y263287D01*
X1844835Y264749D01*
X1845540Y266452D01*
X1845781Y268279D01*
X1845540Y270107D01*
X1844835Y271810D01*
X1843713Y273272D01*
X1842251Y274394D01*
X1840548Y275099D01*
X1838721Y275340D01*
X1838114Y275260D01*
X1837216Y276158D01*
X1837296Y276765D01*
X1837055Y278592D01*
X1836350Y280295D01*
X1835228Y281757D01*
X1833766Y282879D01*
X1832063Y283584D01*
X1830235Y283825D01*
X1829628Y283745D01*
X1828730Y284643D01*
X1828810Y285250D01*
X1828570Y287077D01*
X1827865Y288780D01*
X1826742Y290242D01*
X1825280Y291364D01*
X1823577Y292070D01*
X1823347Y292369D01*
X1823423Y292941D01*
X1824593Y293174D01*
X1825586Y293837D01*
X1826096Y294347D01*
X1829546D01*
X1829546Y294347D01*
X1830717Y294580D01*
X1831709Y295243D01*
X1839482Y303016D01*
X1847656D01*
Y311190D01*
X1850819Y314353D01*
X1851482Y315345D01*
X1851715Y316516D01*
Y318144D01*
X1852961Y318392D01*
X1853136Y317970D01*
X1854258Y316507D01*
X1855720Y315385D01*
X1857423Y314680D01*
X1857980Y314607D01*
Y321497D01*
Y328393D01*
X1857423Y328320D01*
X1855720Y327615D01*
X1854258Y326492D01*
X1853136Y325030D01*
X1852961Y324608D01*
X1851715Y324856D01*
Y332259D01*
X1851715Y332259D01*
X1851482Y333429D01*
X1851387Y333572D01*
X1851840Y334456D01*
X1851840D01*
Y334456D01*
D01*
X1853668Y334697D01*
X1855371Y335402D01*
X1856833Y336524D01*
X1857955Y337986D01*
X1858660Y339689D01*
X1858901Y341517D01*
X1858660Y343344D01*
X1857955Y345047D01*
X1856833Y346509D01*
X1855371Y347631D01*
X1853668Y348336D01*
X1851840Y348577D01*
X1850013Y348336D01*
X1848310Y347631D01*
X1847908Y347322D01*
X1846769Y347884D01*
Y349262D01*
X1846769Y349263D01*
X1846710Y349558D01*
Y352020D01*
Y354194D01*
X1846863Y354347D01*
X1846863Y354347D01*
X1847260Y354942D01*
X1847526Y355340D01*
X1847759Y356510D01*
Y364090D01*
X1850200D01*
Y378090D01*
X1843799D01*
Y389317D01*
X1844780Y390122D01*
X1845740Y389931D01*
X1847106Y390203D01*
X1848240Y390961D01*
X1849374Y390203D01*
X1850740Y389931D01*
X1852106Y390203D01*
X1853240Y390961D01*
X1854375Y390203D01*
X1855740Y389931D01*
X1857106Y390203D01*
X1858240Y390961D01*
X1859374Y390203D01*
X1860740Y389931D01*
X1862106Y390203D01*
X1863240Y390961D01*
X1864375Y390203D01*
X1864470Y390184D01*
Y396503D01*
X1865738D01*
Y397770D01*
X1869309D01*
Y399500D01*
X1869176Y400166D01*
X1870074Y401064D01*
X1870740Y400932D01*
X1876740D01*
X1878106Y401203D01*
X1879264Y401977D01*
X1880037Y403134D01*
X1880309Y404500D01*
X1880037Y405866D01*
X1880345Y406441D01*
X1893170D01*
Y405320D01*
X1907170D01*
Y416320D01*
X1893170D01*
Y412559D01*
X1880924D01*
X1880118Y413540D01*
X1880309Y414500D01*
X1880037Y415866D01*
X1879279Y417000D01*
X1880037Y418134D01*
X1880309Y419500D01*
X1880037Y420865D01*
X1880750Y421441D01*
X1880750Y421441D01*
Y421441D01*
X1881921Y421674D01*
X1882913Y422337D01*
X1891497Y430921D01*
X1904623D01*
X1904623Y430921D01*
X1905793Y431154D01*
X1906786Y431817D01*
X1910216Y435247D01*
X1910860Y434980D01*
Y434980D01*
X1910860Y434980D01*
X1924860D01*
Y445980D01*
X1916686D01*
X1907523Y455143D01*
X1906531Y455806D01*
X1905380Y456035D01*
Y456421D01*
X1910860D01*
Y453980D01*
X1924860D01*
Y462154D01*
X1946147Y483441D01*
X1953859D01*
X1954107Y482196D01*
X1952717Y481620D01*
X1949094Y479399D01*
X1945862Y476640D01*
X1943102Y473408D01*
X1940882Y469784D01*
X1939255Y465858D01*
X1938263Y461725D01*
X1937930Y457489D01*
X1938263Y453252D01*
X1939255Y449119D01*
X1940882Y445193D01*
X1943102Y441569D01*
X1945862Y438338D01*
X1949094Y435578D01*
X1952717Y433357D01*
X1956644Y431731D01*
X1960776Y430738D01*
X1965013Y430405D01*
X1969250Y430738D01*
X1973382Y431731D01*
X1977309Y433357D01*
X1980932Y435578D01*
X1984164Y438338D01*
X1986924Y441569D01*
X1989145Y445193D01*
X1990771Y449119D01*
X1991763Y453252D01*
X1992097Y457489D01*
X1991763Y461725D01*
X1990771Y465858D01*
X1989145Y469784D01*
X1986924Y473408D01*
X1984164Y476640D01*
X1980932Y479399D01*
X1977309Y481620D01*
X1973382Y483246D01*
X1973405Y483441D01*
X1986193D01*
X2007260Y462374D01*
Y447700D01*
X2026260D01*
Y462374D01*
X2032327Y468441D01*
X2047983D01*
X2051191Y465233D01*
Y463011D01*
X2049989Y462603D01*
X2048935Y463975D01*
X2046951Y465498D01*
X2044640Y466455D01*
X2043430Y466615D01*
Y457197D01*
Y447785D01*
X2042945Y447721D01*
X2043507Y446582D01*
X2042683Y445759D01*
X2010700D01*
X2009530Y445526D01*
X2008537Y444863D01*
X1980994Y417320D01*
X1971960D01*
Y405798D01*
X1970757Y405390D01*
X1970088Y406262D01*
X1968626Y407384D01*
X1966923Y408089D01*
X1965096Y408330D01*
X1963268Y408089D01*
X1961566Y407384D01*
X1961099Y407026D01*
X1959960Y407588D01*
Y417320D01*
X1951730D01*
Y401317D01*
Y385320D01*
X1959960D01*
Y394952D01*
X1961099Y395513D01*
X1961566Y395155D01*
X1963268Y394450D01*
X1965096Y394209D01*
X1966923Y394450D01*
X1968626Y395155D01*
X1970088Y396277D01*
X1970757Y397149D01*
X1971960Y396741D01*
Y385320D01*
X1977780D01*
Y381610D01*
X1984783D01*
Y380343D01*
X1986050D01*
Y374840D01*
X1991294D01*
Y366840D01*
X1977780D01*
Y357482D01*
X1975630D01*
Y357570D01*
Y361050D01*
X1964930D01*
Y357570D01*
Y357482D01*
X1959173D01*
X1958002Y357249D01*
X1957010Y356586D01*
X1957010Y356586D01*
X1935393Y334969D01*
X1934220Y335455D01*
Y341776D01*
Y349673D01*
Y357570D01*
Y361050D01*
X1923520D01*
Y357570D01*
Y357482D01*
X1918659D01*
X1917953Y358538D01*
X1918320Y359423D01*
X1918560Y361250D01*
X1918320Y363077D01*
X1917614Y364780D01*
X1916492Y366242D01*
X1915030Y367365D01*
X1913327Y368070D01*
X1911500Y368310D01*
X1909673Y368070D01*
X1907970Y367365D01*
X1906508Y366242D01*
X1905385Y364780D01*
X1904680Y363077D01*
X1904440Y361250D01*
X1904680Y359423D01*
X1904915Y358856D01*
X1904209Y357800D01*
X1900733D01*
X1899896Y358755D01*
X1900020Y359699D01*
X1899780Y361527D01*
X1899074Y363229D01*
X1897952Y364692D01*
X1896490Y365814D01*
X1894787Y366519D01*
X1892960Y366760D01*
X1891133Y366519D01*
X1889430Y365814D01*
X1887967Y364692D01*
X1886845Y363229D01*
X1886140Y361527D01*
X1885900Y359699D01*
X1886024Y358755D01*
X1885186Y357800D01*
X1884730D01*
Y350797D01*
Y343800D01*
X1888960D01*
Y343800D01*
X1889391D01*
X1889901Y343290D01*
Y343290D01*
Y343290D01*
X1890134Y342120D01*
X1890797Y341127D01*
X1894087Y337837D01*
X1894087Y337837D01*
X1894682Y337440D01*
X1895079Y337174D01*
X1896250Y336941D01*
X1896960D01*
Y330196D01*
X1890337Y323573D01*
X1889674Y322580D01*
X1889441Y321410D01*
X1889441Y321410D01*
Y318170D01*
X1889441D01*
X1888960D01*
X1888543Y318170D01*
X1888543Y318170D01*
Y318170D01*
X1884730D01*
Y311167D01*
Y304170D01*
X1888960D01*
Y305711D01*
X1890175Y306080D01*
X1890337Y305837D01*
X1899279Y296895D01*
X1898493Y295898D01*
X1897296Y296631D01*
X1893369Y298258D01*
X1889237Y299250D01*
X1885000Y299583D01*
X1880763Y299250D01*
X1876631Y298258D01*
X1872704Y296631D01*
X1869081Y294411D01*
X1865849Y291651D01*
X1863089Y288419D01*
X1860869Y284795D01*
X1859242Y280869D01*
X1858250Y276737D01*
X1857917Y272500D01*
X1858250Y268263D01*
X1859242Y264131D01*
X1860869Y260204D01*
X1863089Y256581D01*
X1865849Y253349D01*
X1869081Y250589D01*
X1872704Y248368D01*
X1876631Y246742D01*
X1880763Y245750D01*
X1885000Y245416D01*
X1889237Y245750D01*
X1893369Y246742D01*
X1897296Y248368D01*
X1900919Y250589D01*
X1904151Y253349D01*
X1906911Y256581D01*
X1909132Y260204D01*
X1910758Y264131D01*
X1911750Y268263D01*
X1912083Y272500D01*
X1911750Y276737D01*
X1910758Y280869D01*
X1909132Y284795D01*
X1908398Y285993D01*
X1909395Y286779D01*
X1939097Y257077D01*
Y257077D01*
D01*
Y257077D01*
X1939097Y257077D01*
D01*
D01*
X1939097D01*
X1939097Y257077D01*
Y257077D01*
Y257077D01*
D01*
D01*
X1939097D01*
Y257077D01*
X1940089Y256414D01*
X1941260Y256181D01*
X1941300D01*
Y248240D01*
X1951300D01*
Y268240D01*
X1954530D01*
Y277970D01*
X1950800D01*
Y270240D01*
X1941300D01*
Y265185D01*
X1940127Y264699D01*
X1901829Y302997D01*
X1902315Y304170D01*
X1907960D01*
Y308111D01*
X1937398D01*
X1937398Y308111D01*
X1938568Y308344D01*
X1939561Y309007D01*
X1941046Y310492D01*
X1945220D01*
Y309202D01*
X1953920D01*
Y310492D01*
X1956300D01*
Y315340D01*
Y320192D01*
X1952720D01*
Y319902D01*
X1946420D01*
Y320192D01*
X1936720D01*
Y314818D01*
X1936131Y314229D01*
X1907960D01*
Y316166D01*
X1909099Y316728D01*
X1909220Y316635D01*
X1910923Y315930D01*
X1911480Y315857D01*
Y322752D01*
X1912747D01*
Y324020D01*
X1919643D01*
X1919570Y324577D01*
X1918864Y326280D01*
X1917742Y327742D01*
X1917935Y328311D01*
X1923520D01*
Y325982D01*
Y324105D01*
X1934220D01*
Y325982D01*
Y328311D01*
X1936120D01*
X1936120Y328311D01*
X1937290Y328544D01*
X1938283Y329207D01*
X1960440Y351364D01*
X1964930D01*
Y349673D01*
Y341776D01*
Y333879D01*
Y325982D01*
Y318085D01*
X1967221D01*
Y306426D01*
X1966470Y306115D01*
X1965008Y304993D01*
X1963885Y303530D01*
X1963180Y301827D01*
X1962940Y300000D01*
X1963180Y298173D01*
X1963885Y296470D01*
X1965008Y295008D01*
X1966470Y293885D01*
X1968173Y293180D01*
X1970000Y292940D01*
X1971827Y293180D01*
X1973530Y293885D01*
X1974992Y295008D01*
X1976115Y296470D01*
X1976168Y296598D01*
X1977427Y296764D01*
X1978008Y296008D01*
X1979470Y294886D01*
X1981173Y294180D01*
X1983000Y293940D01*
X1984827Y294180D01*
X1986530Y294886D01*
X1987992Y296008D01*
X1989115Y297470D01*
X1989820Y299173D01*
X1990060Y301000D01*
X1989820Y302827D01*
X1989115Y304530D01*
X1987992Y305993D01*
X1986530Y307115D01*
X1986484Y307345D01*
X1994663Y315523D01*
X1994663Y315523D01*
X1995060Y316118D01*
X1995326Y316516D01*
X1995559Y317686D01*
Y318804D01*
X1995576Y318829D01*
X1995809Y320000D01*
Y334814D01*
X1995809Y334814D01*
X1995809Y334814D01*
Y334814D01*
X1995809D01*
X1995809Y334814D01*
X1995576Y335984D01*
X1995310Y336382D01*
X1994913Y336977D01*
X1994913Y336977D01*
X1991442Y340448D01*
X1991928Y341621D01*
X1997353D01*
X1997353Y341621D01*
X1998523Y341854D01*
X1999516Y342517D01*
X2006663Y349664D01*
X2006663Y349664D01*
X2007303Y350623D01*
X2008573Y350664D01*
X2009984Y348825D01*
X2011969Y347302D01*
X2014280Y346344D01*
X2016760Y346018D01*
X2019240Y346344D01*
X2021362Y347224D01*
X2022370Y346451D01*
X2022307Y345970D01*
X2027930D01*
Y351593D01*
X2027373Y351520D01*
X2026467Y351145D01*
X2025569Y352043D01*
X2026015Y353120D01*
X2026342Y355600D01*
X2026015Y358080D01*
X2025058Y360391D01*
X2023535Y362375D01*
X2021551Y363898D01*
X2019240Y364855D01*
X2016760Y365182D01*
X2014280Y364855D01*
X2011969Y363898D01*
X2009984Y362375D01*
X2008761Y360781D01*
X2007559Y361190D01*
Y367473D01*
X2012548Y372462D01*
X2014280Y371744D01*
X2016760Y371418D01*
X2019240Y371744D01*
X2021551Y372702D01*
X2023535Y374225D01*
X2025058Y376209D01*
X2026015Y378520D01*
X2026342Y381000D01*
X2026015Y383480D01*
X2025058Y385791D01*
X2023535Y387775D01*
X2021551Y389298D01*
X2019240Y390256D01*
X2016760Y390582D01*
X2014280Y390256D01*
X2011969Y389298D01*
X2009984Y387775D01*
X2008462Y385791D01*
X2007504Y383480D01*
X2007178Y381000D01*
X2007504Y378520D01*
X2008222Y376788D01*
X2002337Y370903D01*
X2001674Y369911D01*
X2001441Y368740D01*
X2001441Y368740D01*
Y353094D01*
X1996086Y347739D01*
X1975630D01*
Y349673D01*
Y351364D01*
X1985250D01*
X1985250Y351364D01*
X1985250Y351364D01*
X1994353D01*
X1995524Y351597D01*
X1996516Y352260D01*
X1997179Y353252D01*
X1997412Y354423D01*
Y388427D01*
X1997412Y388427D01*
X1997179Y389598D01*
X1996516Y390590D01*
X1996516Y390590D01*
X1990960Y396146D01*
Y417320D01*
X1990960Y417320D01*
X1990960D01*
X1990575Y418249D01*
X2006244Y433918D01*
X2007383Y433357D01*
X2007178Y431800D01*
X2007504Y429320D01*
X2008462Y427009D01*
X2009984Y425024D01*
X2011969Y423502D01*
X2014280Y422545D01*
X2016760Y422218D01*
X2019240Y422545D01*
X2021551Y423502D01*
X2023535Y425024D01*
X2025058Y427009D01*
X2026015Y429320D01*
X2026342Y431800D01*
X2026015Y434280D01*
X2025058Y436591D01*
X2023535Y438575D01*
X2023897Y439641D01*
X2034767D01*
X2035328Y438502D01*
X2033862Y436591D01*
X2032905Y434280D01*
X2032578Y431800D01*
X2032905Y429320D01*
X2033862Y427009D01*
X2035385Y425024D01*
X2037369Y423502D01*
X2039680Y422545D01*
X2042160Y422218D01*
X2044640Y422545D01*
X2046951Y423502D01*
X2048935Y425024D01*
X2050458Y427009D01*
X2051416Y429320D01*
X2051742Y431800D01*
X2051416Y434280D01*
X2050458Y436591D01*
X2048935Y438575D01*
X2046951Y440098D01*
X2046122Y440441D01*
X2046113Y440537D01*
X2056413Y450837D01*
X2057076Y451829D01*
X2057309Y453000D01*
Y466500D01*
X2057309Y466500D01*
X2057076Y467671D01*
X2056413Y468663D01*
X2051413Y473663D01*
X2050421Y474326D01*
X2049250Y474559D01*
X2049250Y474559D01*
X2031060D01*
X2031060Y474559D01*
X2029890Y474326D01*
X2028897Y473663D01*
X2021934Y466700D01*
X2011586D01*
X1991549Y486737D01*
X1992035Y487910D01*
X2067910D01*
Y242090D01*
D02*
G37*
%LPC*%
G36*
X1882190Y330100D02*
X1877960D01*
Y324370D01*
X1882190D01*
Y330100D01*
D02*
G37*
G36*
X1888960D02*
X1884730D01*
Y324370D01*
X1888960D01*
Y330100D01*
D02*
G37*
G36*
X1839386Y333016D02*
X1833656D01*
Y328786D01*
X1839386D01*
Y333016D01*
D02*
G37*
G36*
Y326246D02*
X1833656D01*
Y322016D01*
X1839386D01*
Y326246D01*
D02*
G37*
G36*
X2016760Y339782D02*
X2014280Y339455D01*
X2011969Y338498D01*
X2009984Y336975D01*
X2008462Y334991D01*
X2007504Y332680D01*
X2007178Y330200D01*
X2007504Y327720D01*
X2008462Y325409D01*
X2009984Y323425D01*
X2011969Y321902D01*
X2014280Y320945D01*
X2016760Y320618D01*
X2019240Y320945D01*
X2021551Y321902D01*
X2023535Y323425D01*
X2025058Y325409D01*
X2026015Y327720D01*
X2026342Y330200D01*
X2026015Y332680D01*
X2025058Y334991D01*
X2023535Y336975D01*
X2021551Y338498D01*
X2019240Y339455D01*
X2016760Y339782D01*
D02*
G37*
G36*
X1860520Y328393D02*
Y322770D01*
X1866143D01*
X1866070Y323327D01*
X1865365Y325030D01*
X1864242Y326492D01*
X1862780Y327615D01*
X1861077Y328320D01*
X1860520Y328393D01*
D02*
G37*
G36*
X1934220Y321565D02*
X1930140D01*
Y318085D01*
X1934220D01*
Y321565D01*
D02*
G37*
G36*
X1794340Y351760D02*
X1788610D01*
Y347530D01*
X1794340D01*
Y351760D01*
D02*
G37*
G36*
X1882190Y349530D02*
X1877960D01*
Y343800D01*
X1882190D01*
Y349530D01*
D02*
G37*
G36*
X2042160Y365182D02*
X2039680Y364855D01*
X2037369Y363898D01*
X2035385Y362375D01*
X2033862Y360391D01*
X2032905Y358080D01*
X2032578Y355600D01*
X2032905Y353120D01*
X2033458Y351783D01*
X2032560Y350885D01*
X2031027Y351520D01*
X2030470Y351593D01*
Y345970D01*
X2036093D01*
X2036020Y346527D01*
X2035860Y346914D01*
X2036867Y347687D01*
X2037369Y347302D01*
X2039680Y346344D01*
X2042160Y346018D01*
X2044640Y346344D01*
X2046951Y347302D01*
X2048935Y348825D01*
X2050458Y350809D01*
X2051416Y353120D01*
X2051742Y355600D01*
X2051416Y358080D01*
X2050458Y360391D01*
X2048935Y362375D01*
X2046951Y363898D01*
X2044640Y364855D01*
X2042160Y365182D01*
D02*
G37*
G36*
X1802610Y351760D02*
X1796880D01*
Y347530D01*
X1802610D01*
Y351760D01*
D02*
G37*
G36*
X1888960Y338370D02*
X1884730D01*
Y332640D01*
X1888960D01*
Y338370D01*
D02*
G37*
G36*
X1882190D02*
X1877960D01*
Y332640D01*
X1882190D01*
Y338370D01*
D02*
G37*
G36*
X2036093Y343430D02*
X2030470D01*
Y337807D01*
X2031027Y337880D01*
X2032730Y338586D01*
X2034192Y339708D01*
X2035314Y341170D01*
X2036020Y342873D01*
X2036093Y343430D01*
D02*
G37*
G36*
X2027930D02*
X2022307D01*
X2022380Y342873D01*
X2023085Y341170D01*
X2024207Y339708D01*
X2025670Y338586D01*
X2027373Y337880D01*
X2027930Y337807D01*
Y343430D01*
D02*
G37*
G36*
X2042160Y314382D02*
X2039680Y314056D01*
X2037369Y313098D01*
X2035385Y311575D01*
X2033862Y309591D01*
X2032905Y307280D01*
X2032578Y304800D01*
X2032905Y302320D01*
X2033862Y300009D01*
X2035385Y298025D01*
X2037369Y296502D01*
X2039680Y295544D01*
X2042160Y295218D01*
X2044640Y295544D01*
X2046951Y296502D01*
X2048935Y298025D01*
X2050458Y300009D01*
X2051416Y302320D01*
X2051742Y304800D01*
X2051416Y307280D01*
X2050458Y309591D01*
X2048935Y311575D01*
X2046951Y313098D01*
X2044640Y314056D01*
X2042160Y314382D01*
D02*
G37*
G36*
X1960800Y290240D02*
X1957070D01*
Y280510D01*
X1960800D01*
Y290240D01*
D02*
G37*
G36*
X2026175Y303530D02*
X2018030D01*
Y295385D01*
X2019240Y295544D01*
X2021551Y296502D01*
X2023535Y298025D01*
X2025058Y300009D01*
X2026015Y302320D01*
X2026175Y303530D01*
D02*
G37*
G36*
X2015490D02*
X2007345D01*
X2007504Y302320D01*
X2008462Y300009D01*
X2009984Y298025D01*
X2011969Y296502D01*
X2014280Y295544D01*
X2015490Y295385D01*
Y303530D01*
D02*
G37*
G36*
X2016760Y288982D02*
X2014280Y288655D01*
X2011969Y287698D01*
X2009984Y286175D01*
X2008462Y284191D01*
X2007504Y281880D01*
X2007178Y279400D01*
X2007504Y276920D01*
X2008462Y274609D01*
X2009984Y272624D01*
X2011969Y271102D01*
X2014280Y270145D01*
X2016760Y269818D01*
X2019240Y270145D01*
X2021551Y271102D01*
X2023535Y272624D01*
X2025058Y274609D01*
X2026015Y276920D01*
X2026342Y279400D01*
X2026015Y281880D01*
X2025058Y284191D01*
X2023535Y286175D01*
X2021551Y287698D01*
X2019240Y288655D01*
X2016760Y288982D01*
D02*
G37*
G36*
X2042160Y339782D02*
X2039680Y339455D01*
X2037369Y338498D01*
X2035385Y336975D01*
X2033862Y334991D01*
X2032905Y332680D01*
X2032578Y330200D01*
X2032905Y327720D01*
X2033862Y325409D01*
X2035385Y323425D01*
X2037369Y321902D01*
X2039680Y320945D01*
X2042160Y320618D01*
X2044640Y320945D01*
X2046951Y321902D01*
X2048935Y323425D01*
X2050458Y325409D01*
X2051176Y327141D01*
X2052783D01*
X2058191Y321733D01*
Y263224D01*
X2046026Y251059D01*
X1977807D01*
X1970300Y258566D01*
Y270240D01*
X1960800D01*
Y277970D01*
X1957070D01*
Y268240D01*
X1960300D01*
Y248240D01*
X1970300D01*
Y248255D01*
X1971473Y248741D01*
X1974377Y245837D01*
X1974377Y245837D01*
X1975370Y245174D01*
X1976540Y244941D01*
X2047293D01*
X2047293Y244941D01*
X2048464Y245174D01*
X2049456Y245837D01*
X2063413Y259794D01*
X2063413Y259794D01*
X2064076Y260786D01*
X2064309Y261957D01*
Y323000D01*
X2064309Y323000D01*
X2064076Y324170D01*
X2063413Y325163D01*
X2063413Y325163D01*
X2056213Y332363D01*
X2055221Y333026D01*
X2054050Y333259D01*
X2054050Y333259D01*
X2051176D01*
X2050458Y334991D01*
X2048935Y336975D01*
X2046951Y338498D01*
X2044640Y339455D01*
X2042160Y339782D01*
D02*
G37*
G36*
X1954530Y290240D02*
X1950800D01*
Y280510D01*
X1954530D01*
Y290240D01*
D02*
G37*
G36*
X2042160Y288982D02*
X2039680Y288655D01*
X2037369Y287698D01*
X2035385Y286175D01*
X2033862Y284191D01*
X2032905Y281880D01*
X2032578Y279400D01*
X2032905Y276920D01*
X2033862Y274609D01*
X2035385Y272624D01*
X2037369Y271102D01*
X2039680Y270145D01*
X2042160Y269818D01*
X2044640Y270145D01*
X2046951Y271102D01*
X2048935Y272624D01*
X2050458Y274609D01*
X2051416Y276920D01*
X2051742Y279400D01*
X2051416Y281880D01*
X2050458Y284191D01*
X2048935Y286175D01*
X2046951Y287698D01*
X2044640Y288655D01*
X2042160Y288982D01*
D02*
G37*
G36*
X1882190Y309900D02*
X1877960D01*
Y304170D01*
X1882190D01*
Y309900D01*
D02*
G37*
G36*
X1919643Y321480D02*
X1914020D01*
Y315857D01*
X1914577Y315930D01*
X1916280Y316635D01*
X1917742Y317758D01*
X1918864Y319220D01*
X1919570Y320923D01*
X1919643Y321480D01*
D02*
G37*
G36*
X1866143Y320230D02*
X1860520D01*
Y314607D01*
X1861077Y314680D01*
X1862780Y315385D01*
X1864242Y316507D01*
X1865365Y317970D01*
X1866070Y319673D01*
X1866143Y320230D01*
D02*
G37*
G36*
X1927600Y321565D02*
X1923520D01*
Y318085D01*
X1927600D01*
Y321565D01*
D02*
G37*
G36*
X1962420Y320192D02*
X1958840D01*
Y316612D01*
X1962420D01*
Y320192D01*
D02*
G37*
G36*
X2018030Y314215D02*
Y306070D01*
X2026175D01*
X2026015Y307280D01*
X2025058Y309591D01*
X2023535Y311575D01*
X2021551Y313098D01*
X2019240Y314056D01*
X2018030Y314215D01*
D02*
G37*
G36*
X2015490D02*
X2014280Y314056D01*
X2011969Y313098D01*
X2009984Y311575D01*
X2008462Y309591D01*
X2007504Y307280D01*
X2007345Y306070D01*
X2015490D01*
Y314215D01*
D02*
G37*
G36*
X1882190Y318170D02*
X1877960D01*
Y312440D01*
X1882190D01*
Y318170D01*
D02*
G37*
G36*
X1962420Y314072D02*
X1958840D01*
Y310492D01*
X1962420D01*
Y314072D01*
D02*
G37*
G36*
X1898900Y397320D02*
X1893170D01*
Y393090D01*
X1898900D01*
Y397320D01*
D02*
G37*
G36*
X1813770Y397393D02*
Y391770D01*
X1819393D01*
X1819320Y392327D01*
X1818615Y394030D01*
X1817493Y395493D01*
X1816030Y396614D01*
X1814327Y397320D01*
X1813770Y397393D01*
D02*
G37*
G36*
X2016760Y415982D02*
X2014280Y415656D01*
X2011969Y414698D01*
X2009984Y413175D01*
X2008462Y411191D01*
X2007504Y408880D01*
X2007178Y406400D01*
X2007504Y403920D01*
X2008462Y401609D01*
X2009984Y399624D01*
X2011969Y398102D01*
X2014280Y397145D01*
X2016760Y396818D01*
X2019240Y397145D01*
X2021551Y398102D01*
X2023535Y399624D01*
X2025058Y401609D01*
X2026015Y403920D01*
X2026342Y406400D01*
X2026015Y408880D01*
X2025058Y411191D01*
X2023535Y413175D01*
X2021551Y414698D01*
X2019240Y415656D01*
X2016760Y415982D01*
D02*
G37*
G36*
X1907170Y397320D02*
X1901440D01*
Y393090D01*
X1907170D01*
Y397320D01*
D02*
G37*
G36*
Y390550D02*
X1901440D01*
Y386320D01*
X1907170D01*
Y390550D01*
D02*
G37*
G36*
X1898900D02*
X1893170D01*
Y386320D01*
X1898900D01*
Y390550D01*
D02*
G37*
G36*
X1811230Y397393D02*
X1810673Y397320D01*
X1808970Y396614D01*
X1807508Y395493D01*
X1806385Y394030D01*
X1805680Y392327D01*
X1805607Y391770D01*
X1811230D01*
Y397393D01*
D02*
G37*
G36*
X1869309Y395230D02*
X1867010D01*
Y390184D01*
X1867106Y390203D01*
X1868264Y390977D01*
X1869037Y392135D01*
X1869309Y393500D01*
Y395230D01*
D02*
G37*
G36*
X2040890Y455930D02*
X2032745D01*
X2032905Y454720D01*
X2033862Y452409D01*
X2035385Y450424D01*
X2037369Y448902D01*
X2039680Y447944D01*
X2040890Y447785D01*
Y455930D01*
D02*
G37*
G36*
X1867010Y443816D02*
Y438770D01*
X1869309D01*
Y440500D01*
X1869037Y441865D01*
X1868264Y443023D01*
X1867106Y443797D01*
X1867010Y443816D01*
D02*
G37*
G36*
X2040890Y466615D02*
X2039680Y466455D01*
X2037369Y465498D01*
X2035385Y463975D01*
X2033862Y461991D01*
X2032905Y459680D01*
X2032745Y458470D01*
X2040890D01*
Y466615D01*
D02*
G37*
G36*
X1869821Y457752D02*
X1864198D01*
X1864272Y457195D01*
X1864977Y455492D01*
X1866099Y454030D01*
X1867561Y452908D01*
X1869264Y452203D01*
X1869821Y452129D01*
Y457752D01*
D02*
G37*
G36*
X1949190Y417320D02*
X1940960D01*
Y402590D01*
X1949190D01*
Y417320D01*
D02*
G37*
G36*
X2042160Y415982D02*
X2039680Y415656D01*
X2037369Y414698D01*
X2035385Y413175D01*
X2033862Y411191D01*
X2032905Y408880D01*
X2032578Y406400D01*
X2032905Y403920D01*
X2033862Y401609D01*
X2035385Y399624D01*
X2037369Y398102D01*
X2039680Y397145D01*
X2042160Y396818D01*
X2044640Y397145D01*
X2046951Y398102D01*
X2048935Y399624D01*
X2050458Y401609D01*
X2051416Y403920D01*
X2051742Y406400D01*
X2051416Y408880D01*
X2050458Y411191D01*
X2048935Y413175D01*
X2046951Y414698D01*
X2044640Y415656D01*
X2042160Y415982D01*
D02*
G37*
G36*
X1794340Y431400D02*
X1788610D01*
Y427170D01*
X1794340D01*
Y431400D01*
D02*
G37*
G36*
X1794438Y414630D02*
X1788708D01*
Y410400D01*
X1794438D01*
Y414630D01*
D02*
G37*
G36*
X1949190Y400050D02*
X1940960D01*
Y385320D01*
X1949190D01*
Y400050D01*
D02*
G37*
G36*
X1934220Y367070D02*
X1930140D01*
Y363590D01*
X1934220D01*
Y367070D01*
D02*
G37*
G36*
X1927600D02*
X1923520D01*
Y363590D01*
X1927600D01*
Y367070D01*
D02*
G37*
G36*
X1975630D02*
X1971550D01*
Y363590D01*
X1975630D01*
Y367070D01*
D02*
G37*
G36*
X1969010D02*
X1964930D01*
Y363590D01*
X1969010D01*
Y367070D01*
D02*
G37*
G36*
X1940300Y365368D02*
X1936720D01*
Y361788D01*
X1940300D01*
Y365368D01*
D02*
G37*
G36*
X1882190Y357800D02*
X1877960D01*
Y352070D01*
X1882190D01*
Y357800D01*
D02*
G37*
G36*
X1962420Y365368D02*
X1958840D01*
Y361788D01*
X1962420D01*
Y365368D01*
D02*
G37*
G36*
X1953920Y372778D02*
X1945220D01*
Y371488D01*
X1942840D01*
Y366636D01*
Y361788D01*
X1946420D01*
Y362078D01*
X1952720D01*
Y361788D01*
X1956300D01*
Y366636D01*
Y371488D01*
X1953920D01*
Y372778D01*
D02*
G37*
G36*
X1872633Y380749D02*
X1858847D01*
X1858920Y380191D01*
X1859353Y379146D01*
X1858648Y378090D01*
X1858200D01*
Y372360D01*
X1869200D01*
Y375875D01*
X1869270Y375904D01*
X1870733Y377026D01*
X1871855Y378488D01*
X1872560Y380191D01*
X1872633Y380749D01*
D02*
G37*
G36*
X2042160Y390582D02*
X2039680Y390256D01*
X2037369Y389298D01*
X2035385Y387775D01*
X2033862Y385791D01*
X2032905Y383480D01*
X2032578Y381000D01*
X2032905Y378520D01*
X2033862Y376209D01*
X2035385Y374225D01*
X2037369Y372702D01*
X2039680Y371744D01*
X2042160Y371418D01*
X2044640Y371744D01*
X2046951Y372702D01*
X2048935Y374225D01*
X2050458Y376209D01*
X2051416Y378520D01*
X2051742Y381000D01*
X2051416Y383480D01*
X2050458Y385791D01*
X2048935Y387775D01*
X2046951Y389298D01*
X2044640Y390256D01*
X2042160Y390582D01*
D02*
G37*
G36*
X1864496Y390178D02*
X1864454Y388910D01*
X1863913Y388838D01*
X1862210Y388133D01*
X1860748Y387011D01*
X1859626Y385549D01*
X1858920Y383846D01*
X1858847Y383289D01*
X1872633D01*
X1872560Y383846D01*
X1871855Y385549D01*
X1870733Y387011D01*
X1869270Y388133D01*
X1867568Y388838D01*
X1867026Y388910D01*
X1866985Y390178D01*
X1865740Y389931D01*
X1864496Y390178D01*
D02*
G37*
G36*
X1983510Y379070D02*
X1977780D01*
Y374840D01*
X1983510D01*
Y379070D01*
D02*
G37*
G36*
X1869200Y369820D02*
X1864970D01*
Y364090D01*
X1869200D01*
Y369820D01*
D02*
G37*
G36*
X1862430D02*
X1858200D01*
Y364090D01*
X1862430D01*
Y369820D01*
D02*
G37*
G36*
X1962420Y371488D02*
X1958840D01*
Y367908D01*
X1962420D01*
Y371488D01*
D02*
G37*
G36*
X1940300D02*
X1936720D01*
Y367908D01*
X1940300D01*
Y371488D01*
D02*
G37*
%LPD*%
D10*
X1883460Y311170D02*
D03*
X1902460D02*
D03*
X1844700Y371090D02*
D03*
X1863700D02*
D03*
X1883460Y331370D02*
D03*
X1902460D02*
D03*
Y350800D02*
D03*
X1883460D02*
D03*
D11*
X1946300Y259240D02*
D03*
X1965300D02*
D03*
X1955800Y279240D02*
D03*
D12*
X1950460Y401320D02*
D03*
X1981460D02*
D03*
D13*
X1984780Y361340D02*
D03*
Y380340D02*
D03*
X1900170Y410820D02*
D03*
Y391820D02*
D03*
X1795610Y444900D02*
D03*
Y425900D02*
D03*
X1795708Y396900D02*
D03*
Y415900D02*
D03*
X1840656Y308516D02*
D03*
Y327516D02*
D03*
X1795610Y365260D02*
D03*
Y346260D02*
D03*
X1917860Y440480D02*
D03*
Y459480D02*
D03*
X1898380Y440480D02*
D03*
Y459480D02*
D03*
D14*
X1941570Y315342D02*
D03*
X1957570D02*
D03*
X1941570Y366638D02*
D03*
X1957570D02*
D03*
D15*
X1949570Y314552D02*
D03*
Y367428D02*
D03*
D16*
X1970280Y362320D02*
D03*
Y354423D02*
D03*
Y346526D02*
D03*
Y338629D02*
D03*
Y330732D02*
D03*
Y322835D02*
D03*
X1928870D02*
D03*
Y330732D02*
D03*
Y338629D02*
D03*
Y346526D02*
D03*
Y354423D02*
D03*
Y362320D02*
D03*
D17*
X1865740Y437500D02*
D03*
X1860740D02*
D03*
X1855740D02*
D03*
X1850740D02*
D03*
X1845740D02*
D03*
X1840740D02*
D03*
Y396500D02*
D03*
X1845740D02*
D03*
X1850740D02*
D03*
X1855740D02*
D03*
X1860740D02*
D03*
X1865740D02*
D03*
D18*
X1832740Y429500D02*
D03*
Y424500D02*
D03*
Y419500D02*
D03*
Y414500D02*
D03*
Y409500D02*
D03*
Y404500D02*
D03*
X1873740D02*
D03*
Y409500D02*
D03*
Y414500D02*
D03*
Y419500D02*
D03*
Y424500D02*
D03*
Y429500D02*
D03*
D19*
X1853240Y417000D02*
D03*
D20*
X1843710Y347020D02*
D03*
X1835710D02*
D03*
X1839710Y345020D02*
D03*
D21*
Y340520D02*
D03*
Y351520D02*
D03*
D22*
X1824180Y317000D02*
D03*
X1797180D02*
D03*
D23*
X1800680Y330500D02*
D03*
X1805680D02*
D03*
X1815680D02*
D03*
X1820680D02*
D03*
Y303500D02*
D03*
X1815680D02*
D03*
X1810680D02*
D03*
X1805680D02*
D03*
X1800680D02*
D03*
X1810680Y330500D02*
D03*
D24*
X1964070Y401320D02*
X1981460D01*
X1843360Y369750D02*
X1844700Y371090D01*
X1832250Y369750D02*
X1843360D01*
X1840740Y375050D02*
Y396500D01*
Y375050D02*
X1844700Y371090D01*
X1964120Y401270D02*
X1965096D01*
X1964070Y401320D02*
X1964120Y401270D01*
X2009043Y446700D02*
X2031660D01*
X1987218Y424875D02*
X2009043Y446700D01*
X2010700Y442700D02*
X2043950D01*
X1981460Y413460D02*
X2010700Y442700D01*
X2043950D02*
X2054250Y453000D01*
X2031660Y446700D02*
X2042160Y457200D01*
X2029200Y344700D02*
X2031250Y346750D01*
X2004500Y351827D02*
Y368740D01*
X1997353Y344680D02*
X2004500Y351827D01*
X1972126Y344680D02*
X1997353D01*
X1994353Y354423D02*
Y388427D01*
X1985250Y354423D02*
X1994353D01*
X1851840Y340840D02*
Y341517D01*
X1851500Y340500D02*
X1851840Y340840D01*
X1783250Y319750D02*
X1789016Y325516D01*
X1783250Y304352D02*
X1787087Y300515D01*
X1783250Y304352D02*
Y319750D01*
X1795385Y330500D02*
X1800680D01*
X1790401Y325516D02*
X1795385Y330500D01*
X1789016Y325516D02*
X1790401D01*
X1880750Y424500D02*
X1890230Y433980D01*
X1873740Y424500D02*
X1880750D01*
X1890230Y433980D02*
X1904623D01*
X1911123Y440480D01*
X1917860D01*
X1981460Y401320D02*
X1994353Y388427D01*
X1970280Y365840D02*
X1971078Y366638D01*
X1970280Y362320D02*
Y365840D01*
X1957570Y366638D02*
X1971078D01*
X1984780Y380340D01*
Y354893D02*
X1985250Y354423D01*
X1970280D02*
X1985250D01*
X1984780Y354893D02*
Y361340D01*
X1992500Y319750D02*
X1992750Y320000D01*
Y334814D01*
X1983000Y308186D02*
X1992500Y317686D01*
X1983000Y301000D02*
Y308186D01*
X1992500Y317686D02*
Y319750D01*
X1970280Y300280D02*
Y322835D01*
X2003960Y292000D02*
X2016760Y304800D01*
X1957570Y293750D02*
X1959320Y292000D01*
X2003960D01*
X2016760Y457200D02*
X2031060Y471500D01*
X2049250D01*
X2054250Y466500D01*
Y453000D02*
Y466500D01*
X1961875Y424875D02*
X1987218D01*
X1981460Y401320D02*
Y413460D01*
X1950460Y401320D02*
Y413460D01*
X1961875Y424875D01*
X1974768Y330732D02*
X1984500Y321000D01*
X1970280Y330732D02*
X1974768D01*
X1829546Y297406D02*
X1840656Y308516D01*
X1824829Y297406D02*
X1829546D01*
X1912673Y354423D02*
Y360077D01*
X1911500Y361250D02*
X1912673Y360077D01*
X1863700Y357550D02*
Y371090D01*
Y357550D02*
X1870450Y350800D01*
X1883460D01*
X1920100Y371090D02*
X1928870Y362320D01*
X1863700Y371090D02*
X1920100D01*
X1918526Y346526D02*
X1928870D01*
X1912000Y340000D02*
X1918526Y346526D01*
X1896250Y340000D02*
X1912000D01*
X1892960Y343290D02*
X1896250Y340000D01*
X1892960Y343290D02*
Y359699D01*
X1902460Y331370D02*
X1928232D01*
X1832740Y395240D02*
Y404500D01*
X1815500Y378000D02*
X1832740Y395240D01*
X1905360Y452980D02*
X1917860Y440480D01*
X1892138Y452980D02*
X1905360D01*
X1884868Y460250D02*
X1892138Y452980D01*
X1883250Y460250D02*
X1884868D01*
X1886564Y468250D02*
X1895334Y459480D01*
X1898380D02*
X1917860D01*
X1884721Y440480D02*
X1891020D01*
X1883250Y448250D02*
X1891020Y440480D01*
X1898380D01*
X1795610Y444900D02*
X1818960Y468250D01*
X1886564D01*
X1895334Y459480D02*
X1898380D01*
X1871091Y459022D02*
X1871478D01*
X1871500Y459000D01*
X1917860Y459480D02*
X1944880Y486500D01*
X1930112Y361078D02*
X1954828D01*
X1912750Y322750D02*
X1912835Y322835D01*
X1928870D01*
X1936120Y331370D02*
X1959173Y354423D01*
X1929507Y331370D02*
X1936120D01*
X1959173Y354423D02*
X1970280D01*
X1928870Y330732D02*
X1929507Y331370D01*
X1943345Y324250D02*
X1949815D01*
X1930285D02*
X1943345D01*
X1823423Y296000D02*
X1824829Y297406D01*
X1835140Y322000D02*
X1840656Y327516D01*
X1813938Y322000D02*
X1835140D01*
X1859750D02*
X1874090D01*
X1813938Y321688D02*
Y322000D01*
X1810500Y318250D02*
X1813938Y321688D01*
X1874090Y322000D02*
X1883460Y331370D01*
X1837968Y351520D02*
X1839710D01*
X1835710Y349263D02*
X1837968Y351520D01*
X1835710Y347020D02*
Y349263D01*
X1839710Y351520D02*
X1841452D01*
X1843710Y349263D01*
Y347020D02*
Y349263D01*
X1839710Y340520D02*
X1839730Y340500D01*
X1851500D01*
X1976540Y248000D02*
X2047293D01*
X1965300Y259240D02*
X1976540Y248000D01*
X2047293D02*
X2061250Y261957D01*
Y323000D01*
X2042160Y355600D02*
X2043150D01*
X1786016Y333516D02*
X1787087D01*
X1786016D02*
X1792260Y339760D01*
X1805180Y331000D02*
Y336243D01*
Y331000D02*
X1805680Y330500D01*
X1801663Y339760D02*
X1805180Y336243D01*
X1792260Y339760D02*
X1801663D01*
X1970280Y346526D02*
X1972126Y344680D01*
X2004500Y368740D02*
X2016760Y381000D01*
X1988064Y339500D02*
X1992750Y334814D01*
X1971151Y339500D02*
X1988064D01*
X1812500Y419500D02*
X1832740D01*
X1873740Y409500D02*
X1898850D01*
X1941260Y259240D02*
X1946300D01*
X1892500Y308000D02*
X1941260Y259240D01*
X1892500Y308000D02*
Y321410D01*
X1902460Y331370D01*
X1928870Y322835D02*
X1930285Y324250D01*
X1949815D02*
X1957570Y316495D01*
Y315342D02*
Y316495D01*
Y293750D02*
Y315342D01*
Y281010D02*
Y293750D01*
X2042160Y330200D02*
X2054050D01*
X2061250Y323000D01*
X1970280Y338629D02*
X1971151Y339500D01*
X1970280Y330732D02*
X1971048Y331500D01*
X1810680Y287320D02*
Y303500D01*
X1805680Y286663D02*
X1815093Y277250D01*
X1805680Y286663D02*
Y303500D01*
X1800680Y286006D02*
X1817922Y268765D01*
X1800680Y286006D02*
Y303500D01*
X1817922Y268765D02*
X1838235D01*
X1815093Y277250D02*
X1829750D01*
X1814000Y284000D02*
X1820500D01*
X1817937Y296000D02*
X1823423D01*
X1810680Y287320D02*
X1814000Y284000D01*
X1816180Y297757D02*
X1817937Y296000D01*
X1816180Y297757D02*
Y303000D01*
X1815680Y303500D02*
X1816180Y303000D01*
X1955960Y279400D02*
X1957570Y281010D01*
X1955800Y279240D02*
X1955960Y279400D01*
X2014323Y457200D02*
X2016760D01*
X1944880Y486500D02*
X1987460D01*
X2016760Y457200D01*
X1954920Y369288D02*
X1957570Y366638D01*
X1954920Y369288D02*
Y372021D01*
X1950460Y376481D02*
X1954920Y372021D01*
X1950460Y376481D02*
Y401320D01*
X1937398Y311170D02*
X1941570Y315342D01*
X1902460Y311170D02*
X1937398D01*
X1954828Y361078D02*
X1969039D01*
X1970280Y362320D01*
X1941570Y361648D02*
Y366638D01*
X1928870Y362320D02*
X1930112Y361078D01*
X1954828D02*
X1957570Y363820D01*
Y366638D01*
X1839710Y340520D02*
X1840395D01*
X1848656Y332259D01*
Y316516D02*
Y332259D01*
X1840656Y308516D02*
X1848656Y316516D01*
X1810680Y330500D02*
X1811180Y330000D01*
Y324758D02*
X1813938Y322000D01*
X1811180Y324758D02*
Y330000D01*
X1815680Y303500D02*
X1816000Y303180D01*
X1815680Y351500D02*
X1815700Y351520D01*
X1815680Y351500D02*
Y355820D01*
Y330500D02*
Y351500D01*
X1812500Y394000D02*
X1828000Y409500D01*
X1819564Y414500D02*
X1832740D01*
X1815814Y410750D02*
X1819564Y414500D01*
X1807750Y410750D02*
X1815814D01*
X1811750Y419500D02*
X1812500Y418750D01*
X1799308Y419500D02*
X1811750D01*
X1815700Y351520D02*
X1839710D01*
X1806240Y365260D02*
X1815680Y355820D01*
X1795610Y346260D02*
X1804990D01*
X1810680Y340570D01*
Y330500D02*
Y340570D01*
X1795610Y365260D02*
X1806240D01*
X1912673Y354423D02*
X1928870D01*
X1909050Y350800D02*
X1912673Y354423D01*
X1902460Y350800D02*
X1909050D01*
X1928232Y331370D02*
X1928870Y330732D01*
X1883460Y350800D02*
Y351330D01*
Y331370D02*
Y350800D01*
Y311170D02*
Y331370D01*
X1839710Y351520D02*
X1844700Y356510D01*
Y371090D01*
X1783050Y377820D02*
X1795610Y365260D01*
X1783050Y377820D02*
Y440800D01*
X1787150Y444900D01*
X1795610D01*
X1865740Y396500D02*
X1895490D01*
X1900170Y391820D01*
X1898850Y409500D02*
X1900170Y410820D01*
X1865740Y437500D02*
Y453240D01*
X1871500Y459000D01*
X1865740Y382019D02*
Y396500D01*
Y373130D02*
Y382019D01*
X1873740Y429500D02*
X1884721Y440480D01*
X1863700Y371090D02*
X1865740Y373130D01*
X1855740Y396500D02*
X1860740D01*
X1850740D02*
X1855740D01*
X1845740D02*
X1850740D01*
X1795708Y398708D02*
X1807750Y410750D01*
X1818064Y424500D02*
X1832740D01*
X1815814Y426750D02*
X1818064Y424500D01*
X1810750Y426750D02*
X1815814D01*
X1795610Y441890D02*
X1810750Y426750D01*
X1812500Y390500D02*
Y394000D01*
X1828000Y409500D02*
X1832740D01*
X1795708Y396900D02*
Y398708D01*
Y415900D02*
X1799308Y419500D01*
X1855740Y437500D02*
X1860740D01*
X1850740D02*
X1855740D01*
X1845740D02*
X1850740D01*
X1795610Y441890D02*
Y444900D01*
Y425900D02*
X1795708Y425802D01*
Y415900D02*
Y425802D01*
D25*
X2016760Y457200D02*
D03*
D26*
X2042160D02*
D03*
X2016760Y431800D02*
D03*
X2042160D02*
D03*
X2016760Y406400D02*
D03*
X2042160D02*
D03*
X2016760Y381000D02*
D03*
X2042160D02*
D03*
X2016760Y355600D02*
D03*
X2042160D02*
D03*
X2016760Y330200D02*
D03*
X2042160D02*
D03*
X2016760Y304800D02*
D03*
X2042160D02*
D03*
X2016760Y279400D02*
D03*
X2042160D02*
D03*
D27*
X1965013Y457489D02*
D03*
X1885000Y272500D02*
D03*
D28*
X1832250Y369750D02*
D03*
X1865740Y382019D02*
D03*
X1851840Y341517D02*
D03*
X1965096Y401270D02*
D03*
X2029200Y344700D02*
D03*
X1859250Y321500D02*
D03*
X1825750Y341250D02*
D03*
X1984500Y321000D02*
D03*
X1983000Y301000D02*
D03*
X1970000Y300000D02*
D03*
X1911500Y361250D02*
D03*
X1892960Y359699D02*
D03*
X1815500Y378000D02*
D03*
X1871091Y459022D02*
D03*
X1883250Y460250D02*
D03*
Y448250D02*
D03*
X1912750Y322750D02*
D03*
X1810500Y318250D02*
D03*
X1787087Y333516D02*
D03*
Y300515D02*
D03*
X1838721Y268279D02*
D03*
X1830235Y276765D02*
D03*
X1821750Y285250D02*
D03*
X1812500Y418750D02*
D03*
Y390500D02*
D03*
M02*
