M48
;Layer_Color=9474304
;FILE_FORMAT=2:5
INCH,LZ
;TYPE=PLATED
T1F00S00C0.01575
T2F00S00C0.03543
T3F00S00C0.13780
;TYPE=NON_PLATED
%
T01
X0703578Y0118313
Y0131306
X0712795Y0125295
X0718799Y013435
X0729071Y0134455
X0731988Y0126575
X0753051Y0127067
X0752559Y0142224
X074526Y0141614
X0734543Y0150401
X0721358Y0145571
X0714764Y0148819
X0713583Y015374
X0717224Y0112303
X0720565Y0108963
X0723906Y0105622
X0775591Y011811
X0780709Y0118504
X0781299Y0126378
X0798898Y0135709
X077366Y015798
X0741437Y0176476
Y0181201
X073665Y0180718
X0713583Y0164862
T02
X0794Y011
Y012
Y013
Y014
Y015
X0804
Y014
Y013
Y012
Y011
Y016
Y017
Y018
X0794
Y017
Y016
T03
X0742126Y0107283
X0773627Y0180114
M30
