M48
;Layer_Color=9474304
;FILE_FORMAT=2:5
INCH,LZ
T6F00S00C0.00001
%
G90
G05
T06
G00X0052855Y-0381004
M15
G01X0052854Y-0386417
G01X0061417Y-0386417
G01X0061417Y-0381004
G01X0052855Y-0381004
M16
G00X0050985Y-0365748
M15
G01X0050984Y-0372834
G01X0063188Y-0372835
G01X0063189Y-0365748
G01X0050985Y-0365748
M16
G00X0043349Y-0140748
M15
G01X0043179Y-0137271
G01X0042668Y-0133827
G01X0041822Y-013045
G01X0040649Y-0127172
G01X003916Y-0124025
G01X0037371Y-0121039
G01X0035297Y-0118243
G01X0032959Y-0115663
G01X0030379Y-0113325
G01X0027583Y-0111251
G01X0024597Y-0109462
G01X002145Y-0107973
G01X0018172Y-01068
G01X0014795Y-0105954
G01X0011351Y-0105444
G01X0007874Y-0105273
G01X0007874Y-0105315
G01X0007874Y-0105315
G01X0Y-0105315
G01X0Y0
G01X0114174Y0
G01X0114173Y-0105315
G01X0106299Y-0105315
G01X0106299Y-0105273
G01X0102822Y-0105444
G01X0099378Y-0105954
G01X0096001Y-01068
G01X0092723Y-0107973
G01X0089576Y-0109462
G01X008659Y-0111251
G01X0083794Y-0113325
G01X0081214Y-0115663
G01X0078876Y-0118243
G01X0076803Y-0121039
G01X0075013Y-0124025
G01X0073524Y-0127172
G01X0072351Y-013045
G01X0071506Y-0133827
G01X0070995Y-0137271
G01X0070824Y-0140748
G01X0070866Y-0140748
G01X0070867Y-0140748
G01X0070867Y-0379922
G01X0057086Y-0393701
G01X0043307Y-0379921
G01X0043349Y-0140748
M16
M17
M30
