%FSLAX25Y25*%
%MOIN*%
G70*
G01*
G75*
%ADD10R,0.19685X0.19685*%
%ADD11R,0.15748X0.15748*%
%ADD12C,0.00787*%
%ADD13R,0.05906X0.05906*%
%ADD14C,0.05906*%
%ADD15C,0.01181*%
G36*
X-13297Y362986D02*
X-12912D01*
Y362626D01*
X-13297D01*
Y361016D01*
Y361006D01*
Y360981D01*
Y360941D01*
X-13292Y360896D01*
Y360846D01*
X-13282Y360801D01*
X-13277Y360756D01*
X-13267Y360726D01*
X-13262Y360721D01*
X-13257Y360711D01*
X-13242Y360696D01*
X-13227Y360681D01*
X-13202Y360666D01*
X-13167Y360651D01*
X-13127Y360641D01*
X-13082Y360636D01*
X-13037D01*
X-12982Y360641D01*
X-12912Y360651D01*
X-12862Y360241D01*
X-12867D01*
X-12887Y360236D01*
X-12917Y360231D01*
X-12957Y360221D01*
X-13002Y360216D01*
X-13052Y360206D01*
X-13147Y360201D01*
X-13182D01*
X-13217Y360206D01*
X-13262Y360211D01*
X-13312Y360221D01*
X-13367Y360231D01*
X-13417Y360251D01*
X-13467Y360276D01*
X-13472Y360281D01*
X-13487Y360291D01*
X-13507Y360311D01*
X-13532Y360331D01*
X-13562Y360366D01*
X-13587Y360401D01*
X-13612Y360441D01*
X-13632Y360491D01*
Y360496D01*
X-13637Y360521D01*
X-13647Y360556D01*
X-13652Y360611D01*
X-13657Y360646D01*
X-13662Y360686D01*
X-13667Y360731D01*
X-13672Y360781D01*
Y360836D01*
X-13677Y360901D01*
Y360966D01*
Y361041D01*
Y362626D01*
X-13957D01*
Y362986D01*
X-13677D01*
Y363666D01*
X-13297Y363946D01*
Y362986D01*
D02*
G37*
G36*
X-12172Y360236D02*
X-12552D01*
Y362986D01*
X-12172D01*
Y360236D01*
D02*
G37*
G36*
X-19537Y363041D02*
X-19497Y363036D01*
X-19457Y363026D01*
X-19407Y363016D01*
X-19352Y363001D01*
X-19292Y362981D01*
X-19232Y362956D01*
X-19172Y362926D01*
X-19107Y362891D01*
X-19042Y362851D01*
X-18982Y362801D01*
X-18922Y362746D01*
X-18862Y362681D01*
X-18857Y362676D01*
X-18847Y362666D01*
X-18832Y362641D01*
X-18812Y362616D01*
X-18792Y362576D01*
X-18767Y362531D01*
X-18737Y362476D01*
X-18707Y362416D01*
X-18682Y362346D01*
X-18652Y362266D01*
X-18627Y362181D01*
X-18602Y362086D01*
X-18587Y361986D01*
X-18572Y361876D01*
X-18562Y361761D01*
X-18557Y361636D01*
Y361626D01*
Y361606D01*
Y361566D01*
X-18562Y361516D01*
X-18567Y361451D01*
X-18572Y361381D01*
X-18582Y361306D01*
X-18592Y361221D01*
X-18632Y361041D01*
X-18652Y360951D01*
X-18682Y360856D01*
X-18717Y360771D01*
X-18757Y360681D01*
X-18802Y360606D01*
X-18857Y360531D01*
X-18862Y360526D01*
X-18872Y360516D01*
X-18887Y360496D01*
X-18912Y360476D01*
X-18937Y360446D01*
X-18972Y360416D01*
X-19017Y360386D01*
X-19062Y360351D01*
X-19112Y360316D01*
X-19172Y360286D01*
X-19232Y360256D01*
X-19302Y360226D01*
X-19372Y360206D01*
X-19447Y360186D01*
X-19527Y360176D01*
X-19612Y360171D01*
X-19632D01*
X-19657Y360176D01*
X-19687D01*
X-19727Y360181D01*
X-19772Y360191D01*
X-19822Y360201D01*
X-19877Y360216D01*
X-19937Y360236D01*
X-19997Y360261D01*
X-20057Y360286D01*
X-20122Y360321D01*
X-20187Y360366D01*
X-20247Y360411D01*
X-20307Y360466D01*
X-20367Y360531D01*
X-20372Y360536D01*
X-20382Y360546D01*
X-20397Y360571D01*
X-20412Y360601D01*
X-20437Y360636D01*
X-20462Y360686D01*
X-20487Y360741D01*
X-20517Y360801D01*
X-20547Y360876D01*
X-20572Y360956D01*
X-20597Y361041D01*
X-20622Y361141D01*
X-20637Y361241D01*
X-20652Y361356D01*
X-20662Y361476D01*
X-20667Y361606D01*
Y361616D01*
Y361636D01*
Y361676D01*
X-20662Y361721D01*
X-20657Y361781D01*
X-20652Y361851D01*
X-20642Y361926D01*
X-20632Y362006D01*
X-20597Y362181D01*
X-20572Y362271D01*
X-20542Y362361D01*
X-20507Y362446D01*
X-20467Y362531D01*
X-20422Y362611D01*
X-20372Y362681D01*
X-20367Y362686D01*
X-20357Y362696D01*
X-20342Y362716D01*
X-20317Y362736D01*
X-20287Y362766D01*
X-20252Y362796D01*
X-20212Y362831D01*
X-20162Y362866D01*
X-20112Y362896D01*
X-20052Y362931D01*
X-19927Y362991D01*
X-19852Y363011D01*
X-19777Y363031D01*
X-19697Y363041D01*
X-19612Y363046D01*
X-19567D01*
X-19537Y363041D01*
D02*
G37*
G36*
X-15743Y366535D02*
X-16278D01*
Y367056D01*
X-16286Y367040D01*
X-16308Y367003D01*
X-16338Y366950D01*
X-16391Y366882D01*
X-16444Y366814D01*
X-16519Y366731D01*
X-16595Y366664D01*
X-16685Y366596D01*
X-16693Y366588D01*
X-16730Y366573D01*
X-16776Y366543D01*
X-16844Y366520D01*
X-16919Y366490D01*
X-17009Y366460D01*
X-17107Y366445D01*
X-17213Y366437D01*
X-17243D01*
X-17273Y366445D01*
X-17311D01*
X-17364Y366452D01*
X-17424Y366467D01*
X-17567Y366505D01*
X-17650Y366535D01*
X-17733Y366573D01*
X-17816Y366618D01*
X-17907Y366679D01*
X-17997Y366739D01*
X-18080Y366814D01*
X-18171Y366905D01*
X-18253Y367003D01*
X-18261Y367010D01*
X-18269Y367033D01*
X-18291Y367063D01*
X-18321Y367108D01*
X-18351Y367169D01*
X-18389Y367236D01*
X-18435Y367319D01*
X-18472Y367418D01*
X-18510Y367523D01*
X-18555Y367644D01*
X-18593Y367772D01*
X-18623Y367915D01*
X-18653Y368074D01*
X-18668Y368239D01*
X-18683Y368413D01*
X-18691Y368601D01*
Y368609D01*
Y368631D01*
Y368669D01*
Y368722D01*
X-18683Y368782D01*
Y368850D01*
X-18676Y368933D01*
X-18668Y369016D01*
X-18646Y369204D01*
X-18608Y369408D01*
X-18563Y369612D01*
X-18502Y369800D01*
Y369808D01*
X-18495Y369823D01*
X-18480Y369845D01*
X-18465Y369883D01*
X-18419Y369966D01*
X-18367Y370079D01*
X-18291Y370192D01*
X-18201Y370313D01*
X-18095Y370433D01*
X-17982Y370532D01*
X-17975D01*
X-17967Y370539D01*
X-17922Y370569D01*
X-17861Y370607D01*
X-17771Y370652D01*
X-17665Y370697D01*
X-17537Y370735D01*
X-17402Y370765D01*
X-17258Y370773D01*
X-17213D01*
X-17153Y370765D01*
X-17085Y370750D01*
X-17002Y370735D01*
X-16911Y370705D01*
X-16821Y370667D01*
X-16730Y370614D01*
X-16723Y370607D01*
X-16693Y370584D01*
X-16647Y370554D01*
X-16587Y370509D01*
X-16527Y370449D01*
X-16459Y370373D01*
X-16391Y370290D01*
X-16323Y370200D01*
Y372258D01*
X-15743D01*
Y366535D01*
D02*
G37*
G36*
X-26527Y363041D02*
X-26492Y363036D01*
X-26447Y363026D01*
X-26402Y363016D01*
X-26347Y363001D01*
X-26292Y362981D01*
X-26232Y362956D01*
X-26172Y362926D01*
X-26112Y362891D01*
X-26052Y362846D01*
X-25992Y362796D01*
X-25932Y362741D01*
X-25877Y362676D01*
X-25872Y362671D01*
X-25862Y362661D01*
X-25852Y362636D01*
X-25832Y362606D01*
X-25807Y362571D01*
X-25782Y362526D01*
X-25757Y362471D01*
X-25727Y362406D01*
X-25702Y362336D01*
X-25677Y362256D01*
X-25652Y362166D01*
X-25627Y362071D01*
X-25607Y361971D01*
X-25597Y361856D01*
X-25587Y361736D01*
X-25582Y361611D01*
Y361491D01*
X-27262D01*
Y361486D01*
Y361471D01*
X-27257Y361446D01*
Y361416D01*
X-27252Y361376D01*
X-27247Y361331D01*
X-27227Y361231D01*
X-27202Y361116D01*
X-27167Y361001D01*
X-27117Y360891D01*
X-27087Y360836D01*
X-27052Y360791D01*
X-27042Y360781D01*
X-27017Y360756D01*
X-26977Y360716D01*
X-26922Y360676D01*
X-26852Y360631D01*
X-26772Y360591D01*
X-26682Y360566D01*
X-26637Y360561D01*
X-26587Y360556D01*
X-26567D01*
X-26547Y360561D01*
X-26517Y360566D01*
X-26482Y360571D01*
X-26442Y360586D01*
X-26397Y360601D01*
X-26352Y360626D01*
X-26302Y360656D01*
X-26252Y360696D01*
X-26202Y360741D01*
X-26152Y360796D01*
X-26107Y360861D01*
X-26062Y360936D01*
X-26022Y361021D01*
X-25987Y361121D01*
X-25592Y361061D01*
Y361056D01*
X-25597Y361041D01*
X-25602Y361021D01*
X-25612Y360986D01*
X-25622Y360951D01*
X-25637Y360906D01*
X-25672Y360811D01*
X-25722Y360701D01*
X-25787Y360591D01*
X-25862Y360486D01*
X-25907Y360436D01*
X-25952Y360391D01*
X-25957D01*
X-25962Y360381D01*
X-25977Y360371D01*
X-25997Y360356D01*
X-26022Y360341D01*
X-26052Y360321D01*
X-26127Y360281D01*
X-26217Y360241D01*
X-26327Y360206D01*
X-26452Y360181D01*
X-26517Y360176D01*
X-26587Y360171D01*
X-26607D01*
X-26632Y360176D01*
X-26667D01*
X-26707Y360181D01*
X-26752Y360191D01*
X-26807Y360201D01*
X-26862Y360216D01*
X-26922Y360236D01*
X-26987Y360261D01*
X-27052Y360286D01*
X-27117Y360321D01*
X-27182Y360366D01*
X-27242Y360411D01*
X-27307Y360466D01*
X-27362Y360531D01*
X-27367Y360536D01*
X-27377Y360546D01*
X-27387Y360571D01*
X-27407Y360601D01*
X-27432Y360636D01*
X-27457Y360681D01*
X-27482Y360736D01*
X-27507Y360801D01*
X-27537Y360871D01*
X-27562Y360946D01*
X-27587Y361036D01*
X-27612Y361126D01*
X-27632Y361231D01*
X-27642Y361341D01*
X-27652Y361456D01*
X-27657Y361581D01*
Y361591D01*
Y361611D01*
Y361651D01*
X-27652Y361701D01*
X-27647Y361756D01*
X-27642Y361826D01*
X-27632Y361901D01*
X-27622Y361986D01*
X-27587Y362161D01*
X-27562Y362251D01*
X-27532Y362341D01*
X-27497Y362431D01*
X-27457Y362516D01*
X-27412Y362596D01*
X-27362Y362671D01*
X-27357Y362676D01*
X-27347Y362686D01*
X-27332Y362706D01*
X-27307Y362731D01*
X-27277Y362756D01*
X-27242Y362791D01*
X-27202Y362826D01*
X-27152Y362861D01*
X-27102Y362896D01*
X-27042Y362926D01*
X-26917Y362986D01*
X-26842Y363011D01*
X-26767Y363031D01*
X-26687Y363041D01*
X-26602Y363046D01*
X-26562D01*
X-26527Y363041D01*
D02*
G37*
G36*
X-9022Y361871D02*
X-8127Y362986D01*
X-7622D01*
X-8487Y361961D01*
X-7537Y360236D01*
X-8007D01*
X-8757Y361641D01*
X-9022Y361326D01*
Y360236D01*
X-9402D01*
Y364031D01*
X-9022D01*
Y361871D01*
D02*
G37*
G36*
X-23987Y363041D02*
X-23942Y363036D01*
X-23892Y363026D01*
X-23837Y363016D01*
X-23777Y362996D01*
X-23722Y362971D01*
X-23717Y362966D01*
X-23697Y362956D01*
X-23667Y362941D01*
X-23632Y362921D01*
X-23592Y362896D01*
X-23552Y362866D01*
X-23512Y362826D01*
X-23472Y362786D01*
X-23467Y362781D01*
X-23457Y362766D01*
X-23437Y362741D01*
X-23417Y362706D01*
X-23397Y362661D01*
X-23372Y362611D01*
X-23352Y362551D01*
X-23332Y362486D01*
Y362476D01*
X-23322Y362451D01*
X-23317Y362411D01*
X-23307Y362346D01*
X-23297Y362271D01*
X-23292Y362171D01*
X-23282Y362056D01*
Y361921D01*
Y360236D01*
X-23662D01*
Y361906D01*
Y361911D01*
Y361921D01*
Y361936D01*
Y361956D01*
X-23667Y362011D01*
Y362076D01*
X-23677Y362151D01*
X-23687Y362221D01*
X-23697Y362291D01*
X-23717Y362351D01*
Y362356D01*
X-23727Y362376D01*
X-23737Y362401D01*
X-23757Y362431D01*
X-23777Y362466D01*
X-23807Y362501D01*
X-23837Y362536D01*
X-23877Y362566D01*
X-23882Y362571D01*
X-23897Y362581D01*
X-23917Y362591D01*
X-23952Y362606D01*
X-23987Y362621D01*
X-24032Y362636D01*
X-24077Y362641D01*
X-24132Y362646D01*
X-24157D01*
X-24177Y362641D01*
X-24227Y362636D01*
X-24292Y362621D01*
X-24362Y362596D01*
X-24432Y362561D01*
X-24507Y362511D01*
X-24572Y362441D01*
X-24577Y362431D01*
X-24587Y362421D01*
X-24597Y362401D01*
X-24607Y362376D01*
X-24622Y362351D01*
X-24637Y362316D01*
X-24652Y362276D01*
X-24667Y362231D01*
X-24682Y362181D01*
X-24697Y362121D01*
X-24707Y362056D01*
X-24717Y361986D01*
X-24727Y361911D01*
X-24732Y361826D01*
Y361736D01*
Y360236D01*
X-25112D01*
Y362986D01*
X-24767D01*
Y362601D01*
X-24762Y362606D01*
X-24747Y362631D01*
X-24717Y362671D01*
X-24682Y362721D01*
X-24642Y362776D01*
X-24592Y362831D01*
X-24532Y362886D01*
X-24467Y362931D01*
X-24457Y362936D01*
X-24437Y362951D01*
X-24397Y362966D01*
X-24347Y362991D01*
X-24287Y363011D01*
X-24217Y363026D01*
X-24137Y363041D01*
X-24052Y363046D01*
X-24022D01*
X-23987Y363041D01*
D02*
G37*
G36*
X-29202Y364091D02*
X-29167D01*
X-29087Y364081D01*
X-28992Y364061D01*
X-28892Y364036D01*
X-28787Y364001D01*
X-28687Y363956D01*
X-28682D01*
X-28677Y363951D01*
X-28642Y363931D01*
X-28597Y363901D01*
X-28537Y363856D01*
X-28477Y363801D01*
X-28407Y363731D01*
X-28342Y363651D01*
X-28287Y363561D01*
Y363556D01*
X-28282Y363551D01*
X-28272Y363536D01*
X-28262Y363516D01*
X-28252Y363491D01*
X-28242Y363461D01*
X-28212Y363391D01*
X-28182Y363301D01*
X-28157Y363201D01*
X-28137Y363086D01*
X-28127Y362961D01*
X-28517Y362926D01*
Y362931D01*
Y362941D01*
X-28522Y362961D01*
X-28527Y362986D01*
X-28532Y363016D01*
X-28537Y363051D01*
X-28557Y363131D01*
X-28587Y363221D01*
X-28627Y363311D01*
X-28677Y363396D01*
X-28742Y363471D01*
X-28752Y363481D01*
X-28777Y363501D01*
X-28822Y363526D01*
X-28882Y363561D01*
X-28957Y363596D01*
X-29047Y363621D01*
X-29157Y363641D01*
X-29277Y363651D01*
X-29337D01*
X-29367Y363646D01*
X-29397Y363641D01*
X-29477Y363631D01*
X-29567Y363611D01*
X-29652Y363586D01*
X-29742Y363546D01*
X-29817Y363491D01*
X-29827Y363486D01*
X-29847Y363461D01*
X-29872Y363431D01*
X-29907Y363381D01*
X-29942Y363326D01*
X-29967Y363256D01*
X-29987Y363176D01*
X-29997Y363086D01*
Y363076D01*
Y363051D01*
X-29992Y363006D01*
X-29982Y362956D01*
X-29967Y362901D01*
X-29942Y362841D01*
X-29912Y362786D01*
X-29867Y362731D01*
X-29862Y362726D01*
X-29837Y362711D01*
X-29797Y362686D01*
X-29772Y362671D01*
X-29742Y362651D01*
X-29702Y362636D01*
X-29657Y362616D01*
X-29607Y362591D01*
X-29552Y362571D01*
X-29492Y362546D01*
X-29417Y362526D01*
X-29342Y362501D01*
X-29257Y362476D01*
X-29252D01*
X-29237Y362471D01*
X-29212Y362466D01*
X-29182Y362456D01*
X-29147Y362446D01*
X-29102Y362431D01*
X-29002Y362401D01*
X-28897Y362366D01*
X-28792Y362331D01*
X-28692Y362291D01*
X-28652Y362276D01*
X-28612Y362256D01*
X-28607D01*
X-28597Y362251D01*
X-28587Y362241D01*
X-28567Y362231D01*
X-28512Y362196D01*
X-28452Y362156D01*
X-28382Y362096D01*
X-28312Y362031D01*
X-28242Y361956D01*
X-28182Y361871D01*
Y361866D01*
X-28177Y361861D01*
X-28167Y361846D01*
X-28157Y361831D01*
X-28132Y361781D01*
X-28107Y361711D01*
X-28077Y361631D01*
X-28057Y361536D01*
X-28037Y361431D01*
X-28032Y361311D01*
Y361306D01*
Y361296D01*
Y361281D01*
Y361256D01*
X-28037Y361226D01*
X-28042Y361191D01*
X-28052Y361111D01*
X-28072Y361021D01*
X-28097Y360921D01*
X-28137Y360816D01*
X-28187Y360711D01*
Y360706D01*
X-28192Y360701D01*
X-28202Y360686D01*
X-28217Y360666D01*
X-28252Y360621D01*
X-28297Y360561D01*
X-28357Y360496D01*
X-28427Y360431D01*
X-28512Y360366D01*
X-28607Y360306D01*
X-28612D01*
X-28617Y360301D01*
X-28632Y360296D01*
X-28652Y360286D01*
X-28677Y360276D01*
X-28707Y360261D01*
X-28782Y360241D01*
X-28877Y360216D01*
X-28982Y360191D01*
X-29102Y360176D01*
X-29237Y360171D01*
X-29292D01*
X-29332Y360176D01*
X-29382Y360181D01*
X-29437Y360191D01*
X-29502Y360201D01*
X-29572Y360216D01*
X-29642Y360231D01*
X-29717Y360256D01*
X-29792Y360281D01*
X-29872Y360316D01*
X-29947Y360356D01*
X-30022Y360401D01*
X-30097Y360456D01*
X-30162Y360516D01*
X-30167Y360521D01*
X-30177Y360531D01*
X-30192Y360551D01*
X-30217Y360581D01*
X-30242Y360616D01*
X-30272Y360661D01*
X-30302Y360711D01*
X-30332Y360766D01*
X-30367Y360831D01*
X-30397Y360901D01*
X-30427Y360981D01*
X-30452Y361066D01*
X-30477Y361156D01*
X-30492Y361251D01*
X-30507Y361356D01*
X-30512Y361466D01*
X-30122Y361501D01*
Y361496D01*
Y361486D01*
X-30117Y361471D01*
Y361451D01*
X-30107Y361391D01*
X-30092Y361321D01*
X-30072Y361241D01*
X-30052Y361161D01*
X-30017Y361081D01*
X-29982Y361011D01*
X-29977Y361001D01*
X-29962Y360981D01*
X-29937Y360951D01*
X-29902Y360911D01*
X-29857Y360866D01*
X-29807Y360821D01*
X-29742Y360771D01*
X-29672Y360731D01*
X-29662Y360726D01*
X-29637Y360716D01*
X-29592Y360696D01*
X-29537Y360681D01*
X-29467Y360661D01*
X-29387Y360641D01*
X-29302Y360631D01*
X-29207Y360626D01*
X-29172D01*
X-29147Y360631D01*
X-29117D01*
X-29082Y360636D01*
X-28997Y360646D01*
X-28907Y360671D01*
X-28812Y360701D01*
X-28722Y360741D01*
X-28637Y360801D01*
X-28627Y360811D01*
X-28607Y360836D01*
X-28572Y360871D01*
X-28532Y360926D01*
X-28497Y360996D01*
X-28462Y361071D01*
X-28442Y361166D01*
X-28432Y361266D01*
Y361276D01*
Y361296D01*
X-28437Y361326D01*
X-28442Y361366D01*
X-28452Y361411D01*
X-28462Y361461D01*
X-28482Y361511D01*
X-28507Y361561D01*
X-28512Y361566D01*
X-28522Y361581D01*
X-28537Y361606D01*
X-28562Y361636D01*
X-28597Y361666D01*
X-28632Y361701D01*
X-28677Y361736D01*
X-28732Y361766D01*
X-28737Y361771D01*
X-28762Y361781D01*
X-28782Y361791D01*
X-28807Y361801D01*
X-28832Y361811D01*
X-28867Y361826D01*
X-28907Y361841D01*
X-28957Y361856D01*
X-29007Y361876D01*
X-29067Y361896D01*
X-29132Y361916D01*
X-29207Y361941D01*
X-29287Y361966D01*
X-29377Y361991D01*
X-29382D01*
X-29397Y361996D01*
X-29417Y362006D01*
X-29447Y362016D01*
X-29487Y362026D01*
X-29527Y362041D01*
X-29622Y362071D01*
X-29722Y362111D01*
X-29827Y362156D01*
X-29922Y362201D01*
X-29962Y362226D01*
X-30002Y362251D01*
X-30012Y362256D01*
X-30032Y362276D01*
X-30067Y362306D01*
X-30107Y362346D01*
X-30152Y362391D01*
X-30202Y362451D01*
X-30247Y362516D01*
X-30292Y362586D01*
X-30297Y362596D01*
X-30307Y362621D01*
X-30322Y362666D01*
X-30342Y362721D01*
X-30362Y362791D01*
X-30377Y362866D01*
X-30387Y362951D01*
X-30392Y363046D01*
Y363051D01*
Y363066D01*
Y363091D01*
X-30387Y363121D01*
X-30382Y363161D01*
X-30377Y363211D01*
X-30367Y363261D01*
X-30357Y363316D01*
X-30322Y363436D01*
X-30297Y363496D01*
X-30267Y363561D01*
X-30232Y363626D01*
X-30192Y363686D01*
X-30147Y363746D01*
X-30097Y363801D01*
X-30092Y363806D01*
X-30082Y363816D01*
X-30067Y363826D01*
X-30042Y363846D01*
X-30012Y363871D01*
X-29977Y363896D01*
X-29932Y363921D01*
X-29882Y363951D01*
X-29827Y363976D01*
X-29767Y364001D01*
X-29702Y364026D01*
X-29632Y364051D01*
X-29552Y364071D01*
X-29472Y364081D01*
X-29382Y364091D01*
X-29292Y364096D01*
X-29232D01*
X-29202Y364091D01*
D02*
G37*
G36*
X-17207Y363036D02*
X-17152Y363026D01*
X-17097Y363011D01*
X-17027Y362981D01*
X-16957Y362946D01*
X-16882Y362896D01*
X-17012Y362466D01*
X-17017Y362471D01*
X-17037Y362481D01*
X-17067Y362496D01*
X-17102Y362516D01*
X-17142Y362536D01*
X-17192Y362551D01*
X-17242Y362561D01*
X-17292Y362566D01*
X-17312D01*
X-17337Y362561D01*
X-17367Y362556D01*
X-17402Y362546D01*
X-17437Y362526D01*
X-17477Y362506D01*
X-17517Y362476D01*
X-17522Y362471D01*
X-17532Y362461D01*
X-17552Y362441D01*
X-17572Y362416D01*
X-17597Y362381D01*
X-17617Y362341D01*
X-17637Y362296D01*
X-17657Y362241D01*
Y362236D01*
X-17662Y362231D01*
Y362216D01*
X-17667Y362196D01*
X-17677Y362141D01*
X-17692Y362071D01*
X-17707Y361981D01*
X-17717Y361886D01*
X-17722Y361781D01*
X-17727Y361671D01*
Y360236D01*
X-18107D01*
Y362986D01*
X-17762D01*
Y362571D01*
X-17757Y362581D01*
X-17747Y362596D01*
X-17742Y362611D01*
X-17717Y362661D01*
X-17682Y362721D01*
X-17647Y362786D01*
X-17607Y362851D01*
X-17562Y362906D01*
X-17522Y362951D01*
X-17517Y362956D01*
X-17502Y362966D01*
X-17482Y362981D01*
X-17452Y363001D01*
X-17412Y363016D01*
X-17372Y363031D01*
X-17327Y363041D01*
X-17277Y363046D01*
X-17242D01*
X-17207Y363036D01*
D02*
G37*
G36*
X-10612Y363041D02*
X-10582D01*
X-10547Y363036D01*
X-10467Y363021D01*
X-10372Y362991D01*
X-10277Y362951D01*
X-10177Y362901D01*
X-10127Y362866D01*
X-10082Y362826D01*
X-10077D01*
X-10072Y362816D01*
X-10057Y362801D01*
X-10042Y362786D01*
X-10022Y362761D01*
X-10002Y362736D01*
X-9977Y362701D01*
X-9952Y362666D01*
X-9927Y362621D01*
X-9902Y362571D01*
X-9877Y362521D01*
X-9852Y362461D01*
X-9827Y362396D01*
X-9807Y362331D01*
X-9787Y362256D01*
X-9772Y362176D01*
X-10142Y362111D01*
Y362116D01*
Y362121D01*
X-10147Y362136D01*
X-10152Y362156D01*
X-10167Y362206D01*
X-10187Y362266D01*
X-10212Y362331D01*
X-10247Y362401D01*
X-10287Y362466D01*
X-10332Y362521D01*
X-10337Y362526D01*
X-10357Y362541D01*
X-10387Y362566D01*
X-10422Y362591D01*
X-10472Y362616D01*
X-10527Y362641D01*
X-10587Y362656D01*
X-10657Y362661D01*
X-10682D01*
X-10702Y362656D01*
X-10757Y362646D01*
X-10822Y362631D01*
X-10892Y362601D01*
X-10972Y362556D01*
X-11012Y362526D01*
X-11047Y362496D01*
X-11087Y362456D01*
X-11122Y362411D01*
Y362406D01*
X-11132Y362401D01*
X-11137Y362386D01*
X-11152Y362366D01*
X-11167Y362336D01*
X-11182Y362301D01*
X-11197Y362266D01*
X-11212Y362216D01*
X-11232Y362166D01*
X-11247Y362106D01*
X-11262Y362041D01*
X-11277Y361971D01*
X-11292Y361891D01*
X-11297Y361806D01*
X-11307Y361716D01*
Y361616D01*
Y361611D01*
Y361591D01*
Y361561D01*
X-11302Y361526D01*
Y361481D01*
X-11297Y361426D01*
X-11292Y361366D01*
X-11287Y361306D01*
X-11262Y361171D01*
X-11232Y361036D01*
X-11192Y360911D01*
X-11162Y360856D01*
X-11132Y360806D01*
Y360801D01*
X-11122Y360796D01*
X-11102Y360766D01*
X-11062Y360726D01*
X-11012Y360681D01*
X-10947Y360636D01*
X-10867Y360596D01*
X-10782Y360566D01*
X-10732Y360561D01*
X-10682Y360556D01*
X-10672D01*
X-10647Y360561D01*
X-10602Y360566D01*
X-10552Y360576D01*
X-10497Y360596D01*
X-10432Y360626D01*
X-10372Y360666D01*
X-10312Y360721D01*
X-10307Y360731D01*
X-10287Y360751D01*
X-10262Y360791D01*
X-10227Y360846D01*
X-10197Y360921D01*
X-10162Y361011D01*
X-10132Y361116D01*
X-10112Y361241D01*
X-9732Y361181D01*
Y361176D01*
X-9737Y361161D01*
X-9742Y361136D01*
X-9747Y361101D01*
X-9757Y361056D01*
X-9767Y361011D01*
X-9782Y360956D01*
X-9797Y360901D01*
X-9842Y360781D01*
X-9897Y360656D01*
X-9972Y360531D01*
X-10012Y360476D01*
X-10062Y360426D01*
X-10067Y360421D01*
X-10072Y360416D01*
X-10087Y360401D01*
X-10107Y360386D01*
X-10132Y360366D01*
X-10162Y360346D01*
X-10237Y360301D01*
X-10327Y360251D01*
X-10437Y360211D01*
X-10557Y360181D01*
X-10622Y360176D01*
X-10687Y360171D01*
X-10707D01*
X-10727Y360176D01*
X-10762D01*
X-10797Y360181D01*
X-10842Y360191D01*
X-10892Y360201D01*
X-10942Y360216D01*
X-10997Y360236D01*
X-11057Y360261D01*
X-11117Y360286D01*
X-11177Y360321D01*
X-11237Y360366D01*
X-11297Y360411D01*
X-11357Y360466D01*
X-11412Y360531D01*
X-11417Y360536D01*
X-11422Y360546D01*
X-11437Y360571D01*
X-11457Y360601D01*
X-11477Y360636D01*
X-11502Y360686D01*
X-11527Y360741D01*
X-11552Y360801D01*
X-11582Y360876D01*
X-11607Y360956D01*
X-11632Y361046D01*
X-11652Y361141D01*
X-11672Y361246D01*
X-11687Y361361D01*
X-11692Y361481D01*
X-11697Y361611D01*
Y361621D01*
Y361641D01*
Y361681D01*
X-11692Y361731D01*
X-11687Y361786D01*
X-11682Y361856D01*
X-11672Y361931D01*
X-11662Y362016D01*
X-11627Y362186D01*
X-11602Y362276D01*
X-11577Y362366D01*
X-11542Y362451D01*
X-11507Y362536D01*
X-11462Y362616D01*
X-11412Y362686D01*
X-11407Y362691D01*
X-11397Y362701D01*
X-11382Y362721D01*
X-11357Y362741D01*
X-11332Y362771D01*
X-11297Y362801D01*
X-11257Y362831D01*
X-11212Y362866D01*
X-11162Y362901D01*
X-11102Y362931D01*
X-10977Y362991D01*
X-10907Y363011D01*
X-10832Y363031D01*
X-10752Y363041D01*
X-10672Y363046D01*
X-10637D01*
X-10612Y363041D01*
D02*
G37*
G36*
X-21842D02*
X-21782Y363036D01*
X-21717Y363021D01*
X-21642Y363006D01*
X-21567Y362981D01*
X-21492Y362951D01*
X-21482Y362946D01*
X-21462Y362936D01*
X-21427Y362916D01*
X-21382Y362886D01*
X-21337Y362851D01*
X-21287Y362811D01*
X-21242Y362761D01*
X-21202Y362706D01*
X-21197Y362701D01*
X-21187Y362676D01*
X-21167Y362646D01*
X-21142Y362596D01*
X-21122Y362536D01*
X-21097Y362461D01*
X-21077Y362376D01*
X-21057Y362276D01*
X-21432Y362211D01*
Y362216D01*
X-21437Y362231D01*
X-21442Y362251D01*
X-21447Y362281D01*
X-21457Y362316D01*
X-21472Y362356D01*
X-21492Y362396D01*
X-21512Y362436D01*
X-21542Y362476D01*
X-21577Y362521D01*
X-21617Y362556D01*
X-21662Y362591D01*
X-21717Y362621D01*
X-21777Y362641D01*
X-21847Y362656D01*
X-21922Y362661D01*
X-21962D01*
X-22007Y362656D01*
X-22062Y362651D01*
X-22122Y362636D01*
X-22182Y362621D01*
X-22242Y362596D01*
X-22292Y362561D01*
X-22297Y362556D01*
X-22312Y362541D01*
X-22332Y362521D01*
X-22352Y362491D01*
X-22372Y362456D01*
X-22392Y362411D01*
X-22407Y362361D01*
X-22412Y362306D01*
Y362301D01*
Y362281D01*
X-22407Y362256D01*
X-22397Y362221D01*
X-22382Y362181D01*
X-22362Y362141D01*
X-22337Y362101D01*
X-22297Y362066D01*
X-22292D01*
X-22282Y362056D01*
X-22257Y362046D01*
X-22217Y362026D01*
X-22167Y362006D01*
X-22132Y361991D01*
X-22092Y361976D01*
X-22047Y361961D01*
X-21997Y361941D01*
X-21942Y361921D01*
X-21882Y361901D01*
X-21877D01*
X-21862Y361896D01*
X-21837Y361886D01*
X-21807Y361876D01*
X-21767Y361866D01*
X-21722Y361851D01*
X-21627Y361816D01*
X-21522Y361776D01*
X-21422Y361736D01*
X-21377Y361716D01*
X-21332Y361696D01*
X-21297Y361681D01*
X-21267Y361661D01*
X-21262Y361656D01*
X-21242Y361646D01*
X-21217Y361626D01*
X-21187Y361596D01*
X-21152Y361561D01*
X-21117Y361521D01*
X-21082Y361471D01*
X-21052Y361416D01*
X-21047Y361411D01*
X-21037Y361391D01*
X-21027Y361356D01*
X-21012Y361316D01*
X-20997Y361261D01*
X-20982Y361201D01*
X-20977Y361131D01*
X-20972Y361051D01*
Y361046D01*
Y361036D01*
Y361011D01*
X-20977Y360986D01*
Y360951D01*
X-20987Y360911D01*
X-21002Y360821D01*
X-21032Y360721D01*
X-21077Y360616D01*
X-21107Y360561D01*
X-21137Y360511D01*
X-21177Y360461D01*
X-21222Y360411D01*
X-21227Y360406D01*
X-21232Y360401D01*
X-21247Y360391D01*
X-21267Y360376D01*
X-21292Y360356D01*
X-21322Y360336D01*
X-21362Y360316D01*
X-21402Y360291D01*
X-21447Y360271D01*
X-21497Y360246D01*
X-21617Y360211D01*
X-21752Y360181D01*
X-21827Y360176D01*
X-21907Y360171D01*
X-21942D01*
X-21982Y360176D01*
X-22037Y360186D01*
X-22097Y360196D01*
X-22172Y360216D01*
X-22247Y360246D01*
X-22327Y360281D01*
X-22412Y360331D01*
X-22492Y360386D01*
X-22572Y360461D01*
X-22642Y360546D01*
X-22707Y360646D01*
X-22767Y360766D01*
X-22812Y360901D01*
X-22827Y360976D01*
X-22842Y361056D01*
X-22462Y361121D01*
Y361116D01*
Y361106D01*
X-22457Y361091D01*
Y361076D01*
X-22442Y361021D01*
X-22427Y360961D01*
X-22407Y360891D01*
X-22372Y360816D01*
X-22332Y360751D01*
X-22282Y360691D01*
X-22277Y360686D01*
X-22252Y360671D01*
X-22222Y360646D01*
X-22177Y360626D01*
X-22117Y360601D01*
X-22052Y360576D01*
X-21972Y360561D01*
X-21882Y360556D01*
X-21842D01*
X-21797Y360561D01*
X-21742Y360571D01*
X-21682Y360586D01*
X-21617Y360606D01*
X-21557Y360636D01*
X-21502Y360676D01*
X-21497Y360681D01*
X-21482Y360701D01*
X-21457Y360726D01*
X-21432Y360761D01*
X-21407Y360806D01*
X-21382Y360861D01*
X-21367Y360921D01*
X-21362Y360986D01*
Y360991D01*
Y361011D01*
X-21367Y361041D01*
X-21377Y361081D01*
X-21392Y361121D01*
X-21412Y361161D01*
X-21442Y361206D01*
X-21482Y361241D01*
X-21487Y361246D01*
X-21497Y361251D01*
X-21522Y361266D01*
X-21562Y361286D01*
X-21612Y361306D01*
X-21677Y361336D01*
X-21762Y361366D01*
X-21812Y361381D01*
X-21867Y361396D01*
X-21872D01*
X-21887Y361401D01*
X-21907Y361411D01*
X-21937Y361421D01*
X-21977Y361431D01*
X-22017Y361446D01*
X-22107Y361476D01*
X-22207Y361516D01*
X-22307Y361556D01*
X-22392Y361596D01*
X-22432Y361611D01*
X-22462Y361631D01*
X-22467Y361636D01*
X-22487Y361651D01*
X-22512Y361671D01*
X-22547Y361701D01*
X-22587Y361736D01*
X-22622Y361781D01*
X-22662Y361831D01*
X-22697Y361886D01*
X-22702Y361891D01*
X-22707Y361916D01*
X-22722Y361946D01*
X-22737Y361991D01*
X-22752Y362046D01*
X-22762Y362106D01*
X-22772Y362176D01*
X-22777Y362251D01*
Y362256D01*
Y362266D01*
Y362286D01*
X-22772Y362311D01*
Y362341D01*
X-22767Y362376D01*
X-22747Y362456D01*
X-22722Y362546D01*
X-22682Y362641D01*
X-22627Y362736D01*
X-22592Y362781D01*
X-22552Y362821D01*
X-22547Y362826D01*
X-22542Y362831D01*
X-22527Y362841D01*
X-22512Y362856D01*
X-22462Y362891D01*
X-22392Y362936D01*
X-22302Y362976D01*
X-22197Y363011D01*
X-22072Y363036D01*
X-22002Y363046D01*
X-21892D01*
X-21842Y363041D01*
D02*
G37*
G36*
X-20478Y370758D02*
X-20380Y370743D01*
X-20267Y370712D01*
X-20146Y370675D01*
X-20018Y370614D01*
X-19897Y370532D01*
X-19890D01*
X-19882Y370524D01*
X-19845Y370486D01*
X-19784Y370426D01*
X-19709Y370351D01*
X-19626Y370245D01*
X-19543Y370124D01*
X-19452Y369973D01*
X-19377Y369800D01*
Y369793D01*
X-19369Y369777D01*
X-19354Y369755D01*
X-19347Y369717D01*
X-19332Y369664D01*
X-19309Y369612D01*
X-19294Y369544D01*
X-19271Y369476D01*
X-19256Y369393D01*
X-19241Y369303D01*
X-19204Y369106D01*
X-19181Y368880D01*
X-19173Y368639D01*
Y368624D01*
Y368594D01*
Y368541D01*
X-19181Y368465D01*
X-19188Y368375D01*
X-19196Y368269D01*
X-19211Y368156D01*
X-19226Y368036D01*
X-19279Y367772D01*
X-19317Y367636D01*
X-19362Y367500D01*
X-19415Y367365D01*
X-19467Y367236D01*
X-19543Y367116D01*
X-19618Y367003D01*
X-19626Y366995D01*
X-19641Y366980D01*
X-19663Y366950D01*
X-19694Y366912D01*
X-19739Y366875D01*
X-19792Y366822D01*
X-19852Y366777D01*
X-19912Y366724D01*
X-20071Y366618D01*
X-20244Y366528D01*
X-20342Y366490D01*
X-20440Y366460D01*
X-20546Y366445D01*
X-20659Y366437D01*
X-20704D01*
X-20757Y366445D01*
X-20817Y366452D01*
X-20892Y366467D01*
X-20983Y366498D01*
X-21066Y366528D01*
X-21156Y366573D01*
X-21164Y366581D01*
X-21194Y366596D01*
X-21239Y366626D01*
X-21292Y366671D01*
X-21352Y366724D01*
X-21420Y366792D01*
X-21481Y366867D01*
X-21549Y366957D01*
Y364944D01*
X-22121D01*
Y370682D01*
X-21594D01*
Y370147D01*
X-21586Y370155D01*
X-21564Y370192D01*
X-21518Y370252D01*
X-21473Y370328D01*
X-21405Y370403D01*
X-21337Y370486D01*
X-21254Y370562D01*
X-21171Y370622D01*
X-21164Y370630D01*
X-21126Y370645D01*
X-21081Y370667D01*
X-21013Y370697D01*
X-20930Y370728D01*
X-20840Y370750D01*
X-20734Y370765D01*
X-20621Y370773D01*
X-20553D01*
X-20478Y370758D01*
D02*
G37*
G36*
X-22835Y373228D02*
X-23367D01*
X-23478Y375354D01*
Y375367D01*
Y375400D01*
X-23485Y375452D01*
Y375537D01*
Y375583D01*
Y375642D01*
X-23491Y375701D01*
Y375774D01*
Y375852D01*
Y375938D01*
Y376029D01*
Y376121D01*
X-23498Y376108D01*
X-23505Y376088D01*
X-23511Y376062D01*
X-23524Y376029D01*
X-23537Y375990D01*
X-23570Y375892D01*
X-23609Y375767D01*
X-23655Y375636D01*
X-23708Y375491D01*
X-23767Y375334D01*
X-24548Y373228D01*
X-25085D01*
X-25400Y376856D01*
X-24915D01*
X-24777Y375222D01*
Y375216D01*
Y375196D01*
X-24771Y375163D01*
Y375117D01*
X-24764Y375065D01*
Y374999D01*
X-24757Y374921D01*
X-24751Y374835D01*
X-24744Y374744D01*
X-24738Y374639D01*
X-24731Y374534D01*
X-24725Y374416D01*
X-24718Y374166D01*
X-24705Y373897D01*
Y373904D01*
X-24699Y373924D01*
X-24692Y373950D01*
X-24679Y373989D01*
X-24666Y374035D01*
X-24653Y374094D01*
X-24633Y374160D01*
X-24613Y374232D01*
X-24567Y374396D01*
X-24508Y374573D01*
X-24449Y374763D01*
X-24377Y374960D01*
X-23668Y376856D01*
X-23118D01*
X-23019Y375039D01*
Y375032D01*
Y375019D01*
Y374999D01*
X-23012Y374967D01*
Y374927D01*
Y374881D01*
Y374822D01*
X-23006Y374757D01*
Y374685D01*
X-22999Y374599D01*
Y374507D01*
Y374409D01*
X-22993Y374304D01*
Y374193D01*
X-22986Y374068D01*
Y373943D01*
X-22980Y373956D01*
X-22973Y373983D01*
X-22960Y374022D01*
X-22947Y374068D01*
X-22927Y374127D01*
X-22901Y374193D01*
X-22875Y374265D01*
X-22849Y374350D01*
X-22816Y374448D01*
X-22776Y374553D01*
X-22737Y374665D01*
X-22691Y374790D01*
X-22645Y374914D01*
X-22593Y375059D01*
X-22534Y375203D01*
X-21897Y376856D01*
X-21386D01*
X-22835Y373228D01*
D02*
G37*
G36*
X-18696D02*
X-19227D01*
X-19339Y375354D01*
Y375367D01*
Y375400D01*
X-19345Y375452D01*
Y375537D01*
Y375583D01*
Y375642D01*
X-19352Y375701D01*
Y375774D01*
Y375852D01*
Y375938D01*
Y376029D01*
Y376121D01*
X-19359Y376108D01*
X-19365Y376088D01*
X-19372Y376062D01*
X-19385Y376029D01*
X-19398Y375990D01*
X-19431Y375892D01*
X-19470Y375767D01*
X-19516Y375636D01*
X-19568Y375491D01*
X-19628Y375334D01*
X-20408Y373228D01*
X-20946D01*
X-21261Y376856D01*
X-20776D01*
X-20638Y375222D01*
Y375216D01*
Y375196D01*
X-20631Y375163D01*
Y375117D01*
X-20625Y375065D01*
Y374999D01*
X-20618Y374921D01*
X-20612Y374835D01*
X-20605Y374744D01*
X-20598Y374639D01*
X-20592Y374534D01*
X-20585Y374416D01*
X-20579Y374166D01*
X-20566Y373897D01*
Y373904D01*
X-20559Y373924D01*
X-20552Y373950D01*
X-20539Y373989D01*
X-20526Y374035D01*
X-20513Y374094D01*
X-20493Y374160D01*
X-20474Y374232D01*
X-20428Y374396D01*
X-20369Y374573D01*
X-20310Y374763D01*
X-20238Y374960D01*
X-19529Y376856D01*
X-18978D01*
X-18880Y375039D01*
Y375032D01*
Y375019D01*
Y374999D01*
X-18873Y374967D01*
Y374927D01*
Y374881D01*
Y374822D01*
X-18867Y374757D01*
Y374685D01*
X-18860Y374599D01*
Y374507D01*
Y374409D01*
X-18854Y374304D01*
Y374193D01*
X-18847Y374068D01*
Y373943D01*
X-18840Y373956D01*
X-18834Y373983D01*
X-18821Y374022D01*
X-18808Y374068D01*
X-18788Y374127D01*
X-18762Y374193D01*
X-18735Y374265D01*
X-18709Y374350D01*
X-18676Y374448D01*
X-18637Y374553D01*
X-18598Y374665D01*
X-18552Y374790D01*
X-18506Y374914D01*
X-18453Y375059D01*
X-18394Y375203D01*
X-17758Y376856D01*
X-17246D01*
X-18696Y373228D01*
D02*
G37*
G36*
X1987Y317776D02*
X1062D01*
Y320079D01*
X1987D01*
Y317776D01*
D02*
G37*
G36*
X176Y369597D02*
X2213D01*
Y368888D01*
X176D01*
Y367225D01*
X-680D01*
Y368888D01*
X-2727D01*
Y369597D01*
X-680D01*
Y371260D01*
X176D01*
Y369597D01*
D02*
G37*
G36*
Y267628D02*
X2213D01*
Y266920D01*
X176D01*
Y265257D01*
X-680D01*
Y266920D01*
X-2727D01*
Y267628D01*
X-680D01*
Y269291D01*
X176D01*
Y267628D01*
D02*
G37*
G36*
X-14557Y373228D02*
X-15088D01*
X-15200Y375354D01*
Y375367D01*
Y375400D01*
X-15206Y375452D01*
Y375537D01*
Y375583D01*
Y375642D01*
X-15213Y375701D01*
Y375774D01*
Y375852D01*
Y375938D01*
Y376029D01*
Y376121D01*
X-15219Y376108D01*
X-15226Y376088D01*
X-15232Y376062D01*
X-15246Y376029D01*
X-15259Y375990D01*
X-15291Y375892D01*
X-15331Y375767D01*
X-15377Y375636D01*
X-15429Y375491D01*
X-15488Y375334D01*
X-16269Y373228D01*
X-16807D01*
X-17122Y376856D01*
X-16636D01*
X-16499Y375222D01*
Y375216D01*
Y375196D01*
X-16492Y375163D01*
Y375117D01*
X-16485Y375065D01*
Y374999D01*
X-16479Y374921D01*
X-16472Y374835D01*
X-16466Y374744D01*
X-16459Y374639D01*
X-16453Y374534D01*
X-16446Y374416D01*
X-16439Y374166D01*
X-16426Y373897D01*
Y373904D01*
X-16420Y373924D01*
X-16413Y373950D01*
X-16400Y373989D01*
X-16387Y374035D01*
X-16374Y374094D01*
X-16354Y374160D01*
X-16334Y374232D01*
X-16288Y374396D01*
X-16229Y374573D01*
X-16171Y374763D01*
X-16098Y374960D01*
X-15390Y376856D01*
X-14839D01*
X-14740Y375039D01*
Y375032D01*
Y375019D01*
Y374999D01*
X-14734Y374967D01*
Y374927D01*
Y374881D01*
Y374822D01*
X-14727Y374757D01*
Y374685D01*
X-14721Y374599D01*
Y374507D01*
Y374409D01*
X-14714Y374304D01*
Y374193D01*
X-14708Y374068D01*
Y373943D01*
X-14701Y373956D01*
X-14694Y373983D01*
X-14681Y374022D01*
X-14668Y374068D01*
X-14649Y374127D01*
X-14622Y374193D01*
X-14596Y374265D01*
X-14570Y374350D01*
X-14537Y374448D01*
X-14498Y374553D01*
X-14458Y374665D01*
X-14412Y374790D01*
X-14367Y374914D01*
X-14314Y375059D01*
X-14255Y375203D01*
X-13619Y376856D01*
X-13107D01*
X-14557Y373228D01*
D02*
G37*
G36*
X-27301Y366535D02*
X-27905D01*
X-28448Y369016D01*
X-28576Y369725D01*
X-29254Y366535D01*
X-29873D01*
X-30906Y370682D01*
X-30310D01*
X-29767Y368285D01*
X-29571Y367395D01*
X-29390Y368247D01*
X-28862Y370682D01*
X-28251D01*
X-27754Y368269D01*
X-27580Y367478D01*
X-27384Y368277D01*
X-26804Y370682D01*
X-26238D01*
X-27301Y366535D01*
D02*
G37*
G36*
X-24067Y370765D02*
X-23999Y370758D01*
X-23924Y370743D01*
X-23841Y370728D01*
X-23750Y370697D01*
X-23667Y370660D01*
X-23660Y370652D01*
X-23629Y370637D01*
X-23584Y370614D01*
X-23531Y370584D01*
X-23471Y370547D01*
X-23411Y370501D01*
X-23351Y370441D01*
X-23290Y370381D01*
X-23283Y370373D01*
X-23268Y370351D01*
X-23237Y370313D01*
X-23207Y370260D01*
X-23177Y370192D01*
X-23139Y370117D01*
X-23109Y370026D01*
X-23079Y369928D01*
Y369913D01*
X-23064Y369876D01*
X-23056Y369815D01*
X-23041Y369717D01*
X-23026Y369604D01*
X-23019Y369453D01*
X-23004Y369280D01*
Y369076D01*
Y366535D01*
X-23577D01*
Y369054D01*
Y369061D01*
Y369076D01*
Y369099D01*
Y369129D01*
X-23584Y369212D01*
Y369310D01*
X-23599Y369423D01*
X-23614Y369529D01*
X-23629Y369634D01*
X-23660Y369725D01*
Y369732D01*
X-23675Y369762D01*
X-23690Y369800D01*
X-23720Y369845D01*
X-23750Y369898D01*
X-23795Y369951D01*
X-23841Y370004D01*
X-23901Y370049D01*
X-23909Y370057D01*
X-23931Y370072D01*
X-23961Y370087D01*
X-24014Y370109D01*
X-24067Y370132D01*
X-24135Y370155D01*
X-24203Y370162D01*
X-24285Y370170D01*
X-24323D01*
X-24353Y370162D01*
X-24429Y370155D01*
X-24527Y370132D01*
X-24632Y370094D01*
X-24738Y370041D01*
X-24851Y369966D01*
X-24949Y369860D01*
X-24957Y369845D01*
X-24972Y369830D01*
X-24987Y369800D01*
X-25002Y369762D01*
X-25024Y369725D01*
X-25047Y369672D01*
X-25070Y369612D01*
X-25092Y369544D01*
X-25115Y369468D01*
X-25137Y369378D01*
X-25153Y369280D01*
X-25168Y369174D01*
X-25183Y369061D01*
X-25190Y368933D01*
Y368797D01*
Y366535D01*
X-25763D01*
Y370682D01*
X-25243D01*
Y370102D01*
X-25236Y370109D01*
X-25213Y370147D01*
X-25168Y370207D01*
X-25115Y370283D01*
X-25055Y370366D01*
X-24979Y370449D01*
X-24889Y370532D01*
X-24791Y370599D01*
X-24776Y370607D01*
X-24745Y370630D01*
X-24685Y370652D01*
X-24610Y370690D01*
X-24519Y370720D01*
X-24414Y370743D01*
X-24293Y370765D01*
X-24165Y370773D01*
X-24120D01*
X-24067Y370765D01*
D02*
G37*
G36*
X-6634Y366535D02*
X-7147D01*
Y367131D01*
X-7155Y367116D01*
X-7185Y367071D01*
X-7222Y367010D01*
X-7283Y366935D01*
X-7351Y366852D01*
X-7434Y366769D01*
X-7524Y366686D01*
X-7622Y366611D01*
X-7637Y366603D01*
X-7667Y366581D01*
X-7720Y366558D01*
X-7796Y366528D01*
X-7886Y366490D01*
X-7984Y366467D01*
X-8105Y366445D01*
X-8225Y366437D01*
X-8293D01*
X-8369Y366452D01*
X-8467Y366467D01*
X-8572Y366490D01*
X-8693Y366528D01*
X-8806Y366581D01*
X-8919Y366648D01*
X-8934Y366656D01*
X-8964Y366686D01*
X-9009Y366739D01*
X-9070Y366799D01*
X-9130Y366882D01*
X-9198Y366973D01*
X-9251Y367078D01*
X-9296Y367199D01*
Y367206D01*
Y367214D01*
X-9311Y367259D01*
X-9326Y367335D01*
X-9341Y367440D01*
X-9356Y367568D01*
X-9371Y367719D01*
X-9379Y367900D01*
X-9386Y368104D01*
Y370682D01*
X-8813D01*
Y368375D01*
Y368368D01*
Y368345D01*
Y368315D01*
Y368269D01*
Y368217D01*
Y368164D01*
X-8806Y368028D01*
X-8798Y367885D01*
X-8791Y367742D01*
X-8776Y367614D01*
X-8761Y367561D01*
X-8753Y367515D01*
Y367508D01*
X-8738Y367478D01*
X-8723Y367440D01*
X-8700Y367387D01*
X-8663Y367335D01*
X-8625Y367274D01*
X-8572Y367221D01*
X-8512Y367169D01*
X-8504Y367161D01*
X-8482Y367146D01*
X-8444Y367131D01*
X-8399Y367108D01*
X-8338Y367078D01*
X-8271Y367063D01*
X-8203Y367048D01*
X-8120Y367040D01*
X-8082D01*
X-8052Y367048D01*
X-7976Y367056D01*
X-7879Y367086D01*
X-7773Y367123D01*
X-7660Y367184D01*
X-7547Y367267D01*
X-7494Y367319D01*
X-7441Y367380D01*
X-7434Y367395D01*
X-7418Y367410D01*
X-7403Y367440D01*
X-7388Y367470D01*
X-7366Y367515D01*
X-7343Y367568D01*
X-7321Y367621D01*
X-7305Y367696D01*
X-7283Y367772D01*
X-7260Y367855D01*
X-7245Y367953D01*
X-7230Y368066D01*
X-7215Y368179D01*
X-7207Y368307D01*
Y368450D01*
Y370682D01*
X-6634D01*
Y366535D01*
D02*
G37*
G36*
X-11505Y370765D02*
X-11452Y370758D01*
X-11385Y370743D01*
X-11317Y370728D01*
X-11234Y370705D01*
X-11151Y370675D01*
X-11060Y370637D01*
X-10970Y370592D01*
X-10879Y370539D01*
X-10789Y370471D01*
X-10698Y370396D01*
X-10608Y370313D01*
X-10525Y370215D01*
X-10518Y370207D01*
X-10502Y370192D01*
X-10487Y370155D01*
X-10457Y370109D01*
X-10419Y370057D01*
X-10382Y369989D01*
X-10344Y369906D01*
X-10299Y369808D01*
X-10261Y369702D01*
X-10223Y369582D01*
X-10186Y369446D01*
X-10148Y369303D01*
X-10118Y369152D01*
X-10103Y368978D01*
X-10088Y368797D01*
X-10080Y368609D01*
Y368428D01*
X-12614D01*
Y368420D01*
Y368398D01*
X-12606Y368360D01*
Y368315D01*
X-12598Y368254D01*
X-12591Y368187D01*
X-12561Y368036D01*
X-12523Y367862D01*
X-12470Y367689D01*
X-12395Y367523D01*
X-12350Y367440D01*
X-12297Y367372D01*
X-12282Y367357D01*
X-12244Y367319D01*
X-12184Y367259D01*
X-12101Y367199D01*
X-11995Y367131D01*
X-11875Y367071D01*
X-11739Y367033D01*
X-11671Y367025D01*
X-11596Y367018D01*
X-11565D01*
X-11535Y367025D01*
X-11490Y367033D01*
X-11437Y367040D01*
X-11377Y367063D01*
X-11309Y367086D01*
X-11241Y367123D01*
X-11166Y367169D01*
X-11090Y367229D01*
X-11015Y367297D01*
X-10940Y367380D01*
X-10872Y367478D01*
X-10804Y367591D01*
X-10744Y367719D01*
X-10691Y367870D01*
X-10095Y367779D01*
Y367772D01*
X-10103Y367749D01*
X-10110Y367719D01*
X-10125Y367666D01*
X-10141Y367614D01*
X-10163Y367546D01*
X-10216Y367402D01*
X-10291Y367236D01*
X-10389Y367071D01*
X-10502Y366912D01*
X-10570Y366837D01*
X-10638Y366769D01*
X-10646D01*
X-10653Y366754D01*
X-10676Y366739D01*
X-10706Y366716D01*
X-10744Y366694D01*
X-10789Y366664D01*
X-10902Y366603D01*
X-11038Y366543D01*
X-11204Y366490D01*
X-11392Y366452D01*
X-11490Y366445D01*
X-11596Y366437D01*
X-11626D01*
X-11664Y366445D01*
X-11716D01*
X-11777Y366452D01*
X-11845Y366467D01*
X-11928Y366482D01*
X-12010Y366505D01*
X-12101Y366535D01*
X-12199Y366573D01*
X-12297Y366611D01*
X-12395Y366664D01*
X-12493Y366731D01*
X-12583Y366799D01*
X-12681Y366882D01*
X-12764Y366980D01*
X-12772Y366988D01*
X-12787Y367003D01*
X-12802Y367040D01*
X-12832Y367086D01*
X-12870Y367139D01*
X-12908Y367206D01*
X-12945Y367289D01*
X-12983Y367387D01*
X-13028Y367493D01*
X-13066Y367606D01*
X-13104Y367742D01*
X-13141Y367877D01*
X-13171Y368036D01*
X-13187Y368202D01*
X-13202Y368375D01*
X-13209Y368564D01*
Y368579D01*
Y368609D01*
Y368669D01*
X-13202Y368744D01*
X-13194Y368828D01*
X-13187Y368933D01*
X-13171Y369046D01*
X-13157Y369174D01*
X-13104Y369438D01*
X-13066Y369574D01*
X-13021Y369710D01*
X-12968Y369845D01*
X-12908Y369973D01*
X-12840Y370094D01*
X-12764Y370207D01*
X-12757Y370215D01*
X-12742Y370230D01*
X-12719Y370260D01*
X-12681Y370298D01*
X-12636Y370336D01*
X-12583Y370388D01*
X-12523Y370441D01*
X-12448Y370494D01*
X-12372Y370547D01*
X-12282Y370592D01*
X-12093Y370682D01*
X-11980Y370720D01*
X-11867Y370750D01*
X-11746Y370765D01*
X-11618Y370773D01*
X-11558D01*
X-11505Y370765D01*
D02*
G37*
G36*
X-14001Y366535D02*
X-14657D01*
Y367335D01*
X-14001D01*
Y366535D01*
D02*
G37*
G36*
X-15437Y364091D02*
X-15402D01*
X-15322Y364081D01*
X-15227Y364061D01*
X-15127Y364036D01*
X-15022Y364001D01*
X-14922Y363956D01*
X-14917D01*
X-14912Y363951D01*
X-14877Y363931D01*
X-14832Y363901D01*
X-14772Y363856D01*
X-14712Y363801D01*
X-14642Y363731D01*
X-14577Y363651D01*
X-14522Y363561D01*
Y363556D01*
X-14517Y363551D01*
X-14507Y363536D01*
X-14497Y363516D01*
X-14487Y363491D01*
X-14477Y363461D01*
X-14447Y363391D01*
X-14417Y363301D01*
X-14392Y363201D01*
X-14372Y363086D01*
X-14362Y362961D01*
X-14752Y362926D01*
Y362931D01*
Y362941D01*
X-14757Y362961D01*
X-14762Y362986D01*
X-14767Y363016D01*
X-14772Y363051D01*
X-14792Y363131D01*
X-14822Y363221D01*
X-14862Y363311D01*
X-14912Y363396D01*
X-14977Y363471D01*
X-14987Y363481D01*
X-15012Y363501D01*
X-15057Y363526D01*
X-15117Y363561D01*
X-15192Y363596D01*
X-15282Y363621D01*
X-15392Y363641D01*
X-15512Y363651D01*
X-15572D01*
X-15602Y363646D01*
X-15632Y363641D01*
X-15712Y363631D01*
X-15802Y363611D01*
X-15887Y363586D01*
X-15977Y363546D01*
X-16052Y363491D01*
X-16062Y363486D01*
X-16082Y363461D01*
X-16107Y363431D01*
X-16142Y363381D01*
X-16177Y363326D01*
X-16202Y363256D01*
X-16222Y363176D01*
X-16232Y363086D01*
Y363076D01*
Y363051D01*
X-16227Y363006D01*
X-16217Y362956D01*
X-16202Y362901D01*
X-16177Y362841D01*
X-16147Y362786D01*
X-16102Y362731D01*
X-16097Y362726D01*
X-16072Y362711D01*
X-16032Y362686D01*
X-16007Y362671D01*
X-15977Y362651D01*
X-15937Y362636D01*
X-15892Y362616D01*
X-15842Y362591D01*
X-15787Y362571D01*
X-15727Y362546D01*
X-15652Y362526D01*
X-15577Y362501D01*
X-15492Y362476D01*
X-15487D01*
X-15472Y362471D01*
X-15447Y362466D01*
X-15417Y362456D01*
X-15382Y362446D01*
X-15337Y362431D01*
X-15237Y362401D01*
X-15132Y362366D01*
X-15027Y362331D01*
X-14927Y362291D01*
X-14887Y362276D01*
X-14847Y362256D01*
X-14842D01*
X-14832Y362251D01*
X-14822Y362241D01*
X-14802Y362231D01*
X-14747Y362196D01*
X-14687Y362156D01*
X-14617Y362096D01*
X-14547Y362031D01*
X-14477Y361956D01*
X-14417Y361871D01*
Y361866D01*
X-14412Y361861D01*
X-14402Y361846D01*
X-14392Y361831D01*
X-14367Y361781D01*
X-14342Y361711D01*
X-14312Y361631D01*
X-14292Y361536D01*
X-14272Y361431D01*
X-14267Y361311D01*
Y361306D01*
Y361296D01*
Y361281D01*
Y361256D01*
X-14272Y361226D01*
X-14277Y361191D01*
X-14287Y361111D01*
X-14307Y361021D01*
X-14332Y360921D01*
X-14372Y360816D01*
X-14422Y360711D01*
Y360706D01*
X-14427Y360701D01*
X-14437Y360686D01*
X-14452Y360666D01*
X-14487Y360621D01*
X-14532Y360561D01*
X-14592Y360496D01*
X-14662Y360431D01*
X-14747Y360366D01*
X-14842Y360306D01*
X-14847D01*
X-14852Y360301D01*
X-14867Y360296D01*
X-14887Y360286D01*
X-14912Y360276D01*
X-14942Y360261D01*
X-15017Y360241D01*
X-15112Y360216D01*
X-15217Y360191D01*
X-15337Y360176D01*
X-15472Y360171D01*
X-15527D01*
X-15567Y360176D01*
X-15617Y360181D01*
X-15672Y360191D01*
X-15737Y360201D01*
X-15807Y360216D01*
X-15877Y360231D01*
X-15952Y360256D01*
X-16027Y360281D01*
X-16107Y360316D01*
X-16182Y360356D01*
X-16257Y360401D01*
X-16332Y360456D01*
X-16397Y360516D01*
X-16402Y360521D01*
X-16412Y360531D01*
X-16427Y360551D01*
X-16452Y360581D01*
X-16477Y360616D01*
X-16507Y360661D01*
X-16537Y360711D01*
X-16567Y360766D01*
X-16602Y360831D01*
X-16632Y360901D01*
X-16662Y360981D01*
X-16687Y361066D01*
X-16712Y361156D01*
X-16727Y361251D01*
X-16742Y361356D01*
X-16747Y361466D01*
X-16357Y361501D01*
Y361496D01*
Y361486D01*
X-16352Y361471D01*
Y361451D01*
X-16342Y361391D01*
X-16327Y361321D01*
X-16307Y361241D01*
X-16287Y361161D01*
X-16252Y361081D01*
X-16217Y361011D01*
X-16212Y361001D01*
X-16197Y360981D01*
X-16172Y360951D01*
X-16137Y360911D01*
X-16092Y360866D01*
X-16042Y360821D01*
X-15977Y360771D01*
X-15907Y360731D01*
X-15897Y360726D01*
X-15872Y360716D01*
X-15827Y360696D01*
X-15772Y360681D01*
X-15702Y360661D01*
X-15622Y360641D01*
X-15537Y360631D01*
X-15442Y360626D01*
X-15407D01*
X-15382Y360631D01*
X-15352D01*
X-15317Y360636D01*
X-15232Y360646D01*
X-15142Y360671D01*
X-15047Y360701D01*
X-14957Y360741D01*
X-14872Y360801D01*
X-14862Y360811D01*
X-14842Y360836D01*
X-14807Y360871D01*
X-14767Y360926D01*
X-14732Y360996D01*
X-14697Y361071D01*
X-14677Y361166D01*
X-14667Y361266D01*
Y361276D01*
Y361296D01*
X-14672Y361326D01*
X-14677Y361366D01*
X-14687Y361411D01*
X-14697Y361461D01*
X-14717Y361511D01*
X-14742Y361561D01*
X-14747Y361566D01*
X-14757Y361581D01*
X-14772Y361606D01*
X-14797Y361636D01*
X-14832Y361666D01*
X-14867Y361701D01*
X-14912Y361736D01*
X-14967Y361766D01*
X-14972Y361771D01*
X-14997Y361781D01*
X-15017Y361791D01*
X-15042Y361801D01*
X-15067Y361811D01*
X-15102Y361826D01*
X-15142Y361841D01*
X-15192Y361856D01*
X-15242Y361876D01*
X-15302Y361896D01*
X-15367Y361916D01*
X-15442Y361941D01*
X-15522Y361966D01*
X-15612Y361991D01*
X-15617D01*
X-15632Y361996D01*
X-15652Y362006D01*
X-15682Y362016D01*
X-15722Y362026D01*
X-15762Y362041D01*
X-15857Y362071D01*
X-15957Y362111D01*
X-16062Y362156D01*
X-16157Y362201D01*
X-16197Y362226D01*
X-16237Y362251D01*
X-16247Y362256D01*
X-16267Y362276D01*
X-16302Y362306D01*
X-16342Y362346D01*
X-16387Y362391D01*
X-16437Y362451D01*
X-16482Y362516D01*
X-16527Y362586D01*
X-16532Y362596D01*
X-16542Y362621D01*
X-16557Y362666D01*
X-16577Y362721D01*
X-16597Y362791D01*
X-16612Y362866D01*
X-16622Y362951D01*
X-16627Y363046D01*
Y363051D01*
Y363066D01*
Y363091D01*
X-16622Y363121D01*
X-16617Y363161D01*
X-16612Y363211D01*
X-16602Y363261D01*
X-16592Y363316D01*
X-16557Y363436D01*
X-16532Y363496D01*
X-16502Y363561D01*
X-16467Y363626D01*
X-16427Y363686D01*
X-16382Y363746D01*
X-16332Y363801D01*
X-16327Y363806D01*
X-16317Y363816D01*
X-16302Y363826D01*
X-16277Y363846D01*
X-16247Y363871D01*
X-16212Y363896D01*
X-16167Y363921D01*
X-16117Y363951D01*
X-16062Y363976D01*
X-16002Y364001D01*
X-15937Y364026D01*
X-15867Y364051D01*
X-15787Y364071D01*
X-15707Y364081D01*
X-15617Y364091D01*
X-15527Y364096D01*
X-15467D01*
X-15437Y364091D01*
D02*
G37*
G36*
X67944Y310039D02*
X67559D01*
Y312503D01*
X67550Y312499D01*
X67534Y312483D01*
X67501Y312454D01*
X67460Y312421D01*
X67407Y312380D01*
X67341Y312335D01*
X67272Y312286D01*
X67190Y312237D01*
X67186D01*
X67181Y312233D01*
X67169Y312225D01*
X67153Y312216D01*
X67108Y312192D01*
X67054Y312163D01*
X66993Y312130D01*
X66923Y312098D01*
X66853Y312065D01*
X66784Y312036D01*
Y312413D01*
X66788D01*
X66800Y312421D01*
X66817Y312430D01*
X66837Y312442D01*
X66866Y312454D01*
X66899Y312475D01*
X66976Y312516D01*
X67063Y312569D01*
X67161Y312635D01*
X67255Y312704D01*
X67350Y312782D01*
X67354Y312786D01*
X67362Y312790D01*
X67374Y312803D01*
X67391Y312819D01*
X67432Y312860D01*
X67485Y312917D01*
X67538Y312979D01*
X67596Y313053D01*
X67649Y313127D01*
X67694Y313205D01*
X67944D01*
Y310039D01*
D02*
G37*
G36*
X-40958Y366338D02*
X-40884Y366334D01*
X-40802Y366330D01*
X-40724Y366321D01*
X-40658Y366309D01*
X-40646D01*
X-40638Y366305D01*
X-40621Y366301D01*
X-40576Y366293D01*
X-40523Y366276D01*
X-40462Y366256D01*
X-40400Y366231D01*
X-40334Y366198D01*
X-40273Y366161D01*
X-40265Y366157D01*
X-40248Y366141D01*
X-40216Y366116D01*
X-40183Y366084D01*
X-40142Y366042D01*
X-40097Y365989D01*
X-40056Y365928D01*
X-40019Y365858D01*
Y365854D01*
X-40015Y365850D01*
X-40011Y365838D01*
X-40002Y365825D01*
X-39986Y365784D01*
X-39970Y365731D01*
X-39953Y365665D01*
X-39937Y365592D01*
X-39924Y365514D01*
X-39920Y365427D01*
Y365423D01*
Y365411D01*
Y365391D01*
X-39924Y365362D01*
X-39929Y365325D01*
X-39933Y365284D01*
X-39941Y365239D01*
X-39953Y365194D01*
X-39982Y365083D01*
X-40002Y365030D01*
X-40031Y364972D01*
X-40060Y364915D01*
X-40093Y364858D01*
X-40134Y364800D01*
X-40179Y364747D01*
X-40183Y364743D01*
X-40191Y364735D01*
X-40207Y364722D01*
X-40228Y364702D01*
X-40257Y364681D01*
X-40293Y364661D01*
X-40339Y364632D01*
X-40388Y364608D01*
X-40449Y364583D01*
X-40515Y364558D01*
X-40593Y364534D01*
X-40675Y364513D01*
X-40769Y364493D01*
X-40872Y364480D01*
X-40982Y364472D01*
X-41101Y364468D01*
X-41905D01*
Y363189D01*
X-42323D01*
Y366342D01*
X-41027D01*
X-40958Y366338D01*
D02*
G37*
G36*
X61405Y313188D02*
X61478Y313184D01*
X61560Y313180D01*
X61638Y313172D01*
X61704Y313159D01*
X61716D01*
X61724Y313155D01*
X61741Y313151D01*
X61786Y313143D01*
X61839Y313127D01*
X61901Y313106D01*
X61962Y313082D01*
X62028Y313049D01*
X62089Y313012D01*
X62098Y313008D01*
X62114Y312991D01*
X62147Y312967D01*
X62179Y312934D01*
X62221Y312893D01*
X62266Y312840D01*
X62307Y312778D01*
X62344Y312708D01*
Y312704D01*
X62348Y312700D01*
X62352Y312688D01*
X62360Y312676D01*
X62376Y312635D01*
X62393Y312581D01*
X62409Y312516D01*
X62426Y312442D01*
X62438Y312364D01*
X62442Y312278D01*
Y312274D01*
Y312262D01*
Y312241D01*
X62438Y312212D01*
X62434Y312175D01*
X62430Y312134D01*
X62421Y312089D01*
X62409Y312044D01*
X62380Y311933D01*
X62360Y311880D01*
X62331Y311823D01*
X62303Y311765D01*
X62270Y311708D01*
X62229Y311651D01*
X62184Y311597D01*
X62179Y311593D01*
X62171Y311585D01*
X62155Y311573D01*
X62134Y311552D01*
X62106Y311532D01*
X62069Y311511D01*
X62024Y311483D01*
X61975Y311458D01*
X61913Y311433D01*
X61847Y311409D01*
X61769Y311384D01*
X61687Y311364D01*
X61593Y311343D01*
X61491Y311331D01*
X61380Y311323D01*
X61261Y311318D01*
X60457D01*
Y310039D01*
X60039D01*
Y313192D01*
X61335D01*
X61405Y313188D01*
D02*
G37*
G36*
X65927Y310039D02*
X65484D01*
Y310482D01*
X65927D01*
Y310039D01*
D02*
G37*
G36*
X63992Y313200D02*
X64025Y313196D01*
X64061Y313192D01*
X64102Y313188D01*
X64148Y313180D01*
X64242Y313155D01*
X64344Y313118D01*
X64398Y313094D01*
X64447Y313065D01*
X64496Y313032D01*
X64541Y312995D01*
X64545Y312991D01*
X64553Y312987D01*
X64562Y312975D01*
X64578Y312959D01*
X64599Y312934D01*
X64619Y312909D01*
X64644Y312881D01*
X64668Y312844D01*
X64693Y312807D01*
X64717Y312762D01*
X64738Y312717D01*
X64763Y312663D01*
X64803Y312553D01*
X64816Y312487D01*
X64828Y312421D01*
X64443Y312393D01*
Y312397D01*
X64439Y312401D01*
Y312413D01*
X64434Y312430D01*
X64422Y312471D01*
X64406Y312520D01*
X64385Y312573D01*
X64357Y312626D01*
X64328Y312676D01*
X64295Y312721D01*
X64287Y312729D01*
X64266Y312745D01*
X64234Y312774D01*
X64188Y312803D01*
X64131Y312831D01*
X64065Y312860D01*
X63988Y312877D01*
X63906Y312885D01*
X63873D01*
X63840Y312881D01*
X63795Y312872D01*
X63746Y312860D01*
X63688Y312840D01*
X63635Y312815D01*
X63578Y312778D01*
X63569Y312774D01*
X63549Y312754D01*
X63516Y312725D01*
X63475Y312680D01*
X63430Y312626D01*
X63381Y312561D01*
X63336Y312483D01*
X63291Y312393D01*
Y312389D01*
X63287Y312380D01*
X63282Y312368D01*
X63274Y312348D01*
X63266Y312319D01*
X63258Y312286D01*
X63250Y312249D01*
X63237Y312208D01*
X63229Y312159D01*
X63221Y312102D01*
X63213Y312044D01*
X63204Y311979D01*
X63196Y311909D01*
X63188Y311831D01*
X63184Y311749D01*
Y311667D01*
X63192Y311671D01*
X63209Y311700D01*
X63237Y311737D01*
X63278Y311782D01*
X63327Y311835D01*
X63385Y311884D01*
X63450Y311938D01*
X63524Y311979D01*
X63528D01*
X63533Y311983D01*
X63545Y311987D01*
X63561Y311995D01*
X63598Y312011D01*
X63651Y312032D01*
X63717Y312052D01*
X63787Y312069D01*
X63865Y312081D01*
X63947Y312085D01*
X63984D01*
X64012Y312081D01*
X64045Y312077D01*
X64086Y312069D01*
X64127Y312061D01*
X64176Y312048D01*
X64225Y312036D01*
X64279Y312016D01*
X64332Y311991D01*
X64389Y311966D01*
X64447Y311929D01*
X64500Y311893D01*
X64553Y311847D01*
X64607Y311798D01*
X64611Y311794D01*
X64619Y311786D01*
X64631Y311770D01*
X64652Y311745D01*
X64672Y311716D01*
X64693Y311683D01*
X64717Y311642D01*
X64746Y311597D01*
X64771Y311548D01*
X64795Y311491D01*
X64816Y311433D01*
X64840Y311368D01*
X64857Y311294D01*
X64869Y311220D01*
X64877Y311142D01*
X64881Y311060D01*
Y311056D01*
Y311048D01*
Y311032D01*
Y311011D01*
X64877Y310982D01*
X64873Y310954D01*
X64865Y310880D01*
X64849Y310798D01*
X64828Y310703D01*
X64795Y310609D01*
X64750Y310511D01*
Y310507D01*
X64746Y310498D01*
X64738Y310486D01*
X64726Y310470D01*
X64697Y310425D01*
X64660Y310367D01*
X64607Y310306D01*
X64549Y310240D01*
X64480Y310179D01*
X64398Y310121D01*
X64394D01*
X64389Y310117D01*
X64377Y310109D01*
X64361Y310101D01*
X64336Y310088D01*
X64311Y310080D01*
X64250Y310056D01*
X64176Y310027D01*
X64090Y310006D01*
X63996Y309990D01*
X63893Y309986D01*
X63873D01*
X63848Y309990D01*
X63811D01*
X63770Y309998D01*
X63725Y310006D01*
X63672Y310015D01*
X63614Y310031D01*
X63553Y310048D01*
X63487Y310072D01*
X63422Y310101D01*
X63356Y310134D01*
X63291Y310175D01*
X63225Y310224D01*
X63164Y310277D01*
X63102Y310339D01*
X63098Y310343D01*
X63090Y310355D01*
X63073Y310375D01*
X63053Y310408D01*
X63032Y310445D01*
X63008Y310494D01*
X62979Y310552D01*
X62950Y310617D01*
X62922Y310695D01*
X62893Y310781D01*
X62868Y310880D01*
X62848Y310982D01*
X62827Y311101D01*
X62811Y311228D01*
X62803Y311364D01*
X62799Y311511D01*
Y311515D01*
Y311524D01*
Y311536D01*
Y311552D01*
Y311573D01*
X62803Y311597D01*
Y311659D01*
X62811Y311737D01*
X62815Y311823D01*
X62827Y311917D01*
X62840Y312020D01*
X62860Y312126D01*
X62881Y312237D01*
X62909Y312348D01*
X62942Y312458D01*
X62979Y312565D01*
X63024Y312663D01*
X63077Y312758D01*
X63135Y312840D01*
X63139Y312844D01*
X63147Y312856D01*
X63164Y312872D01*
X63188Y312897D01*
X63217Y312926D01*
X63254Y312954D01*
X63299Y312987D01*
X63344Y313024D01*
X63397Y313057D01*
X63459Y313090D01*
X63524Y313118D01*
X63594Y313147D01*
X63672Y313172D01*
X63754Y313188D01*
X63840Y313200D01*
X63930Y313205D01*
X63967D01*
X63992Y313200D01*
D02*
G37*
G36*
X-38432Y338791D02*
X-38391Y338787D01*
X-38346Y338783D01*
X-38297Y338774D01*
X-38243Y338762D01*
X-38129Y338734D01*
X-38071Y338713D01*
X-38010Y338688D01*
X-37948Y338660D01*
X-37891Y338623D01*
X-37837Y338586D01*
X-37784Y338541D01*
X-37780Y338537D01*
X-37772Y338528D01*
X-37760Y338516D01*
X-37743Y338496D01*
X-37723Y338471D01*
X-37698Y338442D01*
X-37678Y338410D01*
X-37649Y338369D01*
X-37624Y338328D01*
X-37604Y338278D01*
X-37559Y338172D01*
X-37542Y338114D01*
X-37530Y338053D01*
X-37522Y337987D01*
X-37518Y337918D01*
Y337909D01*
Y337885D01*
X-37522Y337848D01*
X-37526Y337799D01*
X-37538Y337745D01*
X-37551Y337680D01*
X-37571Y337614D01*
X-37596Y337544D01*
X-37600Y337536D01*
X-37612Y337512D01*
X-37628Y337475D01*
X-37657Y337430D01*
X-37694Y337372D01*
X-37739Y337307D01*
X-37793Y337233D01*
X-37854Y337159D01*
Y337155D01*
X-37862Y337151D01*
X-37874Y337139D01*
X-37887Y337122D01*
X-37907Y337102D01*
X-37932Y337077D01*
X-37961Y337048D01*
X-37997Y337016D01*
X-38034Y336979D01*
X-38080Y336938D01*
X-38129Y336889D01*
X-38182Y336839D01*
X-38243Y336786D01*
X-38305Y336733D01*
X-38379Y336671D01*
X-38453Y336606D01*
X-38457Y336601D01*
X-38469Y336593D01*
X-38485Y336577D01*
X-38510Y336561D01*
X-38535Y336536D01*
X-38567Y336507D01*
X-38637Y336446D01*
X-38715Y336380D01*
X-38789Y336315D01*
X-38822Y336286D01*
X-38850Y336257D01*
X-38879Y336228D01*
X-38899Y336208D01*
X-38904Y336204D01*
X-38916Y336192D01*
X-38932Y336171D01*
X-38957Y336142D01*
X-38982Y336114D01*
X-39010Y336077D01*
X-39064Y336003D01*
X-37514D01*
Y335630D01*
X-39601D01*
Y335638D01*
Y335654D01*
Y335679D01*
X-39596Y335716D01*
X-39592Y335757D01*
X-39584Y335802D01*
X-39572Y335847D01*
X-39555Y335896D01*
Y335900D01*
X-39551Y335905D01*
X-39547Y335917D01*
X-39539Y335933D01*
X-39523Y335974D01*
X-39494Y336028D01*
X-39457Y336093D01*
X-39416Y336163D01*
X-39363Y336237D01*
X-39301Y336315D01*
X-39297Y336319D01*
X-39293Y336323D01*
X-39281Y336335D01*
X-39268Y336351D01*
X-39227Y336397D01*
X-39170Y336454D01*
X-39100Y336524D01*
X-39014Y336606D01*
X-38912Y336696D01*
X-38793Y336794D01*
X-38789Y336798D01*
X-38772Y336815D01*
X-38744Y336835D01*
X-38711Y336864D01*
X-38670Y336901D01*
X-38621Y336942D01*
X-38567Y336987D01*
X-38514Y337036D01*
X-38399Y337143D01*
X-38284Y337253D01*
X-38231Y337311D01*
X-38182Y337364D01*
X-38137Y337413D01*
X-38100Y337462D01*
X-38096Y337467D01*
X-38092Y337475D01*
X-38084Y337487D01*
X-38071Y337504D01*
X-38059Y337528D01*
X-38043Y337553D01*
X-38006Y337614D01*
X-37973Y337684D01*
X-37944Y337762D01*
X-37924Y337848D01*
X-37915Y337889D01*
Y337930D01*
Y337934D01*
Y337942D01*
Y337950D01*
X-37920Y337967D01*
X-37924Y338012D01*
X-37936Y338065D01*
X-37957Y338127D01*
X-37985Y338188D01*
X-38026Y338254D01*
X-38084Y338315D01*
X-38092Y338323D01*
X-38112Y338340D01*
X-38149Y338365D01*
X-38198Y338397D01*
X-38260Y338426D01*
X-38334Y338451D01*
X-38420Y338467D01*
X-38514Y338475D01*
X-38543D01*
X-38559Y338471D01*
X-38584D01*
X-38612Y338467D01*
X-38674Y338455D01*
X-38744Y338434D01*
X-38822Y338405D01*
X-38895Y338365D01*
X-38961Y338307D01*
X-38969Y338299D01*
X-38986Y338278D01*
X-39014Y338237D01*
X-39043Y338188D01*
X-39076Y338119D01*
X-39105Y338041D01*
X-39121Y337950D01*
X-39129Y337844D01*
X-39527Y337885D01*
Y337889D01*
X-39523Y337905D01*
Y337926D01*
X-39518Y337959D01*
X-39510Y337996D01*
X-39502Y338036D01*
X-39490Y338086D01*
X-39474Y338135D01*
X-39437Y338246D01*
X-39412Y338303D01*
X-39383Y338356D01*
X-39351Y338414D01*
X-39314Y338467D01*
X-39273Y338516D01*
X-39223Y338561D01*
X-39219Y338565D01*
X-39211Y338569D01*
X-39195Y338582D01*
X-39174Y338598D01*
X-39145Y338615D01*
X-39113Y338635D01*
X-39076Y338656D01*
X-39031Y338680D01*
X-38982Y338701D01*
X-38928Y338721D01*
X-38871Y338742D01*
X-38805Y338758D01*
X-38740Y338774D01*
X-38666Y338787D01*
X-38588Y338791D01*
X-38506Y338795D01*
X-38461D01*
X-38432Y338791D01*
D02*
G37*
G36*
X-36435Y335630D02*
X-36878D01*
Y336073D01*
X-36435D01*
Y335630D01*
D02*
G37*
G36*
X-34418D02*
X-34804D01*
Y338094D01*
X-34812Y338090D01*
X-34828Y338073D01*
X-34861Y338045D01*
X-34902Y338012D01*
X-34955Y337971D01*
X-35021Y337926D01*
X-35091Y337877D01*
X-35173Y337827D01*
X-35177D01*
X-35181Y337823D01*
X-35193Y337815D01*
X-35209Y337807D01*
X-35255Y337782D01*
X-35308Y337754D01*
X-35369Y337721D01*
X-35439Y337688D01*
X-35509Y337655D01*
X-35578Y337627D01*
Y338004D01*
X-35574D01*
X-35562Y338012D01*
X-35546Y338020D01*
X-35525Y338032D01*
X-35496Y338045D01*
X-35464Y338065D01*
X-35386Y338106D01*
X-35300Y338159D01*
X-35201Y338225D01*
X-35107Y338295D01*
X-35013Y338373D01*
X-35009Y338377D01*
X-35000Y338381D01*
X-34988Y338393D01*
X-34972Y338410D01*
X-34931Y338451D01*
X-34877Y338508D01*
X-34824Y338569D01*
X-34767Y338643D01*
X-34713Y338717D01*
X-34668Y338795D01*
X-34418D01*
Y335630D01*
D02*
G37*
G36*
X-40958Y338779D02*
X-40884Y338774D01*
X-40802Y338770D01*
X-40724Y338762D01*
X-40658Y338750D01*
X-40646D01*
X-40638Y338746D01*
X-40621Y338742D01*
X-40576Y338734D01*
X-40523Y338717D01*
X-40462Y338697D01*
X-40400Y338672D01*
X-40334Y338639D01*
X-40273Y338602D01*
X-40265Y338598D01*
X-40248Y338582D01*
X-40216Y338557D01*
X-40183Y338524D01*
X-40142Y338483D01*
X-40097Y338430D01*
X-40056Y338369D01*
X-40019Y338299D01*
Y338295D01*
X-40015Y338291D01*
X-40011Y338278D01*
X-40002Y338266D01*
X-39986Y338225D01*
X-39970Y338172D01*
X-39953Y338106D01*
X-39937Y338032D01*
X-39924Y337954D01*
X-39920Y337868D01*
Y337864D01*
Y337852D01*
Y337831D01*
X-39924Y337803D01*
X-39929Y337766D01*
X-39933Y337725D01*
X-39941Y337680D01*
X-39953Y337635D01*
X-39982Y337524D01*
X-40002Y337471D01*
X-40031Y337413D01*
X-40060Y337356D01*
X-40093Y337298D01*
X-40134Y337241D01*
X-40179Y337188D01*
X-40183Y337184D01*
X-40191Y337175D01*
X-40207Y337163D01*
X-40228Y337143D01*
X-40257Y337122D01*
X-40293Y337102D01*
X-40339Y337073D01*
X-40388Y337048D01*
X-40449Y337024D01*
X-40515Y336999D01*
X-40593Y336975D01*
X-40675Y336954D01*
X-40769Y336934D01*
X-40872Y336921D01*
X-40982Y336913D01*
X-41101Y336909D01*
X-41905D01*
Y335630D01*
X-42323D01*
Y338783D01*
X-41027D01*
X-40958Y338779D01*
D02*
G37*
G36*
X-35324Y375098D02*
X-35636D01*
Y377534D01*
X-35640Y377530D01*
X-35656Y377513D01*
X-35681Y377485D01*
X-35713Y377452D01*
X-35754Y377411D01*
X-35808Y377366D01*
X-35865Y377316D01*
X-35931Y377267D01*
X-35939Y377263D01*
X-35960Y377247D01*
X-35996Y377222D01*
X-36042Y377193D01*
X-36091Y377161D01*
X-36148Y377128D01*
X-36206Y377099D01*
X-36263Y377070D01*
Y377439D01*
X-36259D01*
X-36251Y377448D01*
X-36238Y377456D01*
X-36218Y377464D01*
X-36197Y377481D01*
X-36173Y377497D01*
X-36107Y377542D01*
X-36037Y377591D01*
X-35964Y377653D01*
X-35886Y377722D01*
X-35808Y377800D01*
X-35804Y377804D01*
X-35800Y377808D01*
X-35787Y377821D01*
X-35775Y377837D01*
X-35738Y377878D01*
X-35697Y377936D01*
X-35652Y377997D01*
X-35607Y378071D01*
X-35562Y378145D01*
X-35529Y378223D01*
X-35324D01*
Y375098D01*
D02*
G37*
G36*
X-40703Y378206D02*
X-40674D01*
X-40609Y378198D01*
X-40535Y378190D01*
X-40461Y378173D01*
X-40387Y378149D01*
X-40318Y378120D01*
X-40310Y378116D01*
X-40289Y378104D01*
X-40256Y378083D01*
X-40219Y378050D01*
X-40174Y378013D01*
X-40129Y377964D01*
X-40080Y377903D01*
X-40039Y377837D01*
X-40035Y377829D01*
X-40023Y377804D01*
X-40002Y377763D01*
X-39982Y377714D01*
X-39965Y377653D01*
X-39945Y377579D01*
X-39932Y377501D01*
X-39928Y377415D01*
Y377411D01*
Y377407D01*
Y377394D01*
Y377378D01*
X-39932Y377337D01*
X-39941Y377288D01*
X-39953Y377226D01*
X-39969Y377161D01*
X-39990Y377095D01*
X-40023Y377029D01*
X-40027Y377021D01*
X-40039Y377001D01*
X-40060Y376968D01*
X-40092Y376931D01*
X-40129Y376886D01*
X-40174Y376841D01*
X-40224Y376796D01*
X-40285Y376755D01*
X-40281D01*
X-40277Y376751D01*
X-40264Y376747D01*
X-40248Y376738D01*
X-40207Y376718D01*
X-40158Y376689D01*
X-40100Y376652D01*
X-40043Y376603D01*
X-39990Y376546D01*
X-39937Y376476D01*
Y376472D01*
X-39932Y376468D01*
X-39924Y376455D01*
X-39916Y376443D01*
X-39895Y376402D01*
X-39871Y376345D01*
X-39846Y376275D01*
X-39826Y376193D01*
X-39809Y376103D01*
X-39805Y376000D01*
Y375996D01*
Y375988D01*
Y375972D01*
Y375951D01*
X-39809Y375927D01*
Y375898D01*
X-39822Y375832D01*
X-39834Y375754D01*
X-39854Y375672D01*
X-39883Y375586D01*
X-39924Y375504D01*
Y375500D01*
X-39928Y375496D01*
X-39945Y375471D01*
X-39969Y375430D01*
X-40006Y375385D01*
X-40051Y375336D01*
X-40100Y375283D01*
X-40162Y375234D01*
X-40232Y375193D01*
X-40236D01*
X-40240Y375189D01*
X-40252Y375184D01*
X-40269Y375176D01*
X-40285Y375172D01*
X-40310Y375164D01*
X-40371Y375148D01*
X-40445Y375127D01*
X-40535Y375115D01*
X-40642Y375102D01*
X-40761Y375098D01*
X-41732D01*
Y378210D01*
X-40728D01*
X-40703Y378206D01*
D02*
G37*
G36*
X-38555Y378219D02*
X-38522Y378214D01*
X-38485Y378210D01*
X-38399Y378190D01*
X-38305Y378157D01*
X-38256Y378136D01*
X-38206Y378112D01*
X-38157Y378079D01*
X-38112Y378042D01*
X-38071Y378001D01*
X-38030Y377956D01*
X-38026Y377952D01*
X-38022Y377944D01*
X-38010Y377931D01*
X-37997Y377911D01*
X-37985Y377886D01*
X-37964Y377854D01*
X-37948Y377821D01*
X-37927Y377784D01*
X-37891Y377694D01*
X-37862Y377591D01*
X-37837Y377481D01*
X-37833Y377419D01*
X-37829Y377358D01*
Y377353D01*
Y377345D01*
Y377329D01*
X-37833Y377308D01*
Y377280D01*
X-37837Y377251D01*
X-37841Y377214D01*
X-37850Y377177D01*
X-37866Y377087D01*
X-37895Y376993D01*
X-37936Y376890D01*
X-37989Y376788D01*
Y376783D01*
X-37997Y376775D01*
X-38005Y376759D01*
X-38022Y376738D01*
X-38038Y376710D01*
X-38063Y376677D01*
X-38087Y376640D01*
X-38120Y376595D01*
X-38161Y376546D01*
X-38202Y376492D01*
X-38251Y376431D01*
X-38305Y376369D01*
X-38366Y376300D01*
X-38432Y376226D01*
X-38506Y376144D01*
X-38583Y376062D01*
X-38588Y376058D01*
X-38596Y376050D01*
X-38608Y376033D01*
X-38629Y376017D01*
X-38678Y375968D01*
X-38731Y375906D01*
X-38793Y375845D01*
X-38854Y375779D01*
X-38903Y375722D01*
X-38928Y375693D01*
X-38944Y375672D01*
X-38948Y375668D01*
X-38957Y375656D01*
X-38973Y375636D01*
X-38989Y375607D01*
X-39014Y375578D01*
X-39035Y375541D01*
X-39075Y375467D01*
X-37825D01*
Y375098D01*
X-39510D01*
Y375102D01*
Y375107D01*
Y375119D01*
Y375139D01*
X-39506Y375160D01*
Y375184D01*
X-39498Y375242D01*
X-39481Y375316D01*
X-39457Y375402D01*
X-39424Y375496D01*
X-39379Y375594D01*
Y375599D01*
X-39371Y375607D01*
X-39362Y375623D01*
X-39350Y375644D01*
X-39334Y375672D01*
X-39313Y375701D01*
X-39289Y375738D01*
X-39260Y375779D01*
X-39227Y375828D01*
X-39190Y375877D01*
X-39149Y375931D01*
X-39100Y375988D01*
X-39047Y376050D01*
X-38993Y376111D01*
X-38928Y376177D01*
X-38862Y376246D01*
X-38858Y376251D01*
X-38842Y376267D01*
X-38821Y376287D01*
X-38793Y376320D01*
X-38756Y376357D01*
X-38715Y376398D01*
X-38674Y376443D01*
X-38625Y376497D01*
X-38530Y376603D01*
X-38436Y376718D01*
X-38391Y376771D01*
X-38350Y376824D01*
X-38317Y376878D01*
X-38288Y376923D01*
Y376927D01*
X-38284Y376935D01*
X-38276Y376947D01*
X-38268Y376964D01*
X-38243Y377009D01*
X-38219Y377066D01*
X-38194Y377136D01*
X-38169Y377210D01*
X-38153Y377292D01*
X-38149Y377370D01*
Y377374D01*
Y377382D01*
Y377394D01*
Y377411D01*
X-38157Y377452D01*
X-38165Y377509D01*
X-38182Y377567D01*
X-38206Y377632D01*
X-38243Y377698D01*
X-38288Y377755D01*
X-38296Y377763D01*
X-38313Y377780D01*
X-38342Y377804D01*
X-38383Y377833D01*
X-38432Y377858D01*
X-38489Y377882D01*
X-38555Y377899D01*
X-38629Y377907D01*
X-38649D01*
X-38666Y377903D01*
X-38706Y377899D01*
X-38756Y377886D01*
X-38809Y377866D01*
X-38870Y377837D01*
X-38928Y377796D01*
X-38985Y377743D01*
X-38989Y377735D01*
X-39006Y377714D01*
X-39030Y377677D01*
X-39055Y377624D01*
X-39080Y377562D01*
X-39104Y377481D01*
X-39121Y377390D01*
X-39125Y377284D01*
X-39449Y377325D01*
Y377329D01*
Y377345D01*
X-39445Y377366D01*
X-39440Y377398D01*
X-39432Y377435D01*
X-39428Y377476D01*
X-39416Y377526D01*
X-39404Y377575D01*
X-39375Y377681D01*
X-39330Y377792D01*
X-39272Y377899D01*
X-39235Y377948D01*
X-39198Y377993D01*
X-39194Y377997D01*
X-39186Y378001D01*
X-39174Y378013D01*
X-39158Y378030D01*
X-39137Y378046D01*
X-39108Y378067D01*
X-39080Y378087D01*
X-39043Y378108D01*
X-39002Y378128D01*
X-38961Y378149D01*
X-38862Y378186D01*
X-38748Y378214D01*
X-38686Y378219D01*
X-38620Y378223D01*
X-38583D01*
X-38555Y378219D01*
D02*
G37*
G36*
X-36952Y375098D02*
X-37308D01*
Y375533D01*
X-36952D01*
Y375098D01*
D02*
G37*
G36*
X-36435Y363189D02*
X-36878D01*
Y363632D01*
X-36435D01*
Y363189D01*
D02*
G37*
G36*
X-38088D02*
X-38473D01*
Y365653D01*
X-38481Y365649D01*
X-38498Y365633D01*
X-38530Y365604D01*
X-38571Y365571D01*
X-38625Y365530D01*
X-38690Y365485D01*
X-38760Y365436D01*
X-38842Y365387D01*
X-38846D01*
X-38850Y365382D01*
X-38862Y365374D01*
X-38879Y365366D01*
X-38924Y365341D01*
X-38977Y365313D01*
X-39039Y365280D01*
X-39109Y365247D01*
X-39178Y365214D01*
X-39248Y365186D01*
Y365563D01*
X-39244D01*
X-39232Y365571D01*
X-39215Y365579D01*
X-39195Y365592D01*
X-39166Y365604D01*
X-39133Y365624D01*
X-39055Y365665D01*
X-38969Y365719D01*
X-38871Y365784D01*
X-38776Y365854D01*
X-38682Y365932D01*
X-38678Y365936D01*
X-38670Y365940D01*
X-38658Y365952D01*
X-38641Y365969D01*
X-38600Y366010D01*
X-38547Y366067D01*
X-38493Y366129D01*
X-38436Y366202D01*
X-38383Y366276D01*
X-38338Y366354D01*
X-38088D01*
Y363189D01*
D02*
G37*
G36*
X-12172Y363496D02*
X-12552D01*
Y364031D01*
X-12172D01*
Y363496D01*
D02*
G37*
G36*
X-34418Y363189D02*
X-34804D01*
Y365653D01*
X-34812Y365649D01*
X-34828Y365633D01*
X-34861Y365604D01*
X-34902Y365571D01*
X-34955Y365530D01*
X-35021Y365485D01*
X-35091Y365436D01*
X-35173Y365387D01*
X-35177D01*
X-35181Y365382D01*
X-35193Y365374D01*
X-35209Y365366D01*
X-35255Y365341D01*
X-35308Y365313D01*
X-35369Y365280D01*
X-35439Y365247D01*
X-35509Y365214D01*
X-35578Y365186D01*
Y365563D01*
X-35574D01*
X-35562Y365571D01*
X-35546Y365579D01*
X-35525Y365592D01*
X-35496Y365604D01*
X-35464Y365624D01*
X-35386Y365665D01*
X-35300Y365719D01*
X-35201Y365784D01*
X-35107Y365854D01*
X-35013Y365932D01*
X-35009Y365936D01*
X-35000Y365940D01*
X-34988Y365952D01*
X-34972Y365969D01*
X-34931Y366010D01*
X-34877Y366067D01*
X-34824Y366129D01*
X-34767Y366202D01*
X-34713Y366276D01*
X-34668Y366354D01*
X-34418D01*
Y363189D01*
D02*
G37*
%LPC*%
G36*
X-41003Y365969D02*
X-41905D01*
Y364841D01*
X-41056D01*
X-41027Y364845D01*
X-40995D01*
X-40958Y364849D01*
X-40872Y364862D01*
X-40777Y364878D01*
X-40683Y364903D01*
X-40597Y364940D01*
X-40556Y364964D01*
X-40523Y364989D01*
X-40515Y364997D01*
X-40494Y365018D01*
X-40470Y365050D01*
X-40437Y365100D01*
X-40404Y365161D01*
X-40380Y365235D01*
X-40359Y365317D01*
X-40351Y365415D01*
Y365419D01*
Y365423D01*
Y365448D01*
X-40355Y365485D01*
X-40363Y365530D01*
X-40376Y365583D01*
X-40396Y365641D01*
X-40420Y365698D01*
X-40453Y365751D01*
X-40457Y365760D01*
X-40470Y365776D01*
X-40494Y365801D01*
X-40523Y365829D01*
X-40560Y365862D01*
X-40605Y365891D01*
X-40658Y365919D01*
X-40716Y365940D01*
X-40720D01*
X-40736Y365944D01*
X-40765Y365948D01*
X-40802Y365956D01*
X-40855Y365961D01*
X-40921Y365965D01*
X-41003Y365969D01*
D02*
G37*
G36*
Y338410D02*
X-41905D01*
Y337282D01*
X-41056D01*
X-41027Y337286D01*
X-40995D01*
X-40958Y337290D01*
X-40872Y337303D01*
X-40777Y337319D01*
X-40683Y337344D01*
X-40597Y337381D01*
X-40556Y337405D01*
X-40523Y337430D01*
X-40515Y337438D01*
X-40494Y337458D01*
X-40470Y337491D01*
X-40437Y337540D01*
X-40404Y337602D01*
X-40380Y337676D01*
X-40359Y337758D01*
X-40351Y337856D01*
Y337860D01*
Y337864D01*
Y337889D01*
X-40355Y337926D01*
X-40363Y337971D01*
X-40376Y338024D01*
X-40396Y338082D01*
X-40420Y338139D01*
X-40453Y338192D01*
X-40457Y338200D01*
X-40470Y338217D01*
X-40494Y338242D01*
X-40523Y338270D01*
X-40560Y338303D01*
X-40605Y338332D01*
X-40658Y338360D01*
X-40716Y338381D01*
X-40720D01*
X-40736Y338385D01*
X-40765Y338389D01*
X-40802Y338397D01*
X-40855Y338401D01*
X-40921Y338405D01*
X-41003Y338410D01*
D02*
G37*
G36*
X-20689Y370222D02*
X-20704D01*
X-20749Y370215D01*
X-20817Y370200D01*
X-20900Y370170D01*
X-20998Y370117D01*
X-21104Y370041D01*
X-21156Y369996D01*
X-21209Y369943D01*
X-21270Y369876D01*
X-21322Y369800D01*
Y369793D01*
X-21337Y369777D01*
X-21345Y369755D01*
X-21368Y369725D01*
X-21390Y369679D01*
X-21413Y369627D01*
X-21435Y369559D01*
X-21458Y369491D01*
X-21488Y369408D01*
X-21511Y369318D01*
X-21533Y369219D01*
X-21556Y369106D01*
X-21579Y368986D01*
X-21586Y368858D01*
X-21601Y368722D01*
Y368579D01*
Y368571D01*
Y368541D01*
Y368503D01*
X-21594Y368450D01*
Y368383D01*
X-21586Y368307D01*
X-21579Y368217D01*
X-21571Y368126D01*
X-21533Y367938D01*
X-21488Y367742D01*
X-21428Y367553D01*
X-21383Y367470D01*
X-21337Y367395D01*
Y367387D01*
X-21322Y367380D01*
X-21292Y367335D01*
X-21232Y367274D01*
X-21156Y367206D01*
X-21058Y367139D01*
X-20945Y367078D01*
X-20817Y367033D01*
X-20749Y367025D01*
X-20681Y367018D01*
X-20666D01*
X-20621Y367025D01*
X-20553Y367040D01*
X-20463Y367071D01*
X-20365Y367116D01*
X-20259Y367184D01*
X-20206Y367229D01*
X-20146Y367282D01*
X-20093Y367342D01*
X-20041Y367410D01*
Y367418D01*
X-20025Y367425D01*
X-20018Y367455D01*
X-19995Y367485D01*
X-19973Y367523D01*
X-19950Y367576D01*
X-19927Y367636D01*
X-19897Y367711D01*
X-19875Y367787D01*
X-19852Y367877D01*
X-19829Y367975D01*
X-19807Y368089D01*
X-19784Y368209D01*
X-19777Y368337D01*
X-19761Y368473D01*
Y368624D01*
Y368631D01*
Y368662D01*
Y368699D01*
X-19769Y368760D01*
Y368828D01*
X-19777Y368903D01*
X-19784Y368986D01*
X-19792Y369084D01*
X-19829Y369280D01*
X-19875Y369476D01*
X-19942Y369664D01*
X-19988Y369755D01*
X-20033Y369830D01*
Y369838D01*
X-20048Y369845D01*
X-20078Y369891D01*
X-20139Y369951D01*
X-20214Y370026D01*
X-20312Y370102D01*
X-20425Y370162D01*
X-20553Y370207D01*
X-20621Y370215D01*
X-20689Y370222D01*
D02*
G37*
G36*
X-40806Y376537D02*
X-41396D01*
Y375467D01*
X-40728D01*
X-40691Y375471D01*
X-40642D01*
X-40593Y375476D01*
X-40543Y375484D01*
X-40494Y375492D01*
X-40453Y375504D01*
X-40445Y375508D01*
X-40429Y375517D01*
X-40404Y375529D01*
X-40371Y375545D01*
X-40334Y375570D01*
X-40297Y375603D01*
X-40260Y375640D01*
X-40232Y375685D01*
X-40228Y375689D01*
X-40219Y375709D01*
X-40207Y375734D01*
X-40191Y375771D01*
X-40178Y375820D01*
X-40166Y375873D01*
X-40158Y375935D01*
X-40154Y376005D01*
Y376009D01*
Y376013D01*
Y376033D01*
X-40158Y376066D01*
X-40162Y376107D01*
X-40170Y376156D01*
X-40187Y376205D01*
X-40203Y376255D01*
X-40228Y376300D01*
X-40232Y376304D01*
X-40240Y376320D01*
X-40256Y376341D01*
X-40281Y376369D01*
X-40310Y376398D01*
X-40342Y376427D01*
X-40379Y376455D01*
X-40424Y376480D01*
X-40429Y376484D01*
X-40445Y376488D01*
X-40478Y376497D01*
X-40515Y376509D01*
X-40568Y376521D01*
X-40633Y376529D01*
X-40716Y376533D01*
X-40806Y376537D01*
D02*
G37*
G36*
X-40789Y377841D02*
X-41396D01*
Y376906D01*
X-40773D01*
X-40728Y376911D01*
X-40674Y376915D01*
X-40625Y376919D01*
X-40576Y376927D01*
X-40535Y376935D01*
X-40531Y376939D01*
X-40515Y376943D01*
X-40490Y376956D01*
X-40461Y376972D01*
X-40429Y376993D01*
X-40396Y377017D01*
X-40363Y377046D01*
X-40334Y377083D01*
X-40330Y377087D01*
X-40322Y377103D01*
X-40310Y377124D01*
X-40297Y377157D01*
X-40285Y377198D01*
X-40273Y377247D01*
X-40264Y377300D01*
X-40260Y377366D01*
Y377374D01*
Y377394D01*
X-40264Y377423D01*
X-40269Y377464D01*
X-40277Y377509D01*
X-40289Y377554D01*
X-40306Y377599D01*
X-40326Y377644D01*
X-40330Y377649D01*
X-40338Y377661D01*
X-40351Y377681D01*
X-40371Y377706D01*
X-40396Y377731D01*
X-40429Y377755D01*
X-40461Y377780D01*
X-40502Y377796D01*
X-40506Y377800D01*
X-40523Y377804D01*
X-40551Y377813D01*
X-40588Y377821D01*
X-40642Y377829D01*
X-40707Y377833D01*
X-40789Y377841D01*
D02*
G37*
G36*
X-26607Y362661D02*
X-26632D01*
X-26647Y362656D01*
X-26697Y362651D01*
X-26757Y362636D01*
X-26827Y362611D01*
X-26897Y362571D01*
X-26972Y362516D01*
X-27007Y362486D01*
X-27042Y362446D01*
X-27052Y362436D01*
X-27072Y362406D01*
X-27102Y362361D01*
X-27132Y362296D01*
X-27172Y362216D01*
X-27202Y362116D01*
X-27227Y362006D01*
X-27242Y361876D01*
X-25982D01*
Y361881D01*
Y361891D01*
X-25987Y361911D01*
Y361936D01*
X-25992Y361966D01*
X-25997Y361996D01*
X-26012Y362076D01*
X-26032Y362161D01*
X-26062Y362251D01*
X-26092Y362331D01*
X-26137Y362406D01*
Y362411D01*
X-26147Y362416D01*
X-26172Y362446D01*
X-26212Y362486D01*
X-26267Y362536D01*
X-26332Y362581D01*
X-26412Y362621D01*
X-26507Y362651D01*
X-26557Y362656D01*
X-26607Y362661D01*
D02*
G37*
G36*
X-19627D02*
X-19652D01*
X-19672Y362656D01*
X-19722Y362646D01*
X-19787Y362626D01*
X-19857Y362596D01*
X-19937Y362551D01*
X-19972Y362521D01*
X-20012Y362486D01*
X-20052Y362441D01*
X-20087Y362396D01*
Y362391D01*
X-20097Y362386D01*
X-20102Y362371D01*
X-20117Y362346D01*
X-20132Y362321D01*
X-20147Y362286D01*
X-20162Y362246D01*
X-20182Y362201D01*
X-20202Y362146D01*
X-20217Y362091D01*
X-20232Y362026D01*
X-20247Y361951D01*
X-20257Y361876D01*
X-20267Y361791D01*
X-20277Y361701D01*
Y361606D01*
Y361601D01*
Y361581D01*
Y361556D01*
X-20272Y361521D01*
Y361476D01*
X-20267Y361426D01*
X-20262Y361371D01*
X-20252Y361311D01*
X-20232Y361181D01*
X-20197Y361051D01*
X-20152Y360926D01*
X-20122Y360866D01*
X-20087Y360816D01*
Y360811D01*
X-20077Y360806D01*
X-20052Y360776D01*
X-20012Y360736D01*
X-19952Y360686D01*
X-19882Y360636D01*
X-19802Y360596D01*
X-19707Y360566D01*
X-19657Y360561D01*
X-19602Y360556D01*
X-19577D01*
X-19557Y360561D01*
X-19507Y360571D01*
X-19447Y360591D01*
X-19372Y360621D01*
X-19297Y360666D01*
X-19257Y360696D01*
X-19217Y360731D01*
X-19177Y360771D01*
X-19142Y360816D01*
Y360821D01*
X-19132Y360831D01*
X-19122Y360846D01*
X-19112Y360866D01*
X-19097Y360896D01*
X-19082Y360926D01*
X-19062Y360966D01*
X-19042Y361016D01*
X-19027Y361066D01*
X-19007Y361126D01*
X-18992Y361191D01*
X-18977Y361261D01*
X-18967Y361336D01*
X-18957Y361421D01*
X-18947Y361511D01*
Y361606D01*
Y361611D01*
Y361631D01*
Y361656D01*
X-18952Y361691D01*
Y361736D01*
X-18957Y361786D01*
X-18962Y361846D01*
X-18972Y361906D01*
X-18992Y362031D01*
X-19027Y362161D01*
X-19077Y362286D01*
X-19107Y362346D01*
X-19142Y362396D01*
Y362401D01*
X-19152Y362406D01*
X-19177Y362436D01*
X-19217Y362481D01*
X-19277Y362531D01*
X-19347Y362576D01*
X-19427Y362621D01*
X-19522Y362651D01*
X-19572Y362656D01*
X-19627Y362661D01*
D02*
G37*
G36*
X-11626Y370192D02*
X-11664D01*
X-11686Y370185D01*
X-11762Y370177D01*
X-11852Y370155D01*
X-11958Y370117D01*
X-12063Y370057D01*
X-12176Y369973D01*
X-12229Y369928D01*
X-12282Y369868D01*
X-12297Y369853D01*
X-12327Y369808D01*
X-12372Y369740D01*
X-12417Y369642D01*
X-12478Y369521D01*
X-12523Y369370D01*
X-12561Y369204D01*
X-12583Y369008D01*
X-10683D01*
Y369016D01*
Y369031D01*
X-10691Y369061D01*
Y369099D01*
X-10698Y369144D01*
X-10706Y369189D01*
X-10729Y369310D01*
X-10759Y369438D01*
X-10804Y369574D01*
X-10849Y369695D01*
X-10917Y369808D01*
Y369815D01*
X-10932Y369823D01*
X-10970Y369868D01*
X-11030Y369928D01*
X-11113Y370004D01*
X-11211Y370072D01*
X-11332Y370132D01*
X-11475Y370177D01*
X-11550Y370185D01*
X-11626Y370192D01*
D02*
G37*
G36*
X-17221D02*
X-17236D01*
X-17281Y370185D01*
X-17349Y370170D01*
X-17432Y370147D01*
X-17530Y370102D01*
X-17635Y370034D01*
X-17688Y369989D01*
X-17741Y369936D01*
X-17794Y369876D01*
X-17846Y369808D01*
Y369800D01*
X-17854Y369793D01*
X-17869Y369770D01*
X-17884Y369732D01*
X-17907Y369695D01*
X-17929Y369642D01*
X-17952Y369582D01*
X-17975Y369514D01*
X-17997Y369431D01*
X-18020Y369340D01*
X-18042Y369242D01*
X-18065Y369137D01*
X-18080Y369016D01*
X-18095Y368888D01*
X-18103Y368744D01*
Y368594D01*
Y368586D01*
Y368556D01*
Y368518D01*
X-18095Y368465D01*
Y368398D01*
X-18088Y368322D01*
X-18080Y368239D01*
X-18065Y368149D01*
X-18035Y367953D01*
X-17982Y367757D01*
X-17914Y367568D01*
X-17869Y367478D01*
X-17824Y367402D01*
Y367395D01*
X-17809Y367387D01*
X-17771Y367342D01*
X-17718Y367282D01*
X-17635Y367214D01*
X-17545Y367139D01*
X-17432Y367078D01*
X-17311Y367033D01*
X-17243Y367025D01*
X-17175Y367018D01*
X-17160D01*
X-17115Y367025D01*
X-17047Y367040D01*
X-16957Y367063D01*
X-16859Y367108D01*
X-16753Y367176D01*
X-16700Y367214D01*
X-16647Y367267D01*
X-16595Y367319D01*
X-16542Y367387D01*
Y367395D01*
X-16527Y367402D01*
X-16519Y367425D01*
X-16497Y367455D01*
X-16482Y367500D01*
X-16459Y367546D01*
X-16429Y367606D01*
X-16406Y367674D01*
X-16384Y367742D01*
X-16353Y367832D01*
X-16331Y367923D01*
X-16316Y368021D01*
X-16293Y368134D01*
X-16286Y368254D01*
X-16271Y368383D01*
Y368518D01*
Y368526D01*
Y368556D01*
Y368601D01*
X-16278Y368662D01*
Y368729D01*
X-16286Y368812D01*
X-16293Y368903D01*
X-16301Y369001D01*
X-16338Y369212D01*
X-16384Y369416D01*
X-16451Y369619D01*
X-16497Y369702D01*
X-16542Y369785D01*
Y369793D01*
X-16557Y369800D01*
X-16587Y369845D01*
X-16647Y369913D01*
X-16723Y369989D01*
X-16821Y370064D01*
X-16942Y370132D01*
X-17070Y370177D01*
X-17145Y370185D01*
X-17221Y370192D01*
D02*
G37*
G36*
X63918Y311745D02*
X63844D01*
X63824Y311741D01*
X63803D01*
X63774Y311737D01*
X63717Y311720D01*
X63647Y311700D01*
X63569Y311667D01*
X63496Y311618D01*
X63459Y311589D01*
X63426Y311556D01*
Y311552D01*
X63418Y311548D01*
X63410Y311536D01*
X63397Y311524D01*
X63368Y311483D01*
X63336Y311425D01*
X63303Y311351D01*
X63274Y311269D01*
X63254Y311171D01*
X63250Y311118D01*
X63245Y311060D01*
Y311056D01*
Y311052D01*
Y311027D01*
X63250Y310986D01*
X63258Y310937D01*
X63266Y310880D01*
X63278Y310814D01*
X63299Y310745D01*
X63327Y310675D01*
X63332Y310667D01*
X63344Y310646D01*
X63364Y310613D01*
X63389Y310572D01*
X63422Y310527D01*
X63463Y310482D01*
X63512Y310441D01*
X63565Y310400D01*
X63573Y310396D01*
X63590Y310384D01*
X63623Y310371D01*
X63664Y310355D01*
X63709Y310334D01*
X63766Y310322D01*
X63824Y310310D01*
X63885Y310306D01*
X63910D01*
X63926Y310310D01*
X63971Y310318D01*
X64029Y310330D01*
X64098Y310355D01*
X64168Y310388D01*
X64238Y310437D01*
X64275Y310470D01*
X64307Y310503D01*
X64311Y310507D01*
X64316Y310511D01*
X64324Y310523D01*
X64336Y310540D01*
X64348Y310560D01*
X64365Y310585D01*
X64381Y310613D01*
X64398Y310642D01*
X64426Y310720D01*
X64455Y310814D01*
X64476Y310921D01*
X64484Y310978D01*
Y311040D01*
Y311044D01*
Y311056D01*
Y311072D01*
X64480Y311093D01*
Y311122D01*
X64476Y311155D01*
X64463Y311228D01*
X64443Y311310D01*
X64410Y311396D01*
X64365Y311478D01*
X64340Y311519D01*
X64307Y311556D01*
Y311560D01*
X64299Y311564D01*
X64275Y311585D01*
X64238Y311618D01*
X64188Y311651D01*
X64123Y311683D01*
X64049Y311716D01*
X63963Y311737D01*
X63918Y311745D01*
D02*
G37*
G36*
X61360Y312819D02*
X60457D01*
Y311692D01*
X61306D01*
X61335Y311696D01*
X61368D01*
X61405Y311700D01*
X61491Y311712D01*
X61585Y311729D01*
X61679Y311753D01*
X61765Y311790D01*
X61806Y311815D01*
X61839Y311839D01*
X61847Y311847D01*
X61868Y311868D01*
X61892Y311901D01*
X61925Y311950D01*
X61958Y312011D01*
X61983Y312085D01*
X62003Y312167D01*
X62011Y312266D01*
Y312270D01*
Y312274D01*
Y312298D01*
X62007Y312335D01*
X61999Y312380D01*
X61987Y312434D01*
X61966Y312491D01*
X61942Y312548D01*
X61909Y312602D01*
X61905Y312610D01*
X61892Y312626D01*
X61868Y312651D01*
X61839Y312680D01*
X61802Y312713D01*
X61757Y312741D01*
X61704Y312770D01*
X61646Y312790D01*
X61642D01*
X61626Y312794D01*
X61597Y312799D01*
X61560Y312807D01*
X61507Y312811D01*
X61441Y312815D01*
X61360Y312819D01*
D02*
G37*
%LPD*%
D12*
X-43386Y342284D02*
X-33386D01*
X-43386D02*
Y362284D01*
X-33386D01*
Y342284D02*
Y362284D01*
X-43386Y274724D02*
X-33386D01*
X-43386Y334724D02*
X-33386D01*
Y274724D02*
Y334724D01*
X-43386Y274724D02*
Y334724D01*
X59961D02*
X69961D01*
Y314724D02*
Y334724D01*
X59961Y314724D02*
X69961D01*
X59961D02*
Y334724D01*
D15*
X29134Y276378D02*
G03*
X28892Y276293I-14524J41217D01*
G01*
M02*
