%FSLAX25Y25*%
%MOIN*%
G70*
G01*
G75*
G04 Layer_Color=16711935*
%ADD10R,0.03937X0.02756*%
%ADD11R,0.02362X0.03937*%
%ADD12R,0.01969X0.03937*%
%ADD13R,0.02756X0.03937*%
%ADD14R,0.06299X0.07874*%
%ADD15O,0.02165X0.06496*%
%ADD16O,0.06496X0.02165*%
%ADD17R,0.02362X0.05118*%
%ADD18R,0.06299X0.02756*%
%ADD19R,0.02362X0.05906*%
%ADD20R,0.03150X0.09843*%
%ADD21R,0.03150X0.07480*%
%ADD22R,0.07480X0.03150*%
%ADD23C,0.00787*%
%ADD24C,0.07874*%
G04:AMPARAMS|DCode=25|XSize=78.74mil|YSize=78.74mil|CornerRadius=19.69mil|HoleSize=0mil|Usage=FLASHONLY|Rotation=270.000|XOffset=0mil|YOffset=0mil|HoleType=Round|Shape=RoundedRectangle|*
%AMROUNDEDRECTD25*
21,1,0.07874,0.03937,0,0,270.0*
21,1,0.03937,0.07874,0,0,270.0*
1,1,0.03937,-0.01969,-0.01969*
1,1,0.03937,-0.01969,0.01969*
1,1,0.03937,0.01969,0.01969*
1,1,0.03937,0.01969,-0.01969*
%
%ADD25ROUNDEDRECTD25*%
%ADD26C,0.07874*%
%ADD27C,0.05906*%
%ADD28R,0.05906X0.05906*%
%ADD29R,0.05906X0.05906*%
%ADD30C,0.04724*%
%ADD31C,0.02756*%
%ADD32R,0.04724X0.04724*%
%ADD33C,0.05906*%
%ADD34C,0.01000*%
%ADD35C,0.00984*%
%ADD36C,0.02362*%
%ADD37C,0.00394*%
%ADD38R,0.04737X0.03556*%
%ADD39R,0.03162X0.04737*%
%ADD40R,0.02769X0.04737*%
%ADD41R,0.03556X0.04737*%
%ADD42R,0.07099X0.08674*%
%ADD43O,0.02965X0.07296*%
%ADD44O,0.07296X0.02965*%
%ADD45R,0.03162X0.05918*%
%ADD46R,0.07099X0.03556*%
%ADD47R,0.03162X0.06706*%
%ADD48R,0.03950X0.10642*%
%ADD49R,0.03950X0.08280*%
%ADD50R,0.08280X0.03950*%
%ADD51C,0.00800*%
G04:AMPARAMS|DCode=52|XSize=86.74mil|YSize=86.74mil|CornerRadius=23.69mil|HoleSize=0mil|Usage=FLASHONLY|Rotation=270.000|XOffset=0mil|YOffset=0mil|HoleType=Round|Shape=RoundedRectangle|*
%AMROUNDEDRECTD52*
21,1,0.08674,0.03937,0,0,270.0*
21,1,0.03937,0.08674,0,0,270.0*
1,1,0.04737,-0.01969,-0.01969*
1,1,0.04737,-0.01969,0.01969*
1,1,0.04737,0.01969,0.01969*
1,1,0.04737,0.01969,-0.01969*
%
%ADD52ROUNDEDRECTD52*%
%ADD53C,0.08674*%
%ADD54C,0.06706*%
%ADD55R,0.06706X0.06706*%
%ADD56R,0.06706X0.06706*%
%ADD57C,0.05524*%
%ADD58C,0.03556*%
%ADD59R,0.05524X0.05524*%
D51*
X13779Y263779D02*
D03*
D52*
X53150Y289370D02*
D03*
D53*
X53150Y299370D02*
D03*
X53150Y309370D02*
D03*
Y319370D02*
D03*
D54*
X12126Y358425D02*
D03*
Y348425D02*
D03*
X2126Y358425D02*
D03*
Y348425D02*
D03*
X-7874Y358425D02*
D03*
X-38386Y347284D02*
D03*
X-38386Y319724D02*
D03*
Y309724D02*
D03*
Y299724D02*
D03*
Y289724D02*
D03*
Y279724D02*
D03*
X64961Y329724D02*
D03*
X64961Y357284D02*
D03*
X12638Y374015D02*
D03*
D55*
X-7874Y348425D02*
D03*
X22638Y374015D02*
D03*
D56*
X-38386Y357284D02*
D03*
X-38386Y329724D02*
D03*
X64961Y319724D02*
D03*
Y347284D02*
D03*
D57*
X2953Y372047D02*
D03*
X-7047D02*
D03*
D58*
X-16240Y360728D02*
D03*
X-20721Y356387D02*
D03*
X-18701Y339567D02*
D03*
X-37008Y372244D02*
D03*
X21654Y290945D02*
D03*
X17717Y294094D02*
D03*
X40945Y324803D02*
D03*
X42520Y302756D02*
D03*
X37795Y294488D02*
D03*
X32677Y291732D02*
D03*
X26772Y292913D02*
D03*
X8655Y317109D02*
D03*
X33858Y268799D02*
D03*
X13976Y294237D02*
D03*
X30807Y266732D02*
D03*
X28429Y322337D02*
D03*
X-31496Y312795D02*
D03*
X16929Y323031D02*
D03*
X12303Y311417D02*
D03*
X-34744Y364665D02*
D03*
X1968Y268012D02*
D03*
X-10371Y319637D02*
D03*
X49229Y278740D02*
D03*
X12929Y319137D02*
D03*
X15229Y326237D02*
D03*
X-5689Y289354D02*
D03*
X-5471Y302137D02*
D03*
X-11371Y366437D02*
D03*
X16829Y314637D02*
D03*
X54129Y342637D02*
D03*
X28629Y316537D02*
D03*
X39429Y335237D02*
D03*
X19429Y311937D02*
D03*
X32529Y351137D02*
D03*
X27129Y326837D02*
D03*
X-24671Y320937D02*
D03*
X-6471Y325637D02*
D03*
X-2271Y336837D02*
D03*
X44929Y370837D02*
D03*
X26829Y307337D02*
D03*
X-11271Y299337D02*
D03*
X44629Y337637D02*
D03*
X3229Y333537D02*
D03*
X60329Y376637D02*
D03*
X35929Y360037D02*
D03*
X22736Y268307D02*
D03*
D59*
X36811Y341142D02*
D03*
X28937D02*
D03*
X21063D02*
D03*
X13189D02*
D03*
X5315D02*
D03*
X-2559D02*
D03*
X-10433D02*
D03*
Y278543D02*
D03*
X-2559D02*
D03*
X5315D02*
D03*
X13189D02*
D03*
X21063D02*
D03*
X28937D02*
D03*
X36811D02*
D03*
M02*
