%FSLAX25Y25*%
%MOIN*%
G70*
G01*
G75*
G04 Layer_Color=255*
%ADD10R,0.03937X0.02756*%
%ADD11R,0.02362X0.03937*%
%ADD12R,0.01969X0.03937*%
%ADD13R,0.02756X0.03937*%
%ADD14R,0.06299X0.07874*%
%ADD15O,0.02165X0.06496*%
%ADD16O,0.06496X0.02165*%
%ADD17R,0.02362X0.05118*%
%ADD18R,0.06299X0.02756*%
%ADD19R,0.02362X0.05906*%
%ADD20R,0.03150X0.09843*%
%ADD21R,0.03150X0.07480*%
%ADD22R,0.07480X0.03150*%
%ADD23C,0.00787*%
%ADD24C,0.07874*%
G04:AMPARAMS|DCode=25|XSize=78.74mil|YSize=78.74mil|CornerRadius=19.69mil|HoleSize=0mil|Usage=FLASHONLY|Rotation=270.000|XOffset=0mil|YOffset=0mil|HoleType=Round|Shape=RoundedRectangle|*
%AMROUNDEDRECTD25*
21,1,0.07874,0.03937,0,0,270.0*
21,1,0.03937,0.07874,0,0,270.0*
1,1,0.03937,-0.01969,-0.01969*
1,1,0.03937,-0.01969,0.01969*
1,1,0.03937,0.01969,0.01969*
1,1,0.03937,0.01969,-0.01969*
%
%ADD25ROUNDEDRECTD25*%
%ADD26C,0.07874*%
%ADD27C,0.05906*%
%ADD28R,0.05906X0.05906*%
%ADD29R,0.05906X0.05906*%
%ADD30C,0.04724*%
%ADD31C,0.02756*%
%ADD32R,0.04724X0.04724*%
%ADD33C,0.05906*%
D25*
X53150Y289370D02*
D03*
D26*
X53150Y299370D02*
D03*
X53150Y309370D02*
D03*
Y319370D02*
D03*
D27*
X12126Y358425D02*
D03*
Y348425D02*
D03*
X2126Y358425D02*
D03*
Y348425D02*
D03*
X-7874Y358425D02*
D03*
X-38386Y347284D02*
D03*
X-38386Y319724D02*
D03*
Y309724D02*
D03*
Y299724D02*
D03*
Y289724D02*
D03*
Y279724D02*
D03*
X64961Y329724D02*
D03*
X64961Y357284D02*
D03*
X12638Y374015D02*
D03*
D28*
X-7874Y348425D02*
D03*
X22638Y374015D02*
D03*
D29*
X-38386Y357284D02*
D03*
X-38386Y329724D02*
D03*
X64961Y319724D02*
D03*
Y347284D02*
D03*
D30*
X2953Y372047D02*
D03*
X-7047D02*
D03*
D32*
X36811Y341142D02*
D03*
X28937D02*
D03*
X21063D02*
D03*
X13189D02*
D03*
X5315D02*
D03*
X-2559D02*
D03*
X-10433D02*
D03*
Y278543D02*
D03*
X-2559D02*
D03*
X5315D02*
D03*
X13189D02*
D03*
X21063D02*
D03*
X28937D02*
D03*
X36811D02*
D03*
M02*
