%FSLAX25Y25*%
%MOIN*%
G70*
G01*
G75*
G04 Layer_Physical_Order=2*
G04 Layer_Color=16711680*
%ADD10R,0.03937X0.02756*%
%ADD11R,0.02362X0.03937*%
%ADD12R,0.01969X0.03937*%
%ADD13R,0.02756X0.03937*%
%ADD14R,0.06299X0.07874*%
%ADD15O,0.02165X0.06496*%
%ADD16O,0.06496X0.02165*%
%ADD17R,0.02362X0.05118*%
%ADD18R,0.06299X0.02756*%
%ADD19R,0.02362X0.05906*%
%ADD20R,0.03150X0.09843*%
%ADD21R,0.03150X0.07480*%
%ADD22R,0.07480X0.03150*%
%ADD23C,0.00787*%
%ADD24C,0.07874*%
G04:AMPARAMS|DCode=25|XSize=78.74mil|YSize=78.74mil|CornerRadius=19.69mil|HoleSize=0mil|Usage=FLASHONLY|Rotation=270.000|XOffset=0mil|YOffset=0mil|HoleType=Round|Shape=RoundedRectangle|*
%AMROUNDEDRECTD25*
21,1,0.07874,0.03937,0,0,270.0*
21,1,0.03937,0.07874,0,0,270.0*
1,1,0.03937,-0.01969,-0.01969*
1,1,0.03937,-0.01969,0.01969*
1,1,0.03937,0.01969,0.01969*
1,1,0.03937,0.01969,-0.01969*
%
%ADD25ROUNDEDRECTD25*%
%ADD26C,0.07874*%
%ADD27C,0.05906*%
%ADD28R,0.05906X0.05906*%
%ADD29R,0.05906X0.05906*%
%ADD30C,0.04724*%
%ADD31C,0.02756*%
%ADD32R,0.04724X0.04724*%
%ADD33C,0.05906*%
G36*
X-542Y345758D02*
X240Y345158D01*
X1149Y344781D01*
X1953Y344675D01*
Y344504D01*
X1953D01*
Y341642D01*
X5315D01*
Y341142D01*
X5815D01*
Y337779D01*
X8561D01*
X8777Y337455D01*
X9547Y336685D01*
X9547Y336685D01*
X9938Y336424D01*
X10399Y336333D01*
X10399Y336333D01*
X17458D01*
X17458Y336333D01*
X17919Y336424D01*
X18309Y336685D01*
X19397Y337772D01*
X19859Y337581D01*
Y332569D01*
X15650Y328361D01*
X15229Y328445D01*
X14384Y328276D01*
X13668Y327798D01*
X13189Y327082D01*
X13021Y326237D01*
X13189Y325392D01*
X13668Y324676D01*
X14384Y324197D01*
D01*
X14689Y323959D01*
X14604Y323531D01*
X19254D01*
X19169Y323959D01*
X18643Y324746D01*
X17857Y325271D01*
X17615Y325320D01*
X17337Y325735D01*
X17437Y326237D01*
X17353Y326658D01*
X21914Y331219D01*
X22175Y331610D01*
X22267Y332071D01*
X22267Y332071D01*
Y337992D01*
X23425D01*
Y328346D01*
X23383Y328283D01*
X23291Y327822D01*
X23291Y327822D01*
Y317502D01*
X19850Y314061D01*
X19429Y314144D01*
X19360Y314131D01*
X19006Y314484D01*
X19037Y314637D01*
X18869Y315482D01*
X18390Y316198D01*
X17674Y316676D01*
X16829Y316845D01*
X15984Y316676D01*
X15268Y316198D01*
X14789Y315482D01*
X14621Y314637D01*
X14789Y313792D01*
X15268Y313076D01*
X15625Y312837D01*
Y309978D01*
X15625Y309978D01*
X15716Y309517D01*
X15762Y309448D01*
X15527Y309007D01*
X13837D01*
X13692Y309486D01*
X14017Y309703D01*
X14543Y310489D01*
X14628Y310917D01*
X9978D01*
X10063Y310489D01*
X10589Y309703D01*
X10914Y309486D01*
X10769Y309007D01*
X797D01*
X783Y309021D01*
X393Y309282D01*
X-68Y309373D01*
X-68Y309373D01*
X-9705D01*
X-13326Y312995D01*
Y320638D01*
X-13027Y320937D01*
X-12532Y320864D01*
X-12365Y320551D01*
X-12411Y320482D01*
X-12579Y319637D01*
X-12411Y318792D01*
X-11932Y318076D01*
X-11216Y317597D01*
X-10371Y317429D01*
X-9526Y317597D01*
X-8810Y318076D01*
X-8571Y318432D01*
X5629D01*
X6531Y317530D01*
X6447Y317109D01*
X6615Y316264D01*
X7094Y315548D01*
X7810Y315069D01*
X8655Y314901D01*
X9500Y315069D01*
X10216Y315548D01*
X10695Y316264D01*
X10863Y317109D01*
X11495Y317235D01*
X12001Y316897D01*
X12429Y316812D01*
Y319137D01*
Y321462D01*
X12001Y321377D01*
X11215Y320851D01*
X10689Y320065D01*
X10504Y319137D01*
X10528Y319017D01*
X10113Y318740D01*
X9500Y319149D01*
X8655Y319317D01*
X8234Y319233D01*
X6979Y320488D01*
X6588Y320749D01*
X6127Y320841D01*
X6127Y320841D01*
X-5312D01*
X-5457Y321320D01*
X-5420Y321344D01*
X4081Y330844D01*
X4342Y331235D01*
X4433Y331696D01*
X4433Y331696D01*
Y331737D01*
X4790Y331976D01*
X5269Y332692D01*
X5437Y333537D01*
X5269Y334382D01*
X4790Y335098D01*
X4074Y335577D01*
X3229Y335745D01*
X2384Y335577D01*
X1668Y335098D01*
X1496Y334841D01*
X-470D01*
X-706Y335282D01*
X-231Y335992D01*
X-63Y336837D01*
X-216Y337605D01*
X101Y337992D01*
X590D01*
Y344291D01*
X-1355D01*
Y346040D01*
X-881Y346200D01*
X-542Y345758D01*
D02*
G37*
G36*
X-8032Y324076D02*
X-7737Y323879D01*
X-7882Y323400D01*
X-13471D01*
X-13471Y323400D01*
X-13932Y323308D01*
X-14322Y323047D01*
X-14323Y323047D01*
X-15382Y321988D01*
X-15643Y321598D01*
X-15734Y321137D01*
X-15734Y321137D01*
Y312496D01*
X-15734Y312496D01*
X-15643Y312035D01*
X-15382Y311644D01*
X-11998Y308261D01*
X-12189Y307799D01*
X-31516D01*
X-31516Y307799D01*
X-31977Y307707D01*
X-32367Y307446D01*
X-32367Y307446D01*
X-36727Y303086D01*
X-37409Y303368D01*
X-38386Y303497D01*
X-39362Y303368D01*
X-40272Y302991D01*
X-41053Y302392D01*
X-41653Y301611D01*
X-41813Y301223D01*
X-42304Y301321D01*
Y308128D01*
X-41813Y308225D01*
X-41653Y307838D01*
X-41053Y307057D01*
X-40272Y306457D01*
X-39362Y306081D01*
X-38386Y305952D01*
X-37409Y306081D01*
X-36500Y306457D01*
X-35718Y307057D01*
X-35119Y307838D01*
X-34742Y308748D01*
X-34613Y309724D01*
X-34742Y310701D01*
X-35024Y311383D01*
X-34244Y312163D01*
X-33766Y312017D01*
X-33736Y311867D01*
X-33211Y311081D01*
X-32424Y310555D01*
X-31996Y310470D01*
Y312795D01*
X-31496D01*
Y313295D01*
X-29171D01*
X-29256Y313723D01*
X-29782Y314510D01*
X-30568Y315035D01*
X-30718Y315065D01*
X-30864Y315544D01*
X-26831Y319576D01*
X-26333Y319527D01*
X-26232Y319376D01*
X-25516Y318897D01*
X-24671Y318729D01*
X-23826Y318897D01*
X-23110Y319376D01*
X-22856Y319755D01*
X-22510Y319824D01*
X-22119Y320085D01*
X-17772Y324432D01*
X-8271D01*
X-8032Y324076D01*
D02*
G37*
G36*
X9048Y360907D02*
X8673Y360419D01*
X8275Y359457D01*
X8205Y358925D01*
X12126D01*
Y358425D01*
X12626D01*
Y354504D01*
X13158Y354574D01*
X14119Y354972D01*
X14945Y355606D01*
X15578Y356432D01*
X15977Y357393D01*
X16112Y358417D01*
X16585Y358578D01*
X27733Y347430D01*
Y344291D01*
X25833D01*
Y346737D01*
X25833Y346737D01*
X25742Y347198D01*
X25480Y347588D01*
X25480Y347588D01*
X23792Y349277D01*
X23401Y349538D01*
X22941Y349629D01*
X22941Y349629D01*
X15675D01*
X15393Y350311D01*
X14793Y351093D01*
X14012Y351692D01*
X13102Y352069D01*
X12126Y352198D01*
X11149Y352069D01*
X10240Y351692D01*
X9582Y351187D01*
X9133Y351409D01*
Y352622D01*
X9042Y353083D01*
X8937Y353239D01*
X8781Y353473D01*
X8781Y353473D01*
X5487Y356767D01*
X5770Y357449D01*
X5898Y358425D01*
X5770Y359401D01*
X5393Y360311D01*
X4936Y360907D01*
X5157Y361355D01*
X8826D01*
X9048Y360907D01*
D02*
G37*
G36*
X69863Y303727D02*
Y275610D01*
X62992D01*
X62992Y275610D01*
Y275634D01*
X59418Y275459D01*
X55879Y274934D01*
X54571Y274606D01*
X44974D01*
X44783Y275068D01*
X46926Y277211D01*
X47423Y277162D01*
X47515Y277026D01*
X48301Y276500D01*
X48729Y276415D01*
Y278740D01*
X49229D01*
Y279240D01*
X51554D01*
X51469Y279668D01*
X50943Y280455D01*
X50157Y280980D01*
X49229Y281165D01*
X49039Y281321D01*
Y285006D01*
X49487Y285227D01*
X49791Y284994D01*
X50462Y284717D01*
X51181Y284622D01*
X55118D01*
X55838Y284717D01*
X56508Y284994D01*
X57084Y285436D01*
X57525Y286012D01*
X57803Y286682D01*
X57898Y287401D01*
Y291338D01*
X57803Y292058D01*
X57726Y292244D01*
X69401Y303918D01*
X69863Y303727D01*
D02*
G37*
G36*
Y335460D02*
X69401Y335268D01*
X61587Y343081D01*
X61779Y343543D01*
X68701D01*
Y351024D01*
X61221D01*
Y344102D01*
X60759Y343910D01*
X56770Y347899D01*
X56379Y348160D01*
X55919Y348251D01*
X55919Y348251D01*
X50394D01*
X49933Y348160D01*
X49542Y347899D01*
X43777Y342134D01*
X43753Y342097D01*
X43274Y342242D01*
Y353696D01*
X43274Y353696D01*
X43182Y354157D01*
X42921Y354548D01*
X42921Y354548D01*
X40980Y356488D01*
X40590Y356749D01*
X40129Y356841D01*
X40129Y356841D01*
X26928D01*
X16480Y367288D01*
X16090Y367549D01*
X15629Y367641D01*
X15629Y367641D01*
X-9571D01*
X-9810Y367998D01*
X-10526Y368477D01*
X-11371Y368644D01*
X-12216Y368477D01*
X-12326Y368403D01*
X-12767Y368639D01*
Y371838D01*
X-10121Y374484D01*
X-9627Y374403D01*
X-9569Y374284D01*
X-9984Y373743D01*
X-10323Y372925D01*
X-10373Y372547D01*
X-3722D01*
X-3772Y372925D01*
X-4110Y373743D01*
X-4526Y374284D01*
X-4305Y374732D01*
X-1436D01*
X43Y373253D01*
X-116Y372869D01*
X-224Y372047D01*
X-116Y371225D01*
X201Y370459D01*
X706Y369801D01*
X1364Y369296D01*
X2130Y368979D01*
X2953Y368870D01*
X3775Y368979D01*
X4541Y369296D01*
X5199Y369801D01*
X5704Y370459D01*
X6021Y371225D01*
X6129Y372047D01*
X6021Y372869D01*
X5704Y373636D01*
X5199Y374293D01*
X4541Y374798D01*
X3775Y375116D01*
X2953Y375224D01*
X2130Y375116D01*
X1746Y374957D01*
X132Y376571D01*
X324Y377032D01*
X9405D01*
X9626Y376584D01*
X9185Y376009D01*
X8787Y375047D01*
X8717Y374516D01*
X16559D01*
X16489Y375047D01*
X16091Y376009D01*
X15649Y376584D01*
X15733Y376755D01*
X16227Y376836D01*
X17225Y375838D01*
Y370649D01*
X17225Y370649D01*
X17316Y370188D01*
X17578Y369797D01*
X18344Y369030D01*
X18344Y369030D01*
X18735Y368769D01*
X19196Y368677D01*
X19196Y368677D01*
X19459D01*
X19685Y368633D01*
X44129D01*
X44129Y368633D01*
X44520Y368710D01*
X44929Y368629D01*
X45774Y368797D01*
X46490Y369276D01*
X46969Y369992D01*
X47137Y370837D01*
X46969Y371682D01*
X46508Y372370D01*
X46744Y372811D01*
X57708D01*
X57708Y372811D01*
X58169Y372903D01*
X58559Y373164D01*
X59908Y374513D01*
X60329Y374429D01*
X61174Y374597D01*
X61890Y375076D01*
X62369Y375792D01*
X62537Y376637D01*
X62369Y377482D01*
X61890Y378198D01*
X61529Y378439D01*
X61674Y378918D01*
X69863D01*
Y335460D01*
D02*
G37*
G36*
X-11555Y301839D02*
X-11598Y301696D01*
X-12199Y301577D01*
X-12985Y301051D01*
X-13511Y300265D01*
X-13596Y299837D01*
X-11271D01*
Y299337D01*
X-10771D01*
Y297012D01*
X-10343Y297097D01*
X-9916Y296868D01*
Y288239D01*
X-9916Y288239D01*
X-9825Y287778D01*
X-9563Y287388D01*
X-4330Y282155D01*
X-4522Y281693D01*
X-5709D01*
Y275394D01*
X590D01*
Y280882D01*
X2165D01*
Y275394D01*
X8156D01*
X8413Y274965D01*
X8221Y274606D01*
X-27012D01*
X-28320Y274934D01*
X-31859Y275459D01*
X-35433Y275634D01*
Y275610D01*
X-35433Y275610D01*
X-37265D01*
X-37362Y276100D01*
X-36500Y276457D01*
X-35718Y277057D01*
X-35119Y277838D01*
X-34742Y278748D01*
X-34613Y279724D01*
X-34742Y280701D01*
X-35119Y281611D01*
X-35718Y282392D01*
X-36500Y282991D01*
X-36840Y283133D01*
X-36938Y283623D01*
X-33400Y287160D01*
X-33139Y287551D01*
X-33048Y288012D01*
X-33048Y288012D01*
X-33048Y288012D01*
Y288012D01*
Y291132D01*
X-21939Y302240D01*
X-11852D01*
X-11555Y301839D01*
D02*
G37*
G36*
X67925Y333338D02*
Y332730D01*
X67476Y332508D01*
X66847Y332991D01*
X65937Y333368D01*
X64961Y333497D01*
X63984Y333368D01*
X63074Y332991D01*
X62293Y332392D01*
X61694Y331611D01*
X61317Y330701D01*
X61188Y329724D01*
X61317Y328748D01*
X61694Y327838D01*
X62293Y327057D01*
X63074Y326457D01*
X63984Y326080D01*
X64961Y325952D01*
X65937Y326080D01*
X66847Y326457D01*
X67476Y326940D01*
X67925Y326719D01*
Y323464D01*
X61221D01*
Y315984D01*
X67925D01*
Y305848D01*
X56023Y293947D01*
X55838Y294023D01*
X55118Y294118D01*
X53276D01*
X53243Y294617D01*
X54383Y294767D01*
X55532Y295243D01*
X56519Y296001D01*
X57276Y296987D01*
X57752Y298137D01*
X57915Y299370D01*
X57752Y300603D01*
X57276Y301752D01*
X56519Y302739D01*
X55532Y303497D01*
X54383Y303973D01*
X53265Y304120D01*
Y304620D01*
X54383Y304767D01*
X55532Y305243D01*
X56519Y306000D01*
X57276Y306987D01*
X57752Y308137D01*
X57915Y309370D01*
X57752Y310603D01*
X57276Y311753D01*
X56519Y312739D01*
X55532Y313497D01*
X54383Y313973D01*
X54079Y314013D01*
Y314513D01*
X54438Y314560D01*
X55639Y315057D01*
X56671Y315849D01*
X57462Y316880D01*
X57960Y318081D01*
X58063Y318870D01*
X48236D01*
X48340Y318081D01*
X48837Y316880D01*
X49628Y315849D01*
X50660Y315057D01*
X51861Y314560D01*
X52220Y314513D01*
Y314013D01*
X51916Y313973D01*
X50767Y313497D01*
X49780Y312739D01*
X49023Y311753D01*
X48547Y310603D01*
X48384Y309370D01*
X48547Y308137D01*
X49023Y306987D01*
X49780Y306000D01*
X50767Y305243D01*
X51916Y304767D01*
X53034Y304620D01*
Y304120D01*
X51916Y303973D01*
X50767Y303497D01*
X50744Y303479D01*
X50615Y303607D01*
X50225Y303869D01*
X49764Y303960D01*
X49764Y303960D01*
X44319D01*
X44081Y304317D01*
X43365Y304796D01*
X42520Y304964D01*
X41675Y304796D01*
X41606Y304749D01*
X41165Y304985D01*
Y319370D01*
X54980Y333185D01*
X55242Y333576D01*
X55333Y334037D01*
X55333Y334037D01*
X55333Y334037D01*
Y334037D01*
Y340837D01*
X55690Y341076D01*
X56169Y341792D01*
X56337Y342637D01*
X56169Y343482D01*
X55690Y344198D01*
X54974Y344676D01*
X54129Y344845D01*
X53284Y344676D01*
X52568Y344198D01*
X52089Y343482D01*
X51921Y342637D01*
X52089Y341792D01*
X52568Y341076D01*
X52925Y340837D01*
Y334536D01*
X43534Y325145D01*
X43056Y325290D01*
X42985Y325648D01*
X42506Y326364D01*
X41790Y326843D01*
X40945Y327011D01*
X40100Y326843D01*
X39384Y326364D01*
X38905Y325648D01*
X38737Y324803D01*
X38821Y324382D01*
X35369Y320930D01*
X35108Y320540D01*
X35016Y320079D01*
X35016Y320079D01*
Y303937D01*
X35016Y303937D01*
X35108Y303476D01*
X35369Y303085D01*
X37182Y301273D01*
Y301044D01*
X37182Y301044D01*
X37273Y300583D01*
X37534Y300192D01*
X39150Y298576D01*
Y296717D01*
X38709Y296481D01*
X38640Y296527D01*
X37795Y296695D01*
X37375Y296612D01*
X32799Y301188D01*
Y313571D01*
X32799Y313571D01*
X32707Y314032D01*
X32446Y314423D01*
X32446Y314423D01*
X30753Y316116D01*
X30837Y316537D01*
X30669Y317382D01*
X30190Y318098D01*
X30696Y318856D01*
X42921Y331081D01*
X43182Y331471D01*
X43274Y331932D01*
X43274Y331932D01*
Y335407D01*
X43715Y335643D01*
X43784Y335597D01*
X44629Y335429D01*
X45474Y335597D01*
X46190Y336076D01*
X46669Y336792D01*
X46837Y337637D01*
X46669Y338482D01*
X46190Y339198D01*
X45833Y339436D01*
Y340784D01*
X50892Y345843D01*
X55420D01*
X67925Y333338D01*
D02*
G37*
G36*
X-32598Y378456D02*
X-36669Y374384D01*
X-37008Y374452D01*
X-37853Y374284D01*
X-38569Y373805D01*
X-39048Y373089D01*
X-39216Y372244D01*
X-39048Y371399D01*
X-38569Y370683D01*
X-37853Y370204D01*
X-37008Y370036D01*
X-36163Y370204D01*
X-35447Y370683D01*
X-34968Y371399D01*
X-34800Y372244D01*
X-34900Y372747D01*
X-30615Y377032D01*
X-11632D01*
X-11440Y376571D01*
X-14822Y373188D01*
X-15084Y372798D01*
X-15175Y372337D01*
X-15175Y372337D01*
Y364937D01*
X-15175Y364937D01*
X-15084Y364476D01*
X-14822Y364085D01*
X-13523Y362785D01*
X-13522Y362785D01*
X-13132Y362524D01*
X-12671Y362433D01*
X-12671Y362433D01*
X-9255D01*
X-9157Y361942D01*
X-9760Y361692D01*
X-10542Y361093D01*
X-11141Y360311D01*
X-11518Y359401D01*
X-11647Y358425D01*
X-11518Y357449D01*
X-11236Y356767D01*
X-16497Y351505D01*
X-16758Y351114D01*
X-16850Y350654D01*
X-16850Y350654D01*
Y341721D01*
X-17291Y341485D01*
X-17773Y341807D01*
X-18201Y341892D01*
Y339567D01*
Y337242D01*
X-17773Y337327D01*
X-17291Y337649D01*
X-16850Y337413D01*
Y334085D01*
X-16850Y334085D01*
X-16780Y333731D01*
X-22535Y327976D01*
X-23954D01*
X-23954Y327976D01*
X-24415Y327884D01*
X-24806Y327623D01*
X-24806Y327623D01*
X-28082Y324347D01*
X-28343Y323957D01*
X-28434Y323496D01*
X-28434Y323496D01*
Y321379D01*
X-36727Y313086D01*
X-37409Y313368D01*
X-38386Y313497D01*
X-39362Y313368D01*
X-40272Y312991D01*
X-41053Y312392D01*
X-41653Y311611D01*
X-41813Y311223D01*
X-42304Y311321D01*
Y318128D01*
X-41813Y318226D01*
X-41653Y317838D01*
X-41053Y317057D01*
X-40272Y316457D01*
X-39362Y316080D01*
X-38386Y315952D01*
X-37409Y316080D01*
X-36500Y316457D01*
X-35718Y317057D01*
X-35119Y317838D01*
X-34742Y318748D01*
X-34613Y319724D01*
X-34742Y320701D01*
X-35119Y321611D01*
X-35718Y322392D01*
X-36500Y322991D01*
X-37409Y323368D01*
X-38386Y323497D01*
X-39362Y323368D01*
X-40272Y322991D01*
X-41053Y322392D01*
X-41653Y321611D01*
X-41813Y321223D01*
X-42304Y321321D01*
Y325772D01*
X-38886D01*
Y329724D01*
Y333677D01*
X-42304D01*
Y345097D01*
X-42026Y345213D01*
X-41830Y345279D01*
X-41205Y344464D01*
X-40379Y343831D01*
X-39418Y343432D01*
X-38886Y343362D01*
Y347284D01*
Y351205D01*
X-39418Y351135D01*
X-40379Y350736D01*
X-41205Y350103D01*
X-41830Y349288D01*
X-42026Y349355D01*
X-42304Y349470D01*
Y353543D01*
X-42304D01*
X-42126D01*
X-41950Y353543D01*
X-41950Y353543D01*
Y353543D01*
X-34646D01*
Y356079D01*
X-22868D01*
X-22761Y355542D01*
X-22282Y354826D01*
X-21566Y354347D01*
X-20721Y354179D01*
X-19876Y354347D01*
X-19160Y354826D01*
X-18681Y355542D01*
X-18513Y356387D01*
X-18681Y357232D01*
X-19160Y357948D01*
X-19876Y358426D01*
X-20721Y358594D01*
X-21438Y358452D01*
X-21618Y358488D01*
X-21618Y358488D01*
X-34646D01*
Y361024D01*
X-41950D01*
X-41950Y361024D01*
Y361024D01*
X-42126Y361024D01*
X-42304Y361201D01*
Y378918D01*
X-32789D01*
X-32598Y378456D01*
D02*
G37*
%LPC*%
G36*
X52650Y324284D02*
X51861Y324180D01*
X50660Y323682D01*
X49628Y322891D01*
X48837Y321860D01*
X48340Y320659D01*
X48236Y319870D01*
X52650D01*
Y324284D01*
D02*
G37*
G36*
X13429Y321462D02*
Y319637D01*
X15254D01*
X15169Y320065D01*
X14643Y320851D01*
X13857Y321377D01*
X13429Y321462D01*
D02*
G37*
G36*
X19254Y322531D02*
X17429D01*
Y320706D01*
X17857Y320791D01*
X18643Y321317D01*
X19169Y322104D01*
X19254Y322531D01*
D02*
G37*
G36*
X-34433Y329224D02*
X-37886D01*
Y325772D01*
X-34433D01*
Y329224D01*
D02*
G37*
G36*
X53650Y324284D02*
Y319870D01*
X58063D01*
X57960Y320659D01*
X57462Y321860D01*
X56671Y322891D01*
X55639Y323682D01*
X54438Y324180D01*
X53650Y324284D01*
D02*
G37*
G36*
X16429Y322531D02*
X14604D01*
X14689Y322104D01*
X15215Y321317D01*
X16001Y320791D01*
X16429Y320706D01*
Y322531D01*
D02*
G37*
G36*
X-10933Y281905D02*
X-13795D01*
Y279043D01*
X-10933D01*
Y281905D01*
D02*
G37*
G36*
X-7071D02*
X-9933D01*
Y279043D01*
X-7071D01*
Y281905D01*
D02*
G37*
G36*
X51554Y278240D02*
X49729D01*
Y276415D01*
X50157Y276500D01*
X50943Y277026D01*
X51469Y277812D01*
X51554Y278240D01*
D02*
G37*
G36*
X-10933Y278043D02*
X-13795D01*
Y275181D01*
X-10933D01*
Y278043D01*
D02*
G37*
G36*
X-7071D02*
X-9933D01*
Y275181D01*
X-7071D01*
Y278043D01*
D02*
G37*
G36*
X12803Y313742D02*
Y311917D01*
X14628D01*
X14543Y312345D01*
X14017Y313132D01*
X13231Y313657D01*
X12803Y313742D01*
D02*
G37*
G36*
X15254Y318637D02*
X13429D01*
Y316812D01*
X13857Y316897D01*
X14643Y317422D01*
X15169Y318209D01*
X15254Y318637D01*
D02*
G37*
G36*
X11803Y313742D02*
X11375Y313657D01*
X10589Y313132D01*
X10063Y312345D01*
X9978Y311917D01*
X11803D01*
Y313742D01*
D02*
G37*
G36*
X-11771Y298837D02*
X-13596D01*
X-13511Y298409D01*
X-12985Y297622D01*
X-12199Y297097D01*
X-11771Y297012D01*
Y298837D01*
D02*
G37*
G36*
X-29171Y312295D02*
X-30996D01*
Y310470D01*
X-30568Y310555D01*
X-29782Y311081D01*
X-29256Y311867D01*
X-29171Y312295D01*
D02*
G37*
G36*
X-32419Y364165D02*
X-34244D01*
Y362340D01*
X-33816Y362425D01*
X-33030Y362951D01*
X-32504Y363737D01*
X-32419Y364165D01*
D02*
G37*
G36*
X-35244Y366990D02*
X-35672Y366905D01*
X-36459Y366380D01*
X-36984Y365593D01*
X-37069Y365165D01*
X-35244D01*
Y366990D01*
D02*
G37*
G36*
Y364165D02*
X-37069D01*
X-36984Y363737D01*
X-36459Y362951D01*
X-35672Y362425D01*
X-35244Y362340D01*
Y364165D01*
D02*
G37*
G36*
X-16740Y363053D02*
X-17168Y362968D01*
X-17955Y362443D01*
X-18480Y361656D01*
X-18565Y361228D01*
X-16740D01*
Y363053D01*
D02*
G37*
G36*
X-15740D02*
Y361228D01*
X-13915D01*
X-14000Y361656D01*
X-14526Y362443D01*
X-15312Y362968D01*
X-15740Y363053D01*
D02*
G37*
G36*
X12138Y373516D02*
X8717D01*
X8787Y372984D01*
X9185Y372022D01*
X9819Y371196D01*
X10644Y370563D01*
X11606Y370164D01*
X12138Y370094D01*
Y373516D01*
D02*
G37*
G36*
X16559D02*
X13138D01*
Y370094D01*
X13670Y370164D01*
X14631Y370563D01*
X15457Y371196D01*
X16091Y372022D01*
X16489Y372984D01*
X16559Y373516D01*
D02*
G37*
G36*
X-3722Y371547D02*
X-6547D01*
Y368722D01*
X-6170Y368772D01*
X-5352Y369110D01*
X-4650Y369649D01*
X-4110Y370352D01*
X-3772Y371169D01*
X-3722Y371547D01*
D02*
G37*
G36*
X-34244Y366990D02*
Y365165D01*
X-32419D01*
X-32504Y365593D01*
X-33030Y366380D01*
X-33816Y366905D01*
X-34244Y366990D01*
D02*
G37*
G36*
X-7547Y371547D02*
X-10373D01*
X-10323Y371169D01*
X-9984Y370352D01*
X-9445Y369649D01*
X-8743Y369110D01*
X-7925Y368772D01*
X-7547Y368722D01*
Y371547D01*
D02*
G37*
G36*
X-19201Y341892D02*
X-19629Y341807D01*
X-20415Y341281D01*
X-20941Y340495D01*
X-21026Y340067D01*
X-19201D01*
Y341892D01*
D02*
G37*
G36*
X-34465Y346784D02*
X-37886D01*
Y343362D01*
X-37354Y343432D01*
X-36393Y343831D01*
X-35567Y344464D01*
X-34933Y345290D01*
X-34535Y346252D01*
X-34465Y346784D01*
D02*
G37*
G36*
X4815Y340642D02*
X1953D01*
Y337779D01*
X4815D01*
Y340642D01*
D02*
G37*
G36*
X-34433Y333677D02*
X-37886D01*
Y330224D01*
X-34433D01*
Y333677D01*
D02*
G37*
G36*
X-19201Y339067D02*
X-21026D01*
X-20941Y338639D01*
X-20415Y337853D01*
X-19629Y337327D01*
X-19201Y337242D01*
Y339067D01*
D02*
G37*
G36*
X-16740Y360228D02*
X-18565D01*
X-18480Y359801D01*
X-17955Y359014D01*
X-17168Y358488D01*
X-16740Y358403D01*
Y360228D01*
D02*
G37*
G36*
X-13915D02*
X-15740D01*
Y358403D01*
X-15312Y358488D01*
X-14526Y359014D01*
X-14000Y359801D01*
X-13915Y360228D01*
D02*
G37*
G36*
X11626Y357925D02*
X8205D01*
X8275Y357393D01*
X8673Y356432D01*
X9307Y355606D01*
X10132Y354972D01*
X11094Y354574D01*
X11626Y354504D01*
Y357925D01*
D02*
G37*
G36*
X-37886Y351205D02*
Y347784D01*
X-34465D01*
X-34535Y348315D01*
X-34933Y349277D01*
X-35567Y350103D01*
X-36393Y350736D01*
X-37354Y351135D01*
X-37886Y351205D01*
D02*
G37*
G36*
X35929Y362245D02*
X35084Y362076D01*
X34368Y361598D01*
X33889Y360882D01*
X33721Y360037D01*
X33889Y359192D01*
X34368Y358476D01*
X35084Y357997D01*
X35929Y357829D01*
X36774Y357997D01*
X37490Y358476D01*
X37729Y358833D01*
X61104D01*
X61382Y358417D01*
X61317Y358260D01*
X61188Y357284D01*
X61317Y356307D01*
X61694Y355397D01*
X62293Y354616D01*
X63074Y354016D01*
X63984Y353640D01*
X64961Y353511D01*
X65937Y353640D01*
X66847Y354016D01*
X67628Y354616D01*
X68228Y355397D01*
X68604Y356307D01*
X68733Y357284D01*
X68604Y358260D01*
X68228Y359170D01*
X67628Y359951D01*
X66847Y360551D01*
X65937Y360927D01*
X64961Y361056D01*
X63984Y360927D01*
X63302Y360645D01*
X63059Y360888D01*
X62668Y361149D01*
X62207Y361241D01*
X62207Y361241D01*
X37729D01*
X37490Y361598D01*
X36774Y362076D01*
X35929Y362245D01*
D02*
G37*
%LPD*%
D23*
X7820Y324246D02*
Y338636D01*
X5315Y341142D02*
X7820Y338636D01*
X-20177Y364665D02*
X-16240Y360728D01*
X-34744Y364665D02*
X-20177D01*
X-13971Y364937D02*
Y372337D01*
Y364937D02*
X-12671Y363637D01*
X-3583D01*
X-38386Y347284D02*
X-30669Y339567D01*
X-18701Y339567D02*
X-18701Y339567D01*
X-30669D02*
X-18701D01*
X-37008Y372244D02*
Y372342D01*
X-31114Y378237D01*
X-38386Y357284D02*
X-21618D01*
X24606Y276479D02*
Y287992D01*
X21654Y290945D02*
X24606Y287992D01*
X36220Y320079D02*
X40945Y324803D01*
X36220Y303937D02*
Y320079D01*
X39961Y301696D02*
Y319868D01*
X54129Y334037D01*
X36220Y303937D02*
X38386Y301772D01*
X47835Y280965D02*
Y293822D01*
X39961Y301696D02*
X47835Y293822D01*
X38386Y301044D02*
Y301772D01*
Y301044D02*
X40354Y299075D01*
Y293428D02*
Y299075D01*
X49764Y302756D02*
X53150Y299370D01*
X42520Y302756D02*
X49764D01*
X30020Y298008D02*
X36380Y291648D01*
X30020Y298008D02*
Y310306D01*
X32677Y291732D02*
X33071D01*
X31594Y300689D02*
X37795Y294488D01*
X37453Y294146D02*
X37795Y294488D01*
X37453Y294146D02*
Y294146D01*
X31594Y300689D02*
Y313571D01*
X36380Y278975D02*
Y291648D01*
X37453Y294146D02*
X37795Y294488D01*
X40354Y293428D02*
X40354Y293428D01*
X40354Y275692D02*
Y293428D01*
X41240Y273228D02*
X46670Y278658D01*
X11909Y273228D02*
X41240D01*
X39466Y274803D02*
X40354Y275692D01*
X26282Y274803D02*
X39466D01*
X31004Y271654D02*
X33858Y268799D01*
X-3544Y271654D02*
X31004D01*
X9449Y275689D02*
X11909Y273228D01*
X-10433Y278543D02*
X-3544Y271654D01*
X24606Y276479D02*
X26282Y274803D01*
X29527Y260334D02*
X33858Y264665D01*
X29527Y256890D02*
Y260334D01*
X22736Y250098D02*
X29527Y256890D01*
X9449Y275689D02*
Y281102D01*
X8464Y282086D02*
X9449Y281102D01*
X-2559Y282086D02*
X8464D01*
X-8712Y288239D02*
X-2559Y282086D01*
X-8712Y288239D02*
Y300441D01*
X12713Y289354D02*
X16535Y293177D01*
X-5689Y289354D02*
X12713D01*
X16313Y304637D02*
X26772Y294178D01*
Y292913D02*
Y294178D01*
X-1276Y306228D02*
X25720D01*
X298Y307803D02*
X22529D01*
X26122Y311396D01*
X21729Y309378D02*
X24300Y311948D01*
X17429Y309378D02*
X21729D01*
X28929Y311396D02*
X30020Y310306D01*
X28629Y316537D02*
X31594Y313571D01*
X28937Y278543D02*
X34252Y283858D01*
Y291339D01*
X33464D02*
X34252D01*
X33071Y291732D02*
X33464Y291339D01*
X36380Y278975D02*
X36811Y278543D01*
X-2953Y304637D02*
X16313D01*
X26070Y318107D02*
X27094Y319130D01*
X26070Y316351D02*
Y318107D01*
X24495Y327822D02*
X24629Y327956D01*
X24495Y317003D02*
Y327822D01*
X24300Y314580D02*
X26070Y316351D01*
X19429Y311937D02*
X24495Y317003D01*
X-68Y308169D02*
X298Y307803D01*
X-1643Y306594D02*
X-1276Y306228D01*
X-38386Y299724D02*
X-31516Y306594D01*
X-3335Y305020D02*
X-2953Y304637D01*
X-38386Y289724D02*
X-23091Y305020D01*
X-3335D01*
X-31516Y306594D02*
X-1643D01*
X-10203Y308169D02*
X-68D01*
X-14530Y312496D02*
X-10203Y308169D01*
X-11020Y303445D02*
X-8756Y301181D01*
X-22438Y303445D02*
X-11020D01*
X-34252Y291631D02*
X-22438Y303445D01*
X-34252Y288012D02*
Y291631D01*
X-38386Y283878D02*
X-34252Y288012D01*
X-38386Y279724D02*
Y283878D01*
X46670Y279800D02*
X47835Y280965D01*
X46670Y278658D02*
Y279800D01*
X39091Y268602D02*
X49229Y278740D01*
X42070Y331932D02*
Y353696D01*
X29268Y319130D02*
X42070Y331932D01*
X27094Y319130D02*
X29268D01*
X28429Y322337D02*
X36811Y330719D01*
X50394Y347047D02*
X55919D01*
X44629Y341283D02*
X50394Y347047D01*
X44629Y337637D02*
Y341283D01*
X55919Y347047D02*
X69129Y333837D01*
X24300Y311948D02*
Y314580D01*
X22736Y248720D02*
Y250098D01*
X-8756Y300485D02*
Y301181D01*
Y300485D02*
X-8712Y300441D01*
X10399Y337537D02*
X17458D01*
X9629Y338307D02*
Y345076D01*
Y338307D02*
X10399Y337537D01*
X19685Y369837D02*
X44129D01*
X18429Y370649D02*
Y376337D01*
X19640Y369882D02*
X19685Y369837D01*
X19196Y369882D02*
X19640D01*
X18429Y370649D02*
X19196Y369882D01*
X-27230Y323496D02*
X-23954Y326771D01*
X-15646Y350654D02*
X-7874Y358425D01*
X-15646Y334085D02*
Y350654D01*
Y334085D02*
X-15184Y333623D01*
X-22036Y326771D02*
X-15184Y333623D01*
X-23954Y326771D02*
X-22036D01*
X-27230Y320880D02*
Y323496D01*
X-38386Y309724D02*
X-27230Y320880D01*
X-10371Y319637D02*
X6127D01*
X8655Y317109D01*
X7820Y324246D02*
X12929Y319137D01*
X28937Y341142D02*
Y347929D01*
X14307Y362559D02*
X28937Y347929D01*
X129Y362559D02*
X14307D01*
X-2071Y360359D02*
X129Y362559D01*
X-2071Y356134D02*
Y360359D01*
Y356134D02*
X2126Y351937D01*
Y348425D02*
Y351937D01*
X26122Y311396D02*
X28929D01*
X-14530Y312496D02*
Y321137D01*
X-13471Y322196D01*
X-6271D01*
X3229Y331696D01*
Y333537D01*
X15229Y326237D02*
X21063Y332071D01*
Y341142D01*
X36811Y330719D02*
Y341142D01*
X6076Y302137D02*
X13976Y294237D01*
X-5471Y302137D02*
X6076D01*
X-2559Y341142D02*
Y353110D01*
X-7874Y358425D02*
X-2559Y353110D01*
X-11371Y366437D02*
X15629D01*
X26429Y355637D01*
X40129D01*
X42070Y353696D01*
X16829Y309978D02*
X17429Y309378D01*
X16829Y309978D02*
Y314637D01*
X54129Y334037D02*
Y342637D01*
X2126Y358425D02*
X7929Y352622D01*
Y346776D02*
Y352622D01*
Y346776D02*
X9629Y345076D01*
X17458Y337537D02*
X21063Y341142D01*
X39429Y335237D02*
X40429Y336237D01*
Y347537D01*
X34127Y353839D02*
X40429Y347537D01*
X25627Y353839D02*
X34127D01*
X15332Y364134D02*
X25627Y353839D01*
X-3086Y364134D02*
X15332D01*
X-3583Y363637D02*
X-3086Y364134D01*
X-13971Y372337D02*
X-10371Y375937D01*
X-937D01*
X2953Y372047D01*
X12126Y348425D02*
X22941D01*
X24629Y346737D01*
Y327956D02*
Y346737D01*
X32529Y332237D02*
Y351137D01*
X27129Y326837D02*
X32529Y332237D01*
X-24671Y320937D02*
X-22971D01*
X-18271Y325637D01*
X-6471D01*
X-2559Y337125D02*
X-2271Y336837D01*
X-2559Y337125D02*
Y341142D01*
X-21618Y357284D02*
X-20721Y356387D01*
X44929Y370637D02*
Y370837D01*
X44129Y369837D02*
X44929Y370637D01*
X16529Y378237D02*
X18429Y376337D01*
X-31114Y378237D02*
X16529D01*
X25720Y306228D02*
X26829Y307337D01*
X-10433Y278543D02*
Y298499D01*
X-11271Y299337D02*
X-10433Y298499D01*
X69129Y305349D02*
Y333837D01*
X53150Y289370D02*
X69129Y305349D01*
X6659Y368037D02*
X12638Y374015D01*
X-3037Y368037D02*
X6659D01*
X-7047Y372047D02*
X-3037Y368037D01*
X-12383Y348425D02*
X-7874D01*
X-14071Y346737D02*
X-12383Y348425D01*
X-14071Y334737D02*
Y346737D01*
Y334737D02*
X-12971Y333637D01*
X3129D01*
X3229Y333537D01*
X57708Y374015D02*
X60329Y376637D01*
X22638Y374015D02*
X57708D01*
X62207Y360037D02*
X64961Y357284D01*
X35929Y360037D02*
X62207D01*
X1968Y268012D02*
X3937Y266043D01*
X33858Y264665D02*
Y268602D01*
Y268799D01*
Y268602D02*
X39091D01*
X22736Y268307D02*
X29232D01*
X30807Y266732D01*
X3937Y187301D02*
Y266043D01*
D24*
X4921Y-176783D02*
X5018Y-176687D01*
X22541Y237635D02*
Y244096D01*
X22736Y244291D01*
Y248720D01*
X4921Y-176783D02*
Y187301D01*
X22541Y-176687D02*
Y233270D01*
Y-176687D02*
X22638Y-176783D01*
D25*
X53150Y289370D02*
D03*
D26*
X53150Y299370D02*
D03*
X53150Y309370D02*
D03*
Y319370D02*
D03*
D27*
X12126Y358425D02*
D03*
Y348425D02*
D03*
X2126Y358425D02*
D03*
Y348425D02*
D03*
X-7874Y358425D02*
D03*
X-38386Y347284D02*
D03*
X-38386Y319724D02*
D03*
Y309724D02*
D03*
Y299724D02*
D03*
Y289724D02*
D03*
Y279724D02*
D03*
X64961Y329724D02*
D03*
X64961Y357284D02*
D03*
X12638Y374015D02*
D03*
D28*
X-7874Y348425D02*
D03*
X22638Y374015D02*
D03*
D29*
X-38386Y357284D02*
D03*
X-38386Y329724D02*
D03*
X64961Y319724D02*
D03*
Y347284D02*
D03*
D30*
X2953Y372047D02*
D03*
X-7047D02*
D03*
D31*
X-16240Y360728D02*
D03*
X-20721Y356387D02*
D03*
X-18701Y339567D02*
D03*
X-37008Y372244D02*
D03*
X21654Y290945D02*
D03*
X17717Y294094D02*
D03*
X40945Y324803D02*
D03*
X42520Y302756D02*
D03*
X37795Y294488D02*
D03*
X32677Y291732D02*
D03*
X26772Y292913D02*
D03*
X8655Y317109D02*
D03*
X33858Y268799D02*
D03*
X13976Y294237D02*
D03*
X30807Y266732D02*
D03*
X28429Y322337D02*
D03*
X-31496Y312795D02*
D03*
X16929Y323031D02*
D03*
X12303Y311417D02*
D03*
X-34744Y364665D02*
D03*
X1968Y268012D02*
D03*
X-10371Y319637D02*
D03*
X49229Y278740D02*
D03*
X12929Y319137D02*
D03*
X15229Y326237D02*
D03*
X-5689Y289354D02*
D03*
X-5471Y302137D02*
D03*
X-11371Y366437D02*
D03*
X16829Y314637D02*
D03*
X54129Y342637D02*
D03*
X28629Y316537D02*
D03*
X39429Y335237D02*
D03*
X19429Y311937D02*
D03*
X32529Y351137D02*
D03*
X27129Y326837D02*
D03*
X-24671Y320937D02*
D03*
X-6471Y325637D02*
D03*
X-2271Y336837D02*
D03*
X44929Y370837D02*
D03*
X26829Y307337D02*
D03*
X-11271Y299337D02*
D03*
X44629Y337637D02*
D03*
X3229Y333537D02*
D03*
X60329Y376637D02*
D03*
X35929Y360037D02*
D03*
X22736Y268307D02*
D03*
D32*
X36811Y341142D02*
D03*
X28937D02*
D03*
X21063D02*
D03*
X13189D02*
D03*
X5315D02*
D03*
X-2559D02*
D03*
X-10433D02*
D03*
Y278543D02*
D03*
X-2559D02*
D03*
X5315D02*
D03*
X13189D02*
D03*
X21063D02*
D03*
X28937D02*
D03*
X36811D02*
D03*
D33*
X23622Y-195220D02*
Y-176783D01*
X3937Y-195220D02*
Y-176783D01*
M02*
