%FSLAX25Y25*%
%MOIN*%
G70*
G01*
G75*
G04 Layer_Physical_Order=2*
G04 Layer_Color=16711680*
%ADD10R,0.03937X0.02756*%
%ADD11R,0.02362X0.03937*%
%ADD12R,0.01969X0.03937*%
%ADD13R,0.02756X0.03937*%
%ADD14R,0.06299X0.07874*%
%ADD15O,0.02165X0.06496*%
%ADD16O,0.06496X0.02165*%
%ADD17R,0.02362X0.05118*%
%ADD18R,0.06299X0.02756*%
%ADD19R,0.02362X0.05906*%
%ADD20R,0.03150X0.09843*%
%ADD21R,0.03150X0.07480*%
%ADD22R,0.07480X0.03150*%
%ADD23C,0.00787*%
%ADD24C,0.07874*%
G04:AMPARAMS|DCode=25|XSize=78.74mil|YSize=78.74mil|CornerRadius=19.69mil|HoleSize=0mil|Usage=FLASHONLY|Rotation=270.000|XOffset=0mil|YOffset=0mil|HoleType=Round|Shape=RoundedRectangle|*
%AMROUNDEDRECTD25*
21,1,0.07874,0.03937,0,0,270.0*
21,1,0.03937,0.07874,0,0,270.0*
1,1,0.03937,-0.01969,-0.01969*
1,1,0.03937,-0.01969,0.01969*
1,1,0.03937,0.01969,0.01969*
1,1,0.03937,0.01969,-0.01969*
%
%ADD25ROUNDEDRECTD25*%
%ADD26C,0.07874*%
%ADD27C,0.05906*%
%ADD28R,0.05906X0.05906*%
%ADD29R,0.05906X0.05906*%
%ADD30C,0.04724*%
%ADD31C,0.02362*%
%ADD32C,0.02756*%
%ADD33R,0.04724X0.04724*%
%ADD34C,0.05906*%
D23*
X7820Y324246D02*
Y338636D01*
X5315Y341142D02*
X7820Y338636D01*
X-20177Y364665D02*
X-16240Y360728D01*
X-34744Y364665D02*
X-20177D01*
X-13971Y364937D02*
Y372337D01*
Y364937D02*
X-12671Y363637D01*
X-3583D01*
X-38386Y347284D02*
X-30669Y339567D01*
X-18701Y339567D02*
X-18701Y339567D01*
X-30669D02*
X-18701D01*
X-37008Y372244D02*
Y372342D01*
X-31114Y378237D01*
X-38386Y357284D02*
X-21618D01*
X24606Y276479D02*
Y287992D01*
X21654Y290945D02*
X24606Y287992D01*
X36220Y320079D02*
X40945Y324803D01*
X36220Y303937D02*
Y320079D01*
X39961Y301696D02*
Y319868D01*
X54129Y334037D01*
X36220Y303937D02*
X38386Y301772D01*
X47835Y280965D02*
Y293822D01*
X39961Y301696D02*
X47835Y293822D01*
X38386Y301044D02*
Y301772D01*
Y301044D02*
X40354Y299075D01*
Y293428D02*
Y299075D01*
X49764Y302756D02*
X53150Y299370D01*
X42520Y302756D02*
X49764D01*
X30020Y298008D02*
X36380Y291648D01*
X30020Y298008D02*
Y310306D01*
X32677Y291732D02*
X33071D01*
X31594Y300689D02*
X37795Y294488D01*
X37453Y294146D02*
X37795Y294488D01*
X37453Y294146D02*
Y294146D01*
X31594Y300689D02*
Y313571D01*
X36380Y278975D02*
Y291648D01*
X37453Y294146D02*
X37795Y294488D01*
X40354Y293428D02*
X40354Y293428D01*
X40354Y275692D02*
Y293428D01*
X41240Y273228D02*
X46670Y278658D01*
X11909Y273228D02*
X41240D01*
X39466Y274803D02*
X40354Y275692D01*
X26282Y274803D02*
X39466D01*
X31004Y271654D02*
X33858Y268799D01*
X-3544Y271654D02*
X31004D01*
X9449Y275689D02*
X11909Y273228D01*
X-10433Y278543D02*
X-3544Y271654D01*
X24606Y276479D02*
X26282Y274803D01*
X29527Y260334D02*
X33858Y264665D01*
X29527Y256890D02*
Y260334D01*
X22736Y250098D02*
X29527Y256890D01*
X9449Y275689D02*
Y281102D01*
X8464Y282086D02*
X9449Y281102D01*
X-2559Y282086D02*
X8464D01*
X-8712Y288239D02*
X-2559Y282086D01*
X-8712Y288239D02*
Y300441D01*
X12713Y289354D02*
X16535Y293177D01*
X-5689Y289354D02*
X12713D01*
X16313Y304637D02*
X26772Y294178D01*
Y292913D02*
Y294178D01*
X-1276Y306228D02*
X25720D01*
X298Y307803D02*
X22529D01*
X26122Y311396D01*
X21729Y309378D02*
X24300Y311948D01*
X17429Y309378D02*
X21729D01*
X28929Y311396D02*
X30020Y310306D01*
X28629Y316537D02*
X31594Y313571D01*
X28937Y278543D02*
X34252Y283858D01*
Y291339D01*
X33464D02*
X34252D01*
X33071Y291732D02*
X33464Y291339D01*
X36380Y278975D02*
X36811Y278543D01*
X-2953Y304637D02*
X16313D01*
X3937Y187301D02*
Y266043D01*
X5018Y179921D02*
Y186221D01*
X3937Y187301D02*
X5018Y186221D01*
X26070Y318107D02*
X27094Y319130D01*
X26070Y316351D02*
Y318107D01*
X24495Y327822D02*
X24629Y327956D01*
X24495Y317003D02*
Y327822D01*
X24300Y314580D02*
X26070Y316351D01*
X19429Y311937D02*
X24495Y317003D01*
X-68Y308169D02*
X298Y307803D01*
X-1643Y306594D02*
X-1276Y306228D01*
X-38386Y299724D02*
X-31516Y306594D01*
X-3335Y305020D02*
X-2953Y304637D01*
X-38386Y289724D02*
X-23091Y305020D01*
X-3335D01*
X-31516Y306594D02*
X-1643D01*
X-10203Y308169D02*
X-68D01*
X-14530Y312496D02*
X-10203Y308169D01*
X-11020Y303445D02*
X-8756Y301181D01*
X-22438Y303445D02*
X-11020D01*
X-34252Y291631D02*
X-22438Y303445D01*
X-34252Y288012D02*
Y291631D01*
X-38386Y283878D02*
X-34252Y288012D01*
X-38386Y279724D02*
Y283878D01*
X46670Y279800D02*
X47835Y280965D01*
X46670Y278658D02*
Y279800D01*
X39091Y268602D02*
X49229Y278740D01*
X42070Y331932D02*
Y353696D01*
X29268Y319130D02*
X42070Y331932D01*
X27094Y319130D02*
X29268D01*
X28429Y322337D02*
X36811Y330719D01*
X50394Y347047D02*
X55919D01*
X44629Y341283D02*
X50394Y347047D01*
X44629Y337637D02*
Y341283D01*
X55919Y347047D02*
X69129Y333837D01*
X24300Y311948D02*
Y314580D01*
X22736Y248720D02*
Y250098D01*
X-8756Y300485D02*
Y301181D01*
Y300485D02*
X-8712Y300441D01*
X10399Y337537D02*
X17458D01*
X9629Y338307D02*
Y345076D01*
Y338307D02*
X10399Y337537D01*
X19685Y369837D02*
X44129D01*
X18429Y370649D02*
Y376337D01*
X19640Y369882D02*
X19685Y369837D01*
X19196Y369882D02*
X19640D01*
X18429Y370649D02*
X19196Y369882D01*
X-27230Y323496D02*
X-23954Y326771D01*
X-15646Y350654D02*
X-7874Y358425D01*
X-15646Y334085D02*
Y350654D01*
Y334085D02*
X-15184Y333623D01*
X-22036Y326771D02*
X-15184Y333623D01*
X-23954Y326771D02*
X-22036D01*
X-27230Y320880D02*
Y323496D01*
X-38386Y309724D02*
X-27230Y320880D01*
X-10371Y319637D02*
X6127D01*
X8655Y317109D01*
X7820Y324246D02*
X12929Y319137D01*
X28937Y341142D02*
Y347929D01*
X14307Y362559D02*
X28937Y347929D01*
X129Y362559D02*
X14307D01*
X-2071Y360359D02*
X129Y362559D01*
X-2071Y356134D02*
Y360359D01*
Y356134D02*
X2126Y351937D01*
Y348425D02*
Y351937D01*
X26122Y311396D02*
X28929D01*
X-14530Y312496D02*
Y321137D01*
X-13471Y322196D01*
X-6271D01*
X3229Y331696D01*
Y333537D01*
X15229Y326237D02*
X21063Y332071D01*
Y341142D01*
X36811Y330719D02*
Y341142D01*
X6076Y302137D02*
X13976Y294237D01*
X-5471Y302137D02*
X6076D01*
X-2559Y341142D02*
Y353110D01*
X-7874Y358425D02*
X-2559Y353110D01*
X-11371Y366437D02*
X15629D01*
X26429Y355637D01*
X40129D01*
X42070Y353696D01*
X16829Y309978D02*
X17429Y309378D01*
X16829Y309978D02*
Y314637D01*
X54129Y334037D02*
Y342637D01*
X2126Y358425D02*
X7929Y352622D01*
Y346776D02*
Y352622D01*
Y346776D02*
X9629Y345076D01*
X17458Y337537D02*
X21063Y341142D01*
X39429Y335237D02*
X40429Y336237D01*
Y347537D01*
X34127Y353839D02*
X40429Y347537D01*
X25627Y353839D02*
X34127D01*
X15332Y364134D02*
X25627Y353839D01*
X-3086Y364134D02*
X15332D01*
X-3583Y363637D02*
X-3086Y364134D01*
X-13971Y372337D02*
X-10371Y375937D01*
X-937D01*
X2953Y372047D01*
X12126Y348425D02*
X22941D01*
X24629Y346737D01*
Y327956D02*
Y346737D01*
X32529Y332237D02*
Y351137D01*
X27129Y326837D02*
X32529Y332237D01*
X-24671Y320937D02*
X-22971D01*
X-18271Y325637D01*
X-6471D01*
X-2559Y337125D02*
X-2271Y336837D01*
X-2559Y337125D02*
Y341142D01*
X-21618Y357284D02*
X-20721Y356387D01*
X44929Y370637D02*
Y370837D01*
X44129Y369837D02*
X44929Y370637D01*
X16529Y378237D02*
X18429Y376337D01*
X-31114Y378237D02*
X16529D01*
X25720Y306228D02*
X26829Y307337D01*
X-10433Y278543D02*
Y298499D01*
X-11271Y299337D02*
X-10433Y298499D01*
X69129Y305349D02*
Y333837D01*
X53150Y289370D02*
X69129Y305349D01*
X6659Y368037D02*
X12638Y374015D01*
X-3037Y368037D02*
X6659D01*
X-7047Y372047D02*
X-3037Y368037D01*
X-12383Y348425D02*
X-7874D01*
X-14071Y346737D02*
X-12383Y348425D01*
X-14071Y334737D02*
Y346737D01*
Y334737D02*
X-12971Y333637D01*
X3129D01*
X3229Y333537D01*
X57708Y374015D02*
X60329Y376637D01*
X22638Y374015D02*
X57708D01*
X62207Y360037D02*
X64961Y357284D01*
X35929Y360037D02*
X62207D01*
X1968Y268012D02*
X3937Y266043D01*
X33858Y264665D02*
Y268602D01*
Y268799D01*
Y268602D02*
X39091D01*
X22736Y268307D02*
X29232D01*
X30807Y266732D01*
D24*
X5018Y-373537D02*
Y179921D01*
X22541Y-373537D02*
X22638Y-373634D01*
X22541Y-373537D02*
Y233270D01*
X4921Y-373634D02*
X5018Y-373537D01*
X22541Y233270D02*
X22638Y233366D01*
Y237538D01*
X22541Y237635D02*
X22638Y237538D01*
X22541Y237635D02*
Y244096D01*
X22736Y244291D01*
Y248720D01*
D25*
X53150Y289370D02*
D03*
D26*
Y299370D02*
D03*
Y309370D02*
D03*
Y319370D02*
D03*
D27*
X12126Y358425D02*
D03*
Y348425D02*
D03*
X2126Y358425D02*
D03*
Y348425D02*
D03*
X-7874Y358425D02*
D03*
X-38386Y347284D02*
D03*
X-38386Y319724D02*
D03*
Y309724D02*
D03*
Y299724D02*
D03*
Y289724D02*
D03*
Y279724D02*
D03*
X64961Y329724D02*
D03*
Y357284D02*
D03*
X12638Y374015D02*
D03*
D28*
X-7874Y348425D02*
D03*
X22638Y374015D02*
D03*
D29*
X-38386Y357284D02*
D03*
X-38386Y329724D02*
D03*
X64961Y319724D02*
D03*
Y347284D02*
D03*
D30*
X2953Y372047D02*
D03*
X-7047D02*
D03*
D31*
X-16240Y360728D02*
D03*
D32*
X-20721Y356387D02*
D03*
X-18701Y339567D02*
D03*
X-37008Y372244D02*
D03*
X21654Y290945D02*
D03*
X17717Y294094D02*
D03*
X40945Y324803D02*
D03*
X42520Y302756D02*
D03*
X37795Y294488D02*
D03*
X32677Y291732D02*
D03*
X26772Y292913D02*
D03*
X8655Y317109D02*
D03*
X33858Y268799D02*
D03*
X13976Y294237D02*
D03*
X30807Y266732D02*
D03*
X28429Y322337D02*
D03*
X-31496Y312795D02*
D03*
X16929Y323031D02*
D03*
X12303Y311417D02*
D03*
X-34744Y364665D02*
D03*
X1968Y268012D02*
D03*
X-10371Y319637D02*
D03*
X49229Y278740D02*
D03*
X12929Y319137D02*
D03*
X15229Y326237D02*
D03*
X-5689Y289354D02*
D03*
X-5471Y302137D02*
D03*
X-11371Y366437D02*
D03*
X16829Y314637D02*
D03*
X54129Y342637D02*
D03*
X28629Y316537D02*
D03*
X39429Y335237D02*
D03*
X19429Y311937D02*
D03*
X32529Y351137D02*
D03*
X27129Y326837D02*
D03*
X-24671Y320937D02*
D03*
X-6471Y325637D02*
D03*
X-2271Y336837D02*
D03*
X44929Y370837D02*
D03*
X26829Y307337D02*
D03*
X-11271Y299337D02*
D03*
X44629Y337637D02*
D03*
X3229Y333537D02*
D03*
X60329Y376637D02*
D03*
X35929Y360037D02*
D03*
X22736Y268307D02*
D03*
D33*
X36811Y341142D02*
D03*
X28937D02*
D03*
X21063D02*
D03*
X13189D02*
D03*
X5315D02*
D03*
X-2559D02*
D03*
X-10433D02*
D03*
Y278543D02*
D03*
X-2559D02*
D03*
X5315D02*
D03*
X13189D02*
D03*
X21063D02*
D03*
X28937D02*
D03*
X36811D02*
D03*
D34*
X3937Y-392070D02*
Y-373634D01*
X23622Y-392070D02*
Y-373634D01*
M02*
