%FSLAX25Y25*%
%MOIN*%
G70*
G01*
G75*
G04 Layer_Color=8388736*
%ADD10R,0.03937X0.02756*%
%ADD11R,0.02362X0.03937*%
%ADD12R,0.01969X0.03937*%
%ADD13R,0.02756X0.03937*%
%ADD14R,0.06299X0.07874*%
%ADD15O,0.02165X0.06496*%
%ADD16O,0.06496X0.02165*%
%ADD17R,0.02362X0.05118*%
%ADD18R,0.06299X0.02756*%
%ADD19R,0.02362X0.05906*%
%ADD20R,0.03150X0.09843*%
%ADD21R,0.03150X0.07480*%
%ADD22R,0.07480X0.03150*%
%ADD23C,0.00787*%
%ADD24C,0.07874*%
G04:AMPARAMS|DCode=25|XSize=78.74mil|YSize=78.74mil|CornerRadius=19.69mil|HoleSize=0mil|Usage=FLASHONLY|Rotation=270.000|XOffset=0mil|YOffset=0mil|HoleType=Round|Shape=RoundedRectangle|*
%AMROUNDEDRECTD25*
21,1,0.07874,0.03937,0,0,270.0*
21,1,0.03937,0.07874,0,0,270.0*
1,1,0.03937,-0.01969,-0.01969*
1,1,0.03937,-0.01969,0.01969*
1,1,0.03937,0.01969,0.01969*
1,1,0.03937,0.01969,-0.01969*
%
%ADD25ROUNDEDRECTD25*%
%ADD26C,0.07874*%
%ADD27C,0.05906*%
%ADD28R,0.05906X0.05906*%
%ADD29R,0.05906X0.05906*%
%ADD30C,0.04724*%
%ADD31C,0.02362*%
%ADD32C,0.02756*%
%ADD33R,0.04724X0.04724*%
%ADD34C,0.05906*%
%ADD35C,0.01000*%
%ADD36C,0.00984*%
%ADD37C,0.02362*%
%ADD38C,0.00394*%
%ADD39R,0.04737X0.03556*%
%ADD40R,0.03162X0.04737*%
%ADD41R,0.02769X0.04737*%
%ADD42R,0.03556X0.04737*%
%ADD43R,0.07099X0.08674*%
%ADD44O,0.02965X0.07296*%
%ADD45O,0.07296X0.02965*%
%ADD46R,0.03162X0.05918*%
%ADD47R,0.07099X0.03556*%
%ADD48R,0.03162X0.06706*%
%ADD49R,0.03950X0.10642*%
%ADD50R,0.03950X0.08280*%
%ADD51R,0.08280X0.03950*%
%ADD52C,0.00800*%
G04:AMPARAMS|DCode=53|XSize=86.74mil|YSize=86.74mil|CornerRadius=23.69mil|HoleSize=0mil|Usage=FLASHONLY|Rotation=270.000|XOffset=0mil|YOffset=0mil|HoleType=Round|Shape=RoundedRectangle|*
%AMROUNDEDRECTD53*
21,1,0.08674,0.03937,0,0,270.0*
21,1,0.03937,0.08674,0,0,270.0*
1,1,0.04737,-0.01969,-0.01969*
1,1,0.04737,-0.01969,0.01969*
1,1,0.04737,0.01969,0.01969*
1,1,0.04737,0.01969,-0.01969*
%
%ADD53ROUNDEDRECTD53*%
%ADD54C,0.08674*%
%ADD55C,0.06706*%
%ADD56R,0.06706X0.06706*%
%ADD57R,0.06706X0.06706*%
%ADD58C,0.05524*%
%ADD59C,0.03162*%
%ADD60C,0.03556*%
D39*
X30709Y278937D02*
D03*
Y286417D02*
D03*
X21555Y286417D02*
D03*
Y278937D02*
D03*
X44193Y319685D02*
D03*
Y312205D02*
D03*
X-17618Y342716D02*
D03*
Y350197D02*
D03*
X-26476Y338779D02*
D03*
Y346260D02*
D03*
X-26575Y331496D02*
D03*
Y324016D02*
D03*
X-26673Y315748D02*
D03*
Y308268D02*
D03*
X-17284Y315748D02*
D03*
Y308268D02*
D03*
X-7973D02*
D03*
Y315748D02*
D03*
X886Y286220D02*
D03*
Y278740D02*
D03*
X9842D02*
D03*
Y286220D02*
D03*
X39764Y278937D02*
D03*
Y286417D02*
D03*
X64272Y299410D02*
D03*
Y306890D02*
D03*
X64272Y283268D02*
D03*
Y290748D02*
D03*
D40*
X13681Y-389370D02*
D03*
X17421Y-376772D02*
D03*
X9941D02*
D03*
D41*
X8464Y-397539D02*
D03*
X19193D02*
D03*
D42*
X27362Y346555D02*
D03*
X19882D02*
D03*
X27362Y355374D02*
D03*
X19882D02*
D03*
Y364232D02*
D03*
X27362D02*
D03*
X56890Y348150D02*
D03*
X49409D02*
D03*
Y338957D02*
D03*
X56890D02*
D03*
X49409Y329724D02*
D03*
X56890D02*
D03*
X49409Y357460D02*
D03*
X56890D02*
D03*
Y366654D02*
D03*
X49409D02*
D03*
Y375984D02*
D03*
X56890D02*
D03*
D43*
X38386Y351181D02*
D03*
Y373228D02*
D03*
D44*
X29724Y300394D02*
D03*
X26575D02*
D03*
X23425D02*
D03*
X20276D02*
D03*
X17126D02*
D03*
X13976D02*
D03*
X10827D02*
D03*
X7677D02*
D03*
Y333464D02*
D03*
X10827D02*
D03*
X13976D02*
D03*
X17126D02*
D03*
X20276D02*
D03*
X23425D02*
D03*
X26575D02*
D03*
X29724D02*
D03*
D45*
X2165Y305905D02*
D03*
Y309055D02*
D03*
Y312205D02*
D03*
Y315354D02*
D03*
Y318504D02*
D03*
Y321653D02*
D03*
Y324803D02*
D03*
Y327953D02*
D03*
X35236D02*
D03*
Y324803D02*
D03*
Y321653D02*
D03*
Y318504D02*
D03*
Y315354D02*
D03*
Y312205D02*
D03*
Y309055D02*
D03*
Y305905D02*
D03*
D46*
X-23622Y354134D02*
D03*
X-27362Y362401D02*
D03*
X-19882D02*
D03*
D47*
X-15157Y369094D02*
D03*
Y376575D02*
D03*
Y372835D02*
D03*
X-26772D02*
D03*
Y376575D02*
D03*
Y369094D02*
D03*
D48*
X-19488Y325984D02*
D03*
X-12008D02*
D03*
X-15748Y333465D02*
D03*
D49*
X-20079Y297047D02*
D03*
D50*
Y280906D02*
D03*
D51*
X-11520Y284354D02*
D03*
Y294354D02*
D03*
Y289354D02*
D03*
X-28638D02*
D03*
Y294354D02*
D03*
Y284354D02*
D03*
D52*
X13779Y263779D02*
D03*
D53*
X53150Y289370D02*
D03*
D54*
Y299370D02*
D03*
Y309370D02*
D03*
Y319370D02*
D03*
D55*
X12126Y358425D02*
D03*
Y348425D02*
D03*
X2126Y358425D02*
D03*
Y348425D02*
D03*
X-7874Y358425D02*
D03*
X-38386Y347284D02*
D03*
X-38386Y319724D02*
D03*
Y309724D02*
D03*
Y299724D02*
D03*
Y289724D02*
D03*
Y279724D02*
D03*
X64961Y329724D02*
D03*
Y357284D02*
D03*
X12638Y374015D02*
D03*
D56*
X-7874Y348425D02*
D03*
X22638Y374015D02*
D03*
D57*
X-38386Y357284D02*
D03*
X-38386Y329724D02*
D03*
X64961Y319724D02*
D03*
Y347284D02*
D03*
D58*
X2953Y372047D02*
D03*
X-7047D02*
D03*
D59*
X-16240Y360728D02*
D03*
D60*
X-20721Y356387D02*
D03*
X-18701Y339567D02*
D03*
X-37008Y372244D02*
D03*
X21654Y290945D02*
D03*
X17717Y294094D02*
D03*
X40945Y324803D02*
D03*
X42520Y302756D02*
D03*
X37795Y294488D02*
D03*
X32677Y291732D02*
D03*
X26772Y292913D02*
D03*
X8655Y317109D02*
D03*
X33858Y268799D02*
D03*
X13976Y294237D02*
D03*
X30807Y266732D02*
D03*
X28429Y322337D02*
D03*
X-31496Y312795D02*
D03*
X16929Y323031D02*
D03*
X12303Y311417D02*
D03*
X-34744Y364665D02*
D03*
X1968Y268012D02*
D03*
X-10371Y319637D02*
D03*
X49229Y278740D02*
D03*
X12929Y319137D02*
D03*
X15229Y326237D02*
D03*
X-5689Y289354D02*
D03*
X-5471Y302137D02*
D03*
X-11371Y366437D02*
D03*
X16829Y314637D02*
D03*
X54129Y342637D02*
D03*
X28629Y316537D02*
D03*
X39429Y335237D02*
D03*
X19429Y311937D02*
D03*
X32529Y351137D02*
D03*
X27129Y326837D02*
D03*
X-24671Y320937D02*
D03*
X-6471Y325637D02*
D03*
X-2271Y336837D02*
D03*
X44929Y370837D02*
D03*
X26829Y307337D02*
D03*
X-11271Y299337D02*
D03*
X44629Y337637D02*
D03*
X3229Y333537D02*
D03*
X60329Y376637D02*
D03*
X35929Y360037D02*
D03*
X22736Y268307D02*
D03*
M02*
