%FSLAX25Y25*%
%MOIN*%
G70*
G01*
G75*
G04 Layer_Physical_Order=2*
G04 Layer_Color=16711680*
%ADD10R,0.02362X0.03937*%
%ADD11R,0.03937X0.02756*%
%ADD12R,0.07480X0.03150*%
%ADD13R,0.03150X0.07480*%
%ADD14R,0.03150X0.09843*%
%ADD15R,0.02362X0.05906*%
%ADD16R,0.06299X0.01575*%
%ADD17R,0.02362X0.05118*%
%ADD18O,0.06496X0.02165*%
%ADD19O,0.02165X0.06496*%
%ADD20R,0.06299X0.07874*%
%ADD21R,0.02756X0.03937*%
%ADD22R,0.01969X0.03937*%
%ADD23C,0.00787*%
%ADD24C,0.05906*%
%ADD25R,0.05906X0.05906*%
%ADD26C,0.04724*%
%ADD27R,0.05906X0.05906*%
%ADD28C,0.07874*%
G04:AMPARAMS|DCode=29|XSize=78.74mil|YSize=78.74mil|CornerRadius=19.69mil|HoleSize=0mil|Usage=FLASHONLY|Rotation=270.000|XOffset=0mil|YOffset=0mil|HoleType=Round|Shape=RoundedRectangle|*
%AMROUNDEDRECTD29*
21,1,0.07874,0.03937,0,0,270.0*
21,1,0.03937,0.07874,0,0,270.0*
1,1,0.03937,-0.01969,-0.01969*
1,1,0.03937,-0.01969,0.01969*
1,1,0.03937,0.01969,0.01969*
1,1,0.03937,0.01969,-0.01969*
%
%ADD29ROUNDEDRECTD29*%
%ADD30C,0.02756*%
%ADD31R,0.04724X0.04724*%
%ADD32C,0.07874*%
%ADD33C,0.05906*%
G36*
X35275Y-55845D02*
X35570Y-56042D01*
X35425Y-56521D01*
X29836D01*
X29836Y-56521D01*
X29375Y-56613D01*
X28985Y-56874D01*
X28985Y-56874D01*
X27926Y-57933D01*
X27664Y-58324D01*
X27573Y-58784D01*
X27573Y-58785D01*
Y-67425D01*
X27573Y-67425D01*
X27664Y-67886D01*
X27926Y-68277D01*
X31309Y-71661D01*
X31118Y-72123D01*
X11791D01*
X11791Y-72123D01*
X11331Y-72214D01*
X10940Y-72475D01*
X10940Y-72475D01*
X6580Y-76835D01*
X5898Y-76553D01*
X4921Y-76424D01*
X3945Y-76553D01*
X3035Y-76930D01*
X2254Y-77529D01*
X1654Y-78311D01*
X1494Y-78698D01*
X1003Y-78600D01*
Y-71793D01*
X1494Y-71696D01*
X1654Y-72083D01*
X2254Y-72864D01*
X3035Y-73464D01*
X3945Y-73841D01*
X4921Y-73969D01*
X5898Y-73841D01*
X6808Y-73464D01*
X7589Y-72864D01*
X8188Y-72083D01*
X8565Y-71173D01*
X8694Y-70197D01*
X8565Y-69220D01*
X8283Y-68538D01*
X9063Y-67759D01*
X9541Y-67904D01*
X9571Y-68054D01*
X10097Y-68840D01*
X10883Y-69366D01*
X11311Y-69451D01*
Y-67126D01*
X11811D01*
Y-66626D01*
X14136D01*
X14051Y-66198D01*
X13525Y-65412D01*
X12739Y-64886D01*
X12589Y-64856D01*
X12444Y-64378D01*
X16476Y-60345D01*
X16974Y-60394D01*
X17075Y-60545D01*
X17791Y-61024D01*
X18636Y-61192D01*
X19481Y-61024D01*
X20197Y-60545D01*
X20451Y-60166D01*
X20797Y-60097D01*
X21188Y-59836D01*
X25535Y-55489D01*
X35037D01*
X35275Y-55845D01*
D02*
G37*
G36*
X12710Y-1501D02*
X12491Y-1545D01*
X11775Y-2023D01*
X11297Y-2740D01*
X11128Y-3584D01*
X11297Y-4429D01*
X11775Y-5145D01*
X12491Y-5624D01*
X13336Y-5792D01*
X14181Y-5624D01*
X14897Y-5145D01*
X15376Y-4429D01*
X15544Y-3584D01*
X15483Y-3275D01*
X15800Y-2889D01*
X31676D01*
X31867Y-3351D01*
X28485Y-6733D01*
X28224Y-7124D01*
X28132Y-7584D01*
X28132Y-7584D01*
Y-14984D01*
X28132Y-14984D01*
X28224Y-15445D01*
X28485Y-15836D01*
X29785Y-17136D01*
X29785Y-17136D01*
X30175Y-17397D01*
X30636Y-17489D01*
X30636Y-17489D01*
X34053D01*
X34150Y-17979D01*
X33547Y-18229D01*
X32765Y-18828D01*
X32166Y-19610D01*
X31789Y-20520D01*
X31661Y-21496D01*
X31789Y-22472D01*
X32072Y-23154D01*
X26810Y-28416D01*
X26549Y-28807D01*
X26457Y-29268D01*
X26457Y-29268D01*
Y-38201D01*
X26016Y-38436D01*
X25534Y-38114D01*
X25106Y-38029D01*
Y-40354D01*
Y-42679D01*
X25534Y-42594D01*
X26016Y-42272D01*
X26457Y-42508D01*
Y-45837D01*
X26457Y-45837D01*
X26527Y-46190D01*
X20772Y-51945D01*
X19353D01*
X19353Y-51945D01*
X18892Y-52037D01*
X18501Y-52298D01*
X18501Y-52298D01*
X15226Y-55574D01*
X14965Y-55964D01*
X14873Y-56425D01*
X14873Y-56425D01*
Y-58542D01*
X6580Y-66835D01*
X5898Y-66553D01*
X4921Y-66424D01*
X3945Y-66553D01*
X3035Y-66930D01*
X2254Y-67529D01*
X1654Y-68311D01*
X1494Y-68698D01*
X1003Y-68600D01*
Y-61793D01*
X1494Y-61696D01*
X1654Y-62083D01*
X2254Y-62864D01*
X3035Y-63464D01*
X3945Y-63841D01*
X4921Y-63969D01*
X5898Y-63841D01*
X6808Y-63464D01*
X7589Y-62864D01*
X8188Y-62083D01*
X8565Y-61173D01*
X8694Y-60197D01*
X8565Y-59220D01*
X8188Y-58311D01*
X7589Y-57529D01*
X6808Y-56930D01*
X5898Y-56553D01*
X4921Y-56424D01*
X3945Y-56553D01*
X3035Y-56930D01*
X2254Y-57529D01*
X1654Y-58311D01*
X1494Y-58698D01*
X1003Y-58600D01*
Y-54150D01*
X4421D01*
Y-50197D01*
Y-46244D01*
X1003D01*
Y-34824D01*
X1281Y-34708D01*
X1477Y-34642D01*
X2102Y-35457D01*
X2928Y-36090D01*
X3889Y-36489D01*
X4421Y-36559D01*
Y-32638D01*
Y-28717D01*
X3889Y-28787D01*
X2928Y-29185D01*
X2102Y-29818D01*
X1477Y-30633D01*
X1281Y-30567D01*
X1003Y-30452D01*
Y-26378D01*
X1003D01*
X1181D01*
X1357Y-26378D01*
X1357Y-26378D01*
Y-26378D01*
X8661D01*
Y-23842D01*
X20440D01*
X20547Y-24379D01*
X21025Y-25095D01*
X21741Y-25574D01*
X22586Y-25742D01*
X23431Y-25574D01*
X24147Y-25095D01*
X24626Y-24379D01*
X24794Y-23534D01*
X24626Y-22690D01*
X24147Y-21973D01*
X23431Y-21495D01*
X22586Y-21327D01*
X21869Y-21469D01*
X21689Y-21433D01*
X21689Y-21433D01*
X8661D01*
Y-18898D01*
X1357D01*
X1357Y-18897D01*
Y-18898D01*
X1181Y-18897D01*
X1003Y-18720D01*
Y-1003D01*
X12661D01*
X12710Y-1501D01*
D02*
G37*
G36*
X111232Y-46583D02*
Y-47192D01*
X110784Y-47413D01*
X110154Y-46930D01*
X109244Y-46553D01*
X108268Y-46424D01*
X107291Y-46553D01*
X106382Y-46930D01*
X105600Y-47529D01*
X105001Y-48311D01*
X104624Y-49220D01*
X104495Y-50197D01*
X104624Y-51173D01*
X105001Y-52083D01*
X105600Y-52864D01*
X106382Y-53464D01*
X107291Y-53841D01*
X108268Y-53969D01*
X109244Y-53841D01*
X110154Y-53464D01*
X110784Y-52981D01*
X111232Y-53202D01*
Y-56457D01*
X104528D01*
Y-63937D01*
X111232D01*
Y-74073D01*
X99330Y-85975D01*
X99145Y-85898D01*
X98425Y-85803D01*
X96583D01*
X96550Y-85304D01*
X97690Y-85154D01*
X98839Y-84678D01*
X99826Y-83921D01*
X100584Y-82934D01*
X101060Y-81784D01*
X101222Y-80551D01*
X101060Y-79318D01*
X100584Y-78169D01*
X99826Y-77182D01*
X98839Y-76424D01*
X97690Y-75948D01*
X96572Y-75801D01*
Y-75301D01*
X97690Y-75154D01*
X98839Y-74678D01*
X99826Y-73921D01*
X100584Y-72934D01*
X101060Y-71785D01*
X101222Y-70551D01*
X101060Y-69318D01*
X100584Y-68169D01*
X99826Y-67182D01*
X98839Y-66424D01*
X97690Y-65948D01*
X97386Y-65908D01*
Y-65408D01*
X97746Y-65361D01*
X98947Y-64864D01*
X99978Y-64072D01*
X100769Y-63041D01*
X101267Y-61840D01*
X101371Y-61051D01*
X91543D01*
X91647Y-61840D01*
X92144Y-63041D01*
X92936Y-64072D01*
X93967Y-64864D01*
X95168Y-65361D01*
X95527Y-65408D01*
Y-65908D01*
X95223Y-65948D01*
X94074Y-66424D01*
X93087Y-67182D01*
X92330Y-68169D01*
X91854Y-69318D01*
X91692Y-70551D01*
X91854Y-71785D01*
X92330Y-72934D01*
X93087Y-73921D01*
X94074Y-74678D01*
X95223Y-75154D01*
X96342Y-75301D01*
Y-75801D01*
X95223Y-75948D01*
X94074Y-76424D01*
X93087Y-77182D01*
X92330Y-78169D01*
X91854Y-79318D01*
X91850Y-79347D01*
X85468D01*
X85006Y-78655D01*
X84290Y-78177D01*
X83445Y-78009D01*
X82600Y-78177D01*
X81884Y-78655D01*
X81778Y-78814D01*
X81300Y-78668D01*
Y-63724D01*
X98288Y-46736D01*
X98288Y-46736D01*
X98444Y-46502D01*
X98549Y-46345D01*
X98640Y-45884D01*
Y-39084D01*
X98997Y-38846D01*
X99476Y-38129D01*
X99644Y-37284D01*
X99476Y-36439D01*
X98997Y-35723D01*
X98281Y-35245D01*
X97436Y-35077D01*
X96591Y-35245D01*
X95875Y-35723D01*
X95397Y-36439D01*
X95228Y-37284D01*
X95397Y-38129D01*
X95875Y-38846D01*
X96232Y-39084D01*
Y-45386D01*
X79244Y-62374D01*
X78983Y-62764D01*
X78891Y-63225D01*
X78891Y-63225D01*
Y-81473D01*
X78891Y-81473D01*
X78983Y-81934D01*
X79244Y-82325D01*
X89938Y-93019D01*
Y-98458D01*
X89126Y-99269D01*
X88865Y-99660D01*
X88773Y-100121D01*
X88773Y-100121D01*
Y-100764D01*
X84222Y-105315D01*
X55542D01*
X55216Y-104990D01*
X55408Y-104528D01*
X59646D01*
Y-98228D01*
X53782D01*
X53764Y-98202D01*
X53607Y-97967D01*
X53607Y-97967D01*
X52623Y-96983D01*
X52232Y-96722D01*
X51772Y-96630D01*
X51772Y-96630D01*
X41247D01*
X37804Y-93187D01*
X37833Y-93091D01*
X38318Y-92969D01*
X40285Y-94936D01*
X40285Y-94936D01*
X40675Y-95197D01*
X41136Y-95289D01*
X41136Y-95289D01*
X57137D01*
X57375Y-95645D01*
X58091Y-96124D01*
X58936Y-96292D01*
X59781Y-96124D01*
X60497Y-95645D01*
X60976Y-94929D01*
X61144Y-94084D01*
X60976Y-93239D01*
X60497Y-92523D01*
X59781Y-92045D01*
X58936Y-91877D01*
X58091Y-92045D01*
X57375Y-92523D01*
X57137Y-92880D01*
X41635D01*
X39743Y-90988D01*
X39826Y-90567D01*
X39658Y-89722D01*
X39180Y-89006D01*
X38464Y-88527D01*
X37619Y-88359D01*
X36774Y-88527D01*
X36241Y-88883D01*
X35800Y-88648D01*
Y-79663D01*
X36275Y-79346D01*
X36991Y-79824D01*
X37836Y-79992D01*
X38681Y-79824D01*
X39397Y-79346D01*
X39636Y-78989D01*
X48885D01*
X55159Y-85263D01*
X55076Y-85684D01*
X55244Y-86529D01*
X55722Y-87246D01*
X56438Y-87724D01*
X57283Y-87892D01*
X58128Y-87724D01*
X58845Y-87246D01*
X59323Y-86529D01*
X59491Y-85684D01*
X59323Y-84839D01*
X58845Y-84123D01*
X58128Y-83645D01*
X57283Y-83477D01*
X56862Y-83560D01*
X50253Y-76951D01*
X50301Y-76834D01*
X50532Y-76489D01*
X54037D01*
X63712Y-86163D01*
X63628Y-86584D01*
X63797Y-87429D01*
X64275Y-88146D01*
X64991Y-88624D01*
X65836Y-88792D01*
X66681Y-88624D01*
X67397Y-88146D01*
X67876Y-87429D01*
X68044Y-86584D01*
X67876Y-85739D01*
X67397Y-85023D01*
X66681Y-84545D01*
X65836Y-84377D01*
X65415Y-84460D01*
X56314Y-75359D01*
X56506Y-74897D01*
X69027D01*
X69027Y-74897D01*
X69488Y-74806D01*
X69653Y-74696D01*
X70136Y-74792D01*
X70981Y-74624D01*
X71682Y-74156D01*
X72123Y-74392D01*
Y-86681D01*
X71736Y-86998D01*
X71524Y-86955D01*
X71489Y-86932D01*
X70644Y-86764D01*
X69799Y-86932D01*
X69083Y-87411D01*
X68604Y-88127D01*
X68436Y-88972D01*
X68604Y-89817D01*
X69083Y-90533D01*
X69799Y-91012D01*
X70644Y-91180D01*
X70653Y-91178D01*
X71040Y-91495D01*
Y-98228D01*
X69095D01*
Y-104528D01*
X75394D01*
Y-98228D01*
X73448D01*
Y-90572D01*
X73357Y-90111D01*
X73096Y-89720D01*
X72820Y-89444D01*
X72893Y-88950D01*
X73288Y-88739D01*
X78914Y-94365D01*
Y-98228D01*
X76969D01*
Y-104528D01*
X83268D01*
Y-98228D01*
X81322D01*
Y-93866D01*
X81231Y-93406D01*
X80970Y-93015D01*
X80970Y-93015D01*
X77653Y-89699D01*
X77799Y-89220D01*
X78281Y-89124D01*
X78997Y-88645D01*
X79476Y-87929D01*
X79644Y-87084D01*
X79476Y-86239D01*
X78997Y-85523D01*
X78281Y-85045D01*
X77436Y-84877D01*
X77015Y-84960D01*
X76106Y-84051D01*
Y-66350D01*
X76106Y-66350D01*
X76014Y-65889D01*
X75753Y-65498D01*
X75753Y-65498D01*
X74060Y-63805D01*
X74144Y-63384D01*
X73976Y-62539D01*
X73497Y-61823D01*
X74003Y-61066D01*
X86229Y-48841D01*
X86490Y-48450D01*
X86581Y-47989D01*
X86581Y-47989D01*
Y-44514D01*
X87022Y-44278D01*
X87091Y-44324D01*
X87936Y-44492D01*
X88781Y-44324D01*
X89497Y-43845D01*
X89976Y-43129D01*
X90144Y-42284D01*
X89976Y-41440D01*
X89497Y-40723D01*
X89140Y-40485D01*
Y-39137D01*
X94200Y-34078D01*
X98727D01*
X111232Y-46583D01*
D02*
G37*
G36*
X42766Y-34163D02*
X43547Y-34763D01*
X44457Y-35140D01*
X45260Y-35246D01*
Y-35417D01*
X45260D01*
Y-38280D01*
X48622D01*
Y-38780D01*
X49122D01*
Y-42142D01*
X51868D01*
X52085Y-42466D01*
X52855Y-43236D01*
X52855Y-43236D01*
X53245Y-43497D01*
X53245Y-43497D01*
X53245Y-43497D01*
D01*
X53245Y-43497D01*
X53245Y-43497D01*
X53706Y-43589D01*
X53706Y-43589D01*
X60765D01*
X60765Y-43589D01*
X61226Y-43497D01*
X61617Y-43236D01*
X62704Y-42149D01*
X63166Y-42340D01*
Y-47352D01*
X58957Y-51560D01*
X58536Y-51477D01*
X57691Y-51645D01*
X56975Y-52123D01*
X56497Y-52839D01*
X56328Y-53684D01*
X56497Y-54529D01*
X56975Y-55246D01*
X57691Y-55724D01*
D01*
X57996Y-55962D01*
X57911Y-56390D01*
X62561D01*
X62476Y-55962D01*
X61951Y-55175D01*
X61164Y-54650D01*
X60922Y-54602D01*
X60644Y-54186D01*
X60744Y-53684D01*
X60660Y-53263D01*
X65222Y-48702D01*
X65483Y-48311D01*
X65574Y-47851D01*
X65574Y-47850D01*
Y-41929D01*
X66732D01*
Y-51575D01*
X66690Y-51638D01*
X66598Y-52099D01*
X66598Y-52099D01*
Y-62419D01*
X63157Y-65860D01*
X62736Y-65777D01*
X62667Y-65790D01*
X62314Y-65437D01*
X62344Y-65284D01*
X62176Y-64439D01*
X61697Y-63723D01*
X60981Y-63245D01*
X60136Y-63077D01*
X59291Y-63245D01*
X58575Y-63723D01*
X58096Y-64439D01*
X57928Y-65284D01*
X58096Y-66129D01*
X58575Y-66846D01*
X58932Y-67084D01*
Y-69944D01*
X58932Y-69944D01*
X59024Y-70404D01*
X59070Y-70473D01*
X58834Y-70914D01*
X57144D01*
X56999Y-70436D01*
X57325Y-70218D01*
X57850Y-69432D01*
X57935Y-69004D01*
X53285D01*
X53370Y-69432D01*
X53896Y-70218D01*
X54221Y-70436D01*
X54076Y-70914D01*
X44104D01*
X44091Y-70900D01*
X43700Y-70639D01*
X43239Y-70548D01*
X43239Y-70548D01*
X33603D01*
X29981Y-66926D01*
Y-59283D01*
X30281Y-58984D01*
X30775Y-59057D01*
X30943Y-59370D01*
X30896Y-59439D01*
X30728Y-60284D01*
X30896Y-61129D01*
X31375Y-61845D01*
X32091Y-62324D01*
X32936Y-62492D01*
X33781Y-62324D01*
X34497Y-61845D01*
X34736Y-61489D01*
X48936D01*
X49838Y-62391D01*
X49754Y-62812D01*
X49922Y-63657D01*
X50401Y-64373D01*
X51117Y-64852D01*
X51962Y-65020D01*
X52807Y-64852D01*
X53523Y-64373D01*
X54002Y-63657D01*
X54170Y-62812D01*
X54802Y-62686D01*
X55308Y-63024D01*
X55736Y-63109D01*
Y-60784D01*
Y-58459D01*
X55308Y-58544D01*
X54522Y-59070D01*
X53996Y-59857D01*
X53812Y-60784D01*
X53835Y-60904D01*
X53420Y-61182D01*
X52807Y-60772D01*
X51962Y-60604D01*
X51541Y-60688D01*
X50286Y-59433D01*
X49895Y-59172D01*
X49435Y-59080D01*
X49435Y-59080D01*
X37995D01*
X37850Y-58602D01*
X37888Y-58577D01*
X47388Y-49077D01*
X47649Y-48686D01*
X47740Y-48225D01*
X47740Y-48225D01*
Y-48184D01*
X48097Y-47945D01*
X48576Y-47229D01*
X48744Y-46384D01*
X48576Y-45540D01*
X48097Y-44823D01*
X47381Y-44345D01*
X46536Y-44177D01*
X45691Y-44345D01*
X44975Y-44823D01*
X44803Y-45080D01*
X42837D01*
X42602Y-44639D01*
X43076Y-43929D01*
X43244Y-43084D01*
X43091Y-42316D01*
X43408Y-41929D01*
X43898D01*
Y-35630D01*
X41952D01*
Y-33881D01*
X42426Y-33721D01*
X42766Y-34163D01*
D02*
G37*
G36*
X31752Y-78082D02*
X31709Y-78225D01*
X31108Y-78344D01*
X30322Y-78870D01*
X29796Y-79657D01*
X29711Y-80084D01*
X32036D01*
Y-80584D01*
X32536D01*
Y-82910D01*
X32964Y-82824D01*
X33391Y-83053D01*
Y-91682D01*
X33391Y-91682D01*
X33483Y-92143D01*
X33744Y-92533D01*
X38977Y-97767D01*
X38785Y-98228D01*
X37598D01*
Y-104528D01*
X43898D01*
Y-99039D01*
X45472D01*
Y-104528D01*
X51463D01*
X51720Y-104956D01*
X51529Y-105315D01*
X16295D01*
X14987Y-104987D01*
X11448Y-104462D01*
X7874Y-104287D01*
Y-104311D01*
X7874Y-104312D01*
X6043D01*
X5945Y-103821D01*
X6808Y-103464D01*
X7589Y-102864D01*
X8188Y-102083D01*
X8565Y-101173D01*
X8694Y-100197D01*
X8565Y-99220D01*
X8188Y-98311D01*
X7589Y-97529D01*
X6808Y-96930D01*
X6467Y-96789D01*
X6369Y-96298D01*
X9907Y-92761D01*
X10168Y-92370D01*
X10260Y-91909D01*
Y-88789D01*
X21368Y-77681D01*
X31455D01*
X31752Y-78082D01*
D02*
G37*
G36*
X113170Y-44462D02*
X112708Y-44653D01*
X104895Y-36840D01*
X105086Y-36378D01*
X112008D01*
Y-28897D01*
X104528D01*
Y-35820D01*
X104066Y-36011D01*
X100077Y-32023D01*
X99687Y-31762D01*
X99226Y-31670D01*
X99226Y-31670D01*
X93701D01*
X93240Y-31762D01*
X92849Y-32023D01*
X87085Y-37787D01*
X87060Y-37824D01*
X86581Y-37679D01*
Y-26225D01*
X86581Y-26225D01*
X86490Y-25764D01*
X86229Y-25374D01*
X86229Y-25374D01*
X84288Y-23433D01*
X83897Y-23172D01*
X83436Y-23080D01*
X83436Y-23080D01*
X70235D01*
X59788Y-12633D01*
X59397Y-12372D01*
X58936Y-12280D01*
X58936Y-12280D01*
X33736D01*
X33497Y-11923D01*
X32781Y-11445D01*
X31936Y-11277D01*
X31091Y-11445D01*
X30981Y-11518D01*
X30540Y-11282D01*
Y-8083D01*
X33187Y-5437D01*
X33680Y-5519D01*
X33738Y-5637D01*
X33323Y-6178D01*
X32984Y-6996D01*
X32934Y-7374D01*
X39585D01*
X39535Y-6996D01*
X39197Y-6178D01*
X38781Y-5637D01*
X39002Y-5189D01*
X41871D01*
X43350Y-6668D01*
X43191Y-7052D01*
X43083Y-7874D01*
X43191Y-8696D01*
X43509Y-9462D01*
X44014Y-10120D01*
X44671Y-10625D01*
X45438Y-10943D01*
X46260Y-11051D01*
X47082Y-10943D01*
X47848Y-10625D01*
X48506Y-10120D01*
X49011Y-9462D01*
X49328Y-8696D01*
X49437Y-7874D01*
X49328Y-7052D01*
X49011Y-6286D01*
X48506Y-5628D01*
X47848Y-5123D01*
X47082Y-4806D01*
X46260Y-4697D01*
X45438Y-4806D01*
X45053Y-4965D01*
X43439Y-3351D01*
X43631Y-2889D01*
X52712D01*
X52934Y-3337D01*
X52492Y-3912D01*
X52094Y-4874D01*
X52024Y-5406D01*
X59866D01*
X59796Y-4874D01*
X59398Y-3912D01*
X58956Y-3337D01*
X59040Y-3167D01*
X59534Y-3085D01*
X60532Y-4083D01*
Y-9273D01*
X60532Y-9273D01*
X60624Y-9734D01*
X60885Y-10124D01*
X61651Y-10891D01*
X61651Y-10891D01*
X62042Y-11152D01*
X62503Y-11244D01*
X62503Y-11244D01*
X62766D01*
X62992Y-11289D01*
X87436D01*
X87436Y-11289D01*
X87827Y-11211D01*
X88236Y-11292D01*
X89081Y-11124D01*
X89797Y-10645D01*
X90276Y-9929D01*
X90444Y-9084D01*
X90276Y-8240D01*
X89816Y-7551D01*
X90051Y-7110D01*
X101015D01*
X101015Y-7110D01*
X101476Y-7018D01*
X101866Y-6757D01*
X103215Y-5408D01*
X103636Y-5492D01*
X104481Y-5324D01*
X105197Y-4845D01*
X105676Y-4129D01*
X105844Y-3284D01*
X105676Y-2440D01*
X105197Y-1723D01*
X104836Y-1482D01*
X104981Y-1003D01*
X113170D01*
Y-44462D01*
D02*
G37*
G36*
X52355Y-19015D02*
X51980Y-19503D01*
X51582Y-20464D01*
X51512Y-20996D01*
X55433D01*
Y-21496D01*
X55933D01*
Y-25417D01*
X56465Y-25347D01*
X57426Y-24949D01*
X58252Y-24315D01*
X58886Y-23489D01*
X59284Y-22528D01*
X59419Y-21504D01*
X59892Y-21343D01*
X71040Y-32491D01*
Y-35630D01*
X69140D01*
Y-33184D01*
X69140Y-33184D01*
X69049Y-32724D01*
X68788Y-32333D01*
X68788Y-32333D01*
X67099Y-30645D01*
X66709Y-30383D01*
X66248Y-30292D01*
X66248Y-30292D01*
X58982D01*
X58700Y-29610D01*
X58100Y-28828D01*
X57319Y-28229D01*
X56409Y-27852D01*
X55433Y-27724D01*
X54457Y-27852D01*
X53547Y-28229D01*
X52889Y-28734D01*
X52440Y-28513D01*
Y-27299D01*
X52441Y-27299D01*
X52440Y-27299D01*
Y-27299D01*
X52440D01*
X52440Y-27299D01*
X52349Y-26838D01*
X52244Y-26682D01*
X52088Y-26448D01*
X52088Y-26448D01*
X48794Y-23154D01*
X49077Y-22472D01*
X49205Y-21496D01*
X49077Y-20520D01*
X48700Y-19610D01*
X48243Y-19015D01*
X48465Y-18566D01*
X52134D01*
X52355Y-19015D01*
D02*
G37*
G36*
X113170Y-76195D02*
Y-104312D01*
X106299D01*
X106299Y-104311D01*
Y-104287D01*
X102725Y-104462D01*
X99186Y-104987D01*
X97878Y-105315D01*
X88282D01*
X88090Y-104853D01*
X90233Y-102710D01*
X90731Y-102759D01*
X90822Y-102895D01*
X91608Y-103421D01*
X92036Y-103506D01*
Y-101181D01*
X92536D01*
Y-100681D01*
X94861D01*
X94776Y-100253D01*
X94251Y-99467D01*
X93464Y-98941D01*
X92536Y-98756D01*
X92346Y-98600D01*
Y-94915D01*
X92794Y-94694D01*
X93098Y-94927D01*
X93769Y-95205D01*
X94488Y-95299D01*
X98425D01*
X99145Y-95205D01*
X99815Y-94927D01*
X100391Y-94485D01*
X100833Y-93910D01*
X101110Y-93239D01*
X101205Y-92520D01*
Y-88583D01*
X101110Y-87863D01*
X101033Y-87678D01*
X112708Y-76003D01*
X113170Y-76195D01*
D02*
G37*
%LPC*%
G36*
X31536Y-81084D02*
X29711D01*
X29796Y-81512D01*
X30322Y-82299D01*
X31108Y-82824D01*
X31536Y-82910D01*
Y-81084D01*
D02*
G37*
G36*
X14136Y-67626D02*
X12311D01*
Y-69451D01*
X12739Y-69366D01*
X13525Y-68840D01*
X14051Y-68054D01*
X14136Y-67626D01*
D02*
G37*
G36*
X56736Y-58459D02*
Y-60284D01*
X58561D01*
X58476Y-59857D01*
X57951Y-59070D01*
X57164Y-58544D01*
X56736Y-58459D01*
D02*
G37*
G36*
X95957Y-55637D02*
X95168Y-55741D01*
X93967Y-56239D01*
X92936Y-57030D01*
X92144Y-58061D01*
X91647Y-59262D01*
X91543Y-60051D01*
X95957D01*
Y-55637D01*
D02*
G37*
G36*
X58561Y-61284D02*
X56736D01*
Y-63109D01*
X57164Y-63024D01*
X57951Y-62499D01*
X58476Y-61712D01*
X58561Y-61284D01*
D02*
G37*
G36*
X55110Y-66179D02*
X54682Y-66264D01*
X53896Y-66790D01*
X53370Y-67576D01*
X53285Y-68004D01*
X55110D01*
Y-66179D01*
D02*
G37*
G36*
X56110D02*
Y-68004D01*
X57935D01*
X57850Y-67576D01*
X57325Y-66790D01*
X56538Y-66264D01*
X56110Y-66179D01*
D02*
G37*
G36*
X94861Y-101681D02*
X93036D01*
Y-103506D01*
X93464Y-103421D01*
X94251Y-102895D01*
X94776Y-102109D01*
X94861Y-101681D01*
D02*
G37*
G36*
X108358Y-101484D02*
X106533D01*
X106618Y-101912D01*
X107144Y-102699D01*
X107930Y-103224D01*
X108358Y-103309D01*
Y-101484D01*
D02*
G37*
G36*
X67520Y-98228D02*
X61220D01*
Y-104528D01*
X67520D01*
Y-98228D01*
D02*
G37*
G36*
X32374Y-101878D02*
X29512D01*
Y-104740D01*
X32374D01*
Y-101878D01*
D02*
G37*
G36*
X36236D02*
X33374D01*
Y-104740D01*
X36236D01*
Y-101878D01*
D02*
G37*
G36*
X108358Y-98659D02*
X107930Y-98744D01*
X107144Y-99270D01*
X106618Y-100056D01*
X106533Y-100484D01*
X108358D01*
Y-98659D01*
D02*
G37*
G36*
X109358D02*
Y-100484D01*
X111183D01*
X111098Y-100056D01*
X110573Y-99270D01*
X109786Y-98744D01*
X109358Y-98659D01*
D02*
G37*
G36*
X36236Y-98016D02*
X33374D01*
Y-100878D01*
X36236D01*
Y-98016D01*
D02*
G37*
G36*
X111183Y-101484D02*
X109358D01*
Y-103309D01*
X109786Y-103224D01*
X110573Y-102699D01*
X111098Y-101912D01*
X111183Y-101484D01*
D02*
G37*
G36*
X32374Y-98016D02*
X29512D01*
Y-100878D01*
X32374D01*
Y-98016D01*
D02*
G37*
G36*
X10888Y-15756D02*
X9063D01*
Y-17581D01*
X9491Y-17496D01*
X10277Y-16970D01*
X10803Y-16184D01*
X10888Y-15756D01*
D02*
G37*
G36*
X8063Y-12931D02*
X7635Y-13016D01*
X6849Y-13542D01*
X6323Y-14328D01*
X6238Y-14756D01*
X8063D01*
Y-12931D01*
D02*
G37*
G36*
Y-15756D02*
X6238D01*
X6323Y-16184D01*
X6849Y-16970D01*
X7635Y-17496D01*
X8063Y-17581D01*
Y-15756D01*
D02*
G37*
G36*
X79236Y-17677D02*
X78391Y-17845D01*
X77675Y-18323D01*
X77197Y-19039D01*
X77028Y-19884D01*
X77197Y-20729D01*
X77675Y-21445D01*
X78391Y-21924D01*
X79236Y-22092D01*
X80081Y-21924D01*
X80797Y-21445D01*
X81036Y-21089D01*
X104411D01*
X104689Y-21504D01*
X104624Y-21661D01*
X104495Y-22638D01*
X104624Y-23614D01*
X105001Y-24524D01*
X105600Y-25305D01*
X106382Y-25905D01*
X107291Y-26281D01*
X108268Y-26410D01*
X109244Y-26281D01*
X110154Y-25905D01*
X110935Y-25305D01*
X111535Y-24524D01*
X111912Y-23614D01*
X112040Y-22638D01*
X111912Y-21661D01*
X111535Y-20751D01*
X110935Y-19970D01*
X110154Y-19371D01*
X109244Y-18994D01*
X108268Y-18865D01*
X107291Y-18994D01*
X106609Y-19276D01*
X106366Y-19033D01*
X105975Y-18772D01*
X105515Y-18680D01*
X105515Y-18680D01*
X81036D01*
X80797Y-18323D01*
X80081Y-17845D01*
X79236Y-17677D01*
D02*
G37*
G36*
X54933Y-21996D02*
X51512D01*
X51582Y-22528D01*
X51980Y-23489D01*
X52614Y-24315D01*
X53440Y-24949D01*
X54401Y-25347D01*
X54933Y-25417D01*
Y-21996D01*
D02*
G37*
G36*
X55445Y-6406D02*
X52024D01*
X52094Y-6938D01*
X52492Y-7899D01*
X53126Y-8725D01*
X53952Y-9358D01*
X54913Y-9757D01*
X55445Y-9827D01*
Y-6406D01*
D02*
G37*
G36*
X59866D02*
X56445D01*
Y-9827D01*
X56977Y-9757D01*
X57938Y-9358D01*
X58764Y-8725D01*
X59398Y-7899D01*
X59796Y-6938D01*
X59866Y-6406D01*
D02*
G37*
G36*
X39585Y-8374D02*
X36760D01*
Y-11199D01*
X37137Y-11150D01*
X37955Y-10811D01*
X38658Y-10272D01*
X39197Y-9570D01*
X39535Y-8752D01*
X39585Y-8374D01*
D02*
G37*
G36*
X9063Y-12931D02*
Y-14756D01*
X10888D01*
X10803Y-14328D01*
X10277Y-13542D01*
X9491Y-13016D01*
X9063Y-12931D01*
D02*
G37*
G36*
X35760Y-8374D02*
X32934D01*
X32984Y-8752D01*
X33323Y-9570D01*
X33862Y-10272D01*
X34564Y-10811D01*
X35382Y-11150D01*
X35760Y-11199D01*
Y-8374D01*
D02*
G37*
G36*
X8874Y-50697D02*
X5421D01*
Y-54150D01*
X8874D01*
Y-50697D01*
D02*
G37*
G36*
Y-46244D02*
X5421D01*
Y-49697D01*
X8874D01*
Y-46244D01*
D02*
G37*
G36*
X62561Y-57390D02*
X60736D01*
Y-59215D01*
X61164Y-59130D01*
X61951Y-58604D01*
X62476Y-57818D01*
X62561Y-57390D01*
D02*
G37*
G36*
X96957Y-55637D02*
Y-60051D01*
X101371D01*
X101267Y-59262D01*
X100769Y-58061D01*
X99978Y-57030D01*
X98947Y-56239D01*
X97746Y-55741D01*
X96957Y-55637D01*
D02*
G37*
G36*
X59736Y-57390D02*
X57911D01*
X57996Y-57818D01*
X58522Y-58604D01*
X59308Y-59130D01*
X59736Y-59215D01*
Y-57390D01*
D02*
G37*
G36*
X8842Y-33138D02*
X5421D01*
Y-36559D01*
X5953Y-36489D01*
X6915Y-36090D01*
X7740Y-35457D01*
X8374Y-34631D01*
X8772Y-33669D01*
X8842Y-33138D01*
D02*
G37*
G36*
X5421Y-28717D02*
Y-32138D01*
X8842D01*
X8772Y-31606D01*
X8374Y-30644D01*
X7740Y-29818D01*
X6915Y-29185D01*
X5953Y-28787D01*
X5421Y-28717D01*
D02*
G37*
G36*
X24106Y-38029D02*
X23678Y-38114D01*
X22892Y-38640D01*
X22366Y-39426D01*
X22281Y-39854D01*
X24106D01*
Y-38029D01*
D02*
G37*
G36*
Y-40854D02*
X22281D01*
X22366Y-41282D01*
X22892Y-42069D01*
X23678Y-42594D01*
X24106Y-42679D01*
Y-40854D01*
D02*
G37*
G36*
X48122Y-39280D02*
X45260D01*
Y-42142D01*
X48122D01*
Y-39280D01*
D02*
G37*
%LPD*%
D21*
X49409Y-380709D02*
D03*
X64567Y-380610D02*
D03*
D23*
X39665Y-108169D02*
X74213D01*
X55118Y-106595D02*
X84646D01*
X72539Y-111614D02*
X74114Y-113189D01*
X66043Y-111614D02*
X72539D01*
X77165Y-111319D02*
X82398D01*
X74213Y-108169D02*
X77165Y-111122D01*
Y-111319D02*
Y-111122D01*
Y-115256D02*
Y-111319D01*
X72835Y-119587D02*
X77165Y-115256D01*
X72835Y-123031D02*
Y-119587D01*
X84646Y-106595D02*
X89977Y-101263D01*
X45276Y-111909D02*
X47244Y-113878D01*
Y-156400D02*
Y-113878D01*
Y-156400D02*
X48325Y-157480D01*
X79236Y-19884D02*
X105515D01*
X108268Y-22638D01*
X65945Y-5906D02*
X101015D01*
X103636Y-3284D01*
X46436Y-46284D02*
X46536Y-46384D01*
X30336Y-46284D02*
X46436D01*
X29236Y-45184D02*
X30336Y-46284D01*
X29236Y-45184D02*
Y-33184D01*
X30925Y-31496D01*
X35433D01*
X36260Y-7874D02*
X40270Y-11884D01*
X49966D01*
X55945Y-5906D01*
X96457Y-90551D02*
X112436Y-74572D01*
Y-46084D01*
X32036Y-80584D02*
X32874Y-81422D01*
Y-101378D02*
Y-81422D01*
X69027Y-73693D02*
X70136Y-72584D01*
X42031Y-73693D02*
X69027D01*
X13336Y-3584D02*
X15236Y-1684D01*
X59836D01*
X61736Y-3584D01*
X87436Y-10084D02*
X88236Y-9284D01*
Y-9084D01*
X4921Y-22638D02*
X21689D01*
X22586Y-23534D01*
X40748Y-42796D02*
Y-38780D01*
Y-42796D02*
X41036Y-43084D01*
X25036Y-54284D02*
X36836D01*
X20336Y-58984D02*
X25036Y-54284D01*
X18636Y-58984D02*
X20336D01*
X70436Y-53084D02*
X75836Y-47684D01*
Y-28784D01*
X67936Y-51965D02*
Y-33184D01*
X66248Y-31496D02*
X67936Y-33184D01*
X55433Y-31496D02*
X66248D01*
X42370Y-3984D02*
X46260Y-7874D01*
X32936Y-3984D02*
X42370D01*
X29336Y-7584D02*
X32936Y-3984D01*
X29336Y-14984D02*
Y-7584D01*
Y-14984D02*
X30636Y-16284D01*
X39724D01*
X40221Y-15787D01*
X58639D01*
X68934Y-26082D01*
X77434D01*
X83736Y-32384D01*
Y-43684D02*
Y-32384D01*
X82736Y-44684D02*
X83736Y-43684D01*
X60765Y-42384D02*
X64370Y-38780D01*
X51236Y-33146D02*
X52936Y-34846D01*
X51236Y-33146D02*
Y-27299D01*
X45433Y-21496D02*
X51236Y-27299D01*
X80095Y-63225D02*
X97436Y-45884D01*
Y-37284D01*
X60136Y-69944D02*
Y-65284D01*
Y-69944D02*
X60736Y-70544D01*
X65036D01*
X83436Y-24284D02*
X85377Y-26225D01*
X69736Y-24284D02*
X83436D01*
X58936Y-13484D02*
X69736Y-24284D01*
X31936Y-13484D02*
X58936D01*
X70644Y-88972D02*
X72244Y-90572D01*
Y-101378D02*
Y-90572D01*
X35433Y-21496D02*
X40748Y-26811D01*
Y-38780D02*
Y-26811D01*
X37836Y-77784D02*
X49383D01*
X57283Y-85684D01*
X37619Y-90567D02*
X41136Y-94084D01*
X58936D01*
X80118Y-49202D02*
Y-38780D01*
X64370Y-47851D02*
Y-38780D01*
X58536Y-53684D02*
X64370Y-47851D01*
X46536Y-48225D02*
Y-46384D01*
X37036Y-57725D02*
X46536Y-48225D01*
X29836Y-57725D02*
X37036D01*
X28777Y-58784D02*
X29836Y-57725D01*
X28777Y-67425D02*
Y-58784D01*
X43606Y-72118D02*
X65836D01*
X69430Y-68525D01*
X72236D01*
X80118Y-101378D02*
Y-93866D01*
X45433Y-31496D02*
Y-27984D01*
X41236Y-23788D02*
X45433Y-27984D01*
X41236Y-23788D02*
Y-19562D01*
X43436Y-17362D01*
X57614D01*
X72244Y-31992D01*
Y-38780D02*
Y-31992D01*
X48622Y-38780D02*
X51127Y-41285D01*
Y-55675D02*
Y-41285D01*
Y-55675D02*
X56236Y-60784D01*
X49435Y-60284D02*
X51962Y-62812D01*
X32936Y-60284D02*
X49435D01*
X54536Y-75284D02*
X65836Y-86584D01*
X40355Y-75284D02*
X54536D01*
X4921Y-70197D02*
X16077Y-59041D01*
Y-56425D01*
X19353Y-53150D02*
X21271D01*
X28123Y-46298D01*
X27661Y-45837D02*
X28123Y-46298D01*
X27661Y-45837D02*
Y-29268D01*
X35433Y-21496D01*
X16077Y-56425D02*
X19353Y-53150D01*
X12638Y-40354D02*
X24606D01*
X24606Y-40354D02*
X24606Y-40354D01*
X4921Y-32638D02*
X12638Y-40354D01*
X61736Y-9273D02*
X62503Y-10040D01*
X62947D01*
X62992Y-10084D01*
X61736Y-9273D02*
Y-3584D01*
X62992Y-10084D02*
X87436D01*
X52936Y-41614D02*
X53706Y-42384D01*
X52936Y-41614D02*
Y-34846D01*
X53706Y-42384D02*
X60765D01*
X34595Y-91682D02*
X40748Y-97835D01*
X34595Y-91682D02*
Y-79480D01*
X34551Y-79436D02*
X34595Y-79480D01*
X34551Y-79436D02*
Y-78740D01*
X66043Y-131201D02*
Y-129823D01*
X72835Y-123031D01*
X65036Y-70544D02*
X67607Y-67973D01*
Y-65341D01*
X99226Y-32874D02*
X112436Y-46084D01*
X87936Y-42284D02*
Y-38639D01*
X93701Y-32874D01*
X99226D01*
X71736Y-57584D02*
X80118Y-49202D01*
X70401Y-60791D02*
X72575D01*
X85377Y-47989D01*
Y-26225D01*
X74902Y-84550D02*
X77436Y-87084D01*
X74902Y-84550D02*
Y-66350D01*
X71936Y-63384D02*
X74902Y-66350D01*
X72236Y-68525D02*
X73327Y-69616D01*
Y-87075D02*
Y-69616D01*
Y-87075D02*
X80118Y-93866D01*
X82398Y-111319D02*
X92536Y-101181D01*
X89977Y-101263D02*
Y-100121D01*
X91142Y-98956D01*
X32874Y-101378D02*
X39665Y-108169D01*
X52756Y-104232D02*
X55118Y-106595D01*
X52756Y-104232D02*
Y-98819D01*
X51772Y-97835D02*
X52756Y-98819D01*
X40748Y-97835D02*
X51772D01*
X83110Y-80551D02*
X83445Y-80216D01*
X83110Y-80551D02*
X96457D01*
X80095Y-81473D02*
Y-63225D01*
Y-81473D02*
X91142Y-92520D01*
Y-98956D02*
Y-92520D01*
X4921Y-100197D02*
Y-96043D01*
X9055Y-91909D01*
Y-88290D01*
X20869Y-76476D01*
X32287D01*
X34551Y-78740D01*
X28777Y-67425D02*
X33104Y-71752D01*
X43239D01*
X11791Y-73327D02*
X41664D01*
X20217Y-74902D02*
X39972D01*
X4921Y-90197D02*
X20217Y-74902D01*
X39972D02*
X40355Y-75284D01*
X4921Y-80197D02*
X11791Y-73327D01*
X41664D02*
X42031Y-73693D01*
X43239Y-71752D02*
X43606Y-72118D01*
X62736Y-67984D02*
X67802Y-62918D01*
X67607Y-65341D02*
X69377Y-63571D01*
X67802Y-62918D02*
Y-52099D01*
X67936Y-51965D01*
X69377Y-63571D02*
Y-61814D01*
X70401Y-60791D01*
D24*
X55945Y-5906D02*
D03*
X108268Y-22638D02*
D03*
Y-50197D02*
D03*
X4921Y-100197D02*
D03*
Y-90197D02*
D03*
Y-80197D02*
D03*
Y-70197D02*
D03*
Y-60197D02*
D03*
X4921Y-32638D02*
D03*
X35433Y-21496D02*
D03*
X45433Y-31496D02*
D03*
Y-21496D02*
D03*
X55433Y-31496D02*
D03*
Y-21496D02*
D03*
D25*
X65945Y-5906D02*
D03*
X35433Y-31496D02*
D03*
D26*
X36260Y-7874D02*
D03*
X46260D02*
D03*
D27*
X108268Y-32638D02*
D03*
Y-60197D02*
D03*
X4921Y-50197D02*
D03*
X4921Y-22638D02*
D03*
D28*
X96457Y-60551D02*
D03*
Y-70551D02*
D03*
Y-80551D02*
D03*
D29*
Y-90551D02*
D03*
D30*
X66043Y-111614D02*
D03*
X77165Y-111122D02*
D03*
X74114Y-113189D02*
D03*
X79236Y-19884D02*
D03*
X103636Y-3284D02*
D03*
X46536Y-46384D02*
D03*
X87936Y-42284D02*
D03*
X32036Y-80584D02*
D03*
X70136Y-72584D02*
D03*
X13336Y-3584D02*
D03*
X88236Y-9084D02*
D03*
X22586Y-23534D02*
D03*
X41036Y-43084D02*
D03*
X36836Y-54284D02*
D03*
X18636Y-58984D02*
D03*
X70436Y-53084D02*
D03*
X75836Y-28784D02*
D03*
X62736Y-67984D02*
D03*
X82736Y-44684D02*
D03*
X77436Y-87084D02*
D03*
X71936Y-63384D02*
D03*
X97436Y-37284D02*
D03*
X60136Y-65284D02*
D03*
X31936Y-13484D02*
D03*
X70644Y-88972D02*
D03*
X37836Y-77784D02*
D03*
X57283Y-85684D02*
D03*
X37619Y-90567D02*
D03*
X58536Y-53684D02*
D03*
X56236Y-60784D02*
D03*
X92536Y-101181D02*
D03*
X51962Y-62812D02*
D03*
X32936Y-60284D02*
D03*
X65836Y-86584D02*
D03*
X24606Y-40354D02*
D03*
X58936Y-94084D02*
D03*
X45276Y-111909D02*
D03*
X8563Y-15256D02*
D03*
X108858Y-100984D02*
D03*
X55610Y-68504D02*
D03*
X60236Y-56890D02*
D03*
X11811Y-67126D02*
D03*
X71736Y-57584D02*
D03*
X83445Y-80216D02*
D03*
D31*
X80118Y-101378D02*
D03*
X72244D02*
D03*
X64370D02*
D03*
X56496D02*
D03*
X48622D02*
D03*
X40748D02*
D03*
X32874D02*
D03*
Y-38780D02*
D03*
X40748D02*
D03*
X48622D02*
D03*
X56496D02*
D03*
X64370D02*
D03*
X72244D02*
D03*
X80118D02*
D03*
D32*
X48325Y-358773D02*
Y-157480D01*
X66043Y-135630D02*
Y-131201D01*
X65848Y-135825D02*
X66043Y-135630D01*
X65848Y-142286D02*
Y-135825D01*
Y-142286D02*
X65945Y-142383D01*
Y-146555D02*
Y-142383D01*
X65848Y-146651D02*
X65945Y-146555D01*
X65848Y-358773D02*
Y-146651D01*
D33*
X66929Y-378290D02*
Y-359854D01*
X65848Y-358773D02*
X66929Y-359854D01*
X47244Y-359854D02*
X48325Y-358773D01*
X47244Y-378291D02*
Y-359854D01*
M02*
