M48
;Layer_Color=9474304
;FILE_FORMAT=2:5
INCH,LZ
;TYPE=PLATED
T1F00S00C0.01181
T2F00S00C0.02756
T3F00S00C0.03543
T4F00S00C0.03937
T5F00S00C0.11811
;TYPE=NON_PLATED
%
T01
X0045276Y-0111909
X0066043Y-0111614
X0074114Y-0113189
X0077165Y-0111122
X0077436Y-0087084
X0070644Y-0088972
X0065836Y-0086584
X0057283Y-0085684
X0058936Y-0094084
X0037619Y-0090567
X0037836Y-0077784
X0032036Y-0080584
X0032936Y-0060284
X0036836Y-0054284
X0041036Y-0043084
X0046536Y-0046384
X0058536Y-0053684
X0060236Y-005689
X0056236Y-0060784
X0051962Y-0062812
X005561Y-0068504
X0062736Y-0067984
X0060136Y-0065284
X0071936Y-0063384
X0071736Y-0057584
X0070436Y-0053084
X0070136Y-0072584
X0083445Y-0080216
X0092536Y-0101181
X0108858Y-0100984
X0097436Y-0037284
X0087936Y-0042284
X0082736Y-0044684
X0024606Y-0040354
X0018636Y-0058984
X0011811Y-0067126
X0022586Y-0023534
X0008563Y-0015256
X0013336Y-0003584
X0031936Y-0013484
X0079236Y-0019884
X0075836Y-0028784
X0088236Y-0009084
X0103636Y-0003284
T02
X003626Y-0007874
X004626
T03
X0108268Y-0060197
Y-0050197
X0004921
Y-0060197
Y-0070197
Y-0080197
Y-0090197
Y-0100197
X0004921Y-0032638
Y-0022638
X0035433Y-0021496
Y-0031496
X0045433
Y-0021496
X0055433
Y-0031496
X0055945Y-0005906
X0065945
X0108268Y-0022638
Y-0032638
T04
X0096457Y-0090551
Y-0080551
Y-0070551
Y-0060551
T05
X0057087Y-0116142
M30
