%FSLAX25Y25*%
%MOIN*%
G70*
G01*
G75*
G04 Layer_Physical_Order=1*
G04 Layer_Color=255*
%ADD10R,0.02362X0.03937*%
%ADD11R,0.03937X0.02756*%
%ADD12R,0.07480X0.03150*%
%ADD13R,0.03150X0.07480*%
%ADD14R,0.03150X0.09843*%
%ADD15R,0.02362X0.05906*%
%ADD16R,0.06299X0.01575*%
%ADD17R,0.02362X0.05118*%
%ADD18O,0.06496X0.02165*%
%ADD19O,0.02165X0.06496*%
%ADD20R,0.06299X0.07874*%
%ADD21R,0.02756X0.03937*%
%ADD22R,0.01969X0.03937*%
%ADD23C,0.00787*%
%ADD24C,0.05906*%
%ADD25R,0.05906X0.05906*%
%ADD26C,0.04724*%
%ADD27R,0.05906X0.05906*%
%ADD28C,0.07874*%
G04:AMPARAMS|DCode=29|XSize=78.74mil|YSize=78.74mil|CornerRadius=19.69mil|HoleSize=0mil|Usage=FLASHONLY|Rotation=270.000|XOffset=0mil|YOffset=0mil|HoleType=Round|Shape=RoundedRectangle|*
%AMROUNDEDRECTD29*
21,1,0.07874,0.03937,0,0,270.0*
21,1,0.03937,0.07874,0,0,270.0*
1,1,0.03937,-0.01969,-0.01969*
1,1,0.03937,-0.01969,0.01969*
1,1,0.03937,0.01969,0.01969*
1,1,0.03937,0.01969,-0.01969*
%
%ADD29ROUNDEDRECTD29*%
%ADD30C,0.02756*%
G36*
X62379Y-50067D02*
Y-50784D01*
X62379Y-50784D01*
X62470Y-51245D01*
X62731Y-51636D01*
X69531Y-58436D01*
X69531Y-58436D01*
X69705Y-58552D01*
X69560Y-59030D01*
X62196D01*
X61961Y-58589D01*
X62476Y-57818D01*
X62561Y-57390D01*
X60236D01*
Y-56390D01*
X62561D01*
X62476Y-55962D01*
X61951Y-55175D01*
X61164Y-54650D01*
X60922Y-54602D01*
X60644Y-54186D01*
X60744Y-53684D01*
X60576Y-52839D01*
X60097Y-52123D01*
X59381Y-51645D01*
X58536Y-51477D01*
X57691Y-51645D01*
X57575Y-51723D01*
X56766Y-50914D01*
X57002Y-50473D01*
X57283Y-50529D01*
X58013Y-50384D01*
X58632Y-49970D01*
X59085D01*
X59703Y-50384D01*
X60433Y-50529D01*
X61163Y-50384D01*
X61781Y-49970D01*
X62235D01*
X62379Y-50067D01*
D02*
G37*
G36*
X12710Y-1501D02*
X12491Y-1545D01*
X11775Y-2023D01*
X11297Y-2740D01*
X11128Y-3584D01*
X11297Y-4429D01*
X11775Y-5145D01*
X12332Y-5518D01*
Y-27692D01*
X11870Y-27883D01*
X8661Y-24675D01*
Y-18898D01*
X1181D01*
D01*
X1181D01*
X1003Y-18720D01*
Y-1003D01*
X12661D01*
X12710Y-1501D01*
D02*
G37*
G36*
X40032Y-4058D02*
Y-6931D01*
X39535Y-6996D01*
X39197Y-6178D01*
X38658Y-5476D01*
X37955Y-4937D01*
X37137Y-4598D01*
X36760Y-4549D01*
Y-7874D01*
Y-11199D01*
X37137Y-11150D01*
X37955Y-10811D01*
X38658Y-10272D01*
X39197Y-9570D01*
X39535Y-8752D01*
X40032Y-8817D01*
Y-23813D01*
X37687Y-26158D01*
X31299D01*
X30838Y-26249D01*
X30448Y-26511D01*
X30186Y-26901D01*
X30095Y-27362D01*
Y-35630D01*
X30095Y-35630D01*
X30186Y-36091D01*
X30448Y-36481D01*
X33073Y-39107D01*
Y-49984D01*
X31799D01*
Y-53937D01*
Y-58015D01*
X31906Y-58368D01*
X31375Y-58723D01*
X30896Y-59439D01*
X30728Y-60284D01*
X30896Y-61129D01*
X31375Y-61845D01*
X31803Y-62131D01*
X31824Y-62236D01*
X32085Y-62626D01*
X32579Y-63120D01*
Y-66338D01*
X38091D01*
D01*
X38091D01*
X38166Y-66414D01*
Y-69275D01*
X35835D01*
Y-71653D01*
Y-74031D01*
X38166D01*
Y-75306D01*
X37836Y-75577D01*
X36991Y-75745D01*
X36275Y-76223D01*
X35796Y-76939D01*
X35628Y-77784D01*
X35796Y-78629D01*
X36275Y-79346D01*
X36591Y-79557D01*
Y-83205D01*
X36315D01*
Y-83205D01*
X33256D01*
X33111Y-82726D01*
X33751Y-82299D01*
X34276Y-81512D01*
X34361Y-81084D01*
X29711D01*
X29796Y-81512D01*
X30322Y-82299D01*
X30961Y-82726D01*
X30816Y-83205D01*
X27260D01*
Y-87851D01*
X27260Y-87851D01*
X27260D01*
X27260Y-87929D01*
Y-88067D01*
Y-88205D01*
X27260Y-88283D01*
X27260Y-88283D01*
X27260D01*
Y-92851D01*
X27260Y-92851D01*
X27260D01*
X27260Y-92929D01*
Y-93067D01*
Y-93205D01*
X27260Y-93283D01*
X27260Y-93283D01*
X27260D01*
Y-97929D01*
X36315D01*
Y-93283D01*
X36315Y-93283D01*
D01*
D01*
X36315Y-93205D01*
Y-93151D01*
Y-93067D01*
Y-93028D01*
Y-92929D01*
X36315Y-92873D01*
X36315Y-92851D01*
X36756Y-92595D01*
X36774Y-92607D01*
X37619Y-92775D01*
X38464Y-92607D01*
X39180Y-92128D01*
X39353Y-91868D01*
X39832Y-92013D01*
Y-92901D01*
X39832Y-92901D01*
X39924Y-93362D01*
X40185Y-93752D01*
X40985Y-94552D01*
X41375Y-94813D01*
X41437Y-94826D01*
Y-95866D01*
X45606D01*
X45798Y-96328D01*
X43996Y-98130D01*
X40354D01*
X40157Y-103543D01*
X38386Y-105315D01*
X16295D01*
X14987Y-104987D01*
X11448Y-104462D01*
X7874Y-104287D01*
Y-104311D01*
X7874Y-104312D01*
X6043D01*
X5945Y-103821D01*
X6808Y-103464D01*
X7589Y-102864D01*
X8188Y-102083D01*
X8565Y-101173D01*
X8694Y-100197D01*
X8565Y-99220D01*
X8188Y-98311D01*
X7589Y-97529D01*
X6808Y-96930D01*
X5898Y-96553D01*
X4921Y-96424D01*
X3945Y-96553D01*
X3035Y-96930D01*
X2254Y-97529D01*
X1654Y-98311D01*
X1494Y-98698D01*
X1003Y-98600D01*
Y-91793D01*
X1494Y-91696D01*
X1654Y-92083D01*
X2254Y-92864D01*
X3035Y-93464D01*
X3945Y-93841D01*
X4921Y-93969D01*
X5898Y-93841D01*
X6808Y-93464D01*
X7589Y-92864D01*
X8059Y-92252D01*
X8532Y-92413D01*
Y-94667D01*
X8532Y-94667D01*
X8624Y-95128D01*
X8885Y-95518D01*
X9785Y-96418D01*
X9785Y-96418D01*
X10142Y-96657D01*
Y-97929D01*
X17795D01*
X19734Y-99867D01*
X20124Y-100128D01*
X20585Y-100220D01*
X20866Y-101626D01*
Y-103543D01*
X25591D01*
Y-94488D01*
X20866D01*
Y-96940D01*
X20404Y-97132D01*
X19197Y-95925D01*
Y-93205D01*
D01*
Y-93205D01*
X19197Y-93205D01*
Y-92929D01*
X19197D01*
Y-88205D01*
D01*
Y-88205D01*
X19260Y-88142D01*
X19410D01*
Y-86067D01*
X14669D01*
Y-85567D01*
X14169D01*
Y-82992D01*
X10940D01*
Y-77052D01*
X14174Y-73819D01*
X19390D01*
Y-69488D01*
X13878D01*
Y-70449D01*
X11992D01*
X11524Y-69981D01*
X11759Y-69540D01*
X11811Y-69551D01*
X12739Y-69366D01*
X13525Y-68840D01*
X14051Y-68054D01*
X14136Y-67626D01*
X9486D01*
X9571Y-68054D01*
X9904Y-68552D01*
X9668Y-68993D01*
X8471D01*
X8188Y-68311D01*
X7589Y-67529D01*
X6808Y-66930D01*
X5898Y-66553D01*
X4921Y-66424D01*
X3945Y-66553D01*
X3035Y-66930D01*
X2254Y-67529D01*
X1654Y-68311D01*
X1494Y-68698D01*
X1003Y-68600D01*
Y-61793D01*
X1494Y-61696D01*
X1654Y-62083D01*
X2254Y-62864D01*
X3035Y-63464D01*
X3945Y-63841D01*
X4921Y-63969D01*
X5898Y-63841D01*
X6808Y-63464D01*
X7589Y-62864D01*
X8188Y-62083D01*
X8565Y-61173D01*
X8694Y-60197D01*
X8565Y-59220D01*
X8188Y-58311D01*
X7589Y-57529D01*
X6808Y-56930D01*
X5898Y-56553D01*
X4921Y-56424D01*
X3945Y-56553D01*
X3035Y-56930D01*
X2254Y-57529D01*
X1654Y-58311D01*
X1494Y-58698D01*
X1003Y-58600D01*
Y-54150D01*
X4421D01*
Y-50197D01*
Y-46244D01*
X1003D01*
Y-34824D01*
X1281Y-34708D01*
X1477Y-34642D01*
X2102Y-35457D01*
X2928Y-36090D01*
X3889Y-36489D01*
X4421Y-36559D01*
Y-32638D01*
Y-28717D01*
X3889Y-28787D01*
X2928Y-29185D01*
X2102Y-29818D01*
X1477Y-30633D01*
X1281Y-30567D01*
X1003Y-30452D01*
Y-26378D01*
X1181D01*
Y-26378D01*
X6958D01*
X10232Y-29651D01*
Y-36983D01*
X10232Y-36983D01*
X10324Y-37443D01*
X10585Y-37834D01*
X12185Y-39434D01*
X12575Y-39695D01*
X13036Y-39787D01*
X13862D01*
Y-40642D01*
X16831D01*
Y-41142D01*
X17331D01*
Y-43520D01*
X18832D01*
Y-46260D01*
X13976D01*
Y-50591D01*
X19488D01*
Y-48967D01*
X20063Y-48820D01*
X20486Y-49087D01*
X20732Y-50324D01*
Y-53937D01*
X20824Y-54398D01*
X21085Y-54789D01*
X21475Y-55050D01*
X21850Y-55124D01*
Y-57677D01*
X24988D01*
X25180Y-58139D01*
X24286Y-59033D01*
X24025Y-59424D01*
X23933Y-59884D01*
X23933Y-59885D01*
Y-62008D01*
X23268D01*
Y-65159D01*
X22806Y-65351D01*
X22140Y-64686D01*
Y-59605D01*
X22140Y-59605D01*
X22049Y-59145D01*
X21788Y-58754D01*
X19488Y-56454D01*
Y-53740D01*
X13976D01*
Y-58071D01*
X16019D01*
X16512Y-58563D01*
X16428Y-58984D01*
X16597Y-59829D01*
X17075Y-60545D01*
X17791Y-61024D01*
X18636Y-61192D01*
X19345Y-61051D01*
X19679Y-61325D01*
X19510Y-61795D01*
X19378Y-61795D01*
X19378Y-61795D01*
Y-61795D01*
X17134D01*
Y-64173D01*
Y-66551D01*
X19602D01*
Y-66175D01*
X20081Y-66030D01*
X20085Y-66036D01*
X23332Y-69283D01*
Y-69488D01*
X23268D01*
Y-73819D01*
X28779D01*
Y-69488D01*
X25740D01*
Y-68784D01*
X25740Y-68784D01*
X25649Y-68324D01*
X25388Y-67933D01*
X24255Y-66800D01*
X24447Y-66338D01*
X28779D01*
Y-62008D01*
X26342D01*
Y-60383D01*
X28411Y-58314D01*
X28672Y-57924D01*
X28679Y-57890D01*
X29118D01*
Y-57890D01*
X30799D01*
Y-53937D01*
Y-49984D01*
X29528D01*
Y-42716D01*
X26212D01*
X26067Y-42238D01*
X26321Y-42069D01*
X26846Y-41282D01*
X26931Y-40854D01*
X24606D01*
Y-39854D01*
X27049D01*
X27271Y-39583D01*
X28657D01*
Y-37705D01*
X25689D01*
Y-37205D01*
X25189D01*
Y-34827D01*
X22720D01*
Y-36336D01*
X22258Y-36527D01*
X21888Y-36156D01*
X21497Y-35895D01*
X21036Y-35804D01*
X21036Y-35804D01*
X19587D01*
Y-31496D01*
X18035D01*
Y-29134D01*
X21328D01*
X22771Y-30576D01*
X22933Y-30685D01*
Y-31890D01*
X28445D01*
Y-27559D01*
X23160D01*
X21712Y-26112D01*
X22165Y-25658D01*
X22586Y-25742D01*
X23431Y-25574D01*
X24147Y-25095D01*
X24626Y-24379D01*
X24794Y-23534D01*
X24626Y-22690D01*
X24147Y-21973D01*
X23525Y-21557D01*
X23670Y-21079D01*
X25606D01*
Y-18020D01*
X23425D01*
Y-17020D01*
X25606D01*
Y-15833D01*
X26068Y-15642D01*
X29131Y-18704D01*
X29521Y-18965D01*
X29982Y-19057D01*
X29982Y-19056D01*
X31290D01*
X32072Y-19838D01*
X31789Y-20520D01*
X31661Y-21496D01*
X31789Y-22472D01*
X32166Y-23382D01*
X32765Y-24163D01*
X33547Y-24763D01*
X34457Y-25140D01*
X35433Y-25268D01*
X36409Y-25140D01*
X37319Y-24763D01*
X38100Y-24163D01*
X38700Y-23382D01*
X39077Y-22472D01*
X39205Y-21496D01*
X39077Y-20520D01*
X38700Y-19610D01*
X38100Y-18828D01*
X37319Y-18229D01*
X36409Y-17852D01*
X35433Y-17724D01*
X34457Y-17852D01*
X33775Y-18135D01*
X32641Y-17001D01*
X32250Y-16740D01*
X31789Y-16648D01*
X31789Y-16648D01*
X30481D01*
X26759Y-12926D01*
X26368Y-12665D01*
X25907Y-12573D01*
X25907Y-12573D01*
X16544D01*
X16543Y-12573D01*
X16083Y-12665D01*
X15692Y-12926D01*
X15202Y-13415D01*
X14740Y-13224D01*
Y-5250D01*
X14897Y-5145D01*
X15376Y-4429D01*
X15421Y-4203D01*
X15860Y-3763D01*
X16437D01*
Y-4134D01*
Y-5890D01*
X16224D01*
Y-7177D01*
X20374D01*
Y-7677D01*
X20874D01*
Y-9465D01*
X24524D01*
Y-9252D01*
X27037D01*
X30108Y-12323D01*
X29897Y-12640D01*
X29728Y-13484D01*
X29897Y-14329D01*
X30375Y-15045D01*
X31091Y-15524D01*
X31936Y-15692D01*
X32781Y-15524D01*
X33497Y-15045D01*
X33976Y-14329D01*
X34144Y-13484D01*
X33976Y-12640D01*
X33497Y-11923D01*
X32781Y-11445D01*
X32600Y-11409D01*
X30905Y-9714D01*
X31096Y-9252D01*
X31787D01*
Y-6693D01*
Y-4134D01*
Y-3763D01*
X39737D01*
X40032Y-4058D01*
D02*
G37*
G36*
X113170Y-91807D02*
Y-104312D01*
X106299D01*
X106299Y-104311D01*
Y-104287D01*
X102725Y-104462D01*
X100151Y-104844D01*
X99926Y-104398D01*
X112708Y-91616D01*
X113170Y-91807D01*
D02*
G37*
G36*
X56736Y-63109D02*
X57164Y-63024D01*
X57951Y-62499D01*
X58476Y-61712D01*
X58579Y-61196D01*
X59057Y-61051D01*
X59093Y-61086D01*
X59483Y-61347D01*
X59944Y-61439D01*
X59944Y-61439D01*
X70102D01*
X70337Y-61880D01*
X69897Y-62539D01*
X69728Y-63384D01*
X69897Y-64229D01*
X70375Y-64946D01*
X71091Y-65424D01*
X71936Y-65592D01*
X72392Y-65502D01*
X72658Y-65680D01*
X73119Y-65771D01*
X73119Y-65771D01*
X74580D01*
X74876Y-66215D01*
X74416Y-66904D01*
X74354Y-67217D01*
X78543D01*
Y-68217D01*
X74354D01*
X74416Y-68529D01*
X74876Y-69218D01*
X74876Y-69218D01*
X74876D01*
X75030Y-69518D01*
X75030Y-69518D01*
X75030D01*
X74616Y-70136D01*
X74471Y-70866D01*
X74616Y-71596D01*
X75030Y-72214D01*
Y-72668D01*
X74616Y-73286D01*
X74471Y-74016D01*
X74616Y-74746D01*
X75030Y-75364D01*
X75648Y-75777D01*
X76378Y-75923D01*
X78156D01*
X81485Y-79251D01*
X81405Y-79372D01*
X81237Y-80216D01*
X81405Y-81061D01*
X81884Y-81778D01*
X82600Y-82256D01*
X83445Y-82424D01*
X84290Y-82256D01*
X84359Y-82210D01*
X84800Y-82446D01*
Y-85477D01*
X84537Y-85739D01*
X83202D01*
X82741Y-85831D01*
X82585Y-85936D01*
X82350Y-86092D01*
X82350Y-86092D01*
X76907Y-91536D01*
X75341D01*
X75150Y-91074D01*
X77015Y-89208D01*
X77436Y-89292D01*
X78281Y-89124D01*
X78997Y-88645D01*
X79476Y-87929D01*
X79644Y-87084D01*
X79476Y-86239D01*
X78997Y-85523D01*
X78281Y-85045D01*
X77436Y-84877D01*
X76591Y-85045D01*
X75875Y-85523D01*
X75397Y-86239D01*
X75228Y-87084D01*
X75312Y-87505D01*
X73214Y-89603D01*
X72773Y-89368D01*
X72852Y-88972D01*
X72768Y-88551D01*
X73883Y-87436D01*
X73883Y-87436D01*
X74040Y-87202D01*
X74144Y-87045D01*
X74236Y-86584D01*
Y-83137D01*
X74380Y-83041D01*
X74793Y-82423D01*
X74938Y-81693D01*
Y-77362D01*
X74793Y-76633D01*
X74380Y-76014D01*
X73761Y-75601D01*
X73032Y-75455D01*
X72302Y-75601D01*
X71683Y-76014D01*
X71230D01*
X70612Y-75601D01*
X69882Y-75455D01*
X69586Y-75514D01*
X69350Y-75073D01*
X69715Y-74708D01*
X70136Y-74792D01*
X70981Y-74624D01*
X71697Y-74146D01*
X72176Y-73429D01*
X72344Y-72584D01*
X72176Y-71740D01*
X71697Y-71023D01*
X70981Y-70545D01*
X70136Y-70377D01*
X69291Y-70545D01*
X68575Y-71023D01*
X68097Y-71740D01*
X67928Y-72584D01*
X68012Y-73005D01*
X65881Y-75137D01*
X65620Y-75527D01*
X65544Y-75907D01*
X65384Y-76014D01*
X64931D01*
X64787Y-75918D01*
Y-68831D01*
X64781Y-68802D01*
X64944Y-67984D01*
X64776Y-67140D01*
X64297Y-66423D01*
X63581Y-65945D01*
X62736Y-65777D01*
X62667Y-65790D01*
X62314Y-65437D01*
X62344Y-65284D01*
X62176Y-64439D01*
X61697Y-63723D01*
X60981Y-63245D01*
X60136Y-63077D01*
X59291Y-63245D01*
X58575Y-63723D01*
X58096Y-64439D01*
X57928Y-65284D01*
X58096Y-66129D01*
X58575Y-66846D01*
X58932Y-67084D01*
Y-73584D01*
X58932Y-73584D01*
X59024Y-74045D01*
X59229Y-74352D01*
Y-75918D01*
X59085Y-76014D01*
X58632D01*
X58013Y-75601D01*
X57283Y-75455D01*
X56554Y-75601D01*
X55935Y-76014D01*
X55482D01*
X54864Y-75601D01*
X54134Y-75455D01*
X53404Y-75601D01*
X52786Y-76014D01*
X52332D01*
X51714Y-75601D01*
X50984Y-75455D01*
X50254Y-75601D01*
X49781Y-75917D01*
X49340Y-75681D01*
Y-74834D01*
X49399Y-74746D01*
X49545Y-74016D01*
X49399Y-73286D01*
X48986Y-72668D01*
Y-72214D01*
X49399Y-71596D01*
X49545Y-70866D01*
X49399Y-70136D01*
X48986Y-69518D01*
Y-69065D01*
X49399Y-68446D01*
X49545Y-67717D01*
X49399Y-66987D01*
X48986Y-66368D01*
X48986Y-66368D01*
X48986D01*
X49139Y-66069D01*
X49139Y-66069D01*
X49139D01*
X49600Y-65380D01*
X49662Y-65067D01*
X45472D01*
Y-64067D01*
X49968D01*
X50147Y-63993D01*
X50401Y-64373D01*
X51117Y-64852D01*
X51962Y-65020D01*
X52807Y-64852D01*
X53523Y-64373D01*
X54002Y-63657D01*
X54170Y-62812D01*
X54802Y-62686D01*
X55308Y-63024D01*
X55736Y-63109D01*
Y-60784D01*
X56736D01*
Y-63109D01*
D02*
G37*
G36*
X104528Y-58160D02*
Y-63937D01*
X111232D01*
Y-89686D01*
X98337Y-102580D01*
X94992D01*
X94756Y-102139D01*
X94776Y-102109D01*
X94861Y-101681D01*
X90211D01*
X90296Y-102109D01*
X90316Y-102139D01*
X90081Y-102580D01*
X88697D01*
Y-101681D01*
X82760D01*
Y-102580D01*
X78854D01*
Y-101681D01*
X75886D01*
Y-101181D01*
X75386D01*
Y-98803D01*
X73940D01*
Y-95866D01*
X78642D01*
Y-93207D01*
X83701Y-88148D01*
X85036D01*
X85036Y-88148D01*
X85497Y-88056D01*
X85888Y-87795D01*
X86856Y-86827D01*
X86856Y-86827D01*
X87116Y-86437D01*
X87208Y-85976D01*
X87208Y-85976D01*
Y-75034D01*
X87116Y-74573D01*
X86856Y-74182D01*
X82688Y-70015D01*
X82297Y-69754D01*
X82253Y-69745D01*
X82166Y-69305D01*
X82210Y-69218D01*
X82210Y-69218D01*
X82210D01*
X82671Y-68529D01*
X82737Y-68195D01*
X83216Y-68050D01*
X83734Y-68568D01*
X83734Y-68568D01*
X84125Y-68829D01*
X84125Y-68829D01*
X84125Y-68829D01*
D01*
X84125Y-68829D01*
X84125Y-68829D01*
X84586Y-68921D01*
X84744Y-69712D01*
Y-69882D01*
X90256D01*
Y-65551D01*
X84744D01*
X84744Y-65551D01*
Y-65551D01*
X84305Y-65733D01*
X82485Y-63913D01*
X82470Y-63837D01*
X82057Y-63219D01*
X82057Y-63219D01*
X82057D01*
X82210Y-62919D01*
X82210Y-62919D01*
X82210D01*
X82671Y-62230D01*
X82733Y-61917D01*
X78543D01*
Y-60917D01*
X82733D01*
X82671Y-60605D01*
X82210Y-59916D01*
X82210Y-59916D01*
X82210D01*
X82057Y-59616D01*
X82057Y-59616D01*
X82470Y-58997D01*
X82616Y-58268D01*
X82470Y-57538D01*
X82057Y-56920D01*
Y-56466D01*
X82153Y-56322D01*
X93080D01*
X93241Y-56796D01*
X92936Y-57030D01*
X92144Y-58061D01*
X91647Y-59262D01*
X91543Y-60051D01*
X101371D01*
X101267Y-59262D01*
X100769Y-58061D01*
X99978Y-57030D01*
X99673Y-56796D01*
X99834Y-56322D01*
X102690D01*
X104528Y-58160D01*
D02*
G37*
G36*
X90551Y-1181D02*
X90551D01*
Y-5066D01*
X88657Y-6960D01*
X88236Y-6877D01*
X87391Y-7045D01*
X86675Y-7523D01*
X86321Y-8053D01*
X85842Y-7908D01*
Y-7193D01*
X82193D01*
Y-11630D01*
X85842D01*
Y-10261D01*
X86321Y-10115D01*
X86675Y-10645D01*
X87391Y-11124D01*
X88236Y-11292D01*
X89081Y-11124D01*
X89797Y-10645D01*
X90276Y-9929D01*
X90444Y-9084D01*
X90360Y-8663D01*
X91436Y-7587D01*
X91936D01*
X93785Y-9436D01*
X93785Y-9436D01*
X94019Y-9592D01*
X94175Y-9697D01*
X94636Y-9789D01*
X106937D01*
X111232Y-14083D01*
Y-19633D01*
X110784Y-19854D01*
X110154Y-19371D01*
X109244Y-18994D01*
X108268Y-18865D01*
X107291Y-18994D01*
X106609Y-19276D01*
X102766Y-15433D01*
X102375Y-15172D01*
X102362Y-15169D01*
Y-10511D01*
X98031D01*
Y-16023D01*
X99162D01*
X99289Y-16213D01*
X99345Y-16296D01*
X100185Y-17136D01*
X100575Y-17397D01*
X101036Y-17489D01*
X101416D01*
X104906Y-20979D01*
X104624Y-21661D01*
X104495Y-22638D01*
X104624Y-23614D01*
X105001Y-24524D01*
X105600Y-25305D01*
X106382Y-25905D01*
X107291Y-26281D01*
X108268Y-26410D01*
X109244Y-26281D01*
X110154Y-25905D01*
X110784Y-25422D01*
X111232Y-25643D01*
Y-28897D01*
X104528D01*
Y-30330D01*
X104141Y-30647D01*
X103736Y-30567D01*
X103736Y-30567D01*
X102362D01*
Y-29015D01*
X101401D01*
Y-25217D01*
X102362D01*
Y-19705D01*
X98031D01*
Y-25217D01*
X98993D01*
Y-29015D01*
X98031D01*
Y-34527D01*
X102362D01*
Y-32975D01*
X103237D01*
X103751Y-33489D01*
X103751Y-33489D01*
X104142Y-33750D01*
X104528Y-33827D01*
Y-36378D01*
X111232D01*
Y-47192D01*
X110784Y-47413D01*
X110154Y-46930D01*
X109244Y-46553D01*
X108268Y-46424D01*
X107291Y-46553D01*
X106382Y-46930D01*
X105600Y-47529D01*
X105001Y-48311D01*
X104624Y-49220D01*
X104495Y-50197D01*
X104624Y-51173D01*
X104906Y-51855D01*
X104581Y-52180D01*
X102362D01*
Y-47441D01*
X101373D01*
X101309Y-47124D01*
X101048Y-46733D01*
X98748Y-44433D01*
X98398Y-44199D01*
X98543Y-43720D01*
X102362D01*
Y-38208D01*
X100063D01*
X99560Y-37705D01*
X99644Y-37284D01*
X99476Y-36439D01*
X98997Y-35723D01*
X98281Y-35245D01*
X97436Y-35077D01*
X96591Y-35245D01*
X96304Y-34815D01*
X96388Y-34690D01*
X96480Y-34229D01*
X96480Y-34229D01*
Y-29313D01*
X96480Y-29313D01*
X96388Y-28852D01*
X96127Y-28462D01*
X96127Y-28462D01*
X95435Y-27770D01*
X95354Y-27716D01*
X95305Y-27218D01*
X96188Y-26336D01*
X96449Y-25945D01*
X96540Y-25484D01*
Y-15887D01*
X96540Y-15887D01*
X96540Y-15887D01*
Y-15887D01*
X96540D01*
X96540Y-15887D01*
X96449Y-15426D01*
X96344Y-15269D01*
X96188Y-15035D01*
X96188Y-15035D01*
X94882Y-13729D01*
Y-10511D01*
X90551D01*
Y-16023D01*
X93769D01*
X94132Y-16385D01*
Y-19492D01*
X93217D01*
Y-22461D01*
X92717D01*
Y-22961D01*
X90339D01*
Y-25429D01*
X90339D01*
Y-25489D01*
X89985Y-25842D01*
X88860D01*
X88860Y-25842D01*
X88399Y-25934D01*
X88009Y-26195D01*
X88009Y-26195D01*
X86671Y-27533D01*
X86410Y-27924D01*
X86318Y-28384D01*
X86318Y-28384D01*
Y-31069D01*
X85902Y-31347D01*
X85630Y-31234D01*
Y-24016D01*
X77756D01*
Y-26932D01*
X77315Y-27168D01*
X76681Y-26745D01*
X75836Y-26577D01*
X74991Y-26745D01*
X74275Y-27223D01*
X73796Y-27940D01*
X73628Y-28784D01*
X73796Y-29629D01*
X74275Y-30345D01*
X74991Y-30824D01*
X75836Y-30992D01*
X76681Y-30824D01*
X77315Y-30401D01*
X77756Y-30636D01*
Y-33465D01*
X83400D01*
X83591Y-33926D01*
X82137Y-35380D01*
X73047D01*
Y-33866D01*
X68291D01*
Y-35380D01*
X65354D01*
Y-30610D01*
X64393D01*
Y-27303D01*
X65354D01*
Y-21791D01*
X61024D01*
Y-24466D01*
X60634Y-24675D01*
X60173Y-24583D01*
X60173Y-24583D01*
X58612D01*
X58391Y-24135D01*
X58886Y-23489D01*
X59284Y-22528D01*
X59354Y-21996D01*
X55433D01*
Y-21496D01*
X54933D01*
Y-17575D01*
X54401Y-17645D01*
X53440Y-18043D01*
X52889Y-18466D01*
X52440Y-18245D01*
Y-8609D01*
X52914Y-8449D01*
X53126Y-8725D01*
X53952Y-9358D01*
X54913Y-9757D01*
X55445Y-9827D01*
Y-5906D01*
X55945D01*
Y-5406D01*
X59866D01*
X59796Y-4874D01*
X59398Y-3912D01*
X58956Y-3337D01*
X59178Y-2889D01*
X61225D01*
X62205Y-3869D01*
Y-9646D01*
X69685D01*
Y-2165D01*
X63908D01*
X63208Y-1465D01*
X63399Y-1003D01*
X90551D01*
Y-1181D01*
D02*
G37*
%LPC*%
G36*
X57935Y-69004D02*
X56110D01*
Y-70829D01*
X56538Y-70744D01*
X57325Y-70218D01*
X57850Y-69432D01*
X57935Y-69004D01*
D02*
G37*
G36*
X56110Y-66179D02*
Y-68004D01*
X57935D01*
X57850Y-67576D01*
X57325Y-66790D01*
X56538Y-66264D01*
X56110Y-66179D01*
D02*
G37*
G36*
X55110D02*
X54682Y-66264D01*
X53896Y-66790D01*
X53370Y-67576D01*
X53285Y-68004D01*
X55110D01*
Y-66179D01*
D02*
G37*
G36*
X34835Y-72153D02*
X32366D01*
Y-74031D01*
X34835D01*
Y-72153D01*
D02*
G37*
G36*
Y-69275D02*
X32366D01*
Y-71153D01*
X34835D01*
Y-69275D01*
D02*
G37*
G36*
X55110Y-69004D02*
X53285D01*
X53370Y-69432D01*
X53896Y-70218D01*
X54682Y-70744D01*
X55110Y-70829D01*
Y-69004D01*
D02*
G37*
G36*
X87000Y-60736D02*
X84531D01*
Y-62614D01*
X87000D01*
Y-60736D01*
D02*
G37*
G36*
X90469D02*
X88000D01*
Y-62614D01*
X90469D01*
Y-60736D01*
D02*
G37*
G36*
X35760Y-4549D02*
X35382Y-4598D01*
X34564Y-4937D01*
X33862Y-5476D01*
X33323Y-6178D01*
X32984Y-6996D01*
X32934Y-7374D01*
X35760D01*
Y-4549D01*
D02*
G37*
G36*
X81193Y-1756D02*
X77543D01*
Y-6193D01*
X81193D01*
Y-1756D01*
D02*
G37*
G36*
X11311Y-64801D02*
X10883Y-64886D01*
X10097Y-65412D01*
X9571Y-66198D01*
X9486Y-66626D01*
X11311D01*
Y-64801D01*
D02*
G37*
G36*
X16134Y-64673D02*
X13665D01*
Y-64975D01*
X13224Y-65210D01*
X12739Y-64886D01*
X12311Y-64801D01*
Y-66626D01*
X14454D01*
X14515Y-66551D01*
X16134D01*
Y-64673D01*
D02*
G37*
G36*
Y-61795D02*
X13665D01*
Y-63673D01*
X16134D01*
Y-61795D01*
D02*
G37*
G36*
X32536Y-78259D02*
Y-80084D01*
X34361D01*
X34276Y-79657D01*
X33751Y-78870D01*
X32964Y-78344D01*
X32536Y-78259D01*
D02*
G37*
G36*
X85228Y-98803D02*
X82760D01*
Y-100681D01*
X85228D01*
Y-98803D01*
D02*
G37*
G36*
X88697D02*
X86228D01*
Y-100681D01*
X88697D01*
Y-98803D01*
D02*
G37*
G36*
X92036Y-98856D02*
X91608Y-98941D01*
X90822Y-99467D01*
X90296Y-100253D01*
X90211Y-100681D01*
X92036D01*
Y-98856D01*
D02*
G37*
G36*
X78854Y-98803D02*
X76386D01*
Y-100681D01*
X78854D01*
Y-98803D01*
D02*
G37*
G36*
X85842Y-1756D02*
X82193D01*
Y-6193D01*
X85842D01*
Y-1756D01*
D02*
G37*
G36*
X108358Y-101484D02*
X106533D01*
X106618Y-101912D01*
X107144Y-102699D01*
X107930Y-103224D01*
X108358Y-103309D01*
Y-101484D01*
D02*
G37*
G36*
X111183D02*
X109358D01*
Y-103309D01*
X109786Y-103224D01*
X110573Y-102699D01*
X111098Y-101912D01*
X111183Y-101484D01*
D02*
G37*
G36*
X25591Y-77165D02*
X20866D01*
Y-88583D01*
X25591D01*
Y-77165D01*
D02*
G37*
G36*
X19410Y-82992D02*
X15169D01*
Y-85067D01*
X19410D01*
Y-82992D01*
D02*
G37*
G36*
X31536Y-78259D02*
X31108Y-78344D01*
X30322Y-78870D01*
X29796Y-79657D01*
X29711Y-80084D01*
X31536D01*
Y-78259D01*
D02*
G37*
G36*
X101371Y-61051D02*
X91543D01*
X91647Y-61840D01*
X92144Y-63041D01*
X92936Y-64072D01*
X93967Y-64864D01*
X95168Y-65361D01*
X95527Y-65408D01*
Y-65908D01*
X95223Y-65948D01*
X94074Y-66424D01*
X93087Y-67182D01*
X92330Y-68169D01*
X91854Y-69318D01*
X91692Y-70551D01*
X91854Y-71785D01*
X92330Y-72934D01*
X93087Y-73921D01*
X94074Y-74678D01*
X95223Y-75154D01*
X96342Y-75301D01*
Y-75801D01*
X95223Y-75948D01*
X94074Y-76424D01*
X93087Y-77182D01*
X92330Y-78169D01*
X91854Y-79318D01*
X91692Y-80551D01*
X91854Y-81784D01*
X92330Y-82934D01*
X93087Y-83921D01*
X94074Y-84678D01*
X95223Y-85154D01*
X96363Y-85304D01*
Y-85304D01*
X96331Y-85803D01*
X94488D01*
X93769Y-85898D01*
X93098Y-86175D01*
X92523Y-86617D01*
X92081Y-87193D01*
X91803Y-87863D01*
X91709Y-88583D01*
Y-89725D01*
X88946Y-92488D01*
X88484Y-92296D01*
Y-91536D01*
X82973D01*
Y-95866D01*
X88484D01*
Y-94905D01*
X89436D01*
X89436Y-94905D01*
X89897Y-94813D01*
X90288Y-94552D01*
X91426Y-93414D01*
X91916Y-93512D01*
X92081Y-93910D01*
X92523Y-94485D01*
X93098Y-94927D01*
X93769Y-95205D01*
X94488Y-95299D01*
X98425D01*
X99145Y-95205D01*
X99815Y-94927D01*
X100391Y-94485D01*
X100833Y-93910D01*
X101110Y-93239D01*
X101205Y-92520D01*
Y-88583D01*
X101110Y-87863D01*
X100833Y-87193D01*
X100391Y-86617D01*
X99815Y-86175D01*
X99145Y-85898D01*
X98425Y-85803D01*
X96583D01*
X96582Y-85789D01*
X96550Y-85304D01*
X97690Y-85154D01*
X98839Y-84678D01*
X99826Y-83921D01*
X100584Y-82934D01*
X101060Y-81784D01*
X101222Y-80551D01*
X101060Y-79318D01*
X100584Y-78169D01*
X99826Y-77182D01*
X98839Y-76424D01*
X97690Y-75948D01*
X96572Y-75801D01*
Y-75301D01*
X97690Y-75154D01*
X98839Y-74678D01*
X99826Y-73921D01*
X100584Y-72934D01*
X101060Y-71785D01*
X101222Y-70551D01*
X101060Y-69318D01*
X100584Y-68169D01*
X99826Y-67182D01*
X98839Y-66424D01*
X97690Y-65948D01*
X97386Y-65908D01*
Y-65408D01*
X97746Y-65361D01*
X98947Y-64864D01*
X99978Y-64072D01*
X100769Y-63041D01*
X101267Y-61840D01*
X101371Y-61051D01*
D02*
G37*
G36*
X93036Y-98856D02*
Y-100681D01*
X94861D01*
X94776Y-100253D01*
X94251Y-99467D01*
X93464Y-98941D01*
X93036Y-98856D01*
D02*
G37*
G36*
X108358Y-98659D02*
X107930Y-98744D01*
X107144Y-99270D01*
X106618Y-100056D01*
X106533Y-100484D01*
X108358D01*
Y-98659D01*
D02*
G37*
G36*
X109358D02*
Y-100484D01*
X111183D01*
X111098Y-100056D01*
X110573Y-99270D01*
X109786Y-98744D01*
X109358Y-98659D01*
D02*
G37*
G36*
X65567Y-16190D02*
X63689D01*
Y-18658D01*
X65567D01*
Y-16190D01*
D02*
G37*
G36*
X8063Y-15756D02*
X6238D01*
X6323Y-16184D01*
X6849Y-16970D01*
X7635Y-17496D01*
X8063Y-17581D01*
Y-15756D01*
D02*
G37*
G36*
X10888D02*
X9063D01*
Y-17581D01*
X9491Y-17496D01*
X10277Y-16970D01*
X10803Y-16184D01*
X10888Y-15756D01*
D02*
G37*
G36*
X62689Y-16190D02*
X60811D01*
Y-18658D01*
X62689D01*
Y-16190D01*
D02*
G37*
G36*
X72835Y-12934D02*
X68504D01*
Y-18446D01*
X69126D01*
X69465Y-18784D01*
Y-18784D01*
X69465D01*
D01*
D01*
D01*
X69557Y-19245D01*
X69818Y-19636D01*
X70918Y-20736D01*
X70918Y-20736D01*
X71152Y-20892D01*
X71309Y-20997D01*
X71731Y-21081D01*
X71682Y-21579D01*
X71169D01*
Y-24047D01*
X73047D01*
Y-21579D01*
X73047D01*
Y-21442D01*
X73401Y-21089D01*
X77437D01*
X77675Y-21445D01*
X78391Y-21924D01*
X79236Y-22092D01*
X80081Y-21924D01*
X80797Y-21445D01*
X81276Y-20729D01*
X81444Y-19884D01*
X81276Y-19039D01*
X80797Y-18323D01*
X80081Y-17845D01*
X79236Y-17677D01*
X78391Y-17845D01*
X77675Y-18323D01*
X77437Y-18680D01*
X72835D01*
Y-18445D01*
X72835D01*
Y-12934D01*
D02*
G37*
G36*
X92217Y-19492D02*
X90339D01*
Y-21961D01*
X92217D01*
Y-19492D01*
D02*
G37*
G36*
X55933Y-17575D02*
Y-20996D01*
X59354D01*
X59284Y-20464D01*
X58886Y-19503D01*
X58252Y-18677D01*
X57426Y-18043D01*
X56465Y-17645D01*
X55933Y-17575D01*
D02*
G37*
G36*
X9063Y-12931D02*
Y-14756D01*
X10888D01*
X10803Y-14328D01*
X10277Y-13542D01*
X9491Y-13016D01*
X9063Y-12931D01*
D02*
G37*
G36*
X81193Y-7193D02*
X77543D01*
Y-11630D01*
X81193D01*
Y-7193D01*
D02*
G37*
G36*
X35760Y-8374D02*
X32934D01*
X32984Y-8752D01*
X33323Y-9570D01*
X33862Y-10272D01*
X34564Y-10811D01*
X35382Y-11150D01*
X35760Y-11199D01*
Y-8374D01*
D02*
G37*
G36*
X8063Y-12931D02*
X7635Y-13016D01*
X6849Y-13542D01*
X6323Y-14328D01*
X6238Y-14756D01*
X8063D01*
Y-12931D01*
D02*
G37*
G36*
X59866Y-6406D02*
X56445D01*
Y-9827D01*
X56977Y-9757D01*
X57938Y-9358D01*
X58764Y-8725D01*
X59398Y-7899D01*
X59796Y-6938D01*
X59866Y-6406D01*
D02*
G37*
G36*
X62689Y-12721D02*
X60811D01*
Y-15190D01*
X62689D01*
Y-12721D01*
D02*
G37*
G36*
X65567D02*
X63689D01*
Y-15190D01*
X65567D01*
Y-12721D01*
D02*
G37*
G36*
X8874Y-46244D02*
X5421D01*
Y-49697D01*
X8874D01*
Y-46244D01*
D02*
G37*
G36*
X16331Y-41642D02*
X13862D01*
Y-43520D01*
X16331D01*
Y-41642D01*
D02*
G37*
G36*
X28657Y-34827D02*
X26189D01*
Y-36705D01*
X28657D01*
Y-34827D01*
D02*
G37*
G36*
X19874Y-8177D02*
X16224D01*
Y-9465D01*
X19874D01*
Y-8177D01*
D02*
G37*
G36*
X87000Y-57858D02*
X84531D01*
Y-59736D01*
X87000D01*
Y-57858D01*
D02*
G37*
G36*
X90469D02*
X88000D01*
Y-59736D01*
X90469D01*
Y-57858D01*
D02*
G37*
G36*
X8874Y-50697D02*
X5421D01*
Y-54150D01*
X8874D01*
Y-50697D01*
D02*
G37*
G36*
X70169Y-25047D02*
X68291D01*
Y-27516D01*
X70169D01*
Y-25047D01*
D02*
G37*
G36*
X73047D02*
X71169D01*
Y-27516D01*
X73047D01*
Y-25047D01*
D02*
G37*
G36*
X70169Y-21579D02*
X68291D01*
Y-24047D01*
X70169D01*
Y-21579D01*
D02*
G37*
G36*
X5421Y-28717D02*
Y-32138D01*
X8842D01*
X8772Y-31606D01*
X8374Y-30644D01*
X7740Y-29818D01*
X6915Y-29185D01*
X5953Y-28787D01*
X5421Y-28717D01*
D02*
G37*
G36*
X8842Y-33138D02*
X5421D01*
Y-36559D01*
X5953Y-36489D01*
X6915Y-36090D01*
X7740Y-35457D01*
X8374Y-34631D01*
X8772Y-33669D01*
X8842Y-33138D01*
D02*
G37*
G36*
X70169Y-30397D02*
X68291D01*
Y-32866D01*
X70169D01*
Y-30397D01*
D02*
G37*
G36*
X73047D02*
X71169D01*
Y-32866D01*
X73047D01*
Y-30397D01*
D02*
G37*
%LPD*%
D10*
X53248Y-362992D02*
D03*
X60728D02*
D03*
X56988Y-375590D02*
D03*
D11*
X85728Y-93701D02*
D03*
Y-101181D02*
D03*
X75886Y-93701D02*
D03*
Y-101181D02*
D03*
X67913Y-93701D02*
D03*
Y-101181D02*
D03*
X53150Y-93701D02*
D03*
Y-101181D02*
D03*
X44193D02*
D03*
Y-93701D02*
D03*
X35335Y-64173D02*
D03*
Y-71653D02*
D03*
X26023D02*
D03*
Y-64173D02*
D03*
X16634Y-71653D02*
D03*
Y-64173D02*
D03*
X16732Y-55905D02*
D03*
Y-48425D02*
D03*
X16831Y-33661D02*
D03*
Y-41142D02*
D03*
X25689Y-29724D02*
D03*
Y-37205D02*
D03*
X87500Y-67717D02*
D03*
Y-60236D02*
D03*
D12*
X14669Y-95567D02*
D03*
Y-85567D02*
D03*
Y-90567D02*
D03*
X31788D02*
D03*
Y-85567D02*
D03*
Y-95567D02*
D03*
D13*
X23228Y-99016D02*
D03*
D14*
Y-82874D02*
D03*
D15*
X27559Y-46457D02*
D03*
X31299Y-53937D02*
D03*
X23819D02*
D03*
D16*
X20374Y-7677D02*
D03*
Y-2559D02*
D03*
Y-5118D02*
D03*
X27850D02*
D03*
Y-2559D02*
D03*
Y-7677D02*
D03*
D17*
X23425Y-17520D02*
D03*
X15945D02*
D03*
X19685Y-25787D02*
D03*
D18*
X78543Y-74016D02*
D03*
Y-70866D02*
D03*
Y-67717D02*
D03*
Y-64567D02*
D03*
Y-61417D02*
D03*
Y-58268D02*
D03*
Y-55118D02*
D03*
Y-51969D02*
D03*
X45472D02*
D03*
Y-55118D02*
D03*
Y-58268D02*
D03*
Y-61417D02*
D03*
Y-64567D02*
D03*
Y-67717D02*
D03*
Y-70866D02*
D03*
Y-74016D02*
D03*
D19*
X73032Y-46457D02*
D03*
X69882D02*
D03*
X66732D02*
D03*
X63583D02*
D03*
X60433D02*
D03*
X57283D02*
D03*
X54134D02*
D03*
X50984D02*
D03*
Y-79528D02*
D03*
X54134D02*
D03*
X57283D02*
D03*
X60433D02*
D03*
X63583D02*
D03*
X66732D02*
D03*
X69882D02*
D03*
X73032D02*
D03*
D20*
X81693Y-6693D02*
D03*
Y-28740D02*
D03*
D21*
X100197Y-3937D02*
D03*
X92717D02*
D03*
Y-13267D02*
D03*
X100197D02*
D03*
Y-22461D02*
D03*
X92717D02*
D03*
X100197Y-50197D02*
D03*
X92716D02*
D03*
X100197Y-40964D02*
D03*
X92717D02*
D03*
Y-31771D02*
D03*
X100197D02*
D03*
X70669Y-15690D02*
D03*
X63189D02*
D03*
Y-24547D02*
D03*
X70669D02*
D03*
X63189Y-33366D02*
D03*
X70669D02*
D03*
D22*
X62500Y-383760D02*
D03*
X51772D02*
D03*
D23*
X69685Y-121161D02*
Y-109055D01*
X64685Y-110256D02*
Y-104646D01*
Y-110256D02*
X66043Y-111614D01*
X66260Y-142431D02*
Y-124587D01*
X69685Y-109055D02*
X72736Y-106004D01*
X66260Y-124587D02*
X69685Y-121161D01*
X71850Y-118898D02*
X74114Y-116634D01*
X71850Y-122165D02*
Y-118898D01*
X73425Y-119550D02*
X77165Y-115810D01*
X73425Y-122818D02*
Y-119550D01*
X67834Y-126181D02*
X71850Y-122165D01*
X69409Y-126833D02*
X73425Y-122818D01*
X67834Y-141779D02*
Y-126181D01*
X74114Y-116634D02*
Y-113189D01*
X77165Y-115810D02*
Y-111122D01*
X69409Y-141127D02*
Y-126833D01*
X66339Y-352362D02*
Y-142510D01*
X55020Y-363681D02*
X66339Y-352362D01*
X51378Y-363681D02*
X55020D01*
X69488Y-374016D02*
Y-141206D01*
X56988Y-376279D02*
X63386D01*
X67225D02*
X69488Y-374016D01*
X63386Y-376279D02*
X67225D01*
X63386D02*
X63583Y-376476D01*
Y-382727D02*
Y-376476D01*
X50689Y-382727D02*
X51673Y-383711D01*
X62598D02*
X63583Y-382727D01*
X49803Y-375981D02*
X50689Y-376867D01*
Y-382727D02*
Y-376867D01*
X67914Y-356496D02*
Y-141858D01*
X60728Y-363681D02*
X67914Y-356496D01*
X49803Y-375981D02*
Y-365256D01*
X51378Y-363681D01*
X56336Y-96297D02*
X64685Y-104646D01*
X69409Y-141127D02*
X69488Y-141206D01*
X67834Y-141779D02*
X67914Y-141858D01*
X66260Y-142431D02*
X66339Y-142510D01*
X72736Y-106004D02*
Y-103048D01*
X81836Y-70866D02*
X86004Y-75034D01*
X85036Y-86944D02*
X86004Y-85976D01*
Y-75034D01*
X34277Y-56844D02*
Y-38608D01*
Y-56844D02*
X39370Y-61937D01*
X31299Y-35630D02*
X34277Y-38608D01*
X32936Y-61775D02*
X35335Y-64173D01*
X32936Y-61775D02*
Y-60284D01*
X40945Y-66825D02*
X41836Y-67717D01*
X40945Y-66825D02*
Y-61284D01*
X39436Y-59776D02*
X40945Y-61284D01*
X39436Y-59776D02*
Y-58268D01*
X39370Y-77784D02*
Y-61937D01*
X37836Y-77784D02*
X39370D01*
X30377Y-57607D02*
X31299Y-56684D01*
X30377Y-70525D02*
X31505Y-71653D01*
X30377Y-70525D02*
Y-57607D01*
X24238Y-9646D02*
X30636Y-16044D01*
X21551Y-7677D02*
X23520Y-9646D01*
X24238D01*
X20374Y-7677D02*
X21551D01*
X27850Y-8362D02*
Y-7677D01*
Y-8362D02*
X31936Y-12448D01*
Y-13484D02*
Y-12448D01*
X4921Y-70197D02*
X10036D01*
X11493Y-71653D01*
X14669Y-95567D02*
X17136D01*
X20585Y-99016D01*
X23228D01*
X85728Y-93701D02*
X89436D01*
X92586Y-90551D01*
X96457D01*
X55433Y-21496D02*
Y-13984D01*
X55945Y-13472D01*
Y-5906D01*
X70669Y-24508D02*
Y-24384D01*
X63189Y-16904D02*
X70669Y-24384D01*
X63189Y-16904D02*
Y-16674D01*
X70669Y-33366D02*
Y-24508D01*
X91736Y-60236D02*
X92051Y-60551D01*
X96457D01*
X78543Y-61417D02*
X82336D01*
X83517Y-60236D01*
X87500D01*
X100197Y-31771D02*
X103736D01*
X104603Y-32638D01*
X108268D01*
X100197Y-31771D02*
Y-22461D01*
X55945Y-5906D02*
X60124Y-10084D01*
X81693D02*
Y-6693D01*
X105080Y-53384D02*
X108268Y-50197D01*
X87252Y-53384D02*
X105080D01*
X85836Y-51969D02*
X87252Y-53384D01*
X78543Y-51969D02*
X85836D01*
X9736Y-76553D02*
X14636Y-71653D01*
X9736Y-94667D02*
Y-76553D01*
Y-94667D02*
X10636Y-95567D01*
X14669D01*
X25689Y-37205D02*
X29036D01*
X31299Y-39468D01*
Y-53937D02*
Y-39468D01*
X49836Y-93701D02*
X53150D01*
X48136Y-92001D02*
X49836Y-93701D01*
X45472Y-74016D02*
X48136D01*
X16732Y-55905D02*
X17236D01*
X20936Y-65184D02*
Y-59605D01*
Y-65184D02*
X24536Y-68784D01*
Y-71653D02*
X25138D01*
X101915Y-16284D02*
X108268Y-22638D01*
X101036Y-16284D02*
X101915D01*
X100197Y-15445D02*
X101036Y-16284D01*
X100197Y-15445D02*
Y-13267D01*
X70669Y-18784D02*
Y-16674D01*
Y-18784D02*
X71769Y-19884D01*
X79236D01*
X15945Y-17520D02*
Y-14376D01*
X16543Y-13777D01*
X25907D01*
X29982Y-17852D01*
X31789D01*
X35433Y-21496D01*
X41836Y-70866D02*
X45472D01*
X41036Y-71666D02*
X41836Y-70866D01*
X41036Y-92901D02*
Y-71666D01*
Y-92901D02*
X41836Y-93701D01*
X44193D01*
X100197Y-3937D02*
Y-3284D01*
X63583Y-84025D02*
Y-79528D01*
X63277Y-84331D02*
X63583Y-84025D01*
X63277Y-91142D02*
Y-84331D01*
Y-91142D02*
X65836Y-93701D01*
X67913D01*
X50984Y-46457D02*
Y-46384D01*
X75003Y-58268D02*
X78543D01*
X73036Y-60235D02*
X75003Y-58268D01*
X50570Y-54625D02*
X54335D01*
X50077Y-55118D02*
X50570Y-54625D01*
X59411Y-38159D02*
X83289D01*
X57636Y-36384D02*
X59411Y-38159D01*
X57636Y-36384D02*
Y-33699D01*
X55433Y-31496D02*
X57636Y-33699D01*
X92717Y-13267D02*
X95336Y-15887D01*
Y-25484D02*
Y-15887D01*
X93774Y-27046D02*
X95336Y-25484D01*
X88860Y-27046D02*
X93774D01*
X87522Y-28384D02*
X88860Y-27046D01*
X87522Y-31698D02*
Y-28384D01*
X82636Y-36584D02*
X87522Y-31698D01*
X60630Y-36584D02*
X82636D01*
X60630D02*
Y-29984D01*
X58007Y-27362D02*
X60630Y-29984D01*
X53036Y-27362D02*
X58007D01*
X51236Y-29162D02*
X53036Y-27362D01*
X51236Y-33784D02*
Y-29162D01*
Y-33784D02*
X57283Y-39832D01*
Y-46457D02*
Y-39832D01*
X87340Y-41688D02*
X87936Y-42284D01*
X67829Y-41688D02*
X87340D01*
X66732Y-42784D02*
X67829Y-41688D01*
X66732Y-46457D02*
Y-42784D01*
X27850Y-2559D02*
X40236D01*
X41236Y-3559D01*
Y-24312D02*
Y-3559D01*
X38186Y-27362D02*
X41236Y-24312D01*
X31299Y-27362D02*
X38186D01*
X31299Y-35630D02*
Y-27362D01*
X25138Y-64173D02*
Y-59884D01*
X27559Y-57463D01*
Y-46457D01*
X31299Y-56684D02*
Y-53937D01*
X31505Y-71653D02*
X33563D01*
X90736Y-66272D02*
X96457Y-60551D01*
X89836Y-70484D02*
X90736Y-69584D01*
X83836Y-70484D02*
X89836D01*
X81068Y-67717D02*
X83836Y-70484D01*
X78543Y-67717D02*
X81068D01*
X33563Y-71653D02*
X33636D01*
X32036Y-80584D02*
X33636Y-78984D01*
X66732Y-79528D02*
Y-75988D01*
X70136Y-72584D01*
X13336Y-3584D02*
X14362Y-2559D01*
X88236Y-9084D02*
X92717Y-4604D01*
Y-3937D01*
X4921Y-36427D02*
X9636Y-41142D01*
X15362Y-2559D02*
X20374D01*
X13536Y-36384D02*
Y-4384D01*
Y-36384D02*
X14160Y-37008D01*
X21036D01*
X21936Y-37908D01*
Y-53937D02*
Y-37908D01*
Y-53937D02*
X23819D01*
X13536Y-41984D02*
X14379Y-41142D01*
X13536Y-59884D02*
Y-41984D01*
Y-59884D02*
X14936Y-61284D01*
Y-64173D02*
X16634D01*
X20333Y-25787D02*
X22586Y-23534D01*
X19685Y-25787D02*
X20333D01*
X25689Y-37205D02*
X29336Y-33557D01*
Y-26584D01*
X41036Y-54618D02*
X41536Y-55118D01*
X43847Y-51969D02*
X45472D01*
X43847Y-36384D02*
X45433Y-34798D01*
Y-31496D01*
X41836Y-58268D02*
X45472D01*
X39461Y-55893D02*
X41836Y-58268D01*
X39461Y-55893D02*
Y-48345D01*
X37111Y-45994D02*
X39461Y-48345D01*
X37111Y-45994D02*
Y-37398D01*
X39724Y-34784D01*
Y-28769D01*
X42809Y-25684D01*
X47091D01*
X51236Y-21539D01*
Y-3484D01*
X53036Y-1684D01*
X61724D01*
X65945Y-5906D01*
X63189Y-26756D02*
Y-24508D01*
X60173Y-25787D02*
X61142Y-26756D01*
X49724Y-25787D02*
X60173D01*
X48227Y-27284D02*
X49724Y-25787D01*
X43436Y-27284D02*
X48227D01*
X41299Y-29422D02*
X43436Y-27284D01*
X41036Y-47033D02*
X41299Y-46770D01*
X41036Y-54143D02*
X42012Y-55118D01*
X45472D01*
X41836Y-67717D02*
X45472D01*
X36936Y-55768D02*
X39436Y-58268D01*
X36836Y-54284D02*
X36936D01*
X16732Y-57081D02*
X18636Y-58984D01*
X16732Y-57081D02*
Y-55905D01*
X69882Y-48584D02*
Y-46457D01*
Y-48584D02*
X70436Y-49139D01*
Y-53084D02*
Y-49139D01*
X81693Y-28784D02*
Y-28740D01*
X63583Y-79528D02*
Y-68831D01*
X62736Y-67984D02*
X63583Y-68831D01*
X82736Y-44684D02*
X83336Y-45284D01*
X97897D01*
X100197Y-47584D01*
Y-50197D02*
Y-47584D01*
X67913Y-101181D02*
X70236D01*
X71136Y-100281D01*
Y-93384D01*
X77436Y-87084D01*
X71936Y-63384D02*
X73119Y-64567D01*
X97436Y-37284D02*
X100197Y-40045D01*
Y-40964D02*
Y-40045D01*
X69390Y-67717D02*
X78543D01*
X64339Y-62666D02*
X69390Y-67717D01*
X57643Y-62666D02*
X64339D01*
X51003Y-65577D02*
X54733D01*
X60433Y-79528D02*
Y-73881D01*
X60136Y-73584D02*
X60433Y-73881D01*
X60136Y-73584D02*
Y-65284D01*
X78543Y-70866D02*
X81836D01*
X83202Y-86944D02*
X85036D01*
X76445Y-93701D02*
X83202Y-86944D01*
X75886Y-93701D02*
X76445D01*
X73032Y-86584D02*
Y-79528D01*
X70644Y-88972D02*
X73032Y-86584D01*
X72736Y-94784D02*
X73820Y-93701D01*
X15945Y-17520D02*
X16831Y-22170D01*
Y-33661D02*
Y-22170D01*
X75236Y-64567D02*
X78543D01*
X59944Y-60235D02*
X70988D01*
X54335Y-54625D02*
X59944Y-60235D01*
X45472Y-55118D02*
X50077D01*
X78543Y-64567D02*
X81436D01*
X84586Y-67717D01*
X87500D01*
X19685Y-25787D02*
X23622Y-29724D01*
X25689D01*
X16732Y-48425D02*
X20036Y-47584D01*
Y-38583D01*
X13036D02*
X20036D01*
X11436Y-36983D02*
X13036Y-38583D01*
X11436Y-36983D02*
Y-29153D01*
X4921Y-22638D02*
X11436Y-29153D01*
X31788Y-85567D02*
X36236D01*
X37795Y-84008D01*
X57283Y-85684D02*
Y-79528D01*
X31788Y-90567D02*
X37619D01*
X60433Y-92588D02*
Y-79528D01*
X70383Y-57584D02*
X71736D01*
X63583Y-50784D02*
X70383Y-57584D01*
X63583Y-50784D02*
Y-46457D01*
X57834Y-53684D02*
X58536D01*
X54134Y-49984D02*
X57834Y-53684D01*
X54134Y-49984D02*
Y-46457D01*
X92717Y-6665D02*
X94636Y-8584D01*
X107436D01*
X112436Y-13584D01*
Y-90184D02*
Y-13584D01*
X98836Y-103784D02*
X112436Y-90184D01*
X73820Y-93701D02*
X75886D01*
X103189Y-55118D02*
X108268Y-60197D01*
X78543Y-55118D02*
X103189D01*
X14669Y-85567D02*
X19436D01*
X20436Y-84567D01*
X20236Y-74984D02*
Y-67776D01*
X16634Y-64173D02*
X20236Y-67776D01*
X20436Y-84567D02*
Y-77184D01*
X20236Y-74984D02*
X20436Y-77184D01*
X20236Y-74984D02*
X31836D01*
X33563Y-71653D01*
X4921Y-41484D02*
X4921Y-50197D01*
X55433Y-21496D02*
X60255Y-16674D01*
X63189D01*
X56236Y-64073D02*
Y-60784D01*
X54733Y-65577D02*
X56236Y-64073D01*
X49993Y-64567D02*
X51003Y-65577D01*
X45472Y-64567D02*
X49993D01*
X85728Y-101181D02*
X92536D01*
X70669Y-24508D02*
X72716Y-22461D01*
X92717D01*
X36260Y-7874D02*
X39567Y-11181D01*
Y-23208D02*
Y-11181D01*
X37091Y-25684D02*
X39567Y-23208D01*
X28436Y-25684D02*
X37091D01*
X23425Y-20673D02*
X28436Y-25684D01*
X23425Y-20673D02*
Y-17520D01*
X36260Y-13068D02*
Y-7874D01*
X33284Y-16044D02*
X36260Y-13068D01*
X30636Y-16044D02*
X33284D01*
X84454Y-90759D02*
X90736Y-84477D01*
X83362Y-90759D02*
X84454D01*
X82536Y-91584D02*
X83362Y-90759D01*
X82536Y-100281D02*
Y-91584D01*
Y-100281D02*
X83436Y-101181D01*
X85728D01*
X45472Y-61417D02*
X50568D01*
X51962Y-62812D01*
X60433Y-46457D02*
Y-42684D01*
X63383Y-39734D01*
X87187D01*
X92717Y-34204D01*
Y-31771D01*
X69882Y-82784D02*
Y-79528D01*
X65836Y-86584D02*
X69636Y-82784D01*
X50984Y-84384D02*
Y-79528D01*
Y-84384D02*
X56336Y-89736D01*
X75836Y-28784D02*
X81693D01*
X11493Y-71653D02*
X14636D01*
X16634D01*
X41536Y-55118D02*
X42012D01*
X41036Y-54618D02*
Y-54143D01*
Y-47033D01*
Y-43084D01*
X41299Y-46770D02*
Y-29422D01*
X70988Y-60235D02*
X73036D01*
X73027Y-62314D02*
X75236Y-64567D01*
X70988Y-60235D02*
X73027Y-62314D01*
X73119Y-64567D02*
X75236D01*
X61142Y-26756D02*
X63189D01*
Y-33366D02*
Y-26756D01*
X37795Y-84008D02*
Y-77784D01*
X17236Y-55905D02*
X20936Y-59605D01*
X24536Y-71653D02*
Y-68784D01*
X36936Y-55768D02*
Y-54284D01*
X46536Y-46384D02*
X50984D01*
X43847Y-51969D02*
Y-36384D01*
X13536Y-4384D02*
X15362Y-2559D01*
X14362D02*
X15362D01*
X92717Y-6665D02*
Y-4604D01*
X14936Y-64173D02*
Y-61284D01*
X33636Y-78984D02*
Y-71653D01*
X4921Y-41484D02*
Y-36427D01*
X9636Y-41142D02*
X14379D01*
X16831D01*
X28436Y-25684D02*
X29336Y-26584D01*
X56236Y-64073D02*
X57643Y-62666D01*
X75886Y-101181D02*
X83436D01*
X90736Y-84477D02*
Y-69584D01*
Y-66272D01*
X87500Y-60236D02*
X91736D01*
X60124Y-10084D02*
X81693D01*
X100197Y-3284D02*
X103636D01*
X69636Y-82784D02*
X69882D01*
X48136Y-92001D02*
Y-74016D01*
X24606Y-40354D02*
X25689Y-39272D01*
Y-37205D01*
X73032Y-46457D02*
X73818Y-47243D01*
X89763D01*
X92716Y-50197D01*
X92717Y-36788D02*
X95276Y-34229D01*
Y-29313D01*
X94584Y-28621D02*
X95276Y-29313D01*
X90849Y-28621D02*
X94584D01*
X83289Y-38159D02*
X89097Y-32351D01*
Y-30374D01*
X83289Y-38159D02*
Y-38159D01*
X92717Y-40964D02*
Y-36788D01*
X89097Y-30374D02*
X90849Y-28621D01*
X45276Y-109055D02*
X53150Y-101181D01*
X72736Y-99114D02*
X72736Y-99114D01*
X72736Y-103048D02*
X73428Y-103740D01*
X75152D01*
X75197Y-103784D01*
X72736Y-99114D02*
Y-94784D01*
X72736Y-103048D02*
Y-99114D01*
X75197Y-103784D02*
X98836D01*
X56336Y-96297D02*
Y-89736D01*
X58936Y-94084D02*
X60433Y-92588D01*
X45276Y-111909D02*
Y-109055D01*
X45669Y-101181D02*
X53150Y-93701D01*
X44193Y-101181D02*
X45669D01*
X83445Y-80216D02*
X84153D01*
X78543Y-74606D02*
Y-74016D01*
Y-74606D02*
X84153Y-80216D01*
D24*
X55945Y-5906D02*
D03*
X108268Y-22638D02*
D03*
Y-50197D02*
D03*
X4921Y-100197D02*
D03*
Y-90197D02*
D03*
Y-80197D02*
D03*
Y-70197D02*
D03*
Y-60197D02*
D03*
X4921Y-32638D02*
D03*
X35433Y-21496D02*
D03*
X45433Y-31496D02*
D03*
Y-21496D02*
D03*
X55433Y-31496D02*
D03*
Y-21496D02*
D03*
D25*
X65945Y-5906D02*
D03*
X35433Y-31496D02*
D03*
D26*
X36260Y-7874D02*
D03*
X46260D02*
D03*
D27*
X108268Y-32638D02*
D03*
Y-60197D02*
D03*
X4921Y-50197D02*
D03*
X4921Y-22638D02*
D03*
D28*
X96457Y-60551D02*
D03*
Y-70551D02*
D03*
Y-80551D02*
D03*
D29*
Y-90551D02*
D03*
D30*
X66043Y-111614D02*
D03*
X77165Y-111122D02*
D03*
X74114Y-113189D02*
D03*
X79236Y-19884D02*
D03*
X103636Y-3284D02*
D03*
X46536Y-46384D02*
D03*
X87936Y-42284D02*
D03*
X32036Y-80584D02*
D03*
X70136Y-72584D02*
D03*
X13336Y-3584D02*
D03*
X88236Y-9084D02*
D03*
X22586Y-23534D02*
D03*
X41036Y-43084D02*
D03*
X36836Y-54284D02*
D03*
X18636Y-58984D02*
D03*
X70436Y-53084D02*
D03*
X75836Y-28784D02*
D03*
X62736Y-67984D02*
D03*
X82736Y-44684D02*
D03*
X77436Y-87084D02*
D03*
X71936Y-63384D02*
D03*
X97436Y-37284D02*
D03*
X60136Y-65284D02*
D03*
X31936Y-13484D02*
D03*
X70644Y-88972D02*
D03*
X37836Y-77784D02*
D03*
X57283Y-85684D02*
D03*
X37619Y-90567D02*
D03*
X58536Y-53684D02*
D03*
X56236Y-60784D02*
D03*
X92536Y-101181D02*
D03*
X51962Y-62812D02*
D03*
X32936Y-60284D02*
D03*
X65836Y-86584D02*
D03*
X24606Y-40354D02*
D03*
X58936Y-94084D02*
D03*
X45276Y-111909D02*
D03*
X8563Y-15256D02*
D03*
X108858Y-100984D02*
D03*
X55610Y-68504D02*
D03*
X60236Y-56890D02*
D03*
X11811Y-67126D02*
D03*
X71736Y-57584D02*
D03*
X83445Y-80216D02*
D03*
M02*
