M48
;Layer_Color=9474304
;FILE_FORMAT=2:5
INCH,LZ
;TYPE=PLATED
T1F00S00C0.01181
T2F00S00C0.02756
T3F00S00C0.03543
T4F00S00C0.03937
T5F00S00C0.11811
;TYPE=NON_PLATED
%
T01
X0001968Y0268012
X-0005689Y0289354
X-0005471Y0302137
X-0011271Y0299337
X0013976Y0294237
X0012303Y0311417
X-0031496Y0312795
X0016829Y0314637
X0019429Y0311937
X0026829Y0307337
X0026772Y0292913
X0021654Y0290945
X0017717Y0294094
X0032677Y0291732
X0037795Y0294488
X004252Y0302756
X0049229Y027874
X0033858Y0268799
X0030807Y0266732
X0022736Y0268307
X0028629Y0316537
X0028429Y0322337
X0027129Y0326837
X0016929Y0323031
X0040945Y0324803
X0039429Y0335237
X0044629Y0337637
X0054129Y0342637
X0032529Y0351137
X0035929Y0360037
X0044929Y0370837
X0060329Y0376637
X-0011371Y0366437
X-001624Y0360728
X-0020721Y0356387
X-0018701Y0339567
X-0002271Y0336837
X0003229Y0333537
X-0006471Y0325637
X-0010371Y0319637
X-0024671Y0320937
X0008655Y0317109
X0012929Y0319137
X0015229Y0326237
X-0034744Y0364665
X-0037008Y0372244
T02
X-0007047Y0372047
X0002953
T03
X-0038386Y0279724
Y0289724
Y0299724
Y0309724
X0064961Y0319724
Y0329724
Y0347284
X0064961Y0357284
X0022638Y0374015
X0012638
X0012126Y0358425
Y0348425
X0002126
Y0358425
X-0007874Y0358425
Y0348425
X-0038386Y0347284
Y0357284
X-0038386Y0329724
Y0319724
T04
X005315Y028937
X005315Y029937
X005315Y030937
Y031937
T05
X0013779Y0263779
M30
