M48
;Layer_Color=9474304
;FILE_FORMAT=2:5
INCH,LZ
T2F00S00C0.00001
%
G90
G05
T02
G00X-0043308Y0274606
M15
G01X-0043307Y0379922
G01X0070866Y0379921
G01X0070866Y0274606
G01X0062992Y0274648
G01X0059515Y0274478
G01X0056071Y0273967
G01X0052694Y0273121
G01X0049416Y0271948
G01X0046269Y027046
G01X0043283Y026867
G01X0040487Y0266596
G01X0037907Y0264258
G01X0035569Y0261678
G01X0033496Y0258882
G01X0031706Y0255896
G01X0031255Y0254944
G01X0031261Y0254941
G01X0031299Y0254921
G01X-0003604Y0254921
G01X-0003598Y0254943
G01X-0004048Y0255896
G01X-0005838Y0258882
G01X-0007912Y0261678
G01X-001025Y0264258
G01X-0012829Y0266596
G01X-0015626Y026867
G01X-0018612Y027046
G01X-0021759Y0271948
G01X-0025037Y0273121
G01X-0028414Y0273967
G01X-0031857Y0274478
G01X-0035335Y0274648
G01X-0035335Y0274606
G01X-0043308Y0274606
M16
M17
M30
