M48
;Layer_Color=9474304
;FILE_FORMAT=2:5
INCH,LZ
T8F00S00C0.00001
%
G90
G05
T08
G00X0007678Y-0379528
M15
G01X0007677Y-0386614
G01X0019881Y-0386614
G01X0019882Y-0379528
G01X0007678Y-0379528
M16
G00X0009548Y-0394784
M15
G01X0009547Y-0400196
G01X001811Y-0400197
G01X001811Y-0394784
G01X0009548Y-0394784
M16
G00X0000042Y0239173
M15
G01X-0000129Y024265
G01X-000064Y0246094
G01X-0001485Y0249471
G01X-0002658Y0252749
G01X-0004147Y0255896
G01X-0005937Y0258882
G01X-000801Y0261678
G01X-0010348Y0264258
G01X-0012928Y0266596
G01X-0015724Y026867
G01X-001871Y027046
G01X-0021857Y0271948
G01X-0025135Y0273121
G01X-0028512Y0273967
G01X-0031956Y0274478
G01X-0035433Y0274648
G01X-0035433Y0274606
G01X-0035433Y0274606
G01X-0043308Y0274606
G01X-0043307Y0379922
G01X0070866Y0379921
G01X0070866Y0274606
G01X0062992Y0274607
G01X0062992Y0274648
G01X0059515Y0274478
G01X0056071Y0273967
G01X0052694Y0273121
G01X0049416Y0271948
G01X0046269Y027046
G01X0043283Y026867
G01X0040487Y0266596
G01X0037907Y0264258
G01X0035569Y0261678
G01X0033495Y0258882
G01X0031706Y0255896
G01X0030217Y0252749
G01X0029044Y0249471
G01X0028198Y0246094
G01X0027688Y024265
G01X0027517Y0239173
G01X0027559Y0239173
G01X002756Y0239173
G01X0027559Y-03937
G01X0027559Y-0393701
G01X001378Y-040748
G01X0013779Y-0407481
G01X0Y-0393701
G01X0000042Y0239173
M16
M17
M30
