%FSLAX25Y25*%
%MOIN*%
G70*
G01*
G75*
G04 Layer_Color=12566272*
%ADD10R,0.03937X0.02756*%
%ADD11R,0.02362X0.03937*%
%ADD12R,0.01969X0.03937*%
%ADD13R,0.02756X0.03937*%
%ADD14R,0.06299X0.07874*%
%ADD15O,0.02165X0.06496*%
%ADD16O,0.06496X0.02165*%
%ADD17R,0.02362X0.05118*%
%ADD18R,0.06299X0.02756*%
%ADD19R,0.02362X0.05906*%
%ADD20R,0.03150X0.09843*%
%ADD21R,0.03150X0.07480*%
%ADD22R,0.07480X0.03150*%
%ADD23C,0.00787*%
%ADD24C,0.07874*%
G04:AMPARAMS|DCode=25|XSize=78.74mil|YSize=78.74mil|CornerRadius=19.69mil|HoleSize=0mil|Usage=FLASHONLY|Rotation=270.000|XOffset=0mil|YOffset=0mil|HoleType=Round|Shape=RoundedRectangle|*
%AMROUNDEDRECTD25*
21,1,0.07874,0.03937,0,0,270.0*
21,1,0.03937,0.07874,0,0,270.0*
1,1,0.03937,-0.01969,-0.01969*
1,1,0.03937,-0.01969,0.01969*
1,1,0.03937,0.01969,0.01969*
1,1,0.03937,0.01969,-0.01969*
%
%ADD25ROUNDEDRECTD25*%
%ADD26C,0.07874*%
%ADD27C,0.05906*%
%ADD28R,0.05906X0.05906*%
%ADD29R,0.05906X0.05906*%
%ADD30C,0.04724*%
%ADD31C,0.02362*%
%ADD32C,0.02756*%
%ADD33R,0.04724X0.04724*%
%ADD34C,0.05906*%
%ADD35C,0.01000*%
%ADD36C,0.00984*%
%ADD37C,0.02362*%
%ADD38C,0.00394*%
%ADD39R,0.04737X0.03556*%
%ADD40R,0.03162X0.04737*%
%ADD41R,0.02769X0.04737*%
%ADD42R,0.03556X0.04737*%
%ADD43R,0.07099X0.08674*%
%ADD44O,0.02965X0.07296*%
%ADD45O,0.07296X0.02965*%
%ADD46R,0.03162X0.05918*%
%ADD47R,0.07099X0.03556*%
%ADD48R,0.03162X0.06706*%
%ADD49R,0.03950X0.10642*%
%ADD50R,0.03950X0.08280*%
%ADD51R,0.08280X0.03950*%
%ADD52C,0.00800*%
G04:AMPARAMS|DCode=53|XSize=86.74mil|YSize=86.74mil|CornerRadius=23.69mil|HoleSize=0mil|Usage=FLASHONLY|Rotation=270.000|XOffset=0mil|YOffset=0mil|HoleType=Round|Shape=RoundedRectangle|*
%AMROUNDEDRECTD53*
21,1,0.08674,0.03937,0,0,270.0*
21,1,0.03937,0.08674,0,0,270.0*
1,1,0.04737,-0.01969,-0.01969*
1,1,0.04737,-0.01969,0.01969*
1,1,0.04737,0.01969,0.01969*
1,1,0.04737,0.01969,-0.01969*
%
%ADD53ROUNDEDRECTD53*%
%ADD54C,0.08674*%
%ADD55C,0.06706*%
%ADD56R,0.06706X0.06706*%
%ADD57R,0.06706X0.06706*%
%ADD58C,0.05524*%
%ADD59C,0.03162*%
%ADD60C,0.03556*%
%ADD61R,0.05524X0.05524*%
G36*
X-10184Y283112D02*
X-10333D01*
Y283482D01*
X-10569D01*
X-10587Y283459D01*
X-10604Y283435D01*
X-10619Y283408D01*
X-10632Y283384D01*
X-10643Y283361D01*
X-10651Y283341D01*
X-10653Y283335D01*
X-10656Y283330D01*
X-10658Y283326D01*
Y283325D01*
X-10671Y283285D01*
X-10681Y283248D01*
X-10689Y283213D01*
X-10694Y283180D01*
X-10697Y283153D01*
Y283141D01*
X-10699Y283131D01*
Y283125D01*
Y283118D01*
Y283115D01*
Y283113D01*
X-10697Y283067D01*
X-10691Y283023D01*
X-10683Y282984D01*
X-10671Y282949D01*
X-10666Y282933D01*
X-10661Y282920D01*
X-10658Y282907D01*
X-10653Y282897D01*
X-10650Y282889D01*
X-10646Y282882D01*
X-10645Y282879D01*
Y282877D01*
X-10622Y282838D01*
X-10596Y282805D01*
X-10566Y282775D01*
X-10540Y282752D01*
X-10515Y282734D01*
X-10504Y282726D01*
X-10494Y282721D01*
X-10487Y282716D01*
X-10481Y282713D01*
X-10477Y282710D01*
X-10476D01*
X-10432Y282690D01*
X-10384Y282677D01*
X-10336Y282667D01*
X-10292Y282659D01*
X-10272Y282657D01*
X-10253Y282656D01*
X-10237Y282654D01*
X-10222D01*
X-10210Y282652D01*
X-10194D01*
X-10143Y282654D01*
X-10095Y282661D01*
X-10053Y282667D01*
X-10015Y282677D01*
X-9999Y282680D01*
X-9984Y282685D01*
X-9971Y282688D01*
X-9959Y282693D01*
X-9951Y282695D01*
X-9945Y282698D01*
X-9941Y282700D01*
X-9940D01*
X-9915Y282711D01*
X-9890Y282725D01*
X-9869Y282738D01*
X-9851Y282749D01*
X-9836Y282761D01*
X-9825Y282770D01*
X-9818Y282777D01*
X-9815Y282779D01*
X-9795Y282798D01*
X-9776Y282821D01*
X-9761Y282844D01*
X-9748Y282866D01*
X-9736Y282884D01*
X-9730Y282900D01*
X-9725Y282910D01*
X-9723Y282911D01*
Y282913D01*
X-9712Y282946D01*
X-9702Y282979D01*
X-9695Y283013D01*
X-9692Y283044D01*
X-9689Y283071D01*
Y283082D01*
X-9687Y283092D01*
Y283100D01*
Y283107D01*
Y283110D01*
Y283112D01*
X-9689Y283146D01*
X-9692Y283179D01*
X-9698Y283208D01*
X-9703Y283233D01*
X-9710Y283254D01*
X-9717Y283271D01*
X-9720Y283280D01*
X-9721Y283282D01*
Y283284D01*
X-9735Y283312D01*
X-9749Y283336D01*
X-9764Y283358D01*
X-9777Y283374D01*
X-9790Y283387D01*
X-9800Y283397D01*
X-9807Y283403D01*
X-9810Y283405D01*
X-9831Y283420D01*
X-9856Y283435D01*
X-9882Y283446D01*
X-9905Y283456D01*
X-9928Y283464D01*
X-9945Y283471D01*
X-9951Y283472D01*
X-9956Y283474D01*
X-9959Y283476D01*
X-9961D01*
X-9920Y283627D01*
X-9874Y283613D01*
X-9833Y283597D01*
X-9799Y283582D01*
X-9769Y283566D01*
X-9745Y283551D01*
X-9735Y283546D01*
X-9728Y283540D01*
X-9721Y283536D01*
X-9717Y283533D01*
X-9715Y283530D01*
X-9713D01*
X-9685Y283505D01*
X-9661Y283477D01*
X-9640Y283448D01*
X-9622Y283420D01*
X-9608Y283395D01*
X-9603Y283385D01*
X-9599Y283376D01*
X-9595Y283367D01*
X-9592Y283363D01*
X-9590Y283359D01*
Y283358D01*
X-9576Y283315D01*
X-9564Y283272D01*
X-9556Y283231D01*
X-9549Y283192D01*
X-9548Y283176D01*
X-9546Y283159D01*
Y283146D01*
X-9544Y283133D01*
Y283123D01*
Y283117D01*
Y283112D01*
Y283110D01*
X-9546Y283075D01*
X-9548Y283043D01*
X-9556Y282979D01*
X-9562Y282949D01*
X-9569Y282923D01*
X-9576Y282897D01*
X-9584Y282874D01*
X-9590Y282853D01*
X-9599Y282833D01*
X-9605Y282816D01*
X-9610Y282803D01*
X-9617Y282792D01*
X-9620Y282784D01*
X-9622Y282779D01*
X-9623Y282777D01*
X-9638Y282751D01*
X-9656Y282726D01*
X-9692Y282682D01*
X-9712Y282662D01*
X-9731Y282644D01*
X-9751Y282628D01*
X-9771Y282613D01*
X-9789Y282600D01*
X-9805Y282588D01*
X-9820Y282579D01*
X-9833Y282570D01*
X-9844Y282564D01*
X-9853Y282559D01*
X-9858Y282557D01*
X-9859Y282556D01*
X-9889Y282542D01*
X-9920Y282531D01*
X-9981Y282511D01*
X-10038Y282498D01*
X-10066Y282493D01*
X-10091Y282490D01*
X-10115Y282487D01*
X-10136Y282484D01*
X-10156Y282482D01*
X-10172D01*
X-10186Y282480D01*
X-10204D01*
X-10238Y282482D01*
X-10271Y282484D01*
X-10335Y282492D01*
X-10364Y282498D01*
X-10391Y282505D01*
X-10417Y282511D01*
X-10441Y282520D01*
X-10463Y282526D01*
X-10482Y282533D01*
X-10499Y282539D01*
X-10514Y282546D01*
X-10525Y282551D01*
X-10533Y282554D01*
X-10538Y282557D01*
X-10540D01*
X-10568Y282572D01*
X-10592Y282588D01*
X-10617Y282607D01*
X-10638Y282626D01*
X-10660Y282644D01*
X-10678Y282664D01*
X-10696Y282682D01*
X-10710Y282700D01*
X-10723Y282718D01*
X-10737Y282733D01*
X-10746Y282748D01*
X-10755Y282761D01*
X-10761Y282770D01*
X-10766Y282779D01*
X-10768Y282784D01*
X-10769Y282785D01*
X-10783Y282815D01*
X-10796Y282844D01*
X-10815Y282902D01*
X-10829Y282959D01*
X-10833Y282985D01*
X-10838Y283012D01*
X-10842Y283034D01*
X-10843Y283056D01*
X-10847Y283075D01*
Y283092D01*
X-10848Y283105D01*
Y283115D01*
Y283121D01*
Y283123D01*
X-10847Y283174D01*
X-10840Y283223D01*
X-10832Y283269D01*
X-10824Y283310D01*
X-10819Y283326D01*
X-10814Y283343D01*
X-10810Y283358D01*
X-10807Y283369D01*
X-10804Y283379D01*
X-10801Y283385D01*
X-10799Y283390D01*
Y283392D01*
X-10779Y283441D01*
X-10755Y283487D01*
X-10732Y283530D01*
X-10707Y283569D01*
X-10696Y283586D01*
X-10686Y283600D01*
X-10678Y283613D01*
X-10669Y283625D01*
X-10663Y283635D01*
X-10658Y283641D01*
X-10655Y283645D01*
X-10653Y283646D01*
X-10184D01*
Y283112D01*
D02*
G37*
G36*
X-9566Y335692D02*
X-9715D01*
Y336107D01*
X-10827D01*
Y336274D01*
X-9715D01*
Y336689D01*
X-9566D01*
Y335692D01*
D02*
G37*
G36*
Y284724D02*
X-10556D01*
X-9566Y284061D01*
Y283891D01*
X-10827D01*
Y284051D01*
X-9838D01*
X-10827Y284712D01*
Y284884D01*
X-9566D01*
Y284724D01*
D02*
G37*
G36*
X-2323Y283220D02*
X-2299Y283218D01*
X-2277Y283217D01*
X-2262Y283215D01*
X-2251Y283213D01*
X-2244Y283212D01*
X-2243D01*
X-2218Y283205D01*
X-2197Y283198D01*
X-2177Y283190D01*
X-2161Y283184D01*
X-2146Y283176D01*
X-2136Y283169D01*
X-2130Y283166D01*
X-2128Y283164D01*
X-2111Y283149D01*
X-2095Y283133D01*
X-2082Y283117D01*
X-2072Y283100D01*
X-2062Y283084D01*
X-2056Y283072D01*
X-2052Y283064D01*
X-2051Y283061D01*
X-2041Y283034D01*
X-2033Y283008D01*
X-2028Y282982D01*
X-2023Y282959D01*
X-2021Y282938D01*
X-2020Y282923D01*
Y282916D01*
Y282911D01*
Y282910D01*
Y282908D01*
X-2021Y282874D01*
X-2026Y282841D01*
X-2033Y282811D01*
X-2043Y282784D01*
X-2054Y282757D01*
X-2067Y282734D01*
X-2080Y282713D01*
X-2095Y282693D01*
X-2110Y282675D01*
X-2123Y282661D01*
X-2136Y282649D01*
X-2148Y282638D01*
X-2156Y282629D01*
X-2164Y282625D01*
X-2169Y282621D01*
X-2171Y282620D01*
X-2039D01*
Y282480D01*
X-2953D01*
Y282634D01*
X-2456D01*
X-2425Y282636D01*
X-2395Y282638D01*
X-2369Y282641D01*
X-2344Y282646D01*
X-2323Y282651D01*
X-2303Y282657D01*
X-2287Y282664D01*
X-2271Y282670D01*
X-2258Y282677D01*
X-2248Y282682D01*
X-2238Y282688D01*
X-2231Y282693D01*
X-2225Y282698D01*
X-2221Y282702D01*
X-2218Y282705D01*
X-2197Y282733D01*
X-2180Y282762D01*
X-2169Y282792D01*
X-2162Y282818D01*
X-2157Y282841D01*
X-2156Y282861D01*
X-2154Y282867D01*
Y282872D01*
Y282875D01*
Y282877D01*
X-2156Y282898D01*
X-2159Y282920D01*
X-2164Y282938D01*
X-2169Y282952D01*
X-2174Y282966D01*
X-2179Y282976D01*
X-2182Y282982D01*
X-2184Y282984D01*
X-2195Y283000D01*
X-2207Y283013D01*
X-2220Y283025D01*
X-2231Y283033D01*
X-2243Y283039D01*
X-2251Y283044D01*
X-2258Y283048D01*
X-2259D01*
X-2279Y283054D01*
X-2300Y283059D01*
X-2323Y283062D01*
X-2346Y283066D01*
X-2366D01*
X-2384Y283067D01*
X-2953D01*
Y283222D01*
X-2354D01*
X-2323Y283220D01*
D02*
G37*
G36*
X-10130Y286206D02*
X-10073Y286200D01*
X-10046Y286196D01*
X-10022Y286192D01*
X-9999Y286187D01*
X-9977Y286183D01*
X-9958Y286178D01*
X-9941Y286174D01*
X-9927Y286169D01*
X-9913Y286165D01*
X-9904Y286162D01*
X-9897Y286159D01*
X-9892Y286157D01*
X-9890D01*
X-9843Y286137D01*
X-9802Y286113D01*
X-9764Y286088D01*
X-9733Y286064D01*
X-9720Y286052D01*
X-9708Y286042D01*
X-9698Y286032D01*
X-9690Y286024D01*
X-9684Y286018D01*
X-9679Y286013D01*
X-9677Y286010D01*
X-9676Y286008D01*
X-9653Y285978D01*
X-9633Y285947D01*
X-9618Y285916D01*
X-9605Y285887D01*
X-9597Y285862D01*
X-9594Y285850D01*
X-9590Y285841D01*
X-9589Y285834D01*
X-9587Y285827D01*
X-9585Y285824D01*
Y285823D01*
X-9579Y285791D01*
X-9574Y285755D01*
X-9571Y285718D01*
X-9567Y285682D01*
Y285650D01*
X-9566Y285636D01*
Y285624D01*
Y285614D01*
Y285606D01*
Y285601D01*
Y285599D01*
Y285165D01*
X-10827D01*
Y285619D01*
X-10825Y285660D01*
X-10824Y285700D01*
X-10820Y285734D01*
X-10815Y285764D01*
X-10812Y285788D01*
X-10810Y285798D01*
X-10809Y285806D01*
X-10807Y285813D01*
Y285818D01*
X-10806Y285819D01*
Y285821D01*
X-10797Y285852D01*
X-10787Y285882D01*
X-10776Y285908D01*
X-10766Y285929D01*
X-10758Y285947D01*
X-10750Y285960D01*
X-10745Y285968D01*
X-10743Y285972D01*
X-10725Y285995D01*
X-10707Y286018D01*
X-10688Y286037D01*
X-10669Y286054D01*
X-10653Y286069D01*
X-10640Y286078D01*
X-10632Y286087D01*
X-10628Y286088D01*
X-10600Y286106D01*
X-10569Y286124D01*
X-10538Y286139D01*
X-10509Y286151D01*
X-10484Y286160D01*
X-10473Y286164D01*
X-10463Y286167D01*
X-10456Y286170D01*
X-10450Y286172D01*
X-10446Y286174D01*
X-10445D01*
X-10402Y286185D01*
X-10358Y286193D01*
X-10315Y286200D01*
X-10276Y286203D01*
X-10258Y286205D01*
X-10241Y286206D01*
X-10227D01*
X-10215Y286208D01*
X-10191D01*
X-10130Y286206D01*
D02*
G37*
G36*
X-2650Y335217D02*
X-2592Y335211D01*
X-2566Y335208D01*
X-2541Y335203D01*
X-2518Y335198D01*
X-2497Y335194D01*
X-2477Y335190D01*
X-2461Y335185D01*
X-2446Y335180D01*
X-2433Y335176D01*
X-2423Y335173D01*
X-2417Y335170D01*
X-2412Y335168D01*
X-2410D01*
X-2362Y335149D01*
X-2321Y335124D01*
X-2284Y335099D01*
X-2253Y335075D01*
X-2239Y335063D01*
X-2228Y335053D01*
X-2218Y335044D01*
X-2210Y335035D01*
X-2204Y335029D01*
X-2198Y335024D01*
X-2197Y335021D01*
X-2195Y335019D01*
X-2172Y334990D01*
X-2153Y334958D01*
X-2138Y334927D01*
X-2125Y334898D01*
X-2117Y334873D01*
X-2113Y334862D01*
X-2110Y334852D01*
X-2108Y334845D01*
X-2107Y334839D01*
X-2105Y334835D01*
Y334834D01*
X-2098Y334803D01*
X-2094Y334767D01*
X-2090Y334729D01*
X-2087Y334693D01*
Y334662D01*
X-2085Y334647D01*
Y334635D01*
Y334625D01*
Y334617D01*
Y334612D01*
Y334611D01*
Y334176D01*
X-3347D01*
Y334630D01*
X-3345Y334671D01*
X-3343Y334711D01*
X-3340Y334745D01*
X-3335Y334775D01*
X-3332Y334799D01*
X-3330Y334809D01*
X-3328Y334817D01*
X-3327Y334824D01*
Y334829D01*
X-3325Y334830D01*
Y334832D01*
X-3317Y334863D01*
X-3307Y334893D01*
X-3296Y334919D01*
X-3286Y334940D01*
X-3278Y334958D01*
X-3269Y334971D01*
X-3264Y334980D01*
X-3263Y334983D01*
X-3245Y335006D01*
X-3227Y335029D01*
X-3207Y335049D01*
X-3189Y335065D01*
X-3173Y335080D01*
X-3160Y335089D01*
X-3151Y335098D01*
X-3148Y335099D01*
X-3120Y335117D01*
X-3089Y335136D01*
X-3058Y335150D01*
X-3028Y335162D01*
X-3004Y335172D01*
X-2992Y335175D01*
X-2983Y335178D01*
X-2976Y335181D01*
X-2969Y335183D01*
X-2966Y335185D01*
X-2964D01*
X-2922Y335196D01*
X-2877Y335204D01*
X-2835Y335211D01*
X-2795Y335214D01*
X-2778Y335216D01*
X-2761Y335217D01*
X-2746D01*
X-2735Y335219D01*
X-2710D01*
X-2650Y335217D01*
D02*
G37*
G36*
X-2085Y333858D02*
X-3002Y333517D01*
X-3040Y333502D01*
X-3078Y333489D01*
X-3114Y333477D01*
X-3145Y333468D01*
X-3171Y333459D01*
X-3181Y333456D01*
X-3191Y333453D01*
X-3199Y333451D01*
X-3204Y333450D01*
X-3207Y333448D01*
X-3209D01*
X-3173Y333438D01*
X-3135Y333427D01*
X-3101Y333415D01*
X-3069Y333405D01*
X-3042Y333395D01*
X-3030Y333392D01*
X-3020Y333389D01*
X-3014Y333386D01*
X-3007Y333384D01*
X-3004Y333382D01*
X-3002D01*
X-2085Y333054D01*
Y332872D01*
X-3347Y333361D01*
Y333535D01*
X-2085Y334027D01*
Y333858D01*
D02*
G37*
G36*
X-2650Y336490D02*
X-2592Y336484D01*
X-2566Y336480D01*
X-2541Y336475D01*
X-2518Y336470D01*
X-2497Y336467D01*
X-2477Y336462D01*
X-2461Y336457D01*
X-2446Y336452D01*
X-2433Y336449D01*
X-2423Y336446D01*
X-2417Y336442D01*
X-2412Y336441D01*
X-2410D01*
X-2362Y336421D01*
X-2321Y336397D01*
X-2284Y336372D01*
X-2253Y336347D01*
X-2239Y336336D01*
X-2228Y336326D01*
X-2218Y336316D01*
X-2210Y336308D01*
X-2204Y336301D01*
X-2198Y336297D01*
X-2197Y336293D01*
X-2195Y336292D01*
X-2172Y336262D01*
X-2153Y336231D01*
X-2138Y336200D01*
X-2125Y336170D01*
X-2117Y336146D01*
X-2113Y336134D01*
X-2110Y336124D01*
X-2108Y336118D01*
X-2107Y336111D01*
X-2105Y336108D01*
Y336106D01*
X-2098Y336075D01*
X-2094Y336039D01*
X-2090Y336001D01*
X-2087Y335965D01*
Y335934D01*
X-2085Y335919D01*
Y335908D01*
Y335898D01*
Y335890D01*
Y335885D01*
Y335883D01*
Y335449D01*
X-3347D01*
Y335903D01*
X-3345Y335944D01*
X-3343Y335983D01*
X-3340Y336018D01*
X-3335Y336047D01*
X-3332Y336072D01*
X-3330Y336082D01*
X-3328Y336090D01*
X-3327Y336097D01*
Y336101D01*
X-3325Y336103D01*
Y336105D01*
X-3317Y336136D01*
X-3307Y336165D01*
X-3296Y336192D01*
X-3286Y336213D01*
X-3278Y336231D01*
X-3269Y336244D01*
X-3264Y336252D01*
X-3263Y336256D01*
X-3245Y336279D01*
X-3227Y336301D01*
X-3207Y336321D01*
X-3189Y336338D01*
X-3173Y336352D01*
X-3160Y336362D01*
X-3151Y336370D01*
X-3148Y336372D01*
X-3120Y336390D01*
X-3089Y336408D01*
X-3058Y336423D01*
X-3028Y336434D01*
X-3004Y336444D01*
X-2992Y336448D01*
X-2983Y336451D01*
X-2976Y336454D01*
X-2969Y336456D01*
X-2966Y336457D01*
X-2964D01*
X-2922Y336469D01*
X-2877Y336477D01*
X-2835Y336484D01*
X-2795Y336487D01*
X-2778Y336489D01*
X-2761Y336490D01*
X-2746D01*
X-2735Y336492D01*
X-2710D01*
X-2650Y336490D01*
D02*
G37*
G36*
X-9566Y335346D02*
X-10556D01*
X-9566Y334684D01*
Y334513D01*
X-10827D01*
Y334674D01*
X-9838D01*
X-10827Y335335D01*
Y335507D01*
X-9566D01*
Y335346D01*
D02*
G37*
G36*
Y333865D02*
Y333683D01*
X-10827Y333203D01*
Y333378D01*
X-10445Y333516D01*
Y334044D01*
X-10827Y334190D01*
Y334379D01*
X-9566Y333865D01*
D02*
G37*
G36*
X13492Y283522D02*
X13550Y283515D01*
X13576Y283512D01*
X13600Y283507D01*
X13623Y283502D01*
X13645Y283499D01*
X13664Y283494D01*
X13681Y283489D01*
X13696Y283484D01*
X13709Y283481D01*
X13719Y283477D01*
X13725Y283474D01*
X13730Y283472D01*
X13732D01*
X13779Y283453D01*
X13820Y283428D01*
X13858Y283403D01*
X13889Y283379D01*
X13902Y283367D01*
X13914Y283358D01*
X13924Y283348D01*
X13932Y283340D01*
X13938Y283333D01*
X13943Y283328D01*
X13945Y283325D01*
X13947Y283323D01*
X13969Y283294D01*
X13989Y283262D01*
X14004Y283231D01*
X14017Y283202D01*
X14025Y283177D01*
X14029Y283166D01*
X14032Y283156D01*
X14033Y283149D01*
X14035Y283143D01*
X14037Y283139D01*
Y283138D01*
X14043Y283107D01*
X14048Y283071D01*
X14051Y283033D01*
X14055Y282997D01*
Y282966D01*
X14056Y282951D01*
Y282939D01*
Y282930D01*
Y282921D01*
Y282916D01*
Y282915D01*
Y282480D01*
X12795D01*
Y282934D01*
X12797Y282976D01*
X12799Y283015D01*
X12802Y283049D01*
X12807Y283079D01*
X12810Y283103D01*
X12812Y283113D01*
X12813Y283121D01*
X12815Y283128D01*
Y283133D01*
X12817Y283135D01*
Y283136D01*
X12825Y283167D01*
X12834Y283197D01*
X12846Y283223D01*
X12856Y283244D01*
X12864Y283262D01*
X12872Y283276D01*
X12877Y283284D01*
X12879Y283287D01*
X12897Y283310D01*
X12915Y283333D01*
X12935Y283353D01*
X12953Y283369D01*
X12969Y283384D01*
X12982Y283394D01*
X12990Y283402D01*
X12994Y283403D01*
X13022Y283422D01*
X13053Y283440D01*
X13084Y283454D01*
X13113Y283466D01*
X13138Y283476D01*
X13149Y283479D01*
X13159Y283482D01*
X13166Y283486D01*
X13172Y283487D01*
X13176Y283489D01*
X13177D01*
X13220Y283500D01*
X13264Y283508D01*
X13307Y283515D01*
X13346Y283518D01*
X13364Y283520D01*
X13381Y283522D01*
X13395D01*
X13407Y283523D01*
X13431D01*
X13492Y283522D01*
D02*
G37*
G36*
X5669Y285265D02*
X6182Y285795D01*
Y285568D01*
X5557Y284942D01*
X6182D01*
Y284775D01*
X4921D01*
Y284942D01*
X5357D01*
X5556Y285147D01*
X4921Y285596D01*
Y285818D01*
X5669Y285265D01*
D02*
G37*
G36*
X13236Y284653D02*
X13207Y284645D01*
X13181Y284637D01*
X13156Y284627D01*
X13131Y284617D01*
X13110Y284606D01*
X13090Y284596D01*
X13072Y284584D01*
X13058Y284573D01*
X13043Y284563D01*
X13031Y284553D01*
X13020Y284543D01*
X13012Y284537D01*
X13005Y284530D01*
X13000Y284525D01*
X12999Y284522D01*
X12997Y284520D01*
X12982Y284502D01*
X12971Y284483D01*
X12959Y284463D01*
X12951Y284442D01*
X12936Y284402D01*
X12926Y284365D01*
X12923Y284348D01*
X12922Y284332D01*
X12920Y284319D01*
X12918Y284306D01*
X12917Y284296D01*
Y284289D01*
Y284284D01*
Y284283D01*
X12920Y284240D01*
X12926Y284201D01*
X12935Y284165D01*
X12946Y284132D01*
X12958Y284105D01*
X12962Y284094D01*
X12966Y284086D01*
X12971Y284078D01*
X12972Y284073D01*
X12976Y284069D01*
Y284068D01*
X13000Y284033D01*
X13028Y284004D01*
X13058Y283979D01*
X13087Y283958D01*
X13113Y283941D01*
X13125Y283937D01*
X13135Y283932D01*
X13143Y283927D01*
X13149Y283923D01*
X13153Y283922D01*
X13154D01*
X13200Y283907D01*
X13250Y283895D01*
X13295Y283887D01*
X13340Y283882D01*
X13359Y283879D01*
X13377D01*
X13394Y283877D01*
X13408Y283876D01*
X13435D01*
X13481Y283877D01*
X13525Y283882D01*
X13566Y283889D01*
X13604Y283895D01*
X13619Y283899D01*
X13633Y283902D01*
X13646Y283905D01*
X13658Y283909D01*
X13666Y283912D01*
X13673Y283914D01*
X13676Y283915D01*
X13678D01*
X13720Y283932D01*
X13756Y283953D01*
X13789Y283976D01*
X13815Y283999D01*
X13837Y284018D01*
X13851Y284035D01*
X13858Y284042D01*
X13861Y284046D01*
X13864Y284050D01*
Y284051D01*
X13878Y284071D01*
X13887Y284091D01*
X13905Y284132D01*
X13919Y284173D01*
X13927Y284210D01*
X13928Y284228D01*
X13932Y284245D01*
X13933Y284260D01*
Y284271D01*
X13935Y284281D01*
Y284289D01*
Y284294D01*
Y284296D01*
X13932Y284342D01*
X13925Y284383D01*
X13915Y284419D01*
X13904Y284450D01*
X13891Y284474D01*
X13886Y284484D01*
X13881Y284492D01*
X13878Y284499D01*
X13874Y284504D01*
X13871Y284506D01*
Y284507D01*
X13858Y284522D01*
X13845Y284537D01*
X13814Y284563D01*
X13781Y284584D01*
X13748Y284602D01*
X13719Y284617D01*
X13705Y284622D01*
X13694Y284627D01*
X13684Y284630D01*
X13678Y284633D01*
X13673Y284635D01*
X13671D01*
X13710Y284799D01*
X13742Y284789D01*
X13773Y284776D01*
X13801Y284763D01*
X13827Y284748D01*
X13850Y284734D01*
X13873Y284719D01*
X13892Y284704D01*
X13910Y284689D01*
X13927Y284675D01*
X13942Y284661D01*
X13953Y284648D01*
X13963Y284638D01*
X13971Y284630D01*
X13976Y284622D01*
X13979Y284619D01*
X13981Y284617D01*
X13997Y284593D01*
X14014Y284566D01*
X14025Y284540D01*
X14037Y284514D01*
X14047Y284486D01*
X14055Y284460D01*
X14066Y284411D01*
X14070Y284387D01*
X14073Y284366D01*
X14074Y284347D01*
X14076Y284330D01*
X14078Y284317D01*
Y284307D01*
Y284301D01*
Y284299D01*
Y284268D01*
X14074Y284238D01*
X14066Y284181D01*
X14053Y284128D01*
X14047Y284105D01*
X14040Y284083D01*
X14032Y284063D01*
X14025Y284045D01*
X14019Y284030D01*
X14012Y284017D01*
X14007Y284007D01*
X14004Y283999D01*
X14002Y283994D01*
X14001Y283992D01*
X13986Y283968D01*
X13969Y283943D01*
X13933Y283900D01*
X13897Y283863D01*
X13861Y283833D01*
X13843Y283820D01*
X13828Y283809D01*
X13814Y283799D01*
X13802Y283792D01*
X13792Y283786D01*
X13784Y283781D01*
X13779Y283779D01*
X13778Y283777D01*
X13750Y283764D01*
X13720Y283753D01*
X13663Y283735D01*
X13605Y283722D01*
X13577Y283717D01*
X13551Y283714D01*
X13527Y283710D01*
X13505Y283707D01*
X13486Y283705D01*
X13468D01*
X13454Y283704D01*
X13435D01*
X13369Y283707D01*
X13305Y283714D01*
X13277Y283718D01*
X13250Y283725D01*
X13223Y283730D01*
X13199Y283736D01*
X13176Y283743D01*
X13156Y283748D01*
X13140Y283754D01*
X13125Y283759D01*
X13113Y283763D01*
X13104Y283766D01*
X13099Y283769D01*
X13097D01*
X13069Y283782D01*
X13041Y283797D01*
X13017Y283812D01*
X12994Y283828D01*
X12971Y283845D01*
X12951Y283861D01*
X12933Y283876D01*
X12918Y283892D01*
X12903Y283907D01*
X12890Y283920D01*
X12880Y283933D01*
X12872Y283943D01*
X12864Y283953D01*
X12859Y283960D01*
X12857Y283963D01*
X12856Y283964D01*
X12841Y283989D01*
X12830Y284015D01*
X12818Y284043D01*
X12808Y284071D01*
X12794Y284127D01*
X12784Y284179D01*
X12780Y284204D01*
X12779Y284225D01*
X12777Y284246D01*
X12776Y284263D01*
X12774Y284278D01*
Y284289D01*
Y284296D01*
Y284297D01*
X12776Y284333D01*
X12779Y284368D01*
X12784Y284401D01*
X12790Y284432D01*
X12799Y284461D01*
X12808Y284489D01*
X12817Y284514D01*
X12828Y284538D01*
X12838Y284558D01*
X12846Y284576D01*
X12856Y284593D01*
X12864Y284606D01*
X12871Y284617D01*
X12876Y284624D01*
X12879Y284629D01*
X12880Y284630D01*
X12902Y284655D01*
X12925Y284678D01*
X12949Y284699D01*
X12976Y284717D01*
X13002Y284735D01*
X13026Y284750D01*
X13053Y284765D01*
X13077Y284776D01*
X13102Y284788D01*
X13123Y284796D01*
X13143Y284804D01*
X13159Y284811D01*
X13174Y284814D01*
X13185Y284817D01*
X13192Y284821D01*
X13194D01*
X13236Y284653D01*
D02*
G37*
G36*
X13543Y286488D02*
X14056Y287018D01*
Y286792D01*
X13431Y286165D01*
X14056D01*
Y285998D01*
X12795D01*
Y286165D01*
X13231D01*
X13430Y286370D01*
X12795Y286820D01*
Y287041D01*
X13543Y286488D01*
D02*
G37*
G36*
X12944Y285186D02*
X14056D01*
Y285019D01*
X12795D01*
Y285806D01*
X12944D01*
Y285186D01*
D02*
G37*
G36*
X-2804Y284922D02*
X-2374D01*
Y285617D01*
X-2225D01*
Y284922D01*
X-1841D01*
Y285665D01*
X-1692D01*
Y284755D01*
X-2953D01*
Y285695D01*
X-2804D01*
Y284922D01*
D02*
G37*
G36*
X-2612Y284373D02*
X-2576Y284348D01*
X-2543Y284324D01*
X-2513Y284301D01*
X-2490Y284279D01*
X-2471Y284260D01*
X-2456Y284246D01*
X-2448Y284237D01*
X-2444Y284235D01*
Y284233D01*
X-2433Y284219D01*
X-2421Y284204D01*
X-2400Y284171D01*
X-2392Y284156D01*
X-2385Y284145D01*
X-2382Y284137D01*
X-2380Y284133D01*
X-2376Y284166D01*
X-2369Y284197D01*
X-2361Y284225D01*
X-2353Y284251D01*
X-2343Y284276D01*
X-2333Y284299D01*
X-2323Y284319D01*
X-2313Y284337D01*
X-2303Y284351D01*
X-2294Y284365D01*
X-2285Y284376D01*
X-2279Y284386D01*
X-2272Y284392D01*
X-2267Y284399D01*
X-2266Y284401D01*
X-2264Y284402D01*
X-2246Y284417D01*
X-2228Y284432D01*
X-2208Y284443D01*
X-2190Y284453D01*
X-2152Y284468D01*
X-2116Y284478D01*
X-2085Y284484D01*
X-2072Y284486D01*
X-2061Y284488D01*
X-2051Y284489D01*
X-2038D01*
X-2000Y284488D01*
X-1964Y284481D01*
X-1931Y284473D01*
X-1903Y284463D01*
X-1880Y284453D01*
X-1862Y284445D01*
X-1856Y284442D01*
X-1851Y284438D01*
X-1849Y284437D01*
X-1847D01*
X-1818Y284415D01*
X-1792Y284392D01*
X-1770Y284369D01*
X-1754Y284347D01*
X-1741Y284327D01*
X-1733Y284310D01*
X-1729Y284304D01*
X-1728Y284299D01*
X-1726Y284297D01*
Y284296D01*
X-1720Y284279D01*
X-1715Y284260D01*
X-1706Y284219D01*
X-1700Y284176D01*
X-1697Y284135D01*
X-1695Y284115D01*
X-1693Y284097D01*
Y284083D01*
X-1692Y284068D01*
Y284056D01*
Y284048D01*
Y284042D01*
Y284040D01*
Y283481D01*
X-2953D01*
Y283648D01*
X-2394D01*
Y283841D01*
Y283864D01*
X-2395Y283882D01*
Y283899D01*
X-2397Y283912D01*
X-2399Y283922D01*
Y283928D01*
X-2400Y283932D01*
Y283933D01*
X-2410Y283961D01*
X-2415Y283974D01*
X-2421Y283986D01*
X-2426Y283996D01*
X-2431Y284002D01*
X-2433Y284007D01*
X-2435Y284009D01*
X-2446Y284023D01*
X-2458Y284038D01*
X-2472Y284053D01*
X-2487Y284066D01*
X-2499Y284078D01*
X-2510Y284086D01*
X-2517Y284092D01*
X-2520Y284094D01*
X-2544Y284114D01*
X-2572Y284133D01*
X-2600Y284153D01*
X-2628Y284173D01*
X-2653Y284189D01*
X-2664Y284197D01*
X-2674Y284204D01*
X-2681Y284209D01*
X-2687Y284212D01*
X-2690Y284215D01*
X-2692D01*
X-2953Y284381D01*
Y284591D01*
X-2612Y284373D01*
D02*
G37*
G36*
X-2561Y286871D02*
X-2528Y286864D01*
X-2497Y286856D01*
X-2471Y286846D01*
X-2449Y286834D01*
X-2433Y286826D01*
X-2428Y286823D01*
X-2423Y286820D01*
X-2421Y286818D01*
X-2420D01*
X-2392Y286797D01*
X-2366Y286770D01*
X-2344Y286744D01*
X-2325Y286718D01*
X-2310Y286693D01*
X-2300Y286674D01*
X-2295Y286666D01*
X-2292Y286661D01*
X-2290Y286657D01*
Y286656D01*
X-2284Y286641D01*
X-2277Y286623D01*
X-2271Y286601D01*
X-2262Y286580D01*
X-2249Y286534D01*
X-2238Y286488D01*
X-2231Y286465D01*
X-2226Y286446D01*
X-2221Y286426D01*
X-2218Y286410D01*
X-2215Y286397D01*
X-2212Y286385D01*
X-2210Y286379D01*
Y286377D01*
X-2202Y286341D01*
X-2193Y286308D01*
X-2185Y286278D01*
X-2177Y286252D01*
X-2169Y286229D01*
X-2162Y286210D01*
X-2154Y286192D01*
X-2148Y286175D01*
X-2143Y286164D01*
X-2138Y286152D01*
X-2133Y286144D01*
X-2128Y286137D01*
X-2126Y286133D01*
X-2123Y286129D01*
X-2121Y286126D01*
X-2103Y286109D01*
X-2085Y286098D01*
X-2067Y286090D01*
X-2049Y286085D01*
X-2033Y286082D01*
X-2021Y286078D01*
X-2010D01*
X-1982Y286082D01*
X-1956Y286090D01*
X-1933Y286100D01*
X-1913Y286113D01*
X-1897Y286126D01*
X-1885Y286136D01*
X-1879Y286144D01*
X-1875Y286147D01*
X-1866Y286160D01*
X-1857Y286177D01*
X-1843Y286211D01*
X-1833Y286247D01*
X-1826Y286283D01*
X-1823Y286316D01*
X-1821Y286329D01*
X-1820Y286342D01*
Y286352D01*
Y286360D01*
Y286365D01*
Y286367D01*
Y286393D01*
X-1823Y286418D01*
X-1825Y286441D01*
X-1829Y286462D01*
X-1834Y286482D01*
X-1839Y286500D01*
X-1844Y286516D01*
X-1849Y286531D01*
X-1856Y286543D01*
X-1861Y286554D01*
X-1866Y286564D01*
X-1870Y286572D01*
X-1875Y286577D01*
X-1877Y286582D01*
X-1880Y286585D01*
X-1905Y286611D01*
X-1934Y286631D01*
X-1964Y286646D01*
X-1992Y286657D01*
X-2018Y286666D01*
X-2029Y286669D01*
X-2039Y286670D01*
X-2048Y286672D01*
X-2054Y286674D01*
X-2059D01*
X-2048Y286834D01*
X-2008Y286831D01*
X-1970Y286823D01*
X-1938Y286813D01*
X-1908Y286802D01*
X-1884Y286790D01*
X-1874Y286785D01*
X-1866Y286782D01*
X-1859Y286777D01*
X-1854Y286775D01*
X-1852Y286772D01*
X-1851D01*
X-1820Y286749D01*
X-1792Y286721D01*
X-1769Y286695D01*
X-1751Y286667D01*
X-1736Y286644D01*
X-1725Y286625D01*
X-1721Y286616D01*
X-1718Y286611D01*
X-1716Y286608D01*
Y286606D01*
X-1702Y286565D01*
X-1690Y286523D01*
X-1682Y286482D01*
X-1675Y286444D01*
X-1674Y286426D01*
X-1672Y286410D01*
Y286397D01*
X-1670Y286383D01*
Y286374D01*
Y286367D01*
Y286362D01*
Y286360D01*
X-1672Y286315D01*
X-1677Y286270D01*
X-1685Y286231D01*
X-1692Y286196D01*
X-1697Y286182D01*
X-1700Y286169D01*
X-1705Y286157D01*
X-1708Y286147D01*
X-1710Y286139D01*
X-1713Y286134D01*
X-1715Y286131D01*
Y286129D01*
X-1733Y286093D01*
X-1752Y286060D01*
X-1774Y286034D01*
X-1793Y286011D01*
X-1811Y285995D01*
X-1828Y285982D01*
X-1838Y285975D01*
X-1839Y285972D01*
X-1841D01*
X-1872Y285954D01*
X-1903Y285941D01*
X-1933Y285931D01*
X-1961Y285924D01*
X-1985Y285921D01*
X-2003Y285919D01*
X-2010Y285918D01*
X-2020D01*
X-2051Y285919D01*
X-2080Y285924D01*
X-2108Y285931D01*
X-2131Y285939D01*
X-2151Y285947D01*
X-2164Y285954D01*
X-2174Y285959D01*
X-2176Y285960D01*
X-2177D01*
X-2202Y285978D01*
X-2225Y286000D01*
X-2244Y286023D01*
X-2261Y286044D01*
X-2276Y286064D01*
X-2285Y286080D01*
X-2289Y286087D01*
X-2292Y286091D01*
X-2294Y286093D01*
Y286095D01*
X-2300Y286109D01*
X-2308Y286126D01*
X-2321Y286162D01*
X-2336Y286203D01*
X-2348Y286242D01*
X-2359Y286280D01*
X-2362Y286295D01*
X-2367Y286310D01*
X-2369Y286321D01*
X-2372Y286329D01*
X-2374Y286336D01*
Y286337D01*
X-2382Y286369D01*
X-2389Y286397D01*
X-2395Y286423D01*
X-2400Y286446D01*
X-2407Y286467D01*
X-2412Y286485D01*
X-2415Y286502D01*
X-2420Y286515D01*
X-2423Y286528D01*
X-2426Y286538D01*
X-2428Y286546D01*
X-2431Y286552D01*
X-2433Y286559D01*
X-2435Y286562D01*
X-2446Y286590D01*
X-2459Y286613D01*
X-2471Y286633D01*
X-2482Y286649D01*
X-2492Y286661D01*
X-2500Y286669D01*
X-2507Y286674D01*
X-2508Y286675D01*
X-2525Y286687D01*
X-2543Y286697D01*
X-2561Y286703D01*
X-2577Y286706D01*
X-2590Y286710D01*
X-2602Y286711D01*
X-2612D01*
X-2633Y286710D01*
X-2653Y286706D01*
X-2671Y286700D01*
X-2687Y286693D01*
X-2700Y286687D01*
X-2712Y286680D01*
X-2718Y286677D01*
X-2720Y286675D01*
X-2738Y286661D01*
X-2753Y286643D01*
X-2766Y286625D01*
X-2777Y286606D01*
X-2786Y286590D01*
X-2792Y286577D01*
X-2795Y286569D01*
X-2797Y286567D01*
Y286565D01*
X-2807Y286538D01*
X-2813Y286510D01*
X-2818Y286480D01*
X-2822Y286456D01*
X-2823Y286433D01*
X-2825Y286415D01*
Y286408D01*
Y286403D01*
Y286400D01*
Y286398D01*
X-2823Y286359D01*
X-2820Y286323D01*
X-2813Y286290D01*
X-2807Y286262D01*
X-2800Y286237D01*
X-2797Y286228D01*
X-2794Y286219D01*
X-2792Y286213D01*
X-2791Y286208D01*
X-2789Y286206D01*
Y286205D01*
X-2774Y286175D01*
X-2758Y286149D01*
X-2741Y286128D01*
X-2725Y286109D01*
X-2712Y286096D01*
X-2700Y286087D01*
X-2694Y286080D01*
X-2690Y286078D01*
X-2666Y286065D01*
X-2640Y286054D01*
X-2613Y286044D01*
X-2589Y286037D01*
X-2566Y286032D01*
X-2549Y286029D01*
X-2543D01*
X-2538Y286028D01*
X-2533D01*
X-2546Y285870D01*
X-2592Y285873D01*
X-2636Y285882D01*
X-2674Y285893D01*
X-2709Y285906D01*
X-2723Y285913D01*
X-2736Y285918D01*
X-2746Y285924D01*
X-2756Y285929D01*
X-2764Y285932D01*
X-2769Y285936D01*
X-2772Y285939D01*
X-2774D01*
X-2809Y285965D01*
X-2840Y285995D01*
X-2866Y286024D01*
X-2887Y286054D01*
X-2904Y286080D01*
X-2910Y286091D01*
X-2915Y286100D01*
X-2920Y286108D01*
X-2923Y286114D01*
X-2925Y286118D01*
Y286119D01*
X-2941Y286165D01*
X-2953Y286213D01*
X-2963Y286262D01*
X-2968Y286306D01*
X-2969Y286328D01*
X-2971Y286346D01*
X-2973Y286364D01*
Y286379D01*
X-2974Y286390D01*
Y286398D01*
Y286405D01*
Y286406D01*
X-2973Y286456D01*
X-2966Y286502D01*
X-2958Y286543D01*
X-2950Y286577D01*
X-2945Y286593D01*
X-2940Y286606D01*
X-2936Y286618D01*
X-2933Y286629D01*
X-2930Y286636D01*
X-2927Y286643D01*
X-2925Y286646D01*
Y286647D01*
X-2905Y286685D01*
X-2882Y286720D01*
X-2859Y286748D01*
X-2838Y286770D01*
X-2818Y286789D01*
X-2802Y286803D01*
X-2795Y286807D01*
X-2791Y286810D01*
X-2789Y286813D01*
X-2787D01*
X-2754Y286833D01*
X-2720Y286847D01*
X-2689Y286857D01*
X-2659Y286866D01*
X-2635Y286869D01*
X-2625Y286871D01*
X-2615D01*
X-2608Y286872D01*
X-2599D01*
X-2561Y286871D01*
D02*
G37*
G36*
X5070Y283963D02*
X6182D01*
Y283795D01*
X4921D01*
Y284583D01*
X5070D01*
Y283963D01*
D02*
G37*
G36*
X5362Y283430D02*
X5333Y283422D01*
X5307Y283413D01*
X5282Y283403D01*
X5257Y283394D01*
X5236Y283382D01*
X5216Y283372D01*
X5198Y283361D01*
X5184Y283349D01*
X5169Y283340D01*
X5157Y283330D01*
X5146Y283320D01*
X5138Y283313D01*
X5131Y283307D01*
X5126Y283302D01*
X5125Y283299D01*
X5123Y283297D01*
X5108Y283279D01*
X5097Y283259D01*
X5085Y283240D01*
X5077Y283218D01*
X5062Y283179D01*
X5052Y283141D01*
X5049Y283125D01*
X5047Y283108D01*
X5046Y283095D01*
X5044Y283082D01*
X5043Y283072D01*
Y283066D01*
Y283061D01*
Y283059D01*
X5046Y283016D01*
X5052Y282977D01*
X5061Y282941D01*
X5072Y282908D01*
X5083Y282882D01*
X5088Y282871D01*
X5092Y282862D01*
X5097Y282854D01*
X5098Y282849D01*
X5102Y282846D01*
Y282844D01*
X5126Y282810D01*
X5154Y282780D01*
X5184Y282756D01*
X5213Y282734D01*
X5239Y282718D01*
X5251Y282713D01*
X5261Y282708D01*
X5269Y282703D01*
X5275Y282700D01*
X5279Y282698D01*
X5280D01*
X5326Y282684D01*
X5376Y282672D01*
X5421Y282664D01*
X5466Y282659D01*
X5485Y282656D01*
X5503D01*
X5520Y282654D01*
X5534Y282652D01*
X5561D01*
X5607Y282654D01*
X5651Y282659D01*
X5692Y282665D01*
X5730Y282672D01*
X5744Y282675D01*
X5759Y282679D01*
X5772Y282682D01*
X5784Y282685D01*
X5792Y282688D01*
X5799Y282690D01*
X5802Y282692D01*
X5804D01*
X5846Y282708D01*
X5882Y282730D01*
X5915Y282752D01*
X5941Y282775D01*
X5963Y282795D01*
X5977Y282811D01*
X5984Y282818D01*
X5987Y282823D01*
X5990Y282826D01*
Y282828D01*
X6004Y282848D01*
X6013Y282867D01*
X6032Y282908D01*
X6045Y282949D01*
X6053Y282987D01*
X6054Y283005D01*
X6058Y283021D01*
X6059Y283036D01*
Y283048D01*
X6061Y283057D01*
Y283066D01*
Y283071D01*
Y283072D01*
X6058Y283118D01*
X6051Y283159D01*
X6041Y283195D01*
X6030Y283226D01*
X6017Y283251D01*
X6012Y283261D01*
X6007Y283269D01*
X6004Y283276D01*
X6000Y283280D01*
X5997Y283282D01*
Y283284D01*
X5984Y283299D01*
X5971Y283313D01*
X5940Y283340D01*
X5907Y283361D01*
X5874Y283379D01*
X5844Y283394D01*
X5831Y283399D01*
X5820Y283403D01*
X5810Y283407D01*
X5804Y283410D01*
X5799Y283412D01*
X5797D01*
X5836Y283576D01*
X5867Y283566D01*
X5899Y283553D01*
X5926Y283540D01*
X5953Y283525D01*
X5976Y283510D01*
X5999Y283495D01*
X6018Y283481D01*
X6036Y283466D01*
X6053Y283451D01*
X6067Y283438D01*
X6079Y283425D01*
X6089Y283415D01*
X6097Y283407D01*
X6102Y283399D01*
X6105Y283395D01*
X6107Y283394D01*
X6123Y283369D01*
X6140Y283343D01*
X6151Y283317D01*
X6163Y283290D01*
X6173Y283262D01*
X6181Y283236D01*
X6192Y283187D01*
X6196Y283164D01*
X6199Y283143D01*
X6200Y283123D01*
X6202Y283107D01*
X6204Y283094D01*
Y283084D01*
Y283077D01*
Y283075D01*
Y283044D01*
X6200Y283015D01*
X6192Y282957D01*
X6179Y282905D01*
X6173Y282882D01*
X6166Y282859D01*
X6158Y282839D01*
X6151Y282821D01*
X6145Y282807D01*
X6138Y282793D01*
X6133Y282784D01*
X6130Y282775D01*
X6128Y282770D01*
X6127Y282769D01*
X6112Y282744D01*
X6095Y282720D01*
X6059Y282677D01*
X6023Y282639D01*
X5987Y282610D01*
X5969Y282597D01*
X5954Y282585D01*
X5940Y282575D01*
X5928Y282569D01*
X5918Y282562D01*
X5910Y282557D01*
X5905Y282556D01*
X5903Y282554D01*
X5876Y282541D01*
X5846Y282529D01*
X5789Y282511D01*
X5731Y282498D01*
X5703Y282493D01*
X5677Y282490D01*
X5653Y282487D01*
X5631Y282484D01*
X5612Y282482D01*
X5594D01*
X5580Y282480D01*
X5561D01*
X5495Y282484D01*
X5431Y282490D01*
X5403Y282495D01*
X5376Y282502D01*
X5349Y282506D01*
X5325Y282513D01*
X5302Y282520D01*
X5282Y282524D01*
X5266Y282531D01*
X5251Y282536D01*
X5239Y282539D01*
X5229Y282542D01*
X5225Y282546D01*
X5223D01*
X5195Y282559D01*
X5167Y282574D01*
X5143Y282588D01*
X5120Y282605D01*
X5097Y282621D01*
X5077Y282638D01*
X5059Y282652D01*
X5044Y282669D01*
X5029Y282684D01*
X5016Y282697D01*
X5006Y282710D01*
X4998Y282720D01*
X4990Y282730D01*
X4985Y282736D01*
X4984Y282739D01*
X4982Y282741D01*
X4967Y282766D01*
X4956Y282792D01*
X4944Y282820D01*
X4934Y282848D01*
X4919Y282903D01*
X4910Y282956D01*
X4906Y282980D01*
X4905Y283002D01*
X4903Y283023D01*
X4902Y283039D01*
X4900Y283054D01*
Y283066D01*
Y283072D01*
Y283074D01*
X4902Y283110D01*
X4905Y283144D01*
X4910Y283177D01*
X4916Y283208D01*
X4924Y283238D01*
X4934Y283266D01*
X4942Y283290D01*
X4954Y283315D01*
X4964Y283335D01*
X4972Y283353D01*
X4982Y283369D01*
X4990Y283382D01*
X4997Y283394D01*
X5001Y283400D01*
X5005Y283405D01*
X5006Y283407D01*
X5028Y283431D01*
X5051Y283454D01*
X5075Y283476D01*
X5102Y283494D01*
X5128Y283512D01*
X5152Y283526D01*
X5179Y283541D01*
X5203Y283553D01*
X5228Y283564D01*
X5249Y283572D01*
X5269Y283581D01*
X5285Y283587D01*
X5300Y283591D01*
X5311Y283594D01*
X5318Y283597D01*
X5320D01*
X5362Y283430D01*
D02*
G37*
G36*
X5618Y336688D02*
X5676Y336681D01*
X5702Y336678D01*
X5726Y336673D01*
X5749Y336668D01*
X5771Y336665D01*
X5790Y336660D01*
X5807Y336655D01*
X5821Y336650D01*
X5835Y336647D01*
X5844Y336643D01*
X5851Y336640D01*
X5856Y336638D01*
X5858D01*
X5905Y336619D01*
X5946Y336594D01*
X5984Y336570D01*
X6015Y336545D01*
X6028Y336534D01*
X6040Y336524D01*
X6050Y336514D01*
X6058Y336506D01*
X6064Y336499D01*
X6069Y336494D01*
X6071Y336491D01*
X6072Y336489D01*
X6095Y336460D01*
X6115Y336429D01*
X6130Y336397D01*
X6143Y336368D01*
X6151Y336343D01*
X6154Y336332D01*
X6158Y336322D01*
X6159Y336315D01*
X6161Y336309D01*
X6163Y336306D01*
Y336304D01*
X6169Y336273D01*
X6174Y336237D01*
X6177Y336199D01*
X6181Y336163D01*
Y336132D01*
X6182Y336117D01*
Y336105D01*
Y336096D01*
Y336087D01*
Y336083D01*
Y336081D01*
Y335646D01*
X4921D01*
Y336101D01*
X4923Y336142D01*
X4924Y336181D01*
X4928Y336215D01*
X4933Y336245D01*
X4936Y336269D01*
X4938Y336279D01*
X4939Y336288D01*
X4941Y336294D01*
Y336299D01*
X4942Y336301D01*
Y336302D01*
X4951Y336333D01*
X4961Y336363D01*
X4972Y336389D01*
X4982Y336411D01*
X4990Y336429D01*
X4998Y336442D01*
X5003Y336450D01*
X5005Y336453D01*
X5023Y336476D01*
X5041Y336499D01*
X5061Y336519D01*
X5079Y336535D01*
X5095Y336550D01*
X5108Y336560D01*
X5116Y336568D01*
X5120Y336570D01*
X5147Y336588D01*
X5179Y336606D01*
X5210Y336620D01*
X5239Y336632D01*
X5264Y336642D01*
X5275Y336645D01*
X5285Y336648D01*
X5292Y336652D01*
X5298Y336653D01*
X5302Y336655D01*
X5303D01*
X5346Y336666D01*
X5390Y336675D01*
X5433Y336681D01*
X5472Y336684D01*
X5490Y336686D01*
X5507Y336688D01*
X5521D01*
X5533Y336689D01*
X5557D01*
X5618Y336688D01*
D02*
G37*
G36*
X29291Y336137D02*
X29804Y336666D01*
Y336440D01*
X29179Y335814D01*
X29804D01*
Y335646D01*
X28543D01*
Y335814D01*
X28980D01*
X29178Y336019D01*
X28543Y336468D01*
Y336689D01*
X29291Y336137D01*
D02*
G37*
G36*
X28984Y335281D02*
X28955Y335272D01*
X28929Y335264D01*
X28904Y335254D01*
X28879Y335244D01*
X28858Y335233D01*
X28838Y335223D01*
X28820Y335212D01*
X28806Y335200D01*
X28791Y335190D01*
X28779Y335181D01*
X28768Y335171D01*
X28760Y335164D01*
X28753Y335158D01*
X28748Y335153D01*
X28747Y335149D01*
X28745Y335148D01*
X28730Y335130D01*
X28719Y335110D01*
X28707Y335090D01*
X28699Y335069D01*
X28684Y335030D01*
X28674Y334992D01*
X28671Y334976D01*
X28670Y334959D01*
X28668Y334946D01*
X28666Y334933D01*
X28665Y334923D01*
Y334916D01*
Y334912D01*
Y334910D01*
X28668Y334867D01*
X28674Y334828D01*
X28683Y334792D01*
X28694Y334759D01*
X28706Y334733D01*
X28710Y334721D01*
X28714Y334713D01*
X28719Y334705D01*
X28720Y334700D01*
X28724Y334697D01*
Y334695D01*
X28748Y334661D01*
X28776Y334631D01*
X28806Y334607D01*
X28835Y334585D01*
X28861Y334569D01*
X28873Y334564D01*
X28883Y334559D01*
X28891Y334554D01*
X28898Y334551D01*
X28901Y334549D01*
X28902D01*
X28948Y334534D01*
X28997Y334523D01*
X29043Y334515D01*
X29088Y334510D01*
X29107Y334507D01*
X29125D01*
X29142Y334505D01*
X29157Y334503D01*
X29183D01*
X29229Y334505D01*
X29273Y334510D01*
X29314Y334516D01*
X29352Y334523D01*
X29366Y334526D01*
X29381Y334529D01*
X29394Y334533D01*
X29406Y334536D01*
X29414Y334539D01*
X29421Y334541D01*
X29424Y334543D01*
X29425D01*
X29468Y334559D01*
X29504Y334580D01*
X29537Y334603D01*
X29563Y334626D01*
X29585Y334646D01*
X29599Y334662D01*
X29606Y334669D01*
X29609Y334674D01*
X29612Y334677D01*
Y334679D01*
X29626Y334698D01*
X29636Y334718D01*
X29653Y334759D01*
X29667Y334800D01*
X29675Y334838D01*
X29676Y334856D01*
X29680Y334872D01*
X29681Y334887D01*
Y334898D01*
X29683Y334908D01*
Y334916D01*
Y334922D01*
Y334923D01*
X29680Y334969D01*
X29673Y335010D01*
X29663Y335046D01*
X29652Y335077D01*
X29639Y335102D01*
X29634Y335112D01*
X29629Y335120D01*
X29626Y335126D01*
X29622Y335131D01*
X29619Y335133D01*
Y335135D01*
X29606Y335149D01*
X29593Y335164D01*
X29562Y335190D01*
X29529Y335212D01*
X29496Y335230D01*
X29467Y335244D01*
X29453Y335249D01*
X29442Y335254D01*
X29432Y335258D01*
X29425Y335261D01*
X29421Y335263D01*
X29419D01*
X29458Y335427D01*
X29489Y335417D01*
X29521Y335404D01*
X29548Y335390D01*
X29575Y335376D01*
X29598Y335361D01*
X29621Y335346D01*
X29640Y335331D01*
X29658Y335317D01*
X29675Y335302D01*
X29690Y335289D01*
X29701Y335276D01*
X29711Y335266D01*
X29719Y335258D01*
X29724Y335249D01*
X29727Y335246D01*
X29729Y335244D01*
X29745Y335220D01*
X29762Y335194D01*
X29773Y335168D01*
X29785Y335141D01*
X29794Y335113D01*
X29803Y335087D01*
X29814Y335038D01*
X29818Y335015D01*
X29821Y334994D01*
X29822Y334974D01*
X29824Y334958D01*
X29826Y334944D01*
Y334935D01*
Y334928D01*
Y334926D01*
Y334895D01*
X29822Y334866D01*
X29814Y334808D01*
X29801Y334756D01*
X29794Y334733D01*
X29788Y334710D01*
X29780Y334690D01*
X29773Y334672D01*
X29767Y334657D01*
X29760Y334644D01*
X29755Y334634D01*
X29752Y334626D01*
X29750Y334621D01*
X29749Y334620D01*
X29734Y334595D01*
X29717Y334571D01*
X29681Y334528D01*
X29645Y334490D01*
X29609Y334461D01*
X29591Y334448D01*
X29576Y334436D01*
X29562Y334426D01*
X29550Y334420D01*
X29540Y334413D01*
X29532Y334408D01*
X29527Y334406D01*
X29526Y334405D01*
X29498Y334392D01*
X29468Y334380D01*
X29411Y334362D01*
X29353Y334349D01*
X29326Y334344D01*
X29299Y334341D01*
X29275Y334338D01*
X29253Y334334D01*
X29234Y334333D01*
X29216D01*
X29202Y334331D01*
X29183D01*
X29117Y334334D01*
X29053Y334341D01*
X29025Y334346D01*
X28997Y334352D01*
X28971Y334357D01*
X28947Y334364D01*
X28924Y334370D01*
X28904Y334375D01*
X28888Y334382D01*
X28873Y334387D01*
X28861Y334390D01*
X28852Y334393D01*
X28847Y334397D01*
X28845D01*
X28817Y334410D01*
X28789Y334424D01*
X28765Y334439D01*
X28742Y334456D01*
X28719Y334472D01*
X28699Y334489D01*
X28681Y334503D01*
X28666Y334520D01*
X28651Y334534D01*
X28638Y334547D01*
X28629Y334561D01*
X28620Y334571D01*
X28612Y334580D01*
X28607Y334587D01*
X28605Y334590D01*
X28604Y334592D01*
X28589Y334616D01*
X28578Y334643D01*
X28566Y334670D01*
X28556Y334698D01*
X28542Y334754D01*
X28532Y334807D01*
X28528Y334831D01*
X28527Y334853D01*
X28525Y334874D01*
X28523Y334890D01*
X28522Y334905D01*
Y334916D01*
Y334923D01*
Y334925D01*
X28523Y334961D01*
X28527Y334995D01*
X28532Y335028D01*
X28538Y335059D01*
X28547Y335089D01*
X28556Y335117D01*
X28565Y335141D01*
X28576Y335166D01*
X28586Y335186D01*
X28594Y335204D01*
X28604Y335220D01*
X28612Y335233D01*
X28619Y335244D01*
X28624Y335251D01*
X28627Y335256D01*
X28629Y335258D01*
X28650Y335282D01*
X28673Y335305D01*
X28697Y335327D01*
X28724Y335345D01*
X28750Y335363D01*
X28774Y335377D01*
X28801Y335392D01*
X28825Y335404D01*
X28850Y335415D01*
X28871Y335423D01*
X28891Y335432D01*
X28907Y335438D01*
X28922Y335441D01*
X28934Y335445D01*
X28940Y335448D01*
X28942D01*
X28984Y335281D01*
D02*
G37*
G36*
X21061Y334992D02*
X21094Y334985D01*
X21125Y334977D01*
X21151Y334967D01*
X21173Y334956D01*
X21189Y334948D01*
X21194Y334944D01*
X21199Y334941D01*
X21201Y334940D01*
X21202D01*
X21230Y334918D01*
X21256Y334892D01*
X21278Y334866D01*
X21297Y334839D01*
X21312Y334815D01*
X21322Y334795D01*
X21327Y334787D01*
X21330Y334782D01*
X21332Y334779D01*
Y334777D01*
X21338Y334762D01*
X21345Y334744D01*
X21351Y334723D01*
X21360Y334702D01*
X21373Y334656D01*
X21384Y334610D01*
X21391Y334587D01*
X21396Y334567D01*
X21401Y334547D01*
X21404Y334531D01*
X21407Y334518D01*
X21410Y334507D01*
X21412Y334500D01*
Y334498D01*
X21420Y334462D01*
X21429Y334429D01*
X21437Y334400D01*
X21445Y334374D01*
X21453Y334351D01*
X21460Y334331D01*
X21468Y334313D01*
X21474Y334297D01*
X21479Y334285D01*
X21484Y334274D01*
X21489Y334265D01*
X21494Y334259D01*
X21496Y334254D01*
X21499Y334251D01*
X21501Y334247D01*
X21519Y334231D01*
X21537Y334220D01*
X21555Y334211D01*
X21573Y334206D01*
X21589Y334203D01*
X21601Y334200D01*
X21612D01*
X21640Y334203D01*
X21666Y334211D01*
X21689Y334221D01*
X21709Y334234D01*
X21725Y334247D01*
X21737Y334257D01*
X21743Y334265D01*
X21747Y334269D01*
X21757Y334282D01*
X21765Y334298D01*
X21779Y334333D01*
X21789Y334369D01*
X21796Y334405D01*
X21799Y334438D01*
X21801Y334451D01*
X21802Y334464D01*
Y334474D01*
Y334482D01*
Y334487D01*
Y334489D01*
Y334515D01*
X21799Y334539D01*
X21798Y334562D01*
X21793Y334584D01*
X21788Y334603D01*
X21783Y334621D01*
X21778Y334638D01*
X21773Y334652D01*
X21766Y334664D01*
X21761Y334676D01*
X21757Y334685D01*
X21752Y334694D01*
X21747Y334698D01*
X21745Y334703D01*
X21742Y334707D01*
X21717Y334733D01*
X21688Y334752D01*
X21658Y334767D01*
X21630Y334779D01*
X21604Y334787D01*
X21592Y334790D01*
X21583Y334792D01*
X21575Y334793D01*
X21568Y334795D01*
X21563D01*
X21575Y334956D01*
X21614Y334953D01*
X21652Y334944D01*
X21684Y334935D01*
X21714Y334923D01*
X21738Y334912D01*
X21748Y334907D01*
X21757Y334903D01*
X21763Y334898D01*
X21768Y334897D01*
X21770Y334894D01*
X21771D01*
X21802Y334871D01*
X21830Y334843D01*
X21853Y334817D01*
X21871Y334789D01*
X21886Y334766D01*
X21898Y334746D01*
X21901Y334738D01*
X21904Y334733D01*
X21906Y334730D01*
Y334728D01*
X21921Y334687D01*
X21932Y334644D01*
X21940Y334603D01*
X21947Y334566D01*
X21948Y334547D01*
X21950Y334531D01*
Y334518D01*
X21952Y334505D01*
Y334495D01*
Y334489D01*
Y334484D01*
Y334482D01*
X21950Y334436D01*
X21945Y334392D01*
X21937Y334352D01*
X21930Y334318D01*
X21925Y334303D01*
X21922Y334290D01*
X21917Y334279D01*
X21914Y334269D01*
X21912Y334261D01*
X21909Y334256D01*
X21907Y334252D01*
Y334251D01*
X21889Y334215D01*
X21870Y334182D01*
X21848Y334156D01*
X21829Y334133D01*
X21811Y334116D01*
X21794Y334103D01*
X21784Y334097D01*
X21783Y334093D01*
X21781D01*
X21750Y334075D01*
X21719Y334062D01*
X21689Y334052D01*
X21661Y334046D01*
X21637Y334042D01*
X21619Y334041D01*
X21612Y334039D01*
X21602D01*
X21571Y334041D01*
X21542Y334046D01*
X21514Y334052D01*
X21491Y334060D01*
X21471Y334069D01*
X21458Y334075D01*
X21448Y334080D01*
X21447Y334082D01*
X21445D01*
X21420Y334100D01*
X21397Y334121D01*
X21378Y334144D01*
X21361Y334165D01*
X21347Y334185D01*
X21337Y334202D01*
X21333Y334208D01*
X21330Y334213D01*
X21328Y334215D01*
Y334216D01*
X21322Y334231D01*
X21314Y334247D01*
X21301Y334283D01*
X21286Y334325D01*
X21274Y334364D01*
X21263Y334402D01*
X21260Y334416D01*
X21255Y334431D01*
X21253Y334443D01*
X21250Y334451D01*
X21248Y334457D01*
Y334459D01*
X21240Y334490D01*
X21233Y334518D01*
X21227Y334544D01*
X21222Y334567D01*
X21215Y334589D01*
X21210Y334607D01*
X21207Y334623D01*
X21202Y334636D01*
X21199Y334649D01*
X21196Y334659D01*
X21194Y334667D01*
X21191Y334674D01*
X21189Y334680D01*
X21187Y334684D01*
X21176Y334712D01*
X21163Y334735D01*
X21151Y334754D01*
X21140Y334771D01*
X21130Y334782D01*
X21122Y334790D01*
X21115Y334795D01*
X21114Y334797D01*
X21097Y334808D01*
X21079Y334818D01*
X21061Y334825D01*
X21045Y334828D01*
X21032Y334831D01*
X21020Y334833D01*
X21010D01*
X20989Y334831D01*
X20969Y334828D01*
X20951Y334821D01*
X20935Y334815D01*
X20922Y334808D01*
X20910Y334802D01*
X20904Y334799D01*
X20902Y334797D01*
X20884Y334782D01*
X20869Y334764D01*
X20856Y334746D01*
X20845Y334728D01*
X20836Y334712D01*
X20830Y334698D01*
X20827Y334690D01*
X20825Y334689D01*
Y334687D01*
X20815Y334659D01*
X20809Y334631D01*
X20804Y334602D01*
X20800Y334577D01*
X20799Y334554D01*
X20797Y334536D01*
Y334529D01*
Y334525D01*
Y334521D01*
Y334520D01*
X20799Y334480D01*
X20802Y334444D01*
X20809Y334411D01*
X20815Y334384D01*
X20822Y334359D01*
X20825Y334349D01*
X20828Y334341D01*
X20830Y334334D01*
X20832Y334329D01*
X20833Y334328D01*
Y334326D01*
X20848Y334297D01*
X20864Y334270D01*
X20881Y334249D01*
X20897Y334231D01*
X20910Y334218D01*
X20922Y334208D01*
X20928Y334202D01*
X20932Y334200D01*
X20956Y334187D01*
X20982Y334175D01*
X21009Y334165D01*
X21033Y334159D01*
X21056Y334154D01*
X21073Y334151D01*
X21079D01*
X21084Y334149D01*
X21089D01*
X21076Y333992D01*
X21030Y333995D01*
X20986Y334003D01*
X20948Y334015D01*
X20914Y334028D01*
X20899Y334034D01*
X20886Y334039D01*
X20876Y334046D01*
X20866Y334051D01*
X20858Y334054D01*
X20853Y334057D01*
X20850Y334060D01*
X20848D01*
X20813Y334087D01*
X20782Y334116D01*
X20756Y334146D01*
X20735Y334175D01*
X20718Y334202D01*
X20712Y334213D01*
X20707Y334221D01*
X20702Y334229D01*
X20699Y334236D01*
X20697Y334239D01*
Y334241D01*
X20681Y334287D01*
X20669Y334334D01*
X20659Y334384D01*
X20654Y334428D01*
X20653Y334449D01*
X20651Y334467D01*
X20650Y334485D01*
Y334500D01*
X20648Y334511D01*
Y334520D01*
Y334526D01*
Y334528D01*
X20650Y334577D01*
X20656Y334623D01*
X20664Y334664D01*
X20673Y334698D01*
X20677Y334715D01*
X20682Y334728D01*
X20686Y334739D01*
X20689Y334751D01*
X20692Y334757D01*
X20695Y334764D01*
X20697Y334767D01*
Y334769D01*
X20717Y334807D01*
X20740Y334841D01*
X20763Y334869D01*
X20784Y334892D01*
X20804Y334910D01*
X20820Y334925D01*
X20827Y334928D01*
X20832Y334931D01*
X20833Y334935D01*
X20835D01*
X20868Y334954D01*
X20902Y334969D01*
X20933Y334979D01*
X20963Y334987D01*
X20987Y334990D01*
X20997Y334992D01*
X21007D01*
X21014Y334994D01*
X21023D01*
X21061Y334992D01*
D02*
G37*
G36*
X21930Y336522D02*
X20669D01*
Y336689D01*
X21930D01*
Y336522D01*
D02*
G37*
G36*
X21366Y336263D02*
X21424Y336256D01*
X21450Y336253D01*
X21474Y336248D01*
X21497Y336243D01*
X21519Y336240D01*
X21538Y336235D01*
X21555Y336230D01*
X21570Y336225D01*
X21583Y336222D01*
X21592Y336219D01*
X21599Y336215D01*
X21604Y336214D01*
X21606D01*
X21653Y336194D01*
X21694Y336170D01*
X21732Y336145D01*
X21763Y336120D01*
X21776Y336109D01*
X21788Y336099D01*
X21798Y336089D01*
X21806Y336081D01*
X21812Y336074D01*
X21817Y336069D01*
X21819Y336066D01*
X21821Y336065D01*
X21843Y336035D01*
X21863Y336004D01*
X21878Y335973D01*
X21891Y335943D01*
X21899Y335919D01*
X21903Y335907D01*
X21906Y335897D01*
X21907Y335891D01*
X21909Y335884D01*
X21911Y335881D01*
Y335879D01*
X21917Y335848D01*
X21922Y335812D01*
X21925Y335774D01*
X21929Y335738D01*
Y335707D01*
X21930Y335692D01*
Y335681D01*
Y335671D01*
Y335663D01*
Y335658D01*
Y335656D01*
Y335222D01*
X20669D01*
Y335676D01*
X20671Y335717D01*
X20673Y335756D01*
X20676Y335791D01*
X20681Y335820D01*
X20684Y335845D01*
X20686Y335855D01*
X20687Y335863D01*
X20689Y335869D01*
Y335874D01*
X20691Y335876D01*
Y335878D01*
X20699Y335909D01*
X20709Y335938D01*
X20720Y335964D01*
X20730Y335986D01*
X20738Y336004D01*
X20746Y336017D01*
X20751Y336025D01*
X20753Y336029D01*
X20771Y336051D01*
X20789Y336074D01*
X20809Y336094D01*
X20827Y336110D01*
X20843Y336125D01*
X20856Y336135D01*
X20864Y336143D01*
X20868Y336145D01*
X20896Y336163D01*
X20927Y336181D01*
X20958Y336196D01*
X20987Y336207D01*
X21012Y336217D01*
X21023Y336220D01*
X21033Y336224D01*
X21040Y336227D01*
X21046Y336228D01*
X21050Y336230D01*
X21051D01*
X21094Y336242D01*
X21138Y336250D01*
X21181Y336256D01*
X21220Y336260D01*
X21238Y336261D01*
X21255Y336263D01*
X21269D01*
X21281Y336265D01*
X21305D01*
X21366Y336263D01*
D02*
G37*
G36*
X36809Y334505D02*
X36842Y334498D01*
X36873Y334490D01*
X36899Y334480D01*
X36921Y334469D01*
X36937Y334461D01*
X36942Y334457D01*
X36947Y334454D01*
X36949Y334452D01*
X36950D01*
X36978Y334431D01*
X37004Y334405D01*
X37026Y334379D01*
X37045Y334352D01*
X37060Y334328D01*
X37070Y334308D01*
X37075Y334300D01*
X37078Y334295D01*
X37080Y334292D01*
Y334290D01*
X37086Y334275D01*
X37093Y334257D01*
X37099Y334236D01*
X37108Y334215D01*
X37121Y334169D01*
X37132Y334123D01*
X37139Y334100D01*
X37144Y334080D01*
X37149Y334060D01*
X37152Y334044D01*
X37155Y334031D01*
X37159Y334019D01*
X37160Y334013D01*
Y334011D01*
X37168Y333975D01*
X37176Y333942D01*
X37185Y333913D01*
X37193Y333887D01*
X37201Y333864D01*
X37208Y333844D01*
X37216Y333826D01*
X37222Y333809D01*
X37227Y333798D01*
X37232Y333787D01*
X37237Y333778D01*
X37242Y333772D01*
X37244Y333767D01*
X37247Y333764D01*
X37249Y333760D01*
X37267Y333744D01*
X37285Y333733D01*
X37303Y333724D01*
X37321Y333719D01*
X37337Y333716D01*
X37349Y333713D01*
X37360D01*
X37388Y333716D01*
X37414Y333724D01*
X37437Y333734D01*
X37457Y333747D01*
X37473Y333760D01*
X37485Y333770D01*
X37491Y333778D01*
X37495Y333782D01*
X37505Y333795D01*
X37513Y333811D01*
X37527Y333846D01*
X37537Y333882D01*
X37544Y333918D01*
X37547Y333951D01*
X37549Y333964D01*
X37551Y333977D01*
Y333987D01*
Y333995D01*
Y334000D01*
Y334001D01*
Y334028D01*
X37547Y334052D01*
X37545Y334075D01*
X37541Y334097D01*
X37536Y334116D01*
X37531Y334134D01*
X37526Y334151D01*
X37521Y334165D01*
X37514Y334177D01*
X37510Y334188D01*
X37505Y334198D01*
X37500Y334206D01*
X37495Y334211D01*
X37493Y334216D01*
X37490Y334220D01*
X37465Y334246D01*
X37436Y334265D01*
X37406Y334280D01*
X37378Y334292D01*
X37352Y334300D01*
X37341Y334303D01*
X37331Y334305D01*
X37323Y334306D01*
X37316Y334308D01*
X37311D01*
X37323Y334469D01*
X37362Y334466D01*
X37400Y334457D01*
X37432Y334448D01*
X37462Y334436D01*
X37486Y334424D01*
X37496Y334420D01*
X37505Y334416D01*
X37511Y334411D01*
X37516Y334410D01*
X37518Y334406D01*
X37519D01*
X37551Y334384D01*
X37578Y334356D01*
X37601Y334329D01*
X37619Y334301D01*
X37634Y334279D01*
X37646Y334259D01*
X37649Y334251D01*
X37652Y334246D01*
X37654Y334243D01*
Y334241D01*
X37668Y334200D01*
X37680Y334157D01*
X37688Y334116D01*
X37695Y334079D01*
X37696Y334060D01*
X37698Y334044D01*
Y334031D01*
X37700Y334018D01*
Y334008D01*
Y334001D01*
Y333997D01*
Y333995D01*
X37698Y333949D01*
X37693Y333905D01*
X37685Y333865D01*
X37678Y333831D01*
X37674Y333816D01*
X37670Y333803D01*
X37665Y333791D01*
X37662Y333782D01*
X37660Y333773D01*
X37657Y333769D01*
X37655Y333765D01*
Y333764D01*
X37637Y333728D01*
X37618Y333695D01*
X37596Y333668D01*
X37577Y333646D01*
X37559Y333629D01*
X37542Y333616D01*
X37532Y333610D01*
X37531Y333606D01*
X37529D01*
X37498Y333588D01*
X37467Y333575D01*
X37437Y333565D01*
X37409Y333559D01*
X37385Y333555D01*
X37367Y333554D01*
X37360Y333552D01*
X37350D01*
X37319Y333554D01*
X37290Y333559D01*
X37262Y333565D01*
X37239Y333573D01*
X37219Y333582D01*
X37206Y333588D01*
X37196Y333593D01*
X37195Y333595D01*
X37193D01*
X37168Y333613D01*
X37145Y333634D01*
X37126Y333657D01*
X37109Y333678D01*
X37095Y333698D01*
X37085Y333714D01*
X37081Y333721D01*
X37078Y333726D01*
X37077Y333728D01*
Y333729D01*
X37070Y333744D01*
X37062Y333760D01*
X37049Y333796D01*
X37034Y333837D01*
X37022Y333877D01*
X37011Y333914D01*
X37008Y333929D01*
X37003Y333944D01*
X37001Y333956D01*
X36998Y333964D01*
X36996Y333970D01*
Y333972D01*
X36988Y334003D01*
X36981Y334031D01*
X36975Y334057D01*
X36970Y334080D01*
X36963Y334102D01*
X36958Y334120D01*
X36955Y334136D01*
X36950Y334149D01*
X36947Y334162D01*
X36944Y334172D01*
X36942Y334180D01*
X36939Y334187D01*
X36937Y334193D01*
X36935Y334197D01*
X36924Y334224D01*
X36911Y334247D01*
X36899Y334267D01*
X36888Y334283D01*
X36878Y334295D01*
X36870Y334303D01*
X36863Y334308D01*
X36862Y334310D01*
X36845Y334321D01*
X36827Y334331D01*
X36809Y334338D01*
X36793Y334341D01*
X36780Y334344D01*
X36768Y334346D01*
X36758D01*
X36737Y334344D01*
X36717Y334341D01*
X36699Y334334D01*
X36683Y334328D01*
X36670Y334321D01*
X36658Y334315D01*
X36652Y334311D01*
X36650Y334310D01*
X36632Y334295D01*
X36617Y334277D01*
X36604Y334259D01*
X36593Y334241D01*
X36584Y334224D01*
X36578Y334211D01*
X36575Y334203D01*
X36573Y334202D01*
Y334200D01*
X36563Y334172D01*
X36557Y334144D01*
X36552Y334115D01*
X36548Y334090D01*
X36547Y334067D01*
X36545Y334049D01*
Y334042D01*
Y334037D01*
Y334034D01*
Y334033D01*
X36547Y333993D01*
X36550Y333957D01*
X36557Y333924D01*
X36563Y333896D01*
X36570Y333872D01*
X36573Y333862D01*
X36576Y333854D01*
X36578Y333847D01*
X36580Y333842D01*
X36581Y333841D01*
Y333839D01*
X36596Y333809D01*
X36612Y333783D01*
X36629Y333762D01*
X36645Y333744D01*
X36658Y333731D01*
X36670Y333721D01*
X36676Y333714D01*
X36680Y333713D01*
X36704Y333700D01*
X36731Y333688D01*
X36757Y333678D01*
X36781Y333672D01*
X36804Y333667D01*
X36821Y333664D01*
X36827D01*
X36832Y333662D01*
X36837D01*
X36824Y333505D01*
X36778Y333508D01*
X36734Y333516D01*
X36696Y333527D01*
X36662Y333541D01*
X36647Y333547D01*
X36634Y333552D01*
X36624Y333559D01*
X36614Y333563D01*
X36606Y333567D01*
X36601Y333570D01*
X36598Y333573D01*
X36596D01*
X36562Y333600D01*
X36530Y333629D01*
X36504Y333659D01*
X36483Y333688D01*
X36466Y333714D01*
X36460Y333726D01*
X36455Y333734D01*
X36450Y333742D01*
X36447Y333749D01*
X36445Y333752D01*
Y333754D01*
X36429Y333800D01*
X36417Y333847D01*
X36407Y333896D01*
X36402Y333941D01*
X36401Y333962D01*
X36399Y333980D01*
X36398Y333998D01*
Y334013D01*
X36396Y334024D01*
Y334033D01*
Y334039D01*
Y334041D01*
X36398Y334090D01*
X36404Y334136D01*
X36412Y334177D01*
X36421Y334211D01*
X36425Y334228D01*
X36430Y334241D01*
X36434Y334252D01*
X36437Y334264D01*
X36440Y334270D01*
X36443Y334277D01*
X36445Y334280D01*
Y334282D01*
X36465Y334320D01*
X36488Y334354D01*
X36511Y334382D01*
X36532Y334405D01*
X36552Y334423D01*
X36568Y334438D01*
X36575Y334441D01*
X36580Y334444D01*
X36581Y334448D01*
X36583D01*
X36616Y334467D01*
X36650Y334482D01*
X36681Y334492D01*
X36711Y334500D01*
X36735Y334503D01*
X36745Y334505D01*
X36755D01*
X36762Y334507D01*
X36772D01*
X36809Y334505D01*
D02*
G37*
G36*
X37047Y333301D02*
X37072Y333299D01*
X37093Y333298D01*
X37108Y333296D01*
X37119Y333295D01*
X37126Y333293D01*
X37127D01*
X37152Y333286D01*
X37173Y333280D01*
X37193Y333272D01*
X37209Y333265D01*
X37224Y333257D01*
X37234Y333250D01*
X37240Y333247D01*
X37242Y333245D01*
X37259Y333231D01*
X37275Y333214D01*
X37288Y333198D01*
X37298Y333181D01*
X37308Y333165D01*
X37314Y333154D01*
X37318Y333145D01*
X37319Y333142D01*
X37329Y333116D01*
X37337Y333090D01*
X37342Y333063D01*
X37347Y333040D01*
X37349Y333019D01*
X37350Y333004D01*
Y332998D01*
Y332993D01*
Y332991D01*
Y332990D01*
X37349Y332955D01*
X37344Y332922D01*
X37337Y332893D01*
X37327Y332865D01*
X37316Y332839D01*
X37303Y332816D01*
X37290Y332794D01*
X37275Y332775D01*
X37260Y332757D01*
X37247Y332742D01*
X37234Y332730D01*
X37222Y332719D01*
X37214Y332711D01*
X37206Y332706D01*
X37201Y332702D01*
X37200Y332701D01*
X37331D01*
Y332561D01*
X36417D01*
Y332716D01*
X36914D01*
X36945Y332717D01*
X36975Y332719D01*
X37001Y332722D01*
X37026Y332727D01*
X37047Y332732D01*
X37067Y332739D01*
X37083Y332745D01*
X37099Y332752D01*
X37113Y332758D01*
X37122Y332763D01*
X37132Y332770D01*
X37139Y332775D01*
X37145Y332780D01*
X37149Y332783D01*
X37152Y332786D01*
X37173Y332814D01*
X37190Y332844D01*
X37201Y332873D01*
X37208Y332899D01*
X37213Y332922D01*
X37214Y332942D01*
X37216Y332948D01*
Y332954D01*
Y332957D01*
Y332958D01*
X37214Y332980D01*
X37211Y333001D01*
X37206Y333019D01*
X37201Y333034D01*
X37196Y333047D01*
X37191Y333057D01*
X37188Y333063D01*
X37186Y333065D01*
X37175Y333081D01*
X37163Y333095D01*
X37150Y333106D01*
X37139Y333114D01*
X37127Y333121D01*
X37119Y333126D01*
X37113Y333129D01*
X37111D01*
X37091Y333136D01*
X37070Y333140D01*
X37047Y333144D01*
X37024Y333147D01*
X37004D01*
X36986Y333149D01*
X36417D01*
Y333303D01*
X37016D01*
X37047Y333301D01*
D02*
G37*
G36*
X36566Y334905D02*
X36996D01*
Y335600D01*
X37145D01*
Y334905D01*
X37529D01*
Y335648D01*
X37678D01*
Y334738D01*
X36417D01*
Y335678D01*
X36566D01*
Y334905D01*
D02*
G37*
G36*
X28935Y334151D02*
X28968Y334144D01*
X28999Y334136D01*
X29025Y334126D01*
X29047Y334115D01*
X29063Y334106D01*
X29068Y334103D01*
X29073Y334100D01*
X29075Y334098D01*
X29076D01*
X29104Y334077D01*
X29130Y334051D01*
X29152Y334024D01*
X29171Y333998D01*
X29186Y333974D01*
X29196Y333954D01*
X29201Y333946D01*
X29204Y333941D01*
X29206Y333937D01*
Y333936D01*
X29212Y333921D01*
X29219Y333903D01*
X29226Y333882D01*
X29234Y333860D01*
X29247Y333814D01*
X29258Y333769D01*
X29265Y333746D01*
X29270Y333726D01*
X29275Y333706D01*
X29278Y333690D01*
X29281Y333677D01*
X29285Y333665D01*
X29286Y333659D01*
Y333657D01*
X29294Y333621D01*
X29302Y333588D01*
X29311Y333559D01*
X29319Y333532D01*
X29327Y333509D01*
X29334Y333490D01*
X29342Y333472D01*
X29348Y333455D01*
X29353Y333444D01*
X29358Y333432D01*
X29363Y333424D01*
X29368Y333418D01*
X29370Y333413D01*
X29373Y333409D01*
X29375Y333406D01*
X29393Y333390D01*
X29411Y333378D01*
X29429Y333370D01*
X29447Y333365D01*
X29463Y333362D01*
X29475Y333359D01*
X29486D01*
X29514Y333362D01*
X29540Y333370D01*
X29563Y333380D01*
X29583Y333393D01*
X29599Y333406D01*
X29611Y333416D01*
X29617Y333424D01*
X29621Y333427D01*
X29631Y333440D01*
X29639Y333457D01*
X29653Y333491D01*
X29663Y333527D01*
X29670Y333563D01*
X29673Y333596D01*
X29675Y333610D01*
X29676Y333623D01*
Y333632D01*
Y333641D01*
Y333646D01*
Y333647D01*
Y333673D01*
X29673Y333698D01*
X29671Y333721D01*
X29667Y333742D01*
X29662Y333762D01*
X29657Y333780D01*
X29652Y333796D01*
X29647Y333811D01*
X29640Y333823D01*
X29636Y333834D01*
X29631Y333844D01*
X29626Y333852D01*
X29621Y333857D01*
X29619Y333862D01*
X29616Y333865D01*
X29591Y333892D01*
X29562Y333911D01*
X29532Y333926D01*
X29504Y333937D01*
X29478Y333946D01*
X29467Y333949D01*
X29457Y333951D01*
X29449Y333952D01*
X29442Y333954D01*
X29437D01*
X29449Y334115D01*
X29488Y334111D01*
X29526Y334103D01*
X29558Y334093D01*
X29588Y334082D01*
X29612Y334070D01*
X29622Y334065D01*
X29631Y334062D01*
X29637Y334057D01*
X29642Y334055D01*
X29644Y334052D01*
X29645D01*
X29676Y334029D01*
X29704Y334001D01*
X29727Y333975D01*
X29745Y333947D01*
X29760Y333924D01*
X29772Y333905D01*
X29775Y333896D01*
X29778Y333892D01*
X29780Y333888D01*
Y333887D01*
X29794Y333846D01*
X29806Y333803D01*
X29814Y333762D01*
X29821Y333724D01*
X29822Y333706D01*
X29824Y333690D01*
Y333677D01*
X29826Y333664D01*
Y333654D01*
Y333647D01*
Y333642D01*
Y333641D01*
X29824Y333595D01*
X29819Y333550D01*
X29811Y333511D01*
X29804Y333477D01*
X29800Y333462D01*
X29796Y333449D01*
X29791Y333437D01*
X29788Y333427D01*
X29786Y333419D01*
X29783Y333414D01*
X29781Y333411D01*
Y333409D01*
X29763Y333373D01*
X29744Y333341D01*
X29722Y333314D01*
X29703Y333291D01*
X29685Y333275D01*
X29668Y333262D01*
X29658Y333255D01*
X29657Y333252D01*
X29655D01*
X29624Y333234D01*
X29593Y333221D01*
X29563Y333211D01*
X29535Y333204D01*
X29511Y333201D01*
X29493Y333199D01*
X29486Y333198D01*
X29476D01*
X29445Y333199D01*
X29416Y333204D01*
X29388Y333211D01*
X29365Y333219D01*
X29345Y333227D01*
X29332Y333234D01*
X29322Y333239D01*
X29321Y333241D01*
X29319D01*
X29294Y333259D01*
X29271Y333280D01*
X29252Y333303D01*
X29235Y333324D01*
X29221Y333344D01*
X29211Y333360D01*
X29207Y333367D01*
X29204Y333372D01*
X29202Y333373D01*
Y333375D01*
X29196Y333390D01*
X29188Y333406D01*
X29175Y333442D01*
X29160Y333483D01*
X29148Y333523D01*
X29137Y333560D01*
X29134Y333575D01*
X29129Y333590D01*
X29127Y333601D01*
X29124Y333610D01*
X29122Y333616D01*
Y333618D01*
X29114Y333649D01*
X29107Y333677D01*
X29101Y333703D01*
X29096Y333726D01*
X29089Y333747D01*
X29084Y333765D01*
X29081Y333782D01*
X29076Y333795D01*
X29073Y333808D01*
X29070Y333818D01*
X29068Y333826D01*
X29065Y333833D01*
X29063Y333839D01*
X29061Y333842D01*
X29050Y333870D01*
X29037Y333893D01*
X29025Y333913D01*
X29014Y333929D01*
X29004Y333941D01*
X28996Y333949D01*
X28989Y333954D01*
X28988Y333956D01*
X28971Y333967D01*
X28953Y333977D01*
X28935Y333983D01*
X28919Y333987D01*
X28906Y333990D01*
X28894Y333992D01*
X28884D01*
X28863Y333990D01*
X28843Y333987D01*
X28825Y333980D01*
X28809Y333974D01*
X28796Y333967D01*
X28784Y333960D01*
X28778Y333957D01*
X28776Y333956D01*
X28758Y333941D01*
X28743Y333923D01*
X28730Y333905D01*
X28719Y333887D01*
X28710Y333870D01*
X28704Y333857D01*
X28701Y333849D01*
X28699Y333847D01*
Y333846D01*
X28689Y333818D01*
X28683Y333790D01*
X28678Y333760D01*
X28674Y333736D01*
X28673Y333713D01*
X28671Y333695D01*
Y333688D01*
Y333683D01*
Y333680D01*
Y333678D01*
X28673Y333639D01*
X28676Y333603D01*
X28683Y333570D01*
X28689Y333542D01*
X28696Y333518D01*
X28699Y333508D01*
X28702Y333500D01*
X28704Y333493D01*
X28706Y333488D01*
X28707Y333487D01*
Y333485D01*
X28722Y333455D01*
X28738Y333429D01*
X28755Y333408D01*
X28771Y333390D01*
X28784Y333377D01*
X28796Y333367D01*
X28802Y333360D01*
X28806Y333359D01*
X28830Y333345D01*
X28857Y333334D01*
X28883Y333324D01*
X28907Y333317D01*
X28930Y333313D01*
X28947Y333309D01*
X28953D01*
X28958Y333308D01*
X28963D01*
X28950Y333150D01*
X28904Y333154D01*
X28860Y333162D01*
X28822Y333173D01*
X28788Y333186D01*
X28773Y333193D01*
X28760Y333198D01*
X28750Y333204D01*
X28740Y333209D01*
X28732Y333213D01*
X28727Y333216D01*
X28724Y333219D01*
X28722D01*
X28688Y333245D01*
X28656Y333275D01*
X28630Y333304D01*
X28609Y333334D01*
X28592Y333360D01*
X28586Y333372D01*
X28581Y333380D01*
X28576Y333388D01*
X28573Y333395D01*
X28571Y333398D01*
Y333400D01*
X28555Y333445D01*
X28543Y333493D01*
X28533Y333542D01*
X28528Y333587D01*
X28527Y333608D01*
X28525Y333626D01*
X28523Y333644D01*
Y333659D01*
X28522Y333670D01*
Y333678D01*
Y333685D01*
Y333686D01*
X28523Y333736D01*
X28530Y333782D01*
X28538Y333823D01*
X28547Y333857D01*
X28551Y333874D01*
X28556Y333887D01*
X28560Y333898D01*
X28563Y333910D01*
X28566Y333916D01*
X28569Y333923D01*
X28571Y333926D01*
Y333928D01*
X28591Y333965D01*
X28614Y334000D01*
X28637Y334028D01*
X28658Y334051D01*
X28678Y334069D01*
X28694Y334083D01*
X28701Y334087D01*
X28706Y334090D01*
X28707Y334093D01*
X28709D01*
X28742Y334113D01*
X28776Y334128D01*
X28807Y334138D01*
X28837Y334146D01*
X28861Y334149D01*
X28871Y334151D01*
X28881D01*
X28888Y334152D01*
X28898D01*
X28935Y334151D01*
D02*
G37*
G36*
X36566Y336069D02*
X37678D01*
Y335902D01*
X36417D01*
Y336689D01*
X36566D01*
Y336069D01*
D02*
G37*
G36*
X13492Y336263D02*
X13550Y336256D01*
X13576Y336253D01*
X13600Y336248D01*
X13623Y336243D01*
X13645Y336240D01*
X13664Y336235D01*
X13681Y336230D01*
X13696Y336225D01*
X13709Y336222D01*
X13719Y336219D01*
X13725Y336215D01*
X13730Y336214D01*
X13732D01*
X13779Y336194D01*
X13820Y336170D01*
X13858Y336145D01*
X13889Y336120D01*
X13902Y336109D01*
X13914Y336099D01*
X13924Y336089D01*
X13932Y336081D01*
X13938Y336074D01*
X13943Y336069D01*
X13945Y336066D01*
X13947Y336065D01*
X13969Y336035D01*
X13989Y336004D01*
X14004Y335973D01*
X14017Y335943D01*
X14025Y335919D01*
X14029Y335907D01*
X14032Y335897D01*
X14033Y335891D01*
X14035Y335884D01*
X14037Y335881D01*
Y335879D01*
X14043Y335848D01*
X14048Y335812D01*
X14051Y335774D01*
X14055Y335738D01*
Y335707D01*
X14056Y335692D01*
Y335681D01*
Y335671D01*
Y335663D01*
Y335658D01*
Y335656D01*
Y335222D01*
X12795D01*
Y335676D01*
X12797Y335717D01*
X12799Y335756D01*
X12802Y335791D01*
X12807Y335820D01*
X12810Y335845D01*
X12812Y335855D01*
X12813Y335863D01*
X12815Y335869D01*
Y335874D01*
X12817Y335876D01*
Y335878D01*
X12825Y335909D01*
X12834Y335938D01*
X12846Y335964D01*
X12856Y335986D01*
X12864Y336004D01*
X12872Y336017D01*
X12877Y336025D01*
X12879Y336029D01*
X12897Y336051D01*
X12915Y336074D01*
X12935Y336094D01*
X12953Y336110D01*
X12969Y336125D01*
X12982Y336135D01*
X12990Y336143D01*
X12994Y336145D01*
X13022Y336163D01*
X13053Y336181D01*
X13084Y336196D01*
X13113Y336207D01*
X13138Y336217D01*
X13149Y336220D01*
X13159Y336224D01*
X13166Y336227D01*
X13172Y336228D01*
X13176Y336230D01*
X13177D01*
X13220Y336242D01*
X13264Y336250D01*
X13307Y336256D01*
X13346Y336260D01*
X13364Y336261D01*
X13381Y336263D01*
X13395D01*
X13407Y336265D01*
X13431D01*
X13492Y336263D01*
D02*
G37*
G36*
X14056Y334903D02*
X13140Y334562D01*
X13102Y334547D01*
X13064Y334534D01*
X13028Y334523D01*
X12997Y334513D01*
X12971Y334505D01*
X12961Y334502D01*
X12951Y334498D01*
X12943Y334497D01*
X12938Y334495D01*
X12935Y334493D01*
X12933D01*
X12969Y334484D01*
X13007Y334472D01*
X13041Y334461D01*
X13072Y334451D01*
X13100Y334441D01*
X13112Y334438D01*
X13122Y334434D01*
X13128Y334431D01*
X13135Y334429D01*
X13138Y334428D01*
X13140D01*
X14056Y334100D01*
Y333918D01*
X12795Y334406D01*
Y334580D01*
X14056Y335072D01*
Y334903D01*
D02*
G37*
G36*
Y336522D02*
X12795D01*
Y336689D01*
X14056D01*
Y336522D01*
D02*
G37*
G36*
X6182Y335205D02*
X5192D01*
X6182Y334543D01*
Y334372D01*
X4921D01*
Y334533D01*
X5910D01*
X4921Y335194D01*
Y335366D01*
X6182D01*
Y335205D01*
D02*
G37*
G36*
X5564Y333593D02*
X5415D01*
Y333964D01*
X5179D01*
X5161Y333941D01*
X5144Y333916D01*
X5129Y333890D01*
X5116Y333865D01*
X5105Y333842D01*
X5097Y333823D01*
X5095Y333816D01*
X5092Y333811D01*
X5090Y333808D01*
Y333806D01*
X5077Y333767D01*
X5067Y333729D01*
X5059Y333695D01*
X5054Y333662D01*
X5051Y333634D01*
Y333623D01*
X5049Y333613D01*
Y333606D01*
Y333600D01*
Y333596D01*
Y333595D01*
X5051Y333549D01*
X5057Y333505D01*
X5065Y333465D01*
X5077Y333431D01*
X5082Y333414D01*
X5087Y333401D01*
X5090Y333388D01*
X5095Y333378D01*
X5098Y333370D01*
X5102Y333364D01*
X5103Y333360D01*
Y333359D01*
X5126Y333319D01*
X5152Y333286D01*
X5182Y333257D01*
X5208Y333234D01*
X5233Y333216D01*
X5244Y333208D01*
X5254Y333203D01*
X5261Y333198D01*
X5267Y333194D01*
X5271Y333191D01*
X5272D01*
X5316Y333172D01*
X5364Y333158D01*
X5412Y333149D01*
X5456Y333140D01*
X5475Y333139D01*
X5495Y333137D01*
X5512Y333136D01*
X5526D01*
X5538Y333134D01*
X5554D01*
X5605Y333136D01*
X5653Y333142D01*
X5695Y333149D01*
X5733Y333158D01*
X5749Y333162D01*
X5764Y333167D01*
X5777Y333170D01*
X5789Y333175D01*
X5797Y333176D01*
X5804Y333180D01*
X5807Y333181D01*
X5808D01*
X5833Y333193D01*
X5858Y333206D01*
X5879Y333219D01*
X5897Y333231D01*
X5912Y333242D01*
X5923Y333252D01*
X5930Y333259D01*
X5933Y333260D01*
X5953Y333280D01*
X5972Y333303D01*
X5987Y333326D01*
X6000Y333347D01*
X6012Y333365D01*
X6018Y333382D01*
X6023Y333391D01*
X6025Y333393D01*
Y333395D01*
X6036Y333427D01*
X6046Y333460D01*
X6053Y333495D01*
X6056Y333526D01*
X6059Y333552D01*
Y333563D01*
X6061Y333573D01*
Y333582D01*
Y333588D01*
Y333591D01*
Y333593D01*
X6059Y333628D01*
X6056Y333660D01*
X6050Y333690D01*
X6045Y333714D01*
X6038Y333736D01*
X6032Y333752D01*
X6028Y333762D01*
X6027Y333764D01*
Y333765D01*
X6013Y333793D01*
X5999Y333818D01*
X5984Y333839D01*
X5971Y333856D01*
X5958Y333869D01*
X5948Y333878D01*
X5941Y333885D01*
X5938Y333887D01*
X5917Y333901D01*
X5892Y333916D01*
X5866Y333928D01*
X5843Y333937D01*
X5820Y333946D01*
X5804Y333952D01*
X5797Y333954D01*
X5792Y333956D01*
X5789Y333957D01*
X5787D01*
X5828Y334108D01*
X5874Y334095D01*
X5915Y334079D01*
X5949Y334064D01*
X5979Y334047D01*
X6004Y334033D01*
X6013Y334028D01*
X6020Y334021D01*
X6027Y334018D01*
X6032Y334015D01*
X6033Y334011D01*
X6035D01*
X6063Y333987D01*
X6087Y333959D01*
X6109Y333929D01*
X6127Y333901D01*
X6140Y333877D01*
X6145Y333867D01*
X6149Y333857D01*
X6153Y333849D01*
X6156Y333844D01*
X6158Y333841D01*
Y333839D01*
X6173Y333796D01*
X6184Y333754D01*
X6192Y333713D01*
X6199Y333673D01*
X6200Y333657D01*
X6202Y333641D01*
Y333628D01*
X6204Y333614D01*
Y333605D01*
Y333598D01*
Y333593D01*
Y333591D01*
X6202Y333557D01*
X6200Y333524D01*
X6192Y333460D01*
X6186Y333431D01*
X6179Y333404D01*
X6173Y333378D01*
X6164Y333355D01*
X6158Y333334D01*
X6149Y333314D01*
X6143Y333298D01*
X6138Y333285D01*
X6132Y333273D01*
X6128Y333265D01*
X6127Y333260D01*
X6125Y333259D01*
X6110Y333232D01*
X6092Y333208D01*
X6056Y333163D01*
X6036Y333144D01*
X6017Y333126D01*
X5997Y333109D01*
X5977Y333095D01*
X5959Y333081D01*
X5943Y333070D01*
X5928Y333060D01*
X5915Y333052D01*
X5903Y333045D01*
X5895Y333040D01*
X5890Y333039D01*
X5889Y333037D01*
X5859Y333024D01*
X5828Y333013D01*
X5767Y332993D01*
X5710Y332980D01*
X5682Y332975D01*
X5658Y332972D01*
X5633Y332968D01*
X5612Y332965D01*
X5592Y332963D01*
X5576D01*
X5562Y332962D01*
X5544D01*
X5510Y332963D01*
X5477Y332965D01*
X5413Y332973D01*
X5384Y332980D01*
X5357Y332986D01*
X5331Y332993D01*
X5307Y333001D01*
X5285Y333008D01*
X5266Y333014D01*
X5249Y333021D01*
X5234Y333027D01*
X5223Y333032D01*
X5215Y333035D01*
X5210Y333039D01*
X5208D01*
X5180Y333053D01*
X5156Y333070D01*
X5131Y333088D01*
X5110Y333108D01*
X5088Y333126D01*
X5070Y333145D01*
X5052Y333163D01*
X5038Y333181D01*
X5024Y333199D01*
X5011Y333214D01*
X5001Y333229D01*
X4993Y333242D01*
X4987Y333252D01*
X4982Y333260D01*
X4980Y333265D01*
X4979Y333267D01*
X4965Y333296D01*
X4952Y333326D01*
X4933Y333383D01*
X4919Y333440D01*
X4915Y333467D01*
X4910Y333493D01*
X4906Y333516D01*
X4905Y333537D01*
X4902Y333557D01*
Y333573D01*
X4900Y333587D01*
Y333596D01*
Y333603D01*
Y333605D01*
X4902Y333655D01*
X4908Y333705D01*
X4916Y333751D01*
X4924Y333791D01*
X4929Y333808D01*
X4934Y333824D01*
X4938Y333839D01*
X4941Y333851D01*
X4944Y333860D01*
X4947Y333867D01*
X4949Y333872D01*
Y333874D01*
X4969Y333923D01*
X4993Y333969D01*
X5016Y334011D01*
X5041Y334051D01*
X5052Y334067D01*
X5062Y334082D01*
X5070Y334095D01*
X5079Y334106D01*
X5085Y334116D01*
X5090Y334123D01*
X5093Y334126D01*
X5095Y334128D01*
X5564D01*
Y333593D01*
D02*
G37*
G36*
X14056Y330749D02*
X12795D01*
Y330917D01*
X14056D01*
Y330749D01*
D02*
G37*
G36*
X13425Y330462D02*
X13450Y330461D01*
X13471Y330459D01*
X13486Y330457D01*
X13497Y330456D01*
X13504Y330454D01*
X13505D01*
X13530Y330448D01*
X13551Y330441D01*
X13571Y330433D01*
X13587Y330426D01*
X13602Y330418D01*
X13612Y330412D01*
X13619Y330408D01*
X13620Y330406D01*
X13636Y330392D01*
X13653Y330375D01*
X13666Y330359D01*
X13676Y330343D01*
X13686Y330326D01*
X13692Y330315D01*
X13696Y330307D01*
X13697Y330303D01*
X13707Y330277D01*
X13715Y330251D01*
X13720Y330224D01*
X13725Y330202D01*
X13727Y330180D01*
X13728Y330166D01*
Y330159D01*
Y330154D01*
Y330152D01*
Y330151D01*
X13727Y330116D01*
X13722Y330083D01*
X13715Y330054D01*
X13705Y330026D01*
X13694Y330000D01*
X13681Y329977D01*
X13668Y329956D01*
X13653Y329936D01*
X13638Y329918D01*
X13625Y329903D01*
X13612Y329892D01*
X13600Y329880D01*
X13592Y329872D01*
X13584Y329867D01*
X13579Y329864D01*
X13577Y329862D01*
X13709D01*
Y329723D01*
X12795D01*
Y329877D01*
X13292D01*
X13323Y329878D01*
X13353Y329880D01*
X13379Y329883D01*
X13404Y329888D01*
X13425Y329893D01*
X13445Y329900D01*
X13461Y329906D01*
X13477Y329913D01*
X13490Y329920D01*
X13500Y329924D01*
X13510Y329931D01*
X13517Y329936D01*
X13523Y329941D01*
X13527Y329944D01*
X13530Y329947D01*
X13551Y329975D01*
X13568Y330005D01*
X13579Y330034D01*
X13586Y330061D01*
X13591Y330083D01*
X13592Y330103D01*
X13594Y330110D01*
Y330115D01*
Y330118D01*
Y330119D01*
X13592Y330141D01*
X13589Y330162D01*
X13584Y330180D01*
X13579Y330195D01*
X13574Y330208D01*
X13569Y330218D01*
X13566Y330224D01*
X13564Y330226D01*
X13553Y330242D01*
X13541Y330256D01*
X13528Y330267D01*
X13517Y330275D01*
X13505Y330282D01*
X13497Y330287D01*
X13490Y330290D01*
X13489D01*
X13469Y330297D01*
X13448Y330302D01*
X13425Y330305D01*
X13402Y330308D01*
X13382D01*
X13364Y330310D01*
X12795D01*
Y330464D01*
X13394D01*
X13425Y330462D01*
D02*
G37*
G36*
X14056Y332042D02*
X13066D01*
X14056Y331379D01*
Y331208D01*
X12795D01*
Y331369D01*
X13784D01*
X12795Y332030D01*
Y332202D01*
X14056D01*
Y332042D01*
D02*
G37*
G36*
X14078Y333788D02*
X12774Y333422D01*
Y333547D01*
X14078Y333913D01*
Y333788D01*
D02*
G37*
G36*
X14056Y332388D02*
X13907D01*
Y332803D01*
X12795D01*
Y332970D01*
X13907D01*
Y333385D01*
X14056D01*
Y332388D01*
D02*
G37*
G36*
X21930Y292558D02*
X20669D01*
Y292725D01*
X21242D01*
Y293317D01*
X21391D01*
Y292725D01*
X21781D01*
Y293409D01*
X21930D01*
Y292558D01*
D02*
G37*
G36*
X21299Y292291D02*
X21324Y292289D01*
X21345Y292287D01*
X21360Y292286D01*
X21371Y292284D01*
X21378Y292283D01*
X21379D01*
X21404Y292276D01*
X21425Y292269D01*
X21445Y292261D01*
X21461Y292255D01*
X21476Y292246D01*
X21486Y292240D01*
X21493Y292237D01*
X21494Y292235D01*
X21510Y292220D01*
X21527Y292204D01*
X21540Y292187D01*
X21550Y292171D01*
X21560Y292155D01*
X21566Y292143D01*
X21570Y292135D01*
X21571Y292132D01*
X21581Y292105D01*
X21589Y292079D01*
X21594Y292053D01*
X21599Y292030D01*
X21601Y292009D01*
X21602Y291994D01*
Y291987D01*
Y291982D01*
Y291981D01*
Y291979D01*
X21601Y291945D01*
X21596Y291912D01*
X21589Y291882D01*
X21579Y291854D01*
X21568Y291828D01*
X21555Y291805D01*
X21542Y291784D01*
X21527Y291764D01*
X21512Y291746D01*
X21499Y291731D01*
X21486Y291720D01*
X21474Y291708D01*
X21466Y291700D01*
X21458Y291695D01*
X21453Y291692D01*
X21452Y291690D01*
X21583D01*
Y291551D01*
X20669D01*
Y291705D01*
X21166D01*
X21197Y291707D01*
X21227Y291708D01*
X21253Y291712D01*
X21278Y291717D01*
X21299Y291722D01*
X21319Y291728D01*
X21335Y291735D01*
X21351Y291741D01*
X21365Y291748D01*
X21374Y291753D01*
X21384Y291759D01*
X21391Y291764D01*
X21397Y291769D01*
X21401Y291772D01*
X21404Y291776D01*
X21425Y291804D01*
X21442Y291833D01*
X21453Y291863D01*
X21460Y291889D01*
X21465Y291912D01*
X21466Y291932D01*
X21468Y291938D01*
Y291943D01*
Y291946D01*
Y291948D01*
X21466Y291969D01*
X21463Y291991D01*
X21458Y292009D01*
X21453Y292023D01*
X21448Y292037D01*
X21443Y292046D01*
X21440Y292053D01*
X21438Y292055D01*
X21427Y292071D01*
X21415Y292084D01*
X21402Y292095D01*
X21391Y292104D01*
X21379Y292110D01*
X21371Y292115D01*
X21365Y292119D01*
X21363D01*
X21343Y292125D01*
X21322Y292130D01*
X21299Y292133D01*
X21276Y292137D01*
X21256D01*
X21238Y292138D01*
X20669D01*
Y292292D01*
X21268D01*
X21299Y292291D01*
D02*
G37*
G36*
X21061Y295646D02*
X21094Y295640D01*
X21125Y295631D01*
X21151Y295621D01*
X21173Y295610D01*
X21189Y295602D01*
X21194Y295599D01*
X21199Y295595D01*
X21201Y295594D01*
X21202D01*
X21230Y295572D01*
X21256Y295546D01*
X21278Y295520D01*
X21297Y295494D01*
X21312Y295469D01*
X21322Y295449D01*
X21327Y295441D01*
X21330Y295436D01*
X21332Y295433D01*
Y295431D01*
X21338Y295416D01*
X21345Y295398D01*
X21351Y295377D01*
X21360Y295356D01*
X21373Y295310D01*
X21384Y295264D01*
X21391Y295241D01*
X21396Y295221D01*
X21401Y295202D01*
X21404Y295185D01*
X21407Y295172D01*
X21410Y295161D01*
X21412Y295154D01*
Y295152D01*
X21420Y295116D01*
X21429Y295084D01*
X21437Y295054D01*
X21445Y295028D01*
X21453Y295005D01*
X21460Y294985D01*
X21468Y294967D01*
X21474Y294951D01*
X21479Y294939D01*
X21484Y294928D01*
X21489Y294920D01*
X21494Y294913D01*
X21496Y294908D01*
X21499Y294905D01*
X21501Y294902D01*
X21519Y294885D01*
X21537Y294874D01*
X21555Y294865D01*
X21573Y294861D01*
X21589Y294857D01*
X21601Y294854D01*
X21612D01*
X21640Y294857D01*
X21666Y294865D01*
X21689Y294875D01*
X21709Y294888D01*
X21725Y294902D01*
X21737Y294911D01*
X21743Y294920D01*
X21747Y294923D01*
X21757Y294936D01*
X21765Y294952D01*
X21779Y294987D01*
X21789Y295023D01*
X21796Y295059D01*
X21799Y295092D01*
X21801Y295105D01*
X21802Y295118D01*
Y295128D01*
Y295136D01*
Y295141D01*
Y295143D01*
Y295169D01*
X21799Y295194D01*
X21798Y295216D01*
X21793Y295238D01*
X21788Y295257D01*
X21783Y295275D01*
X21778Y295292D01*
X21773Y295307D01*
X21766Y295318D01*
X21761Y295330D01*
X21757Y295339D01*
X21752Y295348D01*
X21747Y295353D01*
X21745Y295357D01*
X21742Y295361D01*
X21717Y295387D01*
X21688Y295407D01*
X21658Y295421D01*
X21630Y295433D01*
X21604Y295441D01*
X21592Y295444D01*
X21583Y295446D01*
X21575Y295448D01*
X21568Y295449D01*
X21563D01*
X21575Y295610D01*
X21614Y295607D01*
X21652Y295599D01*
X21684Y295589D01*
X21714Y295577D01*
X21738Y295566D01*
X21748Y295561D01*
X21757Y295558D01*
X21763Y295553D01*
X21768Y295551D01*
X21770Y295548D01*
X21771D01*
X21802Y295525D01*
X21830Y295497D01*
X21853Y295471D01*
X21871Y295443D01*
X21886Y295420D01*
X21898Y295400D01*
X21901Y295392D01*
X21904Y295387D01*
X21906Y295384D01*
Y295382D01*
X21921Y295341D01*
X21932Y295298D01*
X21940Y295257D01*
X21947Y295220D01*
X21948Y295202D01*
X21950Y295185D01*
Y295172D01*
X21952Y295159D01*
Y295149D01*
Y295143D01*
Y295138D01*
Y295136D01*
X21950Y295090D01*
X21945Y295046D01*
X21937Y295006D01*
X21930Y294972D01*
X21925Y294957D01*
X21922Y294944D01*
X21917Y294933D01*
X21914Y294923D01*
X21912Y294915D01*
X21909Y294910D01*
X21907Y294906D01*
Y294905D01*
X21889Y294869D01*
X21870Y294836D01*
X21848Y294810D01*
X21829Y294787D01*
X21811Y294770D01*
X21794Y294757D01*
X21784Y294751D01*
X21783Y294747D01*
X21781D01*
X21750Y294729D01*
X21719Y294716D01*
X21689Y294706D01*
X21661Y294700D01*
X21637Y294697D01*
X21619Y294695D01*
X21612Y294693D01*
X21602D01*
X21571Y294695D01*
X21542Y294700D01*
X21514Y294706D01*
X21491Y294715D01*
X21471Y294723D01*
X21458Y294729D01*
X21448Y294734D01*
X21447Y294736D01*
X21445D01*
X21420Y294754D01*
X21397Y294775D01*
X21378Y294798D01*
X21361Y294820D01*
X21347Y294839D01*
X21337Y294856D01*
X21333Y294862D01*
X21330Y294867D01*
X21328Y294869D01*
Y294870D01*
X21322Y294885D01*
X21314Y294902D01*
X21301Y294938D01*
X21286Y294979D01*
X21274Y295018D01*
X21263Y295056D01*
X21260Y295071D01*
X21255Y295085D01*
X21253Y295097D01*
X21250Y295105D01*
X21248Y295111D01*
Y295113D01*
X21240Y295144D01*
X21233Y295172D01*
X21227Y295198D01*
X21222Y295221D01*
X21215Y295243D01*
X21210Y295261D01*
X21207Y295277D01*
X21202Y295290D01*
X21199Y295303D01*
X21196Y295313D01*
X21194Y295321D01*
X21191Y295328D01*
X21189Y295335D01*
X21187Y295338D01*
X21176Y295366D01*
X21163Y295389D01*
X21151Y295408D01*
X21140Y295425D01*
X21130Y295436D01*
X21122Y295444D01*
X21115Y295449D01*
X21114Y295451D01*
X21097Y295462D01*
X21079Y295472D01*
X21061Y295479D01*
X21045Y295482D01*
X21032Y295485D01*
X21020Y295487D01*
X21010D01*
X20989Y295485D01*
X20969Y295482D01*
X20951Y295476D01*
X20935Y295469D01*
X20922Y295462D01*
X20910Y295456D01*
X20904Y295453D01*
X20902Y295451D01*
X20884Y295436D01*
X20869Y295418D01*
X20856Y295400D01*
X20845Y295382D01*
X20836Y295366D01*
X20830Y295353D01*
X20827Y295344D01*
X20825Y295343D01*
Y295341D01*
X20815Y295313D01*
X20809Y295285D01*
X20804Y295256D01*
X20800Y295231D01*
X20799Y295208D01*
X20797Y295190D01*
Y295184D01*
Y295179D01*
Y295175D01*
Y295174D01*
X20799Y295134D01*
X20802Y295098D01*
X20809Y295066D01*
X20815Y295038D01*
X20822Y295013D01*
X20825Y295003D01*
X20828Y294995D01*
X20830Y294988D01*
X20832Y294984D01*
X20833Y294982D01*
Y294980D01*
X20848Y294951D01*
X20864Y294924D01*
X20881Y294903D01*
X20897Y294885D01*
X20910Y294872D01*
X20922Y294862D01*
X20928Y294856D01*
X20932Y294854D01*
X20956Y294841D01*
X20982Y294829D01*
X21009Y294820D01*
X21033Y294813D01*
X21056Y294808D01*
X21073Y294805D01*
X21079D01*
X21084Y294803D01*
X21089D01*
X21076Y294646D01*
X21030Y294649D01*
X20986Y294657D01*
X20948Y294669D01*
X20914Y294682D01*
X20899Y294688D01*
X20886Y294693D01*
X20876Y294700D01*
X20866Y294705D01*
X20858Y294708D01*
X20853Y294711D01*
X20850Y294715D01*
X20848D01*
X20813Y294741D01*
X20782Y294770D01*
X20756Y294800D01*
X20735Y294829D01*
X20718Y294856D01*
X20712Y294867D01*
X20707Y294875D01*
X20702Y294883D01*
X20699Y294890D01*
X20697Y294893D01*
Y294895D01*
X20681Y294941D01*
X20669Y294988D01*
X20659Y295038D01*
X20654Y295082D01*
X20653Y295103D01*
X20651Y295121D01*
X20650Y295139D01*
Y295154D01*
X20648Y295166D01*
Y295174D01*
Y295180D01*
Y295182D01*
X20650Y295231D01*
X20656Y295277D01*
X20664Y295318D01*
X20673Y295353D01*
X20677Y295369D01*
X20682Y295382D01*
X20686Y295394D01*
X20689Y295405D01*
X20692Y295412D01*
X20695Y295418D01*
X20697Y295421D01*
Y295423D01*
X20717Y295461D01*
X20740Y295495D01*
X20763Y295523D01*
X20784Y295546D01*
X20804Y295564D01*
X20820Y295579D01*
X20827Y295582D01*
X20832Y295585D01*
X20833Y295589D01*
X20835D01*
X20868Y295608D01*
X20902Y295623D01*
X20933Y295633D01*
X20963Y295641D01*
X20987Y295644D01*
X20997Y295646D01*
X21007D01*
X21014Y295648D01*
X21023D01*
X21061Y295646D01*
D02*
G37*
G36*
X21930Y293634D02*
X20669D01*
Y293801D01*
X21242D01*
Y294393D01*
X21391D01*
Y293801D01*
X21781D01*
Y294485D01*
X21930D01*
Y293634D01*
D02*
G37*
G36*
Y288737D02*
X21781D01*
Y289152D01*
X20669D01*
Y289319D01*
X21781D01*
Y289734D01*
X21930D01*
Y288737D01*
D02*
G37*
G36*
Y288182D02*
Y288000D01*
X20669Y287520D01*
Y287695D01*
X21051Y287833D01*
Y288361D01*
X20669Y288507D01*
Y288696D01*
X21930Y288182D01*
D02*
G37*
G36*
X21952Y291312D02*
X20648Y290946D01*
Y291071D01*
X21952Y291436D01*
Y291312D01*
D02*
G37*
G36*
X21930Y290433D02*
Y290250D01*
X20669Y289770D01*
Y289946D01*
X21051Y290083D01*
Y290611D01*
X20669Y290757D01*
Y290946D01*
X21930Y290433D01*
D02*
G37*
G36*
X29173Y283220D02*
X29198Y283218D01*
X29219Y283217D01*
X29234Y283215D01*
X29245Y283213D01*
X29252Y283212D01*
X29253D01*
X29278Y283205D01*
X29299Y283198D01*
X29319Y283190D01*
X29335Y283184D01*
X29350Y283176D01*
X29360Y283169D01*
X29366Y283166D01*
X29368Y283164D01*
X29384Y283149D01*
X29401Y283133D01*
X29414Y283117D01*
X29424Y283100D01*
X29434Y283084D01*
X29440Y283072D01*
X29444Y283064D01*
X29445Y283061D01*
X29455Y283034D01*
X29463Y283008D01*
X29468Y282982D01*
X29473Y282959D01*
X29475Y282938D01*
X29476Y282923D01*
Y282916D01*
Y282911D01*
Y282910D01*
Y282908D01*
X29475Y282874D01*
X29470Y282841D01*
X29463Y282811D01*
X29453Y282784D01*
X29442Y282757D01*
X29429Y282734D01*
X29416Y282713D01*
X29401Y282693D01*
X29386Y282675D01*
X29373Y282661D01*
X29360Y282649D01*
X29348Y282638D01*
X29340Y282629D01*
X29332Y282625D01*
X29327Y282621D01*
X29326Y282620D01*
X29457D01*
Y282480D01*
X28543D01*
Y282634D01*
X29040D01*
X29071Y282636D01*
X29101Y282638D01*
X29127Y282641D01*
X29152Y282646D01*
X29173Y282651D01*
X29193Y282657D01*
X29209Y282664D01*
X29226Y282670D01*
X29239Y282677D01*
X29248Y282682D01*
X29258Y282688D01*
X29265Y282693D01*
X29271Y282698D01*
X29275Y282702D01*
X29278Y282705D01*
X29299Y282733D01*
X29316Y282762D01*
X29327Y282792D01*
X29334Y282818D01*
X29339Y282841D01*
X29340Y282861D01*
X29342Y282867D01*
Y282872D01*
Y282875D01*
Y282877D01*
X29340Y282898D01*
X29337Y282920D01*
X29332Y282938D01*
X29327Y282952D01*
X29322Y282966D01*
X29317Y282976D01*
X29314Y282982D01*
X29312Y282984D01*
X29301Y283000D01*
X29289Y283013D01*
X29276Y283025D01*
X29265Y283033D01*
X29253Y283039D01*
X29245Y283044D01*
X29239Y283048D01*
X29237D01*
X29217Y283054D01*
X29196Y283059D01*
X29173Y283062D01*
X29150Y283066D01*
X29130D01*
X29112Y283067D01*
X28543D01*
Y283222D01*
X29142D01*
X29173Y283220D01*
D02*
G37*
G36*
X37114Y286134D02*
X37178Y286126D01*
X37208Y286121D01*
X37236Y286114D01*
X37262Y286108D01*
X37285Y286101D01*
X37306Y286093D01*
X37326Y286087D01*
X37342Y286080D01*
X37357Y286075D01*
X37368Y286070D01*
X37377Y286067D01*
X37382Y286065D01*
X37383Y286064D01*
X37436Y286032D01*
X37460Y286016D01*
X37483Y286000D01*
X37503Y285982D01*
X37523Y285964D01*
X37541Y285946D01*
X37555Y285929D01*
X37570Y285913D01*
X37582Y285898D01*
X37591Y285883D01*
X37601Y285872D01*
X37608Y285862D01*
X37613Y285855D01*
X37614Y285850D01*
X37616Y285849D01*
X37631Y285823D01*
X37644Y285795D01*
X37655Y285768D01*
X37665Y285740D01*
X37680Y285688D01*
X37690Y285641D01*
X37693Y285617D01*
X37695Y285598D01*
X37696Y285580D01*
X37698Y285565D01*
X37700Y285552D01*
Y285544D01*
Y285537D01*
Y285536D01*
X37698Y285486D01*
X37692Y285440D01*
X37683Y285396D01*
X37672Y285355D01*
X37659Y285316D01*
X37644Y285280D01*
X37628Y285247D01*
X37611Y285217D01*
X37593Y285191D01*
X37578Y285167D01*
X37562Y285147D01*
X37549Y285130D01*
X37537Y285117D01*
X37529Y285107D01*
X37523Y285101D01*
X37521Y285099D01*
X37486Y285070D01*
X37449Y285044D01*
X37409Y285022D01*
X37370Y285002D01*
X37329Y284986D01*
X37288Y284973D01*
X37249Y284962D01*
X37209Y284953D01*
X37173Y284947D01*
X37139Y284940D01*
X37109Y284937D01*
X37083Y284935D01*
X37060Y284934D01*
X37044Y284932D01*
X37031D01*
X36999Y284934D01*
X36970Y284935D01*
X36911Y284944D01*
X36858Y284955D01*
X36834Y284962D01*
X36811Y284968D01*
X36791Y284975D01*
X36772Y284981D01*
X36755Y284988D01*
X36742Y284993D01*
X36731Y284998D01*
X36722Y285001D01*
X36717Y285004D01*
X36716D01*
X36663Y285034D01*
X36616Y285068D01*
X36596Y285085D01*
X36576Y285103D01*
X36558Y285121D01*
X36542Y285137D01*
X36529Y285153D01*
X36516Y285168D01*
X36506Y285181D01*
X36498Y285193D01*
X36489Y285203D01*
X36485Y285209D01*
X36483Y285214D01*
X36481Y285216D01*
X36466Y285242D01*
X36453Y285270D01*
X36442Y285296D01*
X36432Y285324D01*
X36417Y285378D01*
X36407Y285427D01*
X36402Y285450D01*
X36401Y285470D01*
X36399Y285488D01*
X36398Y285504D01*
X36396Y285516D01*
Y285526D01*
Y285532D01*
Y285534D01*
X36398Y285565D01*
X36399Y285595D01*
X36407Y285650D01*
X36421Y285703D01*
X36427Y285726D01*
X36435Y285749D01*
X36442Y285768D01*
X36448Y285786D01*
X36455Y285801D01*
X36461Y285814D01*
X36466Y285824D01*
X36470Y285832D01*
X36473Y285837D01*
Y285839D01*
X36488Y285865D01*
X36504Y285890D01*
X36542Y285934D01*
X36580Y285972D01*
X36598Y285988D01*
X36616Y286003D01*
X36634Y286016D01*
X36648Y286028D01*
X36663Y286036D01*
X36676Y286044D01*
X36686Y286051D01*
X36694Y286055D01*
X36699Y286057D01*
X36701Y286059D01*
X36731Y286072D01*
X36760Y286085D01*
X36819Y286105D01*
X36876Y286118D01*
X36904Y286123D01*
X36931Y286128D01*
X36955Y286131D01*
X36977Y286134D01*
X36996Y286136D01*
X37012D01*
X37027Y286137D01*
X37080D01*
X37114Y286134D01*
D02*
G37*
G36*
Y284752D02*
X37172Y284745D01*
X37198Y284742D01*
X37222Y284737D01*
X37245Y284732D01*
X37267Y284729D01*
X37286Y284724D01*
X37303Y284719D01*
X37318Y284714D01*
X37331Y284711D01*
X37341Y284707D01*
X37347Y284704D01*
X37352Y284702D01*
X37354D01*
X37401Y284683D01*
X37442Y284658D01*
X37480Y284633D01*
X37511Y284609D01*
X37524Y284597D01*
X37536Y284588D01*
X37545Y284578D01*
X37554Y284570D01*
X37560Y284563D01*
X37565Y284558D01*
X37567Y284555D01*
X37569Y284553D01*
X37591Y284524D01*
X37611Y284492D01*
X37626Y284461D01*
X37639Y284432D01*
X37647Y284407D01*
X37650Y284396D01*
X37654Y284386D01*
X37655Y284379D01*
X37657Y284373D01*
X37659Y284369D01*
Y284368D01*
X37665Y284337D01*
X37670Y284301D01*
X37674Y284263D01*
X37677Y284227D01*
Y284196D01*
X37678Y284181D01*
Y284169D01*
Y284160D01*
Y284151D01*
Y284146D01*
Y284145D01*
Y283710D01*
X36417D01*
Y284165D01*
X36419Y284206D01*
X36421Y284245D01*
X36424Y284279D01*
X36429Y284309D01*
X36432Y284333D01*
X36434Y284343D01*
X36435Y284351D01*
X36437Y284358D01*
Y284363D01*
X36439Y284365D01*
Y284366D01*
X36447Y284397D01*
X36457Y284427D01*
X36468Y284453D01*
X36478Y284474D01*
X36486Y284492D01*
X36494Y284506D01*
X36499Y284514D01*
X36501Y284517D01*
X36519Y284540D01*
X36537Y284563D01*
X36557Y284583D01*
X36575Y284599D01*
X36591Y284614D01*
X36604Y284624D01*
X36612Y284632D01*
X36616Y284633D01*
X36643Y284652D01*
X36675Y284670D01*
X36706Y284684D01*
X36735Y284696D01*
X36760Y284706D01*
X36772Y284709D01*
X36781Y284712D01*
X36788Y284716D01*
X36794Y284717D01*
X36798Y284719D01*
X36799D01*
X36842Y284730D01*
X36886Y284738D01*
X36929Y284745D01*
X36968Y284748D01*
X36986Y284750D01*
X37003Y284752D01*
X37018D01*
X37029Y284753D01*
X37054D01*
X37114Y284752D01*
D02*
G37*
G36*
X44037Y347781D02*
Y347691D01*
X44033Y347605D01*
X44025Y347523D01*
X44016Y347445D01*
X44008Y347375D01*
X44000Y347309D01*
X43988Y347252D01*
X43975Y347199D01*
X43967Y347149D01*
X43955Y347109D01*
X43947Y347072D01*
X43934Y347043D01*
X43930Y347018D01*
X43922Y347002D01*
X43918Y346994D01*
Y346990D01*
X43865Y346887D01*
X43803Y346801D01*
X43738Y346723D01*
X43672Y346662D01*
X43611Y346612D01*
X43561Y346580D01*
X43545Y346567D01*
X43529Y346559D01*
X43520Y346551D01*
X43516D01*
X43406Y346502D01*
X43282Y346465D01*
X43164Y346436D01*
X43049Y346420D01*
X42996Y346411D01*
X42946Y346407D01*
X42901Y346403D01*
X42864D01*
X42832Y346399D01*
X42790D01*
X42709Y346403D01*
X42627Y346407D01*
X42553Y346416D01*
X42483Y346428D01*
X42417Y346440D01*
X42360Y346452D01*
X42303Y346469D01*
X42253Y346485D01*
X42208Y346502D01*
X42167Y346518D01*
X42134Y346530D01*
X42106Y346543D01*
X42085Y346555D01*
X42069Y346563D01*
X42061Y346571D01*
X42057D01*
X42007Y346604D01*
X41958Y346641D01*
X41876Y346719D01*
X41811Y346793D01*
X41757Y346867D01*
X41716Y346928D01*
X41700Y346957D01*
X41688Y346981D01*
X41679Y346998D01*
X41671Y347014D01*
X41667Y347022D01*
Y347026D01*
X41647Y347080D01*
X41630Y347137D01*
X41601Y347260D01*
X41585Y347387D01*
X41569Y347510D01*
X41565Y347564D01*
X41561Y347617D01*
Y347662D01*
X41556Y347703D01*
Y347736D01*
Y347760D01*
Y347777D01*
Y347781D01*
Y349605D01*
X41975D01*
Y347785D01*
X41979Y347678D01*
X41983Y347580D01*
X41991Y347490D01*
X42003Y347408D01*
X42020Y347334D01*
X42036Y347268D01*
X42053Y347211D01*
X42073Y347162D01*
X42089Y347117D01*
X42110Y347080D01*
X42126Y347047D01*
X42139Y347022D01*
X42155Y347006D01*
X42163Y346994D01*
X42167Y346986D01*
X42171Y346981D01*
X42212Y346944D01*
X42257Y346916D01*
X42307Y346887D01*
X42356Y346863D01*
X42467Y346826D01*
X42573Y346801D01*
X42622Y346793D01*
X42672Y346789D01*
X42717Y346785D01*
X42754Y346780D01*
X42782Y346776D01*
X42827D01*
X42926Y346780D01*
X43012Y346793D01*
X43090Y346809D01*
X43155Y346830D01*
X43209Y346846D01*
X43250Y346863D01*
X43274Y346875D01*
X43278Y346879D01*
X43282D01*
X43348Y346924D01*
X43401Y346969D01*
X43446Y347022D01*
X43483Y347067D01*
X43512Y347113D01*
X43529Y347145D01*
X43541Y347170D01*
X43545Y347174D01*
Y347178D01*
X43557Y347219D01*
X43569Y347260D01*
X43586Y347355D01*
X43602Y347457D01*
X43611Y347555D01*
Y347601D01*
X43615Y347646D01*
Y347682D01*
X43619Y347719D01*
Y347744D01*
Y347769D01*
Y347781D01*
Y347785D01*
Y349605D01*
X44037D01*
Y347781D01*
D02*
G37*
G36*
X40064Y349614D02*
X40138Y349609D01*
X40203Y349597D01*
X40265Y349581D01*
X40322Y349564D01*
X40380Y349544D01*
X40429Y349519D01*
X40470Y349499D01*
X40511Y349478D01*
X40548Y349454D01*
X40576Y349433D01*
X40601Y349417D01*
X40622Y349400D01*
X40634Y349392D01*
X40642Y349384D01*
X40646Y349380D01*
X40691Y349335D01*
X40728Y349290D01*
X40761Y349240D01*
X40790Y349191D01*
X40810Y349142D01*
X40831Y349093D01*
X40859Y349003D01*
X40880Y348925D01*
X40884Y348888D01*
X40888Y348859D01*
X40892Y348835D01*
Y348818D01*
Y348806D01*
Y348802D01*
X40888Y348720D01*
X40876Y348646D01*
X40855Y348580D01*
X40835Y348523D01*
X40814Y348478D01*
X40794Y348441D01*
X40782Y348421D01*
X40777Y348412D01*
X40728Y348355D01*
X40675Y348302D01*
X40613Y348261D01*
X40556Y348224D01*
X40503Y348195D01*
X40462Y348175D01*
X40445Y348166D01*
X40433Y348162D01*
X40425Y348158D01*
X40421D01*
X40523Y348125D01*
X40609Y348084D01*
X40687Y348035D01*
X40749Y347990D01*
X40798Y347945D01*
X40835Y347908D01*
X40855Y347883D01*
X40863Y347879D01*
Y347875D01*
X40917Y347793D01*
X40954Y347707D01*
X40982Y347625D01*
X40999Y347543D01*
X41011Y347469D01*
X41015Y347441D01*
Y347416D01*
X41019Y347391D01*
Y347375D01*
Y347367D01*
Y347363D01*
X41015Y347289D01*
X41007Y347215D01*
X40995Y347145D01*
X40974Y347080D01*
X40954Y347018D01*
X40929Y346961D01*
X40905Y346912D01*
X40876Y346863D01*
X40851Y346821D01*
X40827Y346785D01*
X40802Y346752D01*
X40782Y346723D01*
X40761Y346703D01*
X40749Y346686D01*
X40740Y346678D01*
X40736Y346674D01*
X40679Y346625D01*
X40622Y346584D01*
X40560Y346547D01*
X40499Y346514D01*
X40433Y346489D01*
X40372Y346465D01*
X40253Y346432D01*
X40195Y346424D01*
X40146Y346416D01*
X40101Y346407D01*
X40060Y346403D01*
X40027Y346399D01*
X39982D01*
X39896Y346403D01*
X39818Y346411D01*
X39740Y346424D01*
X39670Y346444D01*
X39601Y346465D01*
X39539Y346485D01*
X39486Y346510D01*
X39433Y346539D01*
X39388Y346563D01*
X39347Y346588D01*
X39314Y346608D01*
X39285Y346633D01*
X39260Y346649D01*
X39244Y346662D01*
X39236Y346670D01*
X39232Y346674D01*
X39182Y346727D01*
X39137Y346780D01*
X39101Y346838D01*
X39064Y346895D01*
X39039Y346953D01*
X39014Y347010D01*
X38994Y347063D01*
X38982Y347117D01*
X38969Y347166D01*
X38961Y347207D01*
X38953Y347248D01*
X38949Y347285D01*
X38945Y347313D01*
Y347334D01*
Y347346D01*
Y347350D01*
X38953Y347457D01*
X38969Y347555D01*
X38994Y347641D01*
X39018Y347715D01*
X39047Y347773D01*
X39059Y347797D01*
X39072Y347818D01*
X39084Y347834D01*
X39088Y347847D01*
X39096Y347851D01*
Y347855D01*
X39158Y347929D01*
X39228Y347990D01*
X39301Y348043D01*
X39375Y348084D01*
X39441Y348117D01*
X39465Y348129D01*
X39490Y348142D01*
X39511Y348150D01*
X39527Y348154D01*
X39535Y348158D01*
X39539D01*
X39457Y348195D01*
X39388Y348236D01*
X39326Y348277D01*
X39277Y348318D01*
X39240Y348355D01*
X39211Y348384D01*
X39195Y348400D01*
X39191Y348408D01*
X39150Y348474D01*
X39121Y348539D01*
X39101Y348601D01*
X39088Y348662D01*
X39076Y348716D01*
X39072Y348757D01*
Y348773D01*
Y348785D01*
Y348790D01*
Y348794D01*
X39076Y348855D01*
X39084Y348917D01*
X39096Y348974D01*
X39113Y349031D01*
X39154Y349130D01*
X39199Y349216D01*
X39224Y349249D01*
X39244Y349282D01*
X39269Y349310D01*
X39285Y349335D01*
X39301Y349351D01*
X39314Y349363D01*
X39322Y349372D01*
X39326Y349376D01*
X39375Y349417D01*
X39424Y349458D01*
X39482Y349486D01*
X39535Y349515D01*
X39592Y349540D01*
X39646Y349560D01*
X39752Y349589D01*
X39802Y349597D01*
X39847Y349605D01*
X39888Y349609D01*
X39920Y349614D01*
X39949Y349618D01*
X39990D01*
X40064Y349614D01*
D02*
G37*
G36*
X28884Y284861D02*
X28920Y284837D01*
X28953Y284812D01*
X28983Y284789D01*
X29006Y284768D01*
X29025Y284748D01*
X29040Y284735D01*
X29048Y284725D01*
X29052Y284724D01*
Y284722D01*
X29063Y284707D01*
X29075Y284693D01*
X29096Y284660D01*
X29104Y284645D01*
X29111Y284633D01*
X29114Y284625D01*
X29116Y284622D01*
X29120Y284655D01*
X29127Y284686D01*
X29135Y284714D01*
X29144Y284740D01*
X29153Y284765D01*
X29163Y284788D01*
X29173Y284807D01*
X29183Y284825D01*
X29193Y284840D01*
X29202Y284853D01*
X29211Y284865D01*
X29217Y284875D01*
X29224Y284881D01*
X29229Y284888D01*
X29230Y284889D01*
X29232Y284891D01*
X29250Y284906D01*
X29268Y284921D01*
X29288Y284932D01*
X29306Y284942D01*
X29344Y284957D01*
X29380Y284966D01*
X29411Y284973D01*
X29424Y284975D01*
X29435Y284976D01*
X29445Y284978D01*
X29458D01*
X29496Y284976D01*
X29532Y284970D01*
X29565Y284962D01*
X29593Y284952D01*
X29616Y284942D01*
X29634Y284934D01*
X29640Y284930D01*
X29645Y284927D01*
X29647Y284925D01*
X29649D01*
X29678Y284904D01*
X29704Y284881D01*
X29726Y284858D01*
X29742Y284835D01*
X29755Y284816D01*
X29763Y284799D01*
X29767Y284793D01*
X29768Y284788D01*
X29770Y284786D01*
Y284784D01*
X29776Y284768D01*
X29781Y284748D01*
X29790Y284707D01*
X29796Y284665D01*
X29800Y284624D01*
X29801Y284604D01*
X29803Y284586D01*
Y284571D01*
X29804Y284556D01*
Y284545D01*
Y284537D01*
Y284530D01*
Y284529D01*
Y283969D01*
X28543D01*
Y284137D01*
X29103D01*
Y284330D01*
Y284353D01*
X29101Y284371D01*
Y284387D01*
X29099Y284401D01*
X29098Y284411D01*
Y284417D01*
X29096Y284420D01*
Y284422D01*
X29086Y284450D01*
X29081Y284463D01*
X29075Y284474D01*
X29070Y284484D01*
X29065Y284491D01*
X29063Y284496D01*
X29061Y284497D01*
X29050Y284512D01*
X29039Y284527D01*
X29024Y284542D01*
X29009Y284555D01*
X28997Y284566D01*
X28986Y284575D01*
X28980Y284581D01*
X28976Y284583D01*
X28952Y284602D01*
X28924Y284622D01*
X28896Y284642D01*
X28868Y284661D01*
X28843Y284678D01*
X28832Y284686D01*
X28822Y284693D01*
X28815Y284698D01*
X28809Y284701D01*
X28806Y284704D01*
X28804D01*
X28543Y284870D01*
Y285080D01*
X28884Y284861D01*
D02*
G37*
G36*
X29804Y283507D02*
X28543D01*
Y283674D01*
X29804D01*
Y283507D01*
D02*
G37*
G36*
X36809Y283481D02*
X36842Y283474D01*
X36873Y283466D01*
X36899Y283456D01*
X36921Y283444D01*
X36937Y283436D01*
X36942Y283433D01*
X36947Y283430D01*
X36949Y283428D01*
X36950D01*
X36978Y283407D01*
X37004Y283381D01*
X37026Y283354D01*
X37045Y283328D01*
X37060Y283303D01*
X37070Y283284D01*
X37075Y283276D01*
X37078Y283271D01*
X37080Y283267D01*
Y283266D01*
X37086Y283251D01*
X37093Y283233D01*
X37099Y283212D01*
X37108Y283190D01*
X37121Y283144D01*
X37132Y283099D01*
X37139Y283075D01*
X37144Y283056D01*
X37149Y283036D01*
X37152Y283020D01*
X37155Y283007D01*
X37159Y282995D01*
X37160Y282989D01*
Y282987D01*
X37168Y282951D01*
X37176Y282918D01*
X37185Y282889D01*
X37193Y282862D01*
X37201Y282839D01*
X37208Y282820D01*
X37216Y282802D01*
X37222Y282785D01*
X37227Y282774D01*
X37232Y282762D01*
X37237Y282754D01*
X37242Y282748D01*
X37244Y282743D01*
X37247Y282739D01*
X37249Y282736D01*
X37267Y282720D01*
X37285Y282708D01*
X37303Y282700D01*
X37321Y282695D01*
X37337Y282692D01*
X37349Y282688D01*
X37360D01*
X37388Y282692D01*
X37414Y282700D01*
X37437Y282710D01*
X37457Y282723D01*
X37473Y282736D01*
X37485Y282746D01*
X37491Y282754D01*
X37495Y282757D01*
X37505Y282770D01*
X37513Y282787D01*
X37527Y282821D01*
X37537Y282857D01*
X37544Y282893D01*
X37547Y282926D01*
X37549Y282939D01*
X37551Y282952D01*
Y282962D01*
Y282971D01*
Y282976D01*
Y282977D01*
Y283003D01*
X37547Y283028D01*
X37545Y283051D01*
X37541Y283072D01*
X37536Y283092D01*
X37531Y283110D01*
X37526Y283126D01*
X37521Y283141D01*
X37514Y283153D01*
X37510Y283164D01*
X37505Y283174D01*
X37500Y283182D01*
X37495Y283187D01*
X37493Y283192D01*
X37490Y283195D01*
X37465Y283222D01*
X37436Y283241D01*
X37406Y283256D01*
X37378Y283267D01*
X37352Y283276D01*
X37341Y283279D01*
X37331Y283280D01*
X37323Y283282D01*
X37316Y283284D01*
X37311D01*
X37323Y283444D01*
X37362Y283441D01*
X37400Y283433D01*
X37432Y283423D01*
X37462Y283412D01*
X37486Y283400D01*
X37496Y283395D01*
X37505Y283392D01*
X37511Y283387D01*
X37516Y283385D01*
X37518Y283382D01*
X37519D01*
X37551Y283359D01*
X37578Y283331D01*
X37601Y283305D01*
X37619Y283277D01*
X37634Y283254D01*
X37646Y283235D01*
X37649Y283226D01*
X37652Y283222D01*
X37654Y283218D01*
Y283217D01*
X37668Y283176D01*
X37680Y283133D01*
X37688Y283092D01*
X37695Y283054D01*
X37696Y283036D01*
X37698Y283020D01*
Y283007D01*
X37700Y282994D01*
Y282984D01*
Y282977D01*
Y282972D01*
Y282971D01*
X37698Y282925D01*
X37693Y282880D01*
X37685Y282841D01*
X37678Y282807D01*
X37674Y282792D01*
X37670Y282779D01*
X37665Y282767D01*
X37662Y282757D01*
X37660Y282749D01*
X37657Y282744D01*
X37655Y282741D01*
Y282739D01*
X37637Y282703D01*
X37618Y282670D01*
X37596Y282644D01*
X37577Y282621D01*
X37559Y282605D01*
X37542Y282592D01*
X37532Y282585D01*
X37531Y282582D01*
X37529D01*
X37498Y282564D01*
X37467Y282551D01*
X37437Y282541D01*
X37409Y282534D01*
X37385Y282531D01*
X37367Y282529D01*
X37360Y282528D01*
X37350D01*
X37319Y282529D01*
X37290Y282534D01*
X37262Y282541D01*
X37239Y282549D01*
X37219Y282557D01*
X37206Y282564D01*
X37196Y282569D01*
X37195Y282570D01*
X37193D01*
X37168Y282588D01*
X37145Y282610D01*
X37126Y282633D01*
X37109Y282654D01*
X37095Y282674D01*
X37085Y282690D01*
X37081Y282697D01*
X37078Y282702D01*
X37077Y282703D01*
Y282705D01*
X37070Y282720D01*
X37062Y282736D01*
X37049Y282772D01*
X37034Y282813D01*
X37022Y282853D01*
X37011Y282890D01*
X37008Y282905D01*
X37003Y282920D01*
X37001Y282931D01*
X36998Y282939D01*
X36996Y282946D01*
Y282948D01*
X36988Y282979D01*
X36981Y283007D01*
X36975Y283033D01*
X36970Y283056D01*
X36963Y283077D01*
X36958Y283095D01*
X36955Y283112D01*
X36950Y283125D01*
X36947Y283138D01*
X36944Y283148D01*
X36942Y283156D01*
X36939Y283162D01*
X36937Y283169D01*
X36935Y283172D01*
X36924Y283200D01*
X36911Y283223D01*
X36899Y283243D01*
X36888Y283259D01*
X36878Y283271D01*
X36870Y283279D01*
X36863Y283284D01*
X36862Y283285D01*
X36845Y283297D01*
X36827Y283307D01*
X36809Y283313D01*
X36793Y283317D01*
X36780Y283320D01*
X36768Y283321D01*
X36758D01*
X36737Y283320D01*
X36717Y283317D01*
X36699Y283310D01*
X36683Y283303D01*
X36670Y283297D01*
X36658Y283290D01*
X36652Y283287D01*
X36650Y283285D01*
X36632Y283271D01*
X36617Y283253D01*
X36604Y283235D01*
X36593Y283217D01*
X36584Y283200D01*
X36578Y283187D01*
X36575Y283179D01*
X36573Y283177D01*
Y283176D01*
X36563Y283148D01*
X36557Y283120D01*
X36552Y283090D01*
X36548Y283066D01*
X36547Y283043D01*
X36545Y283025D01*
Y283018D01*
Y283013D01*
Y283010D01*
Y283008D01*
X36547Y282969D01*
X36550Y282933D01*
X36557Y282900D01*
X36563Y282872D01*
X36570Y282848D01*
X36573Y282838D01*
X36576Y282829D01*
X36578Y282823D01*
X36580Y282818D01*
X36581Y282816D01*
Y282815D01*
X36596Y282785D01*
X36612Y282759D01*
X36629Y282738D01*
X36645Y282720D01*
X36658Y282706D01*
X36670Y282697D01*
X36676Y282690D01*
X36680Y282688D01*
X36704Y282675D01*
X36731Y282664D01*
X36757Y282654D01*
X36781Y282647D01*
X36804Y282643D01*
X36821Y282639D01*
X36827D01*
X36832Y282638D01*
X36837D01*
X36824Y282480D01*
X36778Y282484D01*
X36734Y282492D01*
X36696Y282503D01*
X36662Y282516D01*
X36647Y282523D01*
X36634Y282528D01*
X36624Y282534D01*
X36614Y282539D01*
X36606Y282542D01*
X36601Y282546D01*
X36598Y282549D01*
X36596D01*
X36562Y282575D01*
X36530Y282605D01*
X36504Y282634D01*
X36483Y282664D01*
X36466Y282690D01*
X36460Y282702D01*
X36455Y282710D01*
X36450Y282718D01*
X36447Y282725D01*
X36445Y282728D01*
Y282730D01*
X36429Y282775D01*
X36417Y282823D01*
X36407Y282872D01*
X36402Y282916D01*
X36401Y282938D01*
X36399Y282956D01*
X36398Y282974D01*
Y282989D01*
X36396Y283000D01*
Y283008D01*
Y283015D01*
Y283016D01*
X36398Y283066D01*
X36404Y283112D01*
X36412Y283153D01*
X36421Y283187D01*
X36425Y283203D01*
X36430Y283217D01*
X36434Y283228D01*
X36437Y283240D01*
X36440Y283246D01*
X36443Y283253D01*
X36445Y283256D01*
Y283258D01*
X36465Y283295D01*
X36488Y283330D01*
X36511Y283358D01*
X36532Y283381D01*
X36552Y283399D01*
X36568Y283413D01*
X36575Y283417D01*
X36580Y283420D01*
X36581Y283423D01*
X36583D01*
X36616Y283443D01*
X36650Y283458D01*
X36681Y283468D01*
X36711Y283476D01*
X36735Y283479D01*
X36745Y283481D01*
X36755D01*
X36762Y283482D01*
X36772D01*
X36809Y283481D01*
D02*
G37*
G36*
X28576Y286372D02*
X28594Y286334D01*
X28614Y286298D01*
X28633Y286265D01*
X28650Y286237D01*
X28658Y286224D01*
X28665Y286214D01*
X28670Y286206D01*
X28674Y286200D01*
X28676Y286196D01*
X28678Y286195D01*
X28714Y286228D01*
X28750Y286257D01*
X28786Y286282D01*
X28820Y286301D01*
X28848Y286318D01*
X28861Y286324D01*
X28871Y286329D01*
X28881Y286333D01*
X28888Y286336D01*
X28891Y286337D01*
X28892D01*
X28940Y286354D01*
X28989Y286365D01*
X29037Y286374D01*
X29079Y286379D01*
X29099Y286382D01*
X29117Y286383D01*
X29134D01*
X29147Y286385D01*
X29207D01*
X29242Y286382D01*
X29306Y286374D01*
X29335Y286369D01*
X29362Y286362D01*
X29388Y286355D01*
X29412Y286349D01*
X29434Y286341D01*
X29452Y286334D01*
X29470Y286328D01*
X29483Y286323D01*
X29494Y286318D01*
X29503Y286315D01*
X29507Y286313D01*
X29509Y286311D01*
X29562Y286280D01*
X29586Y286264D01*
X29609Y286247D01*
X29629Y286229D01*
X29649Y286211D01*
X29667Y286193D01*
X29681Y286177D01*
X29696Y286160D01*
X29708Y286146D01*
X29717Y286131D01*
X29727Y286119D01*
X29734Y286109D01*
X29739Y286103D01*
X29740Y286098D01*
X29742Y286096D01*
X29757Y286070D01*
X29770Y286042D01*
X29781Y286016D01*
X29791Y285988D01*
X29806Y285936D01*
X29816Y285888D01*
X29819Y285865D01*
X29821Y285845D01*
X29822Y285827D01*
X29824Y285813D01*
X29826Y285800D01*
Y285791D01*
Y285785D01*
Y285783D01*
X29824Y285750D01*
X29822Y285719D01*
X29813Y285660D01*
X29808Y285634D01*
X29801Y285608D01*
X29793Y285583D01*
X29786Y285562D01*
X29778Y285540D01*
X29772Y285524D01*
X29763Y285508D01*
X29759Y285494D01*
X29754Y285485D01*
X29749Y285476D01*
X29747Y285472D01*
X29745Y285470D01*
X29729Y285445D01*
X29713Y285421D01*
X29675Y285378D01*
X29636Y285340D01*
X29598Y285311D01*
X29580Y285298D01*
X29563Y285286D01*
X29548Y285276D01*
X29535Y285270D01*
X29526Y285263D01*
X29517Y285258D01*
X29513Y285257D01*
X29511Y285255D01*
X29481Y285242D01*
X29452Y285230D01*
X29394Y285211D01*
X29337Y285198D01*
X29311Y285193D01*
X29285Y285190D01*
X29261Y285186D01*
X29240Y285183D01*
X29221Y285181D01*
X29204D01*
X29191Y285180D01*
X29173D01*
X29138Y285181D01*
X29104Y285183D01*
X29042Y285191D01*
X29012Y285196D01*
X28984Y285203D01*
X28958Y285209D01*
X28934Y285217D01*
X28912Y285224D01*
X28892Y285230D01*
X28876Y285237D01*
X28861Y285242D01*
X28850Y285247D01*
X28842Y285250D01*
X28837Y285253D01*
X28835D01*
X28783Y285285D01*
X28758Y285301D01*
X28737Y285319D01*
X28715Y285337D01*
X28696Y285355D01*
X28679Y285371D01*
X28663Y285390D01*
X28650Y285406D01*
X28638Y285421D01*
X28627Y285434D01*
X28619Y285445D01*
X28612Y285455D01*
X28607Y285462D01*
X28605Y285467D01*
X28604Y285468D01*
X28589Y285494D01*
X28578Y285522D01*
X28566Y285549D01*
X28556Y285575D01*
X28542Y285627D01*
X28532Y285675D01*
X28528Y285698D01*
X28527Y285718D01*
X28525Y285734D01*
X28523Y285749D01*
X28522Y285762D01*
Y285770D01*
Y285777D01*
Y285778D01*
X28523Y285809D01*
X28525Y285841D01*
X28533Y285898D01*
X28540Y285926D01*
X28547Y285952D01*
X28553Y285975D01*
X28561Y285998D01*
X28568Y286018D01*
X28574Y286036D01*
X28581Y286051D01*
X28587Y286064D01*
X28592Y286075D01*
X28596Y286082D01*
X28599Y286087D01*
Y286088D01*
X28563Y286139D01*
X28532Y286187D01*
X28506Y286232D01*
X28484Y286274D01*
X28476Y286292D01*
X28468Y286308D01*
X28461Y286323D01*
X28456Y286336D01*
X28451Y286346D01*
X28448Y286352D01*
X28446Y286357D01*
Y286359D01*
X28561Y286410D01*
X28576Y286372D01*
D02*
G37*
G36*
X21366Y287426D02*
X21424Y287420D01*
X21450Y287417D01*
X21474Y287412D01*
X21497Y287407D01*
X21519Y287403D01*
X21538Y287399D01*
X21555Y287394D01*
X21570Y287389D01*
X21583Y287385D01*
X21592Y287382D01*
X21599Y287379D01*
X21604Y287377D01*
X21606D01*
X21653Y287358D01*
X21694Y287333D01*
X21732Y287308D01*
X21763Y287284D01*
X21776Y287272D01*
X21788Y287262D01*
X21798Y287253D01*
X21806Y287244D01*
X21812Y287238D01*
X21817Y287233D01*
X21819Y287230D01*
X21821Y287228D01*
X21843Y287198D01*
X21863Y287167D01*
X21878Y287136D01*
X21891Y287107D01*
X21899Y287082D01*
X21903Y287071D01*
X21906Y287061D01*
X21907Y287054D01*
X21909Y287048D01*
X21911Y287044D01*
Y287043D01*
X21917Y287012D01*
X21922Y286975D01*
X21925Y286938D01*
X21929Y286902D01*
Y286871D01*
X21930Y286856D01*
Y286844D01*
Y286834D01*
Y286826D01*
Y286821D01*
Y286820D01*
Y286385D01*
X20669D01*
Y286839D01*
X20671Y286880D01*
X20673Y286920D01*
X20676Y286954D01*
X20681Y286984D01*
X20684Y287008D01*
X20686Y287018D01*
X20687Y287026D01*
X20689Y287033D01*
Y287038D01*
X20691Y287039D01*
Y287041D01*
X20699Y287072D01*
X20709Y287102D01*
X20720Y287128D01*
X20730Y287149D01*
X20738Y287167D01*
X20746Y287180D01*
X20751Y287189D01*
X20753Y287192D01*
X20771Y287215D01*
X20789Y287238D01*
X20809Y287258D01*
X20827Y287274D01*
X20843Y287289D01*
X20856Y287298D01*
X20864Y287307D01*
X20868Y287308D01*
X20896Y287326D01*
X20927Y287344D01*
X20958Y287359D01*
X20987Y287371D01*
X21012Y287381D01*
X21023Y287384D01*
X21033Y287387D01*
X21040Y287390D01*
X21046Y287392D01*
X21050Y287394D01*
X21051D01*
X21094Y287405D01*
X21138Y287413D01*
X21181Y287420D01*
X21220Y287423D01*
X21238Y287425D01*
X21255Y287426D01*
X21269D01*
X21281Y287428D01*
X21305D01*
X21366Y287426D01*
D02*
G37*
G36*
X14056Y293057D02*
X12795D01*
Y293224D01*
X13367D01*
Y293816D01*
X13517D01*
Y293224D01*
X13907D01*
Y293908D01*
X14056D01*
Y293057D01*
D02*
G37*
G36*
Y291981D02*
X12795D01*
Y292148D01*
X13367D01*
Y292740D01*
X13517D01*
Y292148D01*
X13907D01*
Y292832D01*
X14056D01*
Y291981D01*
D02*
G37*
G36*
Y294152D02*
X12795D01*
Y294319D01*
X14056D01*
Y294152D01*
D02*
G37*
G36*
X21930Y282480D02*
X20669D01*
Y282647D01*
X21242D01*
Y283240D01*
X21391D01*
Y282647D01*
X21781D01*
Y283331D01*
X21930D01*
Y282480D01*
D02*
G37*
G36*
X14056Y294518D02*
X13907D01*
Y294933D01*
X12795D01*
Y295100D01*
X13907D01*
Y295515D01*
X14056D01*
Y294518D01*
D02*
G37*
G36*
X14078Y291713D02*
X12774Y291348D01*
Y291472D01*
X14078Y291838D01*
Y291713D01*
D02*
G37*
G36*
X13236Y288568D02*
X13207Y288560D01*
X13181Y288551D01*
X13156Y288542D01*
X13131Y288532D01*
X13110Y288520D01*
X13090Y288510D01*
X13072Y288499D01*
X13058Y288488D01*
X13043Y288478D01*
X13031Y288468D01*
X13020Y288458D01*
X13012Y288451D01*
X13005Y288445D01*
X13000Y288440D01*
X12999Y288437D01*
X12997Y288435D01*
X12982Y288417D01*
X12971Y288397D01*
X12959Y288378D01*
X12951Y288356D01*
X12936Y288317D01*
X12926Y288279D01*
X12923Y288263D01*
X12922Y288246D01*
X12920Y288233D01*
X12918Y288220D01*
X12917Y288210D01*
Y288204D01*
Y288199D01*
Y288197D01*
X12920Y288155D01*
X12926Y288115D01*
X12935Y288079D01*
X12946Y288046D01*
X12958Y288020D01*
X12962Y288009D01*
X12966Y288000D01*
X12971Y287992D01*
X12972Y287987D01*
X12976Y287984D01*
Y287982D01*
X13000Y287948D01*
X13028Y287918D01*
X13058Y287894D01*
X13087Y287873D01*
X13113Y287856D01*
X13125Y287851D01*
X13135Y287846D01*
X13143Y287841D01*
X13149Y287838D01*
X13153Y287836D01*
X13154D01*
X13200Y287822D01*
X13250Y287810D01*
X13295Y287802D01*
X13340Y287797D01*
X13359Y287794D01*
X13377D01*
X13394Y287792D01*
X13408Y287790D01*
X13435D01*
X13481Y287792D01*
X13525Y287797D01*
X13566Y287804D01*
X13604Y287810D01*
X13619Y287813D01*
X13633Y287817D01*
X13646Y287820D01*
X13658Y287823D01*
X13666Y287827D01*
X13673Y287828D01*
X13676Y287830D01*
X13678D01*
X13720Y287846D01*
X13756Y287868D01*
X13789Y287891D01*
X13815Y287913D01*
X13837Y287933D01*
X13851Y287950D01*
X13858Y287956D01*
X13861Y287961D01*
X13864Y287964D01*
Y287966D01*
X13878Y287986D01*
X13887Y288005D01*
X13905Y288046D01*
X13919Y288087D01*
X13927Y288125D01*
X13928Y288143D01*
X13932Y288159D01*
X13933Y288174D01*
Y288186D01*
X13935Y288196D01*
Y288204D01*
Y288209D01*
Y288210D01*
X13932Y288256D01*
X13925Y288297D01*
X13915Y288333D01*
X13904Y288365D01*
X13891Y288389D01*
X13886Y288399D01*
X13881Y288407D01*
X13878Y288414D01*
X13874Y288419D01*
X13871Y288420D01*
Y288422D01*
X13858Y288437D01*
X13845Y288451D01*
X13814Y288478D01*
X13781Y288499D01*
X13748Y288517D01*
X13719Y288532D01*
X13705Y288537D01*
X13694Y288542D01*
X13684Y288545D01*
X13678Y288548D01*
X13673Y288550D01*
X13671D01*
X13710Y288714D01*
X13742Y288704D01*
X13773Y288691D01*
X13801Y288678D01*
X13827Y288663D01*
X13850Y288648D01*
X13873Y288633D01*
X13892Y288619D01*
X13910Y288604D01*
X13927Y288589D01*
X13942Y288576D01*
X13953Y288563D01*
X13963Y288553D01*
X13971Y288545D01*
X13976Y288537D01*
X13979Y288533D01*
X13981Y288532D01*
X13997Y288507D01*
X14014Y288481D01*
X14025Y288455D01*
X14037Y288428D01*
X14047Y288401D01*
X14055Y288374D01*
X14066Y288325D01*
X14070Y288302D01*
X14073Y288281D01*
X14074Y288261D01*
X14076Y288245D01*
X14078Y288232D01*
Y288222D01*
Y288215D01*
Y288214D01*
Y288182D01*
X14074Y288153D01*
X14066Y288096D01*
X14053Y288043D01*
X14047Y288020D01*
X14040Y287997D01*
X14032Y287978D01*
X14025Y287959D01*
X14019Y287945D01*
X14012Y287932D01*
X14007Y287922D01*
X14004Y287913D01*
X14002Y287909D01*
X14001Y287907D01*
X13986Y287882D01*
X13969Y287858D01*
X13933Y287815D01*
X13897Y287777D01*
X13861Y287748D01*
X13843Y287735D01*
X13828Y287723D01*
X13814Y287713D01*
X13802Y287707D01*
X13792Y287700D01*
X13784Y287695D01*
X13779Y287694D01*
X13778Y287692D01*
X13750Y287679D01*
X13720Y287667D01*
X13663Y287649D01*
X13605Y287636D01*
X13577Y287631D01*
X13551Y287628D01*
X13527Y287625D01*
X13505Y287622D01*
X13486Y287620D01*
X13468D01*
X13454Y287618D01*
X13435D01*
X13369Y287622D01*
X13305Y287628D01*
X13277Y287633D01*
X13250Y287640D01*
X13223Y287645D01*
X13199Y287651D01*
X13176Y287658D01*
X13156Y287663D01*
X13140Y287669D01*
X13125Y287674D01*
X13113Y287677D01*
X13104Y287681D01*
X13099Y287684D01*
X13097D01*
X13069Y287697D01*
X13041Y287712D01*
X13017Y287727D01*
X12994Y287743D01*
X12971Y287759D01*
X12951Y287776D01*
X12933Y287790D01*
X12918Y287807D01*
X12903Y287822D01*
X12890Y287835D01*
X12880Y287848D01*
X12872Y287858D01*
X12864Y287868D01*
X12859Y287874D01*
X12857Y287877D01*
X12856Y287879D01*
X12841Y287904D01*
X12830Y287930D01*
X12818Y287958D01*
X12808Y287986D01*
X12794Y288041D01*
X12784Y288094D01*
X12780Y288119D01*
X12779Y288140D01*
X12777Y288161D01*
X12776Y288178D01*
X12774Y288192D01*
Y288204D01*
Y288210D01*
Y288212D01*
X12776Y288248D01*
X12779Y288282D01*
X12784Y288315D01*
X12790Y288347D01*
X12799Y288376D01*
X12808Y288404D01*
X12817Y288428D01*
X12828Y288453D01*
X12838Y288473D01*
X12846Y288491D01*
X12856Y288507D01*
X12864Y288520D01*
X12871Y288532D01*
X12876Y288538D01*
X12879Y288543D01*
X12880Y288545D01*
X12902Y288569D01*
X12925Y288593D01*
X12949Y288614D01*
X12976Y288632D01*
X13002Y288650D01*
X13026Y288665D01*
X13053Y288679D01*
X13077Y288691D01*
X13102Y288702D01*
X13123Y288711D01*
X13143Y288719D01*
X13159Y288725D01*
X13174Y288729D01*
X13185Y288732D01*
X13192Y288735D01*
X13194D01*
X13236Y288568D01*
D02*
G37*
G36*
X14078Y287408D02*
X12774Y287043D01*
Y287167D01*
X14078Y287533D01*
Y287408D01*
D02*
G37*
G36*
X14056Y288948D02*
X12795D01*
Y289116D01*
X13367D01*
Y289708D01*
X13517D01*
Y289116D01*
X13907D01*
Y289799D01*
X14056D01*
Y288948D01*
D02*
G37*
G36*
X12944Y290665D02*
X14056D01*
Y290498D01*
X12795D01*
Y291285D01*
X12944D01*
Y290665D01*
D02*
G37*
G36*
X14056Y290044D02*
X12795D01*
Y290211D01*
X14056D01*
Y290044D01*
D02*
G37*
G36*
X21061Y284492D02*
X21094Y284486D01*
X21125Y284478D01*
X21151Y284468D01*
X21173Y284456D01*
X21189Y284448D01*
X21194Y284445D01*
X21199Y284442D01*
X21201Y284440D01*
X21202D01*
X21230Y284419D01*
X21256Y284392D01*
X21278Y284366D01*
X21297Y284340D01*
X21312Y284315D01*
X21322Y284296D01*
X21327Y284288D01*
X21330Y284283D01*
X21332Y284279D01*
Y284278D01*
X21338Y284263D01*
X21345Y284245D01*
X21351Y284224D01*
X21360Y284202D01*
X21373Y284156D01*
X21384Y284110D01*
X21391Y284087D01*
X21396Y284068D01*
X21401Y284048D01*
X21404Y284032D01*
X21407Y284018D01*
X21410Y284007D01*
X21412Y284000D01*
Y283999D01*
X21420Y283963D01*
X21429Y283930D01*
X21437Y283900D01*
X21445Y283874D01*
X21453Y283851D01*
X21460Y283832D01*
X21468Y283814D01*
X21474Y283797D01*
X21479Y283786D01*
X21484Y283774D01*
X21489Y283766D01*
X21494Y283759D01*
X21496Y283754D01*
X21499Y283751D01*
X21501Y283748D01*
X21519Y283732D01*
X21537Y283720D01*
X21555Y283712D01*
X21573Y283707D01*
X21589Y283704D01*
X21601Y283700D01*
X21612D01*
X21640Y283704D01*
X21666Y283712D01*
X21689Y283722D01*
X21709Y283735D01*
X21725Y283748D01*
X21737Y283758D01*
X21743Y283766D01*
X21747Y283769D01*
X21757Y283782D01*
X21765Y283799D01*
X21779Y283833D01*
X21789Y283869D01*
X21796Y283905D01*
X21799Y283938D01*
X21801Y283951D01*
X21802Y283964D01*
Y283974D01*
Y283982D01*
Y283987D01*
Y283989D01*
Y284015D01*
X21799Y284040D01*
X21798Y284063D01*
X21793Y284084D01*
X21788Y284104D01*
X21783Y284122D01*
X21778Y284138D01*
X21773Y284153D01*
X21766Y284165D01*
X21761Y284176D01*
X21757Y284186D01*
X21752Y284194D01*
X21747Y284199D01*
X21745Y284204D01*
X21742Y284207D01*
X21717Y284233D01*
X21688Y284253D01*
X21658Y284268D01*
X21630Y284279D01*
X21604Y284288D01*
X21592Y284291D01*
X21583Y284292D01*
X21575Y284294D01*
X21568Y284296D01*
X21563D01*
X21575Y284456D01*
X21614Y284453D01*
X21652Y284445D01*
X21684Y284435D01*
X21714Y284424D01*
X21738Y284412D01*
X21748Y284407D01*
X21757Y284404D01*
X21763Y284399D01*
X21768Y284397D01*
X21770Y284394D01*
X21771D01*
X21802Y284371D01*
X21830Y284343D01*
X21853Y284317D01*
X21871Y284289D01*
X21886Y284266D01*
X21898Y284246D01*
X21901Y284238D01*
X21904Y284233D01*
X21906Y284230D01*
Y284228D01*
X21921Y284187D01*
X21932Y284145D01*
X21940Y284104D01*
X21947Y284066D01*
X21948Y284048D01*
X21950Y284032D01*
Y284018D01*
X21952Y284005D01*
Y283996D01*
Y283989D01*
Y283984D01*
Y283982D01*
X21950Y283937D01*
X21945Y283892D01*
X21937Y283853D01*
X21930Y283818D01*
X21925Y283804D01*
X21922Y283791D01*
X21917Y283779D01*
X21914Y283769D01*
X21912Y283761D01*
X21909Y283756D01*
X21907Y283753D01*
Y283751D01*
X21889Y283715D01*
X21870Y283682D01*
X21848Y283656D01*
X21829Y283633D01*
X21811Y283617D01*
X21794Y283604D01*
X21784Y283597D01*
X21783Y283594D01*
X21781D01*
X21750Y283576D01*
X21719Y283563D01*
X21689Y283553D01*
X21661Y283546D01*
X21637Y283543D01*
X21619Y283541D01*
X21612Y283540D01*
X21602D01*
X21571Y283541D01*
X21542Y283546D01*
X21514Y283553D01*
X21491Y283561D01*
X21471Y283569D01*
X21458Y283576D01*
X21448Y283581D01*
X21447Y283582D01*
X21445D01*
X21420Y283600D01*
X21397Y283622D01*
X21378Y283645D01*
X21361Y283666D01*
X21347Y283686D01*
X21337Y283702D01*
X21333Y283709D01*
X21330Y283714D01*
X21328Y283715D01*
Y283717D01*
X21322Y283732D01*
X21314Y283748D01*
X21301Y283784D01*
X21286Y283825D01*
X21274Y283864D01*
X21263Y283902D01*
X21260Y283917D01*
X21255Y283932D01*
X21253Y283943D01*
X21250Y283951D01*
X21248Y283958D01*
Y283960D01*
X21240Y283991D01*
X21233Y284018D01*
X21227Y284045D01*
X21222Y284068D01*
X21215Y284089D01*
X21210Y284107D01*
X21207Y284123D01*
X21202Y284137D01*
X21199Y284150D01*
X21196Y284160D01*
X21194Y284168D01*
X21191Y284174D01*
X21189Y284181D01*
X21187Y284184D01*
X21176Y284212D01*
X21163Y284235D01*
X21151Y284255D01*
X21140Y284271D01*
X21130Y284283D01*
X21122Y284291D01*
X21115Y284296D01*
X21114Y284297D01*
X21097Y284309D01*
X21079Y284319D01*
X21061Y284325D01*
X21045Y284329D01*
X21032Y284332D01*
X21020Y284333D01*
X21010D01*
X20989Y284332D01*
X20969Y284329D01*
X20951Y284322D01*
X20935Y284315D01*
X20922Y284309D01*
X20910Y284302D01*
X20904Y284299D01*
X20902Y284297D01*
X20884Y284283D01*
X20869Y284264D01*
X20856Y284246D01*
X20845Y284228D01*
X20836Y284212D01*
X20830Y284199D01*
X20827Y284191D01*
X20825Y284189D01*
Y284187D01*
X20815Y284160D01*
X20809Y284132D01*
X20804Y284102D01*
X20800Y284078D01*
X20799Y284055D01*
X20797Y284037D01*
Y284030D01*
Y284025D01*
Y284022D01*
Y284020D01*
X20799Y283981D01*
X20802Y283945D01*
X20809Y283912D01*
X20815Y283884D01*
X20822Y283859D01*
X20825Y283850D01*
X20828Y283841D01*
X20830Y283835D01*
X20832Y283830D01*
X20833Y283828D01*
Y283827D01*
X20848Y283797D01*
X20864Y283771D01*
X20881Y283750D01*
X20897Y283732D01*
X20910Y283718D01*
X20922Y283709D01*
X20928Y283702D01*
X20932Y283700D01*
X20956Y283687D01*
X20982Y283676D01*
X21009Y283666D01*
X21033Y283659D01*
X21056Y283654D01*
X21073Y283651D01*
X21079D01*
X21084Y283649D01*
X21089D01*
X21076Y283492D01*
X21030Y283495D01*
X20986Y283504D01*
X20948Y283515D01*
X20914Y283528D01*
X20899Y283535D01*
X20886Y283540D01*
X20876Y283546D01*
X20866Y283551D01*
X20858Y283554D01*
X20853Y283558D01*
X20850Y283561D01*
X20848D01*
X20813Y283587D01*
X20782Y283617D01*
X20756Y283646D01*
X20735Y283676D01*
X20718Y283702D01*
X20712Y283714D01*
X20707Y283722D01*
X20702Y283730D01*
X20699Y283736D01*
X20697Y283740D01*
Y283741D01*
X20681Y283787D01*
X20669Y283835D01*
X20659Y283884D01*
X20654Y283928D01*
X20653Y283950D01*
X20651Y283968D01*
X20650Y283986D01*
Y284000D01*
X20648Y284012D01*
Y284020D01*
Y284027D01*
Y284028D01*
X20650Y284078D01*
X20656Y284123D01*
X20664Y284165D01*
X20673Y284199D01*
X20677Y284215D01*
X20682Y284228D01*
X20686Y284240D01*
X20689Y284251D01*
X20692Y284258D01*
X20695Y284264D01*
X20697Y284268D01*
Y284269D01*
X20717Y284307D01*
X20740Y284342D01*
X20763Y284369D01*
X20784Y284392D01*
X20804Y284411D01*
X20820Y284425D01*
X20827Y284429D01*
X20832Y284432D01*
X20833Y284435D01*
X20835D01*
X20868Y284455D01*
X20902Y284470D01*
X20933Y284479D01*
X20963Y284488D01*
X20987Y284491D01*
X20997Y284492D01*
X21007D01*
X21014Y284494D01*
X21023D01*
X21061Y284492D01*
D02*
G37*
G36*
X21417Y285206D02*
X21930Y285736D01*
Y285509D01*
X21305Y284883D01*
X21930D01*
Y284716D01*
X20669D01*
Y284883D01*
X21105D01*
X21304Y285088D01*
X20669Y285537D01*
Y285759D01*
X21417Y285206D01*
D02*
G37*
G36*
X21952Y286126D02*
X20648Y285760D01*
Y285885D01*
X21952Y286251D01*
Y286126D01*
D02*
G37*
%LPC*%
G36*
X37077Y284581D02*
X37057D01*
X37006Y284579D01*
X36958Y284576D01*
X36917Y284570D01*
X36899Y284566D01*
X36881Y284565D01*
X36867Y284561D01*
X36854Y284558D01*
X36842Y284555D01*
X36832Y284552D01*
X36824Y284550D01*
X36819Y284548D01*
X36816Y284547D01*
X36814D01*
X36778Y284534D01*
X36747Y284519D01*
X36719Y284504D01*
X36696Y284489D01*
X36678Y284474D01*
X36665Y284465D01*
X36657Y284458D01*
X36653Y284455D01*
X36639Y284438D01*
X36625Y284419D01*
X36616Y284401D01*
X36606Y284383D01*
X36599Y284366D01*
X36594Y284353D01*
X36591Y284345D01*
X36589Y284343D01*
Y284342D01*
X36581Y284314D01*
X36576Y284281D01*
X36571Y284248D01*
X36570Y284217D01*
X36568Y284189D01*
X36566Y284178D01*
Y284168D01*
Y284158D01*
Y284151D01*
Y284148D01*
Y284146D01*
Y283877D01*
X37529D01*
Y284141D01*
Y284169D01*
X37527Y284194D01*
Y284217D01*
X37526Y284238D01*
X37523Y284258D01*
X37521Y284276D01*
X37519Y284292D01*
X37516Y284306D01*
X37514Y284319D01*
X37511Y284329D01*
X37510Y284338D01*
X37508Y284345D01*
X37506Y284351D01*
X37505Y284355D01*
X37503Y284358D01*
X37495Y284374D01*
X37486Y284391D01*
X37465Y284422D01*
X37442Y284448D01*
X37418Y284471D01*
X37396Y284489D01*
X37378Y284504D01*
X37370Y284509D01*
X37365Y284512D01*
X37362Y284515D01*
X37360D01*
X37339Y284527D01*
X37316Y284537D01*
X37268Y284553D01*
X37218Y284565D01*
X37168Y284573D01*
X37145Y284576D01*
X37124Y284578D01*
X37106Y284579D01*
X37090D01*
X37077Y284581D01*
D02*
G37*
G36*
X40003Y349298D02*
X39982D01*
X39904Y349290D01*
X39834Y349273D01*
X39773Y349253D01*
X39720Y349224D01*
X39674Y349195D01*
X39642Y349175D01*
X39625Y349159D01*
X39617Y349150D01*
X39568Y349093D01*
X39531Y349036D01*
X39506Y348974D01*
X39486Y348917D01*
X39478Y348867D01*
X39474Y348831D01*
X39470Y348814D01*
Y348802D01*
Y348798D01*
Y348794D01*
X39474Y348720D01*
X39490Y348654D01*
X39515Y348593D01*
X39539Y348544D01*
X39568Y348502D01*
X39588Y348474D01*
X39605Y348457D01*
X39613Y348449D01*
X39670Y348404D01*
X39732Y348367D01*
X39793Y348343D01*
X39851Y348326D01*
X39900Y348318D01*
X39941Y348314D01*
X39957Y348310D01*
X39978D01*
X40060Y348314D01*
X40134Y348330D01*
X40199Y348355D01*
X40253Y348379D01*
X40298Y348404D01*
X40330Y348429D01*
X40347Y348445D01*
X40355Y348449D01*
X40400Y348507D01*
X40437Y348568D01*
X40462Y348630D01*
X40478Y348687D01*
X40486Y348736D01*
X40490Y348777D01*
X40494Y348794D01*
Y348806D01*
Y348810D01*
Y348814D01*
X40486Y348884D01*
X40470Y348949D01*
X40449Y349007D01*
X40421Y349060D01*
X40396Y349097D01*
X40372Y349130D01*
X40355Y349146D01*
X40351Y349154D01*
X40294Y349204D01*
X40232Y349236D01*
X40171Y349261D01*
X40113Y349282D01*
X40060Y349290D01*
X40019Y349294D01*
X40003Y349298D01*
D02*
G37*
G36*
X-2687Y336319D02*
X-2707D01*
X-2758Y336318D01*
X-2805Y336315D01*
X-2846Y336308D01*
X-2864Y336305D01*
X-2882Y336303D01*
X-2897Y336300D01*
X-2910Y336297D01*
X-2922Y336293D01*
X-2932Y336290D01*
X-2940Y336288D01*
X-2945Y336287D01*
X-2948Y336285D01*
X-2950D01*
X-2986Y336272D01*
X-3017Y336257D01*
X-3045Y336243D01*
X-3068Y336228D01*
X-3086Y336213D01*
X-3099Y336203D01*
X-3107Y336196D01*
X-3110Y336193D01*
X-3125Y336177D01*
X-3138Y336157D01*
X-3148Y336139D01*
X-3158Y336121D01*
X-3164Y336105D01*
X-3169Y336092D01*
X-3173Y336083D01*
X-3174Y336082D01*
Y336080D01*
X-3183Y336052D01*
X-3187Y336019D01*
X-3192Y335987D01*
X-3194Y335956D01*
X-3196Y335928D01*
X-3197Y335916D01*
Y335906D01*
Y335896D01*
Y335890D01*
Y335887D01*
Y335885D01*
Y335616D01*
X-2235D01*
Y335880D01*
Y335908D01*
X-2236Y335932D01*
Y335956D01*
X-2238Y335977D01*
X-2241Y335997D01*
X-2243Y336015D01*
X-2245Y336031D01*
X-2248Y336044D01*
X-2249Y336057D01*
X-2253Y336067D01*
X-2254Y336077D01*
X-2256Y336083D01*
X-2258Y336090D01*
X-2259Y336093D01*
X-2261Y336097D01*
X-2269Y336113D01*
X-2277Y336129D01*
X-2299Y336160D01*
X-2321Y336187D01*
X-2346Y336210D01*
X-2368Y336228D01*
X-2386Y336243D01*
X-2394Y336247D01*
X-2399Y336251D01*
X-2402Y336254D01*
X-2403D01*
X-2425Y336265D01*
X-2448Y336275D01*
X-2495Y336292D01*
X-2546Y336303D01*
X-2595Y336311D01*
X-2618Y336315D01*
X-2640Y336316D01*
X-2658Y336318D01*
X-2674D01*
X-2687Y336319D01*
D02*
G37*
G36*
X13454Y283351D02*
X13435D01*
X13384Y283349D01*
X13336Y283346D01*
X13295Y283340D01*
X13277Y283336D01*
X13259Y283335D01*
X13245Y283331D01*
X13231Y283328D01*
X13220Y283325D01*
X13210Y283321D01*
X13202Y283320D01*
X13197Y283318D01*
X13194Y283317D01*
X13192D01*
X13156Y283303D01*
X13125Y283289D01*
X13097Y283274D01*
X13074Y283259D01*
X13056Y283244D01*
X13043Y283235D01*
X13035Y283228D01*
X13031Y283225D01*
X13017Y283208D01*
X13003Y283189D01*
X12994Y283171D01*
X12984Y283153D01*
X12977Y283136D01*
X12972Y283123D01*
X12969Y283115D01*
X12967Y283113D01*
Y283112D01*
X12959Y283084D01*
X12954Y283051D01*
X12949Y283018D01*
X12948Y282987D01*
X12946Y282959D01*
X12944Y282948D01*
Y282938D01*
Y282928D01*
Y282921D01*
Y282918D01*
Y282916D01*
Y282647D01*
X13907D01*
Y282911D01*
Y282939D01*
X13905Y282964D01*
Y282987D01*
X13904Y283008D01*
X13901Y283028D01*
X13899Y283046D01*
X13897Y283062D01*
X13894Y283075D01*
X13892Y283089D01*
X13889Y283099D01*
X13887Y283108D01*
X13886Y283115D01*
X13884Y283121D01*
X13882Y283125D01*
X13881Y283128D01*
X13873Y283144D01*
X13864Y283161D01*
X13843Y283192D01*
X13820Y283218D01*
X13796Y283241D01*
X13774Y283259D01*
X13756Y283274D01*
X13748Y283279D01*
X13743Y283282D01*
X13740Y283285D01*
X13738D01*
X13717Y283297D01*
X13694Y283307D01*
X13646Y283323D01*
X13596Y283335D01*
X13546Y283343D01*
X13523Y283346D01*
X13502Y283348D01*
X13484Y283349D01*
X13468D01*
X13454Y283351D01*
D02*
G37*
G36*
X37072Y285965D02*
X37045D01*
X37001Y285964D01*
X36960Y285960D01*
X36921Y285954D01*
X36885Y285946D01*
X36850Y285937D01*
X36821Y285926D01*
X36791Y285916D01*
X36767Y285905D01*
X36744Y285893D01*
X36724Y285882D01*
X36707Y285870D01*
X36694Y285862D01*
X36683Y285854D01*
X36676Y285847D01*
X36671Y285844D01*
X36670Y285842D01*
X36647Y285819D01*
X36627Y285795D01*
X36609Y285768D01*
X36594Y285742D01*
X36581Y285716D01*
X36571Y285691D01*
X36562Y285665D01*
X36555Y285642D01*
X36550Y285619D01*
X36545Y285598D01*
X36542Y285580D01*
X36540Y285563D01*
Y285550D01*
X36539Y285540D01*
Y285534D01*
Y285532D01*
X36540Y285498D01*
X36544Y285467D01*
X36550Y285436D01*
X36558Y285408D01*
X36568Y285380D01*
X36580Y285355D01*
X36591Y285331D01*
X36604Y285311D01*
X36616Y285291D01*
X36627Y285275D01*
X36639Y285260D01*
X36648Y285248D01*
X36657Y285239D01*
X36663Y285230D01*
X36667Y285227D01*
X36668Y285226D01*
X36694Y285204D01*
X36721Y285186D01*
X36750Y285170D01*
X36780Y285155D01*
X36809Y285144D01*
X36839Y285134D01*
X36868Y285125D01*
X36898Y285119D01*
X36924Y285114D01*
X36949Y285111D01*
X36970Y285107D01*
X36990Y285106D01*
X37006D01*
X37018Y285104D01*
X37027D01*
X37078Y285106D01*
X37126Y285109D01*
X37170Y285116D01*
X37211Y285124D01*
X37247Y285134D01*
X37280Y285144D01*
X37309Y285155D01*
X37336Y285168D01*
X37359Y285180D01*
X37378Y285191D01*
X37396Y285201D01*
X37409Y285211D01*
X37419Y285219D01*
X37427Y285226D01*
X37431Y285229D01*
X37432Y285230D01*
X37454Y285255D01*
X37473Y285280D01*
X37490Y285306D01*
X37503Y285332D01*
X37516Y285358D01*
X37526Y285383D01*
X37534Y285408D01*
X37541Y285431D01*
X37545Y285454D01*
X37549Y285473D01*
X37552Y285491D01*
X37554Y285506D01*
X37555Y285519D01*
Y285527D01*
Y285534D01*
Y285536D01*
X37552Y285581D01*
X37545Y285624D01*
X37536Y285662D01*
X37524Y285695D01*
X37518Y285709D01*
X37511Y285722D01*
X37506Y285734D01*
X37501Y285742D01*
X37498Y285750D01*
X37495Y285755D01*
X37491Y285759D01*
Y285760D01*
X37465Y285796D01*
X37437Y285826D01*
X37408Y285852D01*
X37380Y285873D01*
X37354Y285891D01*
X37342Y285898D01*
X37334Y285903D01*
X37326Y285908D01*
X37319Y285911D01*
X37316Y285913D01*
X37314D01*
X37270Y285931D01*
X37224Y285944D01*
X37178Y285952D01*
X37137Y285959D01*
X37117Y285960D01*
X37099Y285962D01*
X37085Y285964D01*
X37072Y285965D01*
D02*
G37*
G36*
X-10309Y333992D02*
Y333563D01*
X-9940Y333701D01*
X-9895Y333718D01*
X-9851Y333731D01*
X-9810Y333742D01*
X-9774Y333752D01*
X-9758Y333757D01*
X-9743Y333760D01*
X-9730Y333764D01*
X-9718Y333765D01*
X-9708Y333767D01*
X-9702Y333769D01*
X-9698Y333770D01*
X-9697D01*
X-9738Y333783D01*
X-9782Y333796D01*
X-9826Y333811D01*
X-9867Y333826D01*
X-9887Y333833D01*
X-9905Y333839D01*
X-9922Y333846D01*
X-9935Y333851D01*
X-9946Y333854D01*
X-9954Y333857D01*
X-9959Y333860D01*
X-9961D01*
X-10309Y333992D01*
D02*
G37*
G36*
X21328Y287256D02*
X21309D01*
X21258Y287254D01*
X21210Y287251D01*
X21169Y287244D01*
X21151Y287241D01*
X21133Y287240D01*
X21119Y287236D01*
X21105Y287233D01*
X21094Y287230D01*
X21084Y287226D01*
X21076Y287225D01*
X21071Y287223D01*
X21068Y287221D01*
X21066D01*
X21030Y287208D01*
X20999Y287194D01*
X20971Y287179D01*
X20948Y287164D01*
X20930Y287149D01*
X20917Y287139D01*
X20909Y287133D01*
X20905Y287130D01*
X20891Y287113D01*
X20877Y287093D01*
X20868Y287075D01*
X20858Y287057D01*
X20851Y287041D01*
X20846Y287028D01*
X20843Y287020D01*
X20841Y287018D01*
Y287016D01*
X20833Y286989D01*
X20828Y286956D01*
X20823Y286923D01*
X20822Y286892D01*
X20820Y286864D01*
X20818Y286852D01*
Y286843D01*
Y286833D01*
Y286826D01*
Y286823D01*
Y286821D01*
Y286552D01*
X21781D01*
Y286816D01*
Y286844D01*
X21779Y286869D01*
Y286892D01*
X21778Y286913D01*
X21775Y286933D01*
X21773Y286951D01*
X21771Y286967D01*
X21768Y286980D01*
X21766Y286994D01*
X21763Y287003D01*
X21761Y287013D01*
X21760Y287020D01*
X21758Y287026D01*
X21757Y287030D01*
X21755Y287033D01*
X21747Y287049D01*
X21738Y287066D01*
X21717Y287097D01*
X21694Y287123D01*
X21670Y287146D01*
X21648Y287164D01*
X21630Y287179D01*
X21622Y287184D01*
X21617Y287187D01*
X21614Y287190D01*
X21612D01*
X21591Y287202D01*
X21568Y287212D01*
X21520Y287228D01*
X21470Y287240D01*
X21420Y287248D01*
X21397Y287251D01*
X21376Y287253D01*
X21358Y287254D01*
X21342D01*
X21328Y287256D01*
D02*
G37*
G36*
X40019Y347994D02*
X39941D01*
X39892Y347986D01*
X39802Y347965D01*
X39724Y347937D01*
X39654Y347904D01*
X39601Y347867D01*
X39560Y347838D01*
X39535Y347818D01*
X39527Y347814D01*
Y347810D01*
X39494Y347777D01*
X39465Y347740D01*
X39420Y347662D01*
X39388Y347584D01*
X39367Y347510D01*
X39351Y347445D01*
X39347Y347416D01*
Y347395D01*
X39342Y347375D01*
Y347359D01*
Y347350D01*
Y347346D01*
Y347297D01*
X39351Y347248D01*
X39371Y347162D01*
X39400Y347084D01*
X39433Y347018D01*
X39465Y346965D01*
X39494Y346928D01*
X39515Y346903D01*
X39519Y346899D01*
X39523Y346895D01*
X39556Y346863D01*
X39592Y346838D01*
X39670Y346793D01*
X39748Y346764D01*
X39818Y346740D01*
X39884Y346727D01*
X39912Y346723D01*
X39937D01*
X39953Y346719D01*
X39982D01*
X40048Y346723D01*
X40109Y346731D01*
X40162Y346744D01*
X40216Y346760D01*
X40257Y346776D01*
X40285Y346789D01*
X40306Y346797D01*
X40314Y346801D01*
X40367Y346838D01*
X40417Y346875D01*
X40458Y346916D01*
X40490Y346953D01*
X40515Y346986D01*
X40531Y347014D01*
X40544Y347031D01*
X40548Y347039D01*
X40572Y347096D01*
X40589Y347154D01*
X40605Y347211D01*
X40613Y347260D01*
X40617Y347301D01*
X40622Y347334D01*
Y347355D01*
Y347363D01*
X40617Y347412D01*
X40613Y347461D01*
X40593Y347547D01*
X40564Y347625D01*
X40531Y347691D01*
X40503Y347744D01*
X40474Y347781D01*
X40453Y347806D01*
X40445Y347814D01*
X40413Y347847D01*
X40376Y347875D01*
X40302Y347916D01*
X40224Y347949D01*
X40154Y347974D01*
X40089Y347986D01*
X40064Y347990D01*
X40039D01*
X40019Y347994D01*
D02*
G37*
G36*
X21328Y336092D02*
X21309D01*
X21258Y336091D01*
X21210Y336087D01*
X21169Y336081D01*
X21151Y336078D01*
X21133Y336076D01*
X21119Y336073D01*
X21105Y336069D01*
X21094Y336066D01*
X21084Y336063D01*
X21076Y336061D01*
X21071Y336060D01*
X21068Y336058D01*
X21066D01*
X21030Y336045D01*
X20999Y336030D01*
X20971Y336015D01*
X20948Y336001D01*
X20930Y335986D01*
X20917Y335976D01*
X20909Y335969D01*
X20905Y335966D01*
X20891Y335950D01*
X20877Y335930D01*
X20868Y335912D01*
X20858Y335894D01*
X20851Y335878D01*
X20846Y335864D01*
X20843Y335856D01*
X20841Y335855D01*
Y335853D01*
X20833Y335825D01*
X20828Y335792D01*
X20823Y335759D01*
X20822Y335728D01*
X20820Y335700D01*
X20818Y335689D01*
Y335679D01*
Y335669D01*
Y335663D01*
Y335660D01*
Y335658D01*
Y335389D01*
X21781D01*
Y335653D01*
Y335681D01*
X21779Y335705D01*
Y335728D01*
X21778Y335750D01*
X21775Y335769D01*
X21773Y335787D01*
X21771Y335804D01*
X21768Y335817D01*
X21766Y335830D01*
X21763Y335840D01*
X21761Y335850D01*
X21760Y335856D01*
X21758Y335863D01*
X21757Y335866D01*
X21755Y335869D01*
X21747Y335886D01*
X21738Y335902D01*
X21717Y335933D01*
X21694Y335960D01*
X21670Y335982D01*
X21648Y336001D01*
X21630Y336015D01*
X21622Y336020D01*
X21617Y336023D01*
X21614Y336027D01*
X21612D01*
X21591Y336038D01*
X21568Y336048D01*
X21520Y336065D01*
X21470Y336076D01*
X21420Y336084D01*
X21397Y336087D01*
X21376Y336089D01*
X21358Y336091D01*
X21342D01*
X21328Y336092D01*
D02*
G37*
G36*
X13454D02*
X13435D01*
X13384Y336091D01*
X13336Y336087D01*
X13295Y336081D01*
X13277Y336078D01*
X13259Y336076D01*
X13245Y336073D01*
X13231Y336069D01*
X13220Y336066D01*
X13210Y336063D01*
X13202Y336061D01*
X13197Y336060D01*
X13194Y336058D01*
X13192D01*
X13156Y336045D01*
X13125Y336030D01*
X13097Y336015D01*
X13074Y336001D01*
X13056Y335986D01*
X13043Y335976D01*
X13035Y335969D01*
X13031Y335966D01*
X13017Y335950D01*
X13003Y335930D01*
X12994Y335912D01*
X12984Y335894D01*
X12977Y335878D01*
X12972Y335864D01*
X12969Y335856D01*
X12967Y335855D01*
Y335853D01*
X12959Y335825D01*
X12954Y335792D01*
X12949Y335759D01*
X12948Y335728D01*
X12946Y335700D01*
X12944Y335689D01*
Y335679D01*
Y335669D01*
Y335663D01*
Y335660D01*
Y335658D01*
Y335389D01*
X13907D01*
Y335653D01*
Y335681D01*
X13905Y335705D01*
Y335728D01*
X13904Y335750D01*
X13901Y335769D01*
X13899Y335787D01*
X13897Y335804D01*
X13894Y335817D01*
X13892Y335830D01*
X13889Y335840D01*
X13887Y335850D01*
X13886Y335856D01*
X13884Y335863D01*
X13882Y335866D01*
X13881Y335869D01*
X13873Y335886D01*
X13864Y335902D01*
X13843Y335933D01*
X13820Y335960D01*
X13796Y335982D01*
X13774Y336001D01*
X13756Y336015D01*
X13748Y336020D01*
X13743Y336023D01*
X13740Y336027D01*
X13738D01*
X13717Y336038D01*
X13694Y336048D01*
X13646Y336065D01*
X13596Y336076D01*
X13546Y336084D01*
X13523Y336087D01*
X13502Y336089D01*
X13484Y336091D01*
X13468D01*
X13454Y336092D01*
D02*
G37*
G36*
X-2029Y284317D02*
X-2038D01*
X-2061Y284315D01*
X-2080Y284312D01*
X-2100Y284306D01*
X-2116Y284301D01*
X-2131Y284294D01*
X-2141Y284288D01*
X-2149Y284284D01*
X-2151Y284283D01*
X-2169Y284269D01*
X-2185Y284253D01*
X-2198Y284237D01*
X-2208Y284222D01*
X-2217Y284207D01*
X-2221Y284196D01*
X-2225Y284187D01*
X-2226Y284184D01*
X-2235Y284158D01*
X-2239Y284130D01*
X-2244Y284099D01*
X-2246Y284071D01*
X-2248Y284045D01*
X-2249Y284033D01*
Y284025D01*
Y284017D01*
Y284010D01*
Y284007D01*
Y284005D01*
Y283648D01*
X-1831D01*
Y284046D01*
Y284071D01*
X-1834Y284096D01*
X-1836Y284117D01*
X-1841Y284137D01*
X-1844Y284156D01*
X-1849Y284173D01*
X-1856Y284187D01*
X-1861Y284201D01*
X-1872Y284224D01*
X-1880Y284238D01*
X-1887Y284248D01*
X-1890Y284251D01*
X-1913Y284273D01*
X-1938Y284289D01*
X-1962Y284301D01*
X-1985Y284309D01*
X-2007Y284314D01*
X-2023Y284315D01*
X-2029Y284317D01*
D02*
G37*
G36*
X-10168Y286036D02*
X-10187D01*
X-10238Y286034D01*
X-10286Y286031D01*
X-10327Y286024D01*
X-10345Y286021D01*
X-10363Y286019D01*
X-10378Y286016D01*
X-10391Y286013D01*
X-10402Y286010D01*
X-10412Y286006D01*
X-10420Y286005D01*
X-10425Y286003D01*
X-10428Y286001D01*
X-10430D01*
X-10466Y285988D01*
X-10497Y285973D01*
X-10525Y285959D01*
X-10548Y285944D01*
X-10566Y285929D01*
X-10579Y285919D01*
X-10587Y285913D01*
X-10591Y285909D01*
X-10605Y285893D01*
X-10619Y285873D01*
X-10628Y285855D01*
X-10638Y285837D01*
X-10645Y285821D01*
X-10650Y285808D01*
X-10653Y285800D01*
X-10655Y285798D01*
Y285796D01*
X-10663Y285768D01*
X-10668Y285736D01*
X-10673Y285703D01*
X-10674Y285672D01*
X-10676Y285644D01*
X-10678Y285632D01*
Y285622D01*
Y285613D01*
Y285606D01*
Y285603D01*
Y285601D01*
Y285332D01*
X-9715D01*
Y285596D01*
Y285624D01*
X-9717Y285649D01*
Y285672D01*
X-9718Y285693D01*
X-9721Y285713D01*
X-9723Y285731D01*
X-9725Y285747D01*
X-9728Y285760D01*
X-9730Y285773D01*
X-9733Y285783D01*
X-9735Y285793D01*
X-9736Y285800D01*
X-9738Y285806D01*
X-9740Y285809D01*
X-9741Y285813D01*
X-9749Y285829D01*
X-9758Y285845D01*
X-9779Y285877D01*
X-9802Y285903D01*
X-9826Y285926D01*
X-9848Y285944D01*
X-9866Y285959D01*
X-9874Y285964D01*
X-9879Y285967D01*
X-9882Y285970D01*
X-9884D01*
X-9905Y285982D01*
X-9928Y285991D01*
X-9976Y286008D01*
X-10026Y286019D01*
X-10076Y286028D01*
X-10099Y286031D01*
X-10120Y286032D01*
X-10138Y286034D01*
X-10154D01*
X-10168Y286036D01*
D02*
G37*
G36*
X21187Y290559D02*
Y290131D01*
X21556Y290269D01*
X21601Y290285D01*
X21645Y290298D01*
X21686Y290310D01*
X21722Y290319D01*
X21738Y290324D01*
X21753Y290328D01*
X21766Y290331D01*
X21778Y290333D01*
X21788Y290334D01*
X21794Y290336D01*
X21798Y290337D01*
X21799D01*
X21758Y290351D01*
X21714Y290364D01*
X21670Y290378D01*
X21629Y290393D01*
X21609Y290400D01*
X21591Y290406D01*
X21575Y290413D01*
X21561Y290418D01*
X21550Y290421D01*
X21542Y290424D01*
X21537Y290428D01*
X21535D01*
X21187Y290559D01*
D02*
G37*
G36*
X5580Y336517D02*
X5561D01*
X5510Y336515D01*
X5462Y336512D01*
X5421Y336506D01*
X5403Y336502D01*
X5385Y336501D01*
X5370Y336497D01*
X5357Y336494D01*
X5346Y336491D01*
X5336Y336488D01*
X5328Y336486D01*
X5323Y336484D01*
X5320Y336483D01*
X5318D01*
X5282Y336470D01*
X5251Y336455D01*
X5223Y336440D01*
X5200Y336425D01*
X5182Y336411D01*
X5169Y336401D01*
X5161Y336394D01*
X5157Y336391D01*
X5143Y336374D01*
X5129Y336355D01*
X5120Y336337D01*
X5110Y336319D01*
X5103Y336302D01*
X5098Y336289D01*
X5095Y336281D01*
X5093Y336279D01*
Y336278D01*
X5085Y336250D01*
X5080Y336217D01*
X5075Y336184D01*
X5074Y336153D01*
X5072Y336125D01*
X5070Y336114D01*
Y336104D01*
Y336094D01*
Y336087D01*
Y336084D01*
Y336083D01*
Y335814D01*
X6033D01*
Y336078D01*
Y336105D01*
X6032Y336130D01*
Y336153D01*
X6030Y336174D01*
X6027Y336194D01*
X6025Y336212D01*
X6023Y336228D01*
X6020Y336242D01*
X6018Y336255D01*
X6015Y336265D01*
X6013Y336274D01*
X6012Y336281D01*
X6010Y336288D01*
X6008Y336291D01*
X6007Y336294D01*
X5999Y336311D01*
X5990Y336327D01*
X5969Y336358D01*
X5946Y336384D01*
X5922Y336407D01*
X5900Y336425D01*
X5882Y336440D01*
X5874Y336445D01*
X5869Y336448D01*
X5866Y336452D01*
X5864D01*
X5843Y336463D01*
X5820Y336473D01*
X5772Y336489D01*
X5722Y336501D01*
X5672Y336509D01*
X5649Y336512D01*
X5628Y336514D01*
X5610Y336515D01*
X5594D01*
X5580Y336517D01*
D02*
G37*
G36*
X21187Y288309D02*
Y287881D01*
X21556Y288018D01*
X21601Y288035D01*
X21645Y288048D01*
X21686Y288059D01*
X21722Y288069D01*
X21738Y288074D01*
X21753Y288077D01*
X21766Y288081D01*
X21778Y288082D01*
X21788Y288084D01*
X21794Y288086D01*
X21798Y288087D01*
X21799D01*
X21758Y288101D01*
X21714Y288114D01*
X21670Y288128D01*
X21629Y288143D01*
X21609Y288150D01*
X21591Y288156D01*
X21575Y288163D01*
X21561Y288168D01*
X21550Y288171D01*
X21542Y288174D01*
X21537Y288178D01*
X21535D01*
X21187Y288309D01*
D02*
G37*
G36*
X29199Y286213D02*
X29173D01*
X29124Y286211D01*
X29078Y286206D01*
X29035Y286200D01*
X28996Y286190D01*
X28960Y286178D01*
X28927Y286167D01*
X28898Y286152D01*
X28871Y286139D01*
X28847Y286126D01*
X28827Y286113D01*
X28809Y286100D01*
X28794Y286088D01*
X28784Y286078D01*
X28776Y286072D01*
X28771Y286067D01*
X28769Y286065D01*
X28797Y286028D01*
X28822Y285988D01*
X28843Y285949D01*
X28860Y285911D01*
X28868Y285895D01*
X28874Y285878D01*
X28879Y285863D01*
X28883Y285852D01*
X28886Y285842D01*
X28889Y285834D01*
X28891Y285829D01*
Y285827D01*
X28769Y285786D01*
X28760Y285819D01*
X28750Y285849D01*
X28737Y285877D01*
X28725Y285901D01*
X28715Y285923D01*
X28706Y285939D01*
X28699Y285949D01*
X28697Y285950D01*
Y285952D01*
X28686Y285923D01*
X28678Y285893D01*
X28673Y285863D01*
X28670Y285839D01*
X28666Y285816D01*
X28665Y285798D01*
Y285791D01*
Y285786D01*
Y285785D01*
Y285783D01*
X28666Y285749D01*
X28670Y285716D01*
X28676Y285685D01*
X28686Y285655D01*
X28696Y285627D01*
X28706Y285603D01*
X28719Y285578D01*
X28730Y285557D01*
X28742Y285539D01*
X28755Y285522D01*
X28765Y285508D01*
X28776Y285494D01*
X28784Y285486D01*
X28791Y285478D01*
X28794Y285475D01*
X28796Y285473D01*
X28822Y285452D01*
X28850Y285434D01*
X28879Y285417D01*
X28911Y285403D01*
X28942Y285391D01*
X28973Y285381D01*
X29004Y285373D01*
X29034Y285367D01*
X29061Y285362D01*
X29088Y285358D01*
X29112Y285355D01*
X29132Y285353D01*
X29150D01*
X29162Y285352D01*
X29173D01*
X29219Y285353D01*
X29261Y285357D01*
X29302Y285363D01*
X29339Y285371D01*
X29373Y285380D01*
X29404Y285390D01*
X29432Y285401D01*
X29458Y285413D01*
X29480Y285424D01*
X29499Y285436D01*
X29516Y285445D01*
X29529Y285454D01*
X29540Y285462D01*
X29547Y285468D01*
X29552Y285472D01*
X29553Y285473D01*
X29576Y285498D01*
X29596Y285522D01*
X29612Y285547D01*
X29627Y285573D01*
X29640Y285599D01*
X29650Y285626D01*
X29658Y285650D01*
X29665Y285675D01*
X29670Y285696D01*
X29675Y285718D01*
X29678Y285736D01*
X29680Y285752D01*
X29681Y285765D01*
Y285775D01*
Y285782D01*
Y285783D01*
X29678Y285829D01*
X29671Y285872D01*
X29662Y285909D01*
X29650Y285942D01*
X29644Y285957D01*
X29637Y285970D01*
X29632Y285982D01*
X29627Y285990D01*
X29624Y285998D01*
X29621Y286003D01*
X29617Y286006D01*
Y286008D01*
X29591Y286044D01*
X29563Y286073D01*
X29534Y286100D01*
X29506Y286121D01*
X29480Y286139D01*
X29468Y286146D01*
X29460Y286151D01*
X29452Y286155D01*
X29445Y286159D01*
X29442Y286160D01*
X29440D01*
X29396Y286178D01*
X29350Y286192D01*
X29306Y286200D01*
X29263Y286206D01*
X29245Y286208D01*
X29227Y286210D01*
X29212Y286211D01*
X29199Y286213D01*
D02*
G37*
G36*
X-2687Y335047D02*
X-2707D01*
X-2758Y335045D01*
X-2805Y335042D01*
X-2846Y335035D01*
X-2864Y335032D01*
X-2882Y335031D01*
X-2897Y335027D01*
X-2910Y335024D01*
X-2922Y335021D01*
X-2932Y335017D01*
X-2940Y335016D01*
X-2945Y335014D01*
X-2948Y335013D01*
X-2950D01*
X-2986Y334999D01*
X-3017Y334985D01*
X-3045Y334970D01*
X-3068Y334955D01*
X-3086Y334940D01*
X-3099Y334930D01*
X-3107Y334924D01*
X-3110Y334921D01*
X-3125Y334904D01*
X-3138Y334885D01*
X-3148Y334866D01*
X-3158Y334848D01*
X-3164Y334832D01*
X-3169Y334819D01*
X-3173Y334811D01*
X-3174Y334809D01*
Y334807D01*
X-3183Y334780D01*
X-3187Y334747D01*
X-3192Y334714D01*
X-3194Y334683D01*
X-3196Y334655D01*
X-3197Y334644D01*
Y334634D01*
Y334624D01*
Y334617D01*
Y334614D01*
Y334612D01*
Y334343D01*
X-2235D01*
Y334607D01*
Y334635D01*
X-2236Y334660D01*
Y334683D01*
X-2238Y334704D01*
X-2241Y334724D01*
X-2243Y334742D01*
X-2245Y334758D01*
X-2248Y334771D01*
X-2249Y334785D01*
X-2253Y334794D01*
X-2254Y334804D01*
X-2256Y334811D01*
X-2258Y334817D01*
X-2259Y334821D01*
X-2261Y334824D01*
X-2269Y334840D01*
X-2277Y334857D01*
X-2299Y334888D01*
X-2321Y334914D01*
X-2346Y334937D01*
X-2368Y334955D01*
X-2386Y334970D01*
X-2394Y334975D01*
X-2399Y334978D01*
X-2402Y334981D01*
X-2403D01*
X-2425Y334993D01*
X-2448Y335003D01*
X-2495Y335019D01*
X-2546Y335031D01*
X-2595Y335039D01*
X-2618Y335042D01*
X-2640Y335044D01*
X-2658Y335045D01*
X-2674D01*
X-2687Y335047D01*
D02*
G37*
G36*
X29467Y284806D02*
X29458D01*
X29435Y284804D01*
X29416Y284801D01*
X29396Y284794D01*
X29380Y284789D01*
X29365Y284783D01*
X29355Y284776D01*
X29347Y284773D01*
X29345Y284771D01*
X29327Y284758D01*
X29311Y284742D01*
X29298Y284725D01*
X29288Y284711D01*
X29280Y284696D01*
X29275Y284684D01*
X29271Y284676D01*
X29270Y284673D01*
X29261Y284647D01*
X29257Y284619D01*
X29252Y284588D01*
X29250Y284560D01*
X29248Y284534D01*
X29247Y284522D01*
Y284514D01*
Y284506D01*
Y284499D01*
Y284496D01*
Y284494D01*
Y284137D01*
X29665D01*
Y284535D01*
Y284560D01*
X29662Y284584D01*
X29660Y284606D01*
X29655Y284625D01*
X29652Y284645D01*
X29647Y284661D01*
X29640Y284676D01*
X29636Y284689D01*
X29624Y284712D01*
X29616Y284727D01*
X29609Y284737D01*
X29606Y284740D01*
X29583Y284761D01*
X29558Y284778D01*
X29534Y284789D01*
X29511Y284798D01*
X29489Y284802D01*
X29473Y284804D01*
X29467Y284806D01*
D02*
G37*
%LPD*%
D38*
X44291Y278543D02*
Y341142D01*
X-19095D02*
X44291D01*
X-19095Y278543D02*
Y341142D01*
Y278543D02*
X44291D01*
M02*
