%FSLAX25Y25*%
%MOIN*%
G70*
G01*
G75*
G04 Layer_Color=16711935*
%ADD10R,0.02362X0.03937*%
%ADD11R,0.03937X0.02756*%
%ADD12R,0.07480X0.03150*%
%ADD13R,0.03150X0.07480*%
%ADD14R,0.03150X0.09843*%
%ADD15R,0.02362X0.05906*%
%ADD16R,0.06299X0.01575*%
%ADD17R,0.02362X0.05118*%
%ADD18O,0.06496X0.02165*%
%ADD19O,0.02165X0.06496*%
%ADD20R,0.06299X0.07874*%
%ADD21R,0.02756X0.03937*%
%ADD22R,0.01969X0.03937*%
%ADD23C,0.00787*%
%ADD24C,0.05906*%
%ADD25R,0.05906X0.05906*%
%ADD26C,0.04724*%
%ADD27R,0.05906X0.05906*%
%ADD28C,0.07874*%
G04:AMPARAMS|DCode=29|XSize=78.74mil|YSize=78.74mil|CornerRadius=19.69mil|HoleSize=0mil|Usage=FLASHONLY|Rotation=270.000|XOffset=0mil|YOffset=0mil|HoleType=Round|Shape=RoundedRectangle|*
%AMROUNDEDRECTD29*
21,1,0.07874,0.03937,0,0,270.0*
21,1,0.03937,0.07874,0,0,270.0*
1,1,0.03937,-0.01969,-0.01969*
1,1,0.03937,-0.01969,0.01969*
1,1,0.03937,0.01969,0.01969*
1,1,0.03937,0.01969,-0.01969*
%
%ADD29ROUNDEDRECTD29*%
%ADD30C,0.02756*%
%ADD31R,0.04724X0.04724*%
%ADD32C,0.07874*%
%ADD33C,0.05906*%
%ADD34C,0.01000*%
%ADD35C,0.00984*%
%ADD36C,0.02362*%
%ADD37C,0.00394*%
%ADD38R,0.03162X0.04737*%
%ADD39R,0.04737X0.03556*%
%ADD40R,0.08280X0.03950*%
%ADD41R,0.03950X0.08280*%
%ADD42R,0.03950X0.10642*%
%ADD43R,0.03162X0.06706*%
%ADD44R,0.07099X0.02375*%
%ADD45R,0.03162X0.05918*%
%ADD46O,0.07296X0.02965*%
%ADD47O,0.02965X0.07296*%
%ADD48R,0.07099X0.08674*%
%ADD49R,0.03556X0.04737*%
%ADD50R,0.02769X0.04737*%
%ADD51C,0.06706*%
%ADD52R,0.06706X0.06706*%
%ADD53C,0.05524*%
%ADD54R,0.06706X0.06706*%
%ADD55C,0.08674*%
G04:AMPARAMS|DCode=56|XSize=86.74mil|YSize=86.74mil|CornerRadius=23.69mil|HoleSize=0mil|Usage=FLASHONLY|Rotation=270.000|XOffset=0mil|YOffset=0mil|HoleType=Round|Shape=RoundedRectangle|*
%AMROUNDEDRECTD56*
21,1,0.08674,0.03937,0,0,270.0*
21,1,0.03937,0.08674,0,0,270.0*
1,1,0.04737,-0.01969,-0.01969*
1,1,0.04737,-0.01969,0.01969*
1,1,0.04737,0.01969,0.01969*
1,1,0.04737,0.01969,-0.01969*
%
%ADD56ROUNDEDRECTD56*%
%ADD57C,0.00800*%
%ADD58C,0.03556*%
%ADD59R,0.05524X0.05524*%
D51*
X55945Y-5906D02*
D03*
X108268Y-22638D02*
D03*
Y-50197D02*
D03*
X4921Y-100197D02*
D03*
Y-90197D02*
D03*
Y-80197D02*
D03*
Y-70197D02*
D03*
Y-60197D02*
D03*
X4921Y-32638D02*
D03*
X35433Y-21496D02*
D03*
X45433Y-31496D02*
D03*
Y-21496D02*
D03*
X55433Y-31496D02*
D03*
Y-21496D02*
D03*
D52*
X65945Y-5906D02*
D03*
X35433Y-31496D02*
D03*
D53*
X36260Y-7874D02*
D03*
X46260D02*
D03*
D54*
X108268Y-32638D02*
D03*
Y-60197D02*
D03*
X4921Y-50197D02*
D03*
X4921Y-22638D02*
D03*
D55*
X96457Y-60551D02*
D03*
Y-70551D02*
D03*
Y-80551D02*
D03*
D56*
Y-90551D02*
D03*
D57*
X57087Y-116142D02*
D03*
D58*
X66043Y-111614D02*
D03*
X77165Y-111122D02*
D03*
X74114Y-113189D02*
D03*
X79236Y-19884D02*
D03*
X103636Y-3284D02*
D03*
X46536Y-46384D02*
D03*
X87936Y-42284D02*
D03*
X32036Y-80584D02*
D03*
X70136Y-72584D02*
D03*
X13336Y-3584D02*
D03*
X88236Y-9084D02*
D03*
X22586Y-23534D02*
D03*
X41036Y-43084D02*
D03*
X36836Y-54284D02*
D03*
X18636Y-58984D02*
D03*
X70436Y-53084D02*
D03*
X75836Y-28784D02*
D03*
X62736Y-67984D02*
D03*
X82736Y-44684D02*
D03*
X77436Y-87084D02*
D03*
X71936Y-63384D02*
D03*
X97436Y-37284D02*
D03*
X60136Y-65284D02*
D03*
X31936Y-13484D02*
D03*
X70644Y-88972D02*
D03*
X37836Y-77784D02*
D03*
X57283Y-85684D02*
D03*
X37619Y-90567D02*
D03*
X58536Y-53684D02*
D03*
X56236Y-60784D02*
D03*
X92536Y-101181D02*
D03*
X51962Y-62812D02*
D03*
X32936Y-60284D02*
D03*
X65836Y-86584D02*
D03*
X24606Y-40354D02*
D03*
X58936Y-94084D02*
D03*
X45276Y-111909D02*
D03*
X8563Y-15256D02*
D03*
X108858Y-100984D02*
D03*
X55610Y-68504D02*
D03*
X60236Y-56890D02*
D03*
X11811Y-67126D02*
D03*
X71736Y-57584D02*
D03*
X83445Y-80216D02*
D03*
D59*
X80118Y-101378D02*
D03*
X72244D02*
D03*
X64370D02*
D03*
X56496D02*
D03*
X48622D02*
D03*
X40748D02*
D03*
X32874D02*
D03*
Y-38780D02*
D03*
X40748D02*
D03*
X48622D02*
D03*
X56496D02*
D03*
X64370D02*
D03*
X72244D02*
D03*
X80118D02*
D03*
M02*
