%FSLAX25Y25*%
%MOIN*%
G70*
G01*
G75*
G04 Layer_Color=255*
%ADD10R,0.02362X0.03937*%
%ADD11R,0.03937X0.02756*%
%ADD12R,0.07480X0.03150*%
%ADD13R,0.03150X0.07480*%
%ADD14R,0.03150X0.09843*%
%ADD15R,0.02362X0.05906*%
%ADD16R,0.06299X0.01575*%
%ADD17R,0.02362X0.05118*%
%ADD18O,0.06496X0.02165*%
%ADD19O,0.02165X0.06496*%
%ADD20R,0.06299X0.07874*%
%ADD21R,0.02756X0.03937*%
%ADD22R,0.01969X0.03937*%
%ADD23C,0.00787*%
%ADD24C,0.05906*%
%ADD25R,0.05906X0.05906*%
%ADD26C,0.04724*%
%ADD27R,0.05906X0.05906*%
%ADD28C,0.07874*%
G04:AMPARAMS|DCode=29|XSize=78.74mil|YSize=78.74mil|CornerRadius=19.69mil|HoleSize=0mil|Usage=FLASHONLY|Rotation=270.000|XOffset=0mil|YOffset=0mil|HoleType=Round|Shape=RoundedRectangle|*
%AMROUNDEDRECTD29*
21,1,0.07874,0.03937,0,0,270.0*
21,1,0.03937,0.07874,0,0,270.0*
1,1,0.03937,-0.01969,-0.01969*
1,1,0.03937,-0.01969,0.01969*
1,1,0.03937,0.01969,0.01969*
1,1,0.03937,0.01969,-0.01969*
%
%ADD29ROUNDEDRECTD29*%
%ADD30C,0.02756*%
%ADD31R,0.04724X0.04724*%
%ADD32C,0.07874*%
%ADD33C,0.05906*%
D21*
X49409Y-380709D02*
D03*
X64567Y-380610D02*
D03*
D24*
X55945Y-5906D02*
D03*
X108268Y-22638D02*
D03*
Y-50197D02*
D03*
X4921Y-100197D02*
D03*
Y-90197D02*
D03*
Y-80197D02*
D03*
Y-70197D02*
D03*
Y-60197D02*
D03*
X4921Y-32638D02*
D03*
X35433Y-21496D02*
D03*
X45433Y-31496D02*
D03*
Y-21496D02*
D03*
X55433Y-31496D02*
D03*
Y-21496D02*
D03*
D25*
X65945Y-5906D02*
D03*
X35433Y-31496D02*
D03*
D26*
X36260Y-7874D02*
D03*
X46260D02*
D03*
D27*
X108268Y-32638D02*
D03*
Y-60197D02*
D03*
X4921Y-50197D02*
D03*
X4921Y-22638D02*
D03*
D28*
X96457Y-60551D02*
D03*
Y-70551D02*
D03*
Y-80551D02*
D03*
D29*
Y-90551D02*
D03*
D31*
X80118Y-101378D02*
D03*
X72244D02*
D03*
X64370D02*
D03*
X56496D02*
D03*
X48622D02*
D03*
X40748D02*
D03*
X32874D02*
D03*
Y-38780D02*
D03*
X40748D02*
D03*
X48622D02*
D03*
X56496D02*
D03*
X64370D02*
D03*
X72244D02*
D03*
X80118D02*
D03*
M02*
