M48
;Layer_Color=9474304
;FILE_FORMAT=2:5
INCH,LZ
;TYPE=PLATED
T1F00S00C0.01575
T2F00S00C0.02362
T3F00S00C0.02756
T4F00S00C0.03543
T5F00S00C0.03937
T6F00S00C0.05118
T7F00S00C0.05906
;TYPE=NON_PLATED
%
T01
X0472Y0272509
X04438Y0269909
X04474Y02135
X0430118Y0194882
X034252Y0250984
X02725Y0278
X02557Y02742
X02484Y02833
X0228346Y02863
X022461Y030689
X0248319
X02592Y02988
X0169579Y030689
X01579Y02758
X014591Y030689
X01496Y03349
Y035492
X01616Y03449
X0207Y03234
X0260847Y0313653
X0265866Y03137
X0260748Y0341865
X0290354Y0327756
X0318898Y0319882
T02
X0260945Y0325315
Y0330315
X0265945
Y0325315
X0256245Y0361415
X0251245
Y0366415
X0256245
T03
X0405905Y0267224
X0450787Y0235335
T04
X0493968Y0246484
Y0256484
Y0266484
X0466409
Y0256484
Y0246484
X043885
Y0256484
Y0266484
X0165545Y0324815
Y0334815
Y0344815
Y0354815
Y0364815
T05
X0145669Y0116142
Y0135827
X0483648Y0295276
X0493648
X0503648
X0452994
X0442994
X0432994
X0401286
X0391286
X0381286
X037237Y0266118
X0352685
X0313315
X037237Y0187378
X029363
X023837Y017163
Y025037
X0218685
X0179315
X015963
Y017163
X029363Y0266118
T06
X0165354Y0125984
X0185354
X0212598
X0232598
X0259843
X0279843
X0307087
X0327087
X0305118Y0346457
X0291339
X0318898
X0345642
X0365642
X0392386
X0412386
X043913
X045913
X0485874
X0505874
T07
X0364173Y0110236
X0412205
X0420079Y0133858
X0450787Y0110236
X0498819
X0506693Y0133858
X0498819Y015748
X0450787
X0412205
X0364173
M30
