%FSLAX25Y25*%
%MOIN*%
G70*
G01*
G75*
G04 Layer_Color=255*
%ADD10R,0.02756X0.03937*%
%ADD11R,0.03937X0.02756*%
%ADD12R,0.02165X0.05709*%
%ADD13R,0.05709X0.02165*%
%ADD14R,0.03150X0.04134*%
%ADD15R,0.04724X0.14567*%
%ADD16R,0.16339X0.05000*%
%ADD17R,0.09449X0.02992*%
%ADD18R,0.02992X0.09449*%
%ADD19C,0.01969*%
%ADD20C,0.03937*%
%ADD21C,0.00787*%
%ADD22C,0.03937*%
%ADD23C,0.05118*%
%ADD24C,0.05906*%
%ADD25R,0.05906X0.05906*%
%ADD26R,0.11811X0.11811*%
%ADD27C,0.11811*%
%ADD28C,0.06299*%
%ADD29R,0.06299X0.06299*%
%ADD30C,0.07874*%
%ADD31C,0.09843*%
%ADD32C,0.02362*%
%ADD33C,0.04724*%
D22*
X260945Y330315D02*
D03*
X251245Y361415D02*
D03*
X256245D02*
D03*
Y366415D02*
D03*
X251245D02*
D03*
X265945Y330315D02*
D03*
X260945Y325315D02*
D03*
X265945D02*
D03*
D23*
X165545Y364815D02*
D03*
Y354815D02*
D03*
Y344815D02*
D03*
Y334815D02*
D03*
Y324815D02*
D03*
D24*
X493968Y266484D02*
D03*
Y256484D02*
D03*
X466409Y266484D02*
D03*
Y256484D02*
D03*
X438850Y266484D02*
D03*
Y256484D02*
D03*
D25*
X493968Y246484D02*
D03*
X466409D02*
D03*
X438850D02*
D03*
D26*
X412386Y346457D02*
D03*
X459130D02*
D03*
X505874D02*
D03*
X291339D02*
D03*
X212598Y125984D02*
D03*
X165354D02*
D03*
X259843D02*
D03*
X365642Y346457D02*
D03*
X307087Y125984D02*
D03*
D27*
X392386Y346457D02*
D03*
X439130D02*
D03*
X485874D02*
D03*
X305118D02*
D03*
X318898D02*
D03*
X232598Y125984D02*
D03*
X185354D02*
D03*
X279843D02*
D03*
X345642Y346457D02*
D03*
X327087Y125984D02*
D03*
D28*
X401286Y295276D02*
D03*
X391286D02*
D03*
X452994D02*
D03*
X442994D02*
D03*
X503648D02*
D03*
X493648D02*
D03*
D29*
X381286D02*
D03*
X432994D02*
D03*
X483648D02*
D03*
D30*
X159630Y250370D02*
D03*
X179315D02*
D03*
X218685D02*
D03*
X238370D02*
D03*
Y171630D02*
D03*
X159630D02*
D03*
X293630Y266118D02*
D03*
X313315D02*
D03*
X352685D02*
D03*
X372370D02*
D03*
Y187378D02*
D03*
X293630D02*
D03*
X412205Y157480D02*
D03*
Y110236D02*
D03*
X498819Y157480D02*
D03*
Y110236D02*
D03*
X145669Y116142D02*
D03*
Y135827D02*
D03*
D31*
X364173Y157480D02*
D03*
Y110236D02*
D03*
X420079Y133858D02*
D03*
X450787Y157480D02*
D03*
Y110236D02*
D03*
X506693Y133858D02*
D03*
M02*
