%FSLAX25Y25*%
%MOIN*%
G70*
G01*
G75*
G04 Layer_Color=8388736*
%ADD10R,0.02756X0.03937*%
%ADD11R,0.03937X0.02756*%
%ADD12R,0.02165X0.05709*%
%ADD13R,0.05709X0.02165*%
%ADD14R,0.03150X0.04134*%
%ADD15R,0.04724X0.14567*%
%ADD16R,0.16339X0.05000*%
%ADD17R,0.09449X0.02992*%
%ADD18R,0.02992X0.09449*%
%ADD19C,0.01969*%
%ADD20C,0.03937*%
%ADD21C,0.00787*%
%ADD22C,0.03937*%
%ADD23C,0.05118*%
%ADD24C,0.05906*%
%ADD25R,0.05906X0.05906*%
%ADD26R,0.11811X0.11811*%
%ADD27C,0.11811*%
%ADD28C,0.06299*%
%ADD29R,0.06299X0.06299*%
%ADD30C,0.07874*%
%ADD31C,0.09843*%
%ADD32C,0.02362*%
%ADD33C,0.04724*%
%ADD34C,0.00984*%
%ADD35C,0.00394*%
%ADD36C,0.01000*%
%ADD37C,0.00591*%
%ADD38R,0.03556X0.04737*%
%ADD39R,0.04737X0.03556*%
%ADD40R,0.02965X0.06509*%
%ADD41R,0.06509X0.02965*%
%ADD42R,0.03950X0.04934*%
%ADD43R,0.05524X0.15367*%
%ADD44R,0.17139X0.05800*%
%ADD45R,0.10249X0.03792*%
%ADD46R,0.03792X0.10249*%
%ADD47C,0.04737*%
%ADD48C,0.05918*%
%ADD49C,0.06706*%
%ADD50R,0.06706X0.06706*%
%ADD51R,0.12611X0.12611*%
%ADD52C,0.12611*%
%ADD53C,0.07099*%
%ADD54R,0.07099X0.07099*%
%ADD55C,0.08674*%
%ADD56C,0.10642*%
%ADD57C,0.03162*%
%ADD58C,0.05524*%
D38*
X298031Y311122D02*
D03*
X290551D02*
D03*
D39*
X505780Y262429D02*
D03*
Y269909D02*
D03*
X478220Y262429D02*
D03*
Y269909D02*
D03*
X450661Y262429D02*
D03*
Y269909D02*
D03*
X505779Y242744D02*
D03*
Y250224D02*
D03*
X478221Y242744D02*
D03*
Y250224D02*
D03*
X450661Y242744D02*
D03*
Y250224D02*
D03*
X161516Y275787D02*
D03*
Y283268D02*
D03*
X161496Y299409D02*
D03*
Y306890D02*
D03*
X173229Y299410D02*
D03*
Y306890D02*
D03*
X149508Y306890D02*
D03*
Y299409D02*
D03*
X252027Y283268D02*
D03*
Y275787D02*
D03*
X240157Y299409D02*
D03*
Y306890D02*
D03*
X251969Y299409D02*
D03*
Y306890D02*
D03*
X228248D02*
D03*
Y299409D02*
D03*
X173327Y275787D02*
D03*
Y283268D02*
D03*
D40*
X149606Y281791D02*
D03*
Y272539D02*
D03*
X137795Y281791D02*
D03*
Y272539D02*
D03*
X228346Y281791D02*
D03*
Y272539D02*
D03*
X239311Y281791D02*
D03*
Y272539D02*
D03*
X346457Y302461D02*
D03*
Y311713D02*
D03*
D41*
X429823Y185039D02*
D03*
X420571D02*
D03*
X453445D02*
D03*
X444193D02*
D03*
D42*
X420276Y201673D02*
D03*
X417717Y209744D02*
D03*
X422835D02*
D03*
X444882Y201673D02*
D03*
X442323Y209744D02*
D03*
X447441D02*
D03*
D43*
X200787Y308268D02*
D03*
Y274409D02*
D03*
D44*
X159454Y354920D02*
D03*
Y334920D02*
D03*
X171454Y324920D02*
D03*
Y344920D02*
D03*
Y364920D02*
D03*
D45*
X261222Y361338D02*
D03*
Y366358D02*
D03*
X245867Y366259D02*
D03*
Y361240D02*
D03*
D46*
X265768Y335459D02*
D03*
X260748D02*
D03*
X260847Y320105D02*
D03*
X265866D02*
D03*
D47*
X260945Y330315D02*
D03*
X251245Y361415D02*
D03*
X256245D02*
D03*
Y366415D02*
D03*
X251245D02*
D03*
X265945Y330315D02*
D03*
X260945Y325315D02*
D03*
X265945D02*
D03*
D48*
X165545Y364815D02*
D03*
Y354815D02*
D03*
Y344815D02*
D03*
Y334815D02*
D03*
Y324815D02*
D03*
D49*
X493968Y266484D02*
D03*
Y256484D02*
D03*
X466409Y266484D02*
D03*
Y256484D02*
D03*
X438850Y266484D02*
D03*
Y256484D02*
D03*
D50*
X493968Y246484D02*
D03*
X466409D02*
D03*
X438850D02*
D03*
D51*
X412386Y346457D02*
D03*
X459130D02*
D03*
X505874D02*
D03*
X291339D02*
D03*
X212598Y125984D02*
D03*
X165354D02*
D03*
X259843D02*
D03*
X365642Y346457D02*
D03*
X307087Y125984D02*
D03*
D52*
X392386Y346457D02*
D03*
X439130D02*
D03*
X485874D02*
D03*
X305118D02*
D03*
X318898D02*
D03*
X232598Y125984D02*
D03*
X185354D02*
D03*
X279843D02*
D03*
X345642Y346457D02*
D03*
X327087Y125984D02*
D03*
D53*
X401286Y295276D02*
D03*
X391286D02*
D03*
X452994D02*
D03*
X442994D02*
D03*
X503648D02*
D03*
X493648D02*
D03*
D54*
X381286D02*
D03*
X432994D02*
D03*
X483648D02*
D03*
D55*
X159630Y250370D02*
D03*
X179315D02*
D03*
X218685D02*
D03*
X238370D02*
D03*
Y171630D02*
D03*
X159630D02*
D03*
X293630Y266118D02*
D03*
X313315D02*
D03*
X352685D02*
D03*
X372370D02*
D03*
Y187378D02*
D03*
X293630D02*
D03*
X412205Y157480D02*
D03*
Y110236D02*
D03*
X498819Y157480D02*
D03*
Y110236D02*
D03*
X145669Y116142D02*
D03*
Y135827D02*
D03*
D56*
X364173Y157480D02*
D03*
Y110236D02*
D03*
X420079Y133858D02*
D03*
X450787Y157480D02*
D03*
Y110236D02*
D03*
X506693Y133858D02*
D03*
D57*
X472000Y272509D02*
D03*
X318898Y319882D02*
D03*
X290354Y327756D02*
D03*
X342520Y250984D02*
D03*
X430118Y194882D02*
D03*
X260847Y313653D02*
D03*
X272500Y278000D02*
D03*
X447400Y213500D02*
D03*
X149600Y334900D02*
D03*
Y354920D02*
D03*
X161600Y344900D02*
D03*
X443800Y269909D02*
D03*
X228346Y286300D02*
D03*
X255700Y274200D02*
D03*
X265866Y313700D02*
D03*
X145910Y306890D02*
D03*
X260748Y341865D02*
D03*
X207000Y323400D02*
D03*
X259200Y298800D02*
D03*
X157900Y275800D02*
D03*
X169579Y306890D02*
D03*
X248400Y283300D02*
D03*
X248319Y306890D02*
D03*
X224610D02*
D03*
D58*
X405905Y267224D02*
D03*
X450787Y235335D02*
D03*
M02*
